M48
; DRILL file {KiCad (7.0.0)} date Fri Mar 10 22:11:32 2023
; FORMAT={-:-/ absolute / inch / decimal}
; #@! TF.CreationDate,2023-03-10T22:11:32-08:00
; #@! TF.GenerationSoftware,Kicad,Pcbnew,(7.0.0)
; #@! TF.FileFunction,Plated,1,2,PTH
FMAT,2
INCH
; #@! TA.AperFunction,Plated,PTH,ViaDrill
T1C0.0157
; #@! TA.AperFunction,Plated,PTH,ComponentDrill
T2C0.0315
; #@! TA.AperFunction,Plated,PTH,ComponentDrill
T3C0.0354
; #@! TA.AperFunction,Plated,PTH,ComponentDrill
T4C0.0394
; #@! TA.AperFunction,Plated,PTH,ComponentDrill
T5C0.0433
; #@! TA.AperFunction,Plated,PTH,ComponentDrill
T6C0.0469
; #@! TA.AperFunction,Plated,PTH,ComponentDrill
T7C0.1260
%
G90
G05
T1
X4.14Y-3.74
X4.14Y-3.82
X4.14Y-3.9
X4.14Y-3.98
X4.14Y-4.06
X4.14Y-4.14
X4.14Y-4.21
X4.14Y-4.29
X4.14Y-4.37
X4.14Y-4.45
X4.14Y-4.53
X4.14Y-4.61
X4.22Y-3.74
X4.22Y-3.82
X4.22Y-3.9
X4.22Y-3.98
X4.22Y-4.06
X4.22Y-4.14
X4.22Y-4.21
X4.22Y-4.29
X4.22Y-4.37
X4.22Y-4.45
X4.22Y-4.53
X4.22Y-4.61
X4.22Y-4.69
X4.3Y-3.74
X4.3Y-3.82
X4.3Y-3.9
X4.3Y-3.98
X4.3Y-4.06
X4.3Y-4.14
X4.3Y-4.21
X4.3Y-4.29
X4.3Y-4.37
X4.3Y-4.45
X4.3Y-4.53
X4.3Y-4.61
X4.3Y-4.69
X4.38Y-3.74
X4.38Y-3.82
X4.38Y-3.9
X4.38Y-3.98
X4.38Y-4.06
X4.38Y-4.14
X4.38Y-4.21
X4.38Y-4.29
X4.38Y-4.37
X4.38Y-4.45
X4.38Y-4.53
X4.38Y-4.61
X4.38Y-4.69
X4.38Y-4.77
X4.38Y-4.85
X4.38Y-4.93
X4.46Y-3.9
X4.46Y-3.98
X4.46Y-4.06
X4.46Y-4.14
X4.46Y-4.21
X4.46Y-4.29
X4.46Y-4.37
X4.46Y-4.45
X4.46Y-4.53
X4.46Y-4.69
X4.46Y-4.77
X4.46Y-4.85
X4.46Y-4.93
X4.54Y-3.98
X4.54Y-4.14
X4.54Y-4.21
X4.54Y-4.45
X4.54Y-4.69
X4.54Y-4.77
X4.54Y-4.85
X4.54Y-4.93
X4.57Y-3.055
X4.62Y-4.77
X4.62Y-4.85
X4.62Y-4.93
X4.7Y-4.85
X4.7Y-4.93
X4.7685Y-3.42
X4.7685Y-3.515
X4.78Y-4.85
X4.78Y-4.93
X4.86Y-3.95
X4.86Y-4.03
X4.8604Y-4.9414
X4.8896Y-4.9706
X4.94Y-3.95
X4.94Y-4.03
X5.02Y-3.95
X5.02Y-4.03
X5.02Y-4.36
X5.02Y-4.4
X5.02Y-4.44
X5.02Y-4.48
X5.02Y-4.68
X5.02Y-4.72
X5.03Y-3.595
X5.06Y-4.36
X5.06Y-4.4
X5.06Y-4.44
X5.06Y-4.48
X5.06Y-4.52
X5.06Y-4.68
X5.06Y-4.72
X5.07Y-3.595
X5.07Y-3.635
X5.1Y-3.95
X5.1Y-4.03
X5.1Y-4.36
X5.1Y-4.4
X5.1Y-4.44
X5.1Y-4.48
X5.1Y-4.52
X5.1Y-4.56
X5.1Y-4.6
X5.1Y-4.64
X5.1Y-4.68
X5.1Y-4.72
X5.105Y-4.851
X5.11Y-3.595
X5.11Y-3.635
X5.14Y-4.36
X5.14Y-4.4
X5.14Y-4.44
X5.14Y-4.48
X5.14Y-4.52
X5.14Y-4.56
X5.14Y-4.6
X5.14Y-4.64
X5.14Y-4.68
X5.14Y-4.72
X5.15Y-3.595
X5.15Y-3.635
X5.18Y-3.95
X5.18Y-4.03
X5.18Y-4.11
X5.18Y-4.4
X5.18Y-4.44
X5.18Y-4.48
X5.18Y-4.52
X5.18Y-4.56
X5.18Y-4.6
X5.19Y-3.595
X5.19Y-3.635
X5.19Y-3.675
X5.22Y-4.44
X5.22Y-4.48
X5.22Y-4.52
X5.22Y-4.56
X5.22Y-4.6
X5.23Y-3.595
X5.23Y-3.635
X5.23Y-3.675
X5.26Y-3.95
X5.26Y-4.03
X5.26Y-4.11
X5.26Y-4.48
X5.26Y-4.52
X5.26Y-4.56
X5.27Y-3.595
X5.27Y-3.635
X5.27Y-3.675
X5.3Y-4.48
X5.3Y-4.52
X5.3Y-4.56
X5.31Y-3.595
X5.31Y-3.635
X5.34Y-3.95
X5.34Y-4.03
X5.34Y-4.11
X5.34Y-4.48
X5.34Y-4.52
X5.34Y-4.56
X5.35Y-3.595
X5.35Y-3.635
X5.35Y-3.675
X5.3735Y-3.47
X5.38Y-4.48
X5.38Y-4.52
X5.38Y-4.56
X5.39Y-3.595
X5.39Y-3.635
X5.39Y-3.675
X5.39Y-3.715
X5.42Y-4.48
X5.42Y-4.52
X5.42Y-4.56
X5.43Y-3.595
X5.43Y-3.635
X5.43Y-3.675
X5.43Y-3.715
X5.43Y-3.755
X5.46Y-4.48
X5.46Y-4.52
X5.46Y-4.56
X5.47Y-3.595
X5.47Y-3.635
X5.47Y-3.675
X5.47Y-3.715
X5.47Y-3.755
X5.5Y-4.44
X5.5Y-4.48
X5.5Y-4.52
X5.5Y-4.56
X5.5Y-4.6
X5.5Y-4.64
X5.51Y-3.595
X5.51Y-3.635
X5.51Y-3.675
X5.51Y-3.715
X5.51Y-3.755
X5.54Y-4.4
X5.54Y-4.44
X5.54Y-4.48
X5.54Y-4.52
X5.54Y-4.56
X5.54Y-4.6
X5.54Y-4.64
X5.55Y-3.595
X5.55Y-3.635
X5.55Y-3.675
X5.55Y-3.715
X5.55Y-3.755
X5.58Y-4.4
X5.58Y-4.44
X5.58Y-4.48
X5.58Y-4.52
X5.58Y-4.56
X5.58Y-4.6
X5.58Y-4.64
X5.59Y-3.595
X5.59Y-3.635
X5.59Y-3.675
X5.59Y-3.715
X5.59Y-3.755
X5.62Y-4.4
X5.62Y-4.44
X5.62Y-4.48
X5.62Y-4.52
X5.62Y-4.56
X5.62Y-4.6
X5.62Y-4.64
X5.66Y-4.4
X5.66Y-4.44
X5.66Y-4.48
X5.66Y-4.52
X5.66Y-4.56
X5.66Y-4.6
X5.66Y-4.64
X5.7Y-4.4
X5.7Y-4.44
X5.7Y-4.48
X5.7Y-4.52
X5.7Y-4.56
X5.7Y-4.6
X5.7Y-4.64
X5.7Y-4.68
X5.7Y-4.72
X5.731Y-3.391
X5.74Y-4.4
X5.74Y-4.44
X5.74Y-4.48
X5.74Y-4.52
X5.74Y-4.56
X5.74Y-4.6
X5.74Y-4.64
X5.74Y-4.68
X5.74Y-4.72
X5.74Y-4.76
X5.76Y-3.33
X5.78Y-4.4
X5.78Y-4.44
X5.78Y-4.48
X5.78Y-4.52
X5.78Y-4.56
X5.78Y-4.6
X5.78Y-4.64
X5.78Y-4.68
X5.78Y-4.72
X5.78Y-4.76
X5.79Y-3.287
X5.799Y-2.866
X5.805Y-2.565
X5.82Y-4.4
X5.82Y-4.44
X5.82Y-4.48
X5.82Y-4.52
X5.82Y-4.56
X5.82Y-4.6
X5.82Y-4.64
X5.82Y-4.68
X5.82Y-4.72
X5.82Y-4.76
X5.84Y-2.5327
X5.86Y-3.4145
X5.86Y-4.4
X5.86Y-4.44
X5.86Y-4.48
X5.86Y-4.52
X5.86Y-4.56
X5.86Y-4.6
X5.86Y-4.64
X5.86Y-4.68
X5.86Y-4.72
X5.87Y-2.5
X5.88Y-3.96
X5.88Y-4.04
X5.88Y-4.12
X5.9Y-3.4145
X5.936Y-3.668
X5.96Y-3.96
X5.96Y-4.04
X5.96Y-4.12
X6.04Y-3.96
X6.04Y-4.04
X6.04Y-4.12
X6.07Y-3.3504
X6.12Y-3.96
X6.12Y-4.04
X6.12Y-4.12
X6.2Y-3.96
X6.2Y-4.04
X6.2Y-4.12
X6.22Y-3.094
X6.23Y-2.86
X6.23Y-4.81
X6.23Y-4.89
X6.23Y-4.97
X6.262Y-3.09
X6.28Y-2.72
X6.28Y-2.76
X6.28Y-2.8
X6.28Y-3.96
X6.28Y-4.04
X6.28Y-4.12
X6.3025Y-2.9175
X6.31Y-4.73
X6.31Y-4.81
X6.31Y-4.89
X6.31Y-4.97
X6.32Y-2.72
X6.32Y-2.76
X6.32Y-2.8
X6.3348Y-3.0952
X6.36Y-2.72
X6.36Y-2.76
X6.36Y-2.8
X6.36Y-3.96
X6.36Y-4.04
X6.36Y-4.12
X6.3606Y-2.5667
X6.365Y-3.78
X6.39Y-4.73
X6.39Y-4.81
X6.39Y-4.89
X6.39Y-4.97
X6.4Y-2.72
X6.4Y-2.76
X6.4Y-2.8
X6.4Y-2.92
X6.435Y-3.59
X6.44Y-2.72
X6.44Y-2.76
X6.44Y-2.8
X6.458Y-3.966
X6.458Y-4.006
X6.458Y-4.045
X6.458Y-4.085
X6.47Y-4.18
X6.47Y-4.49
X6.47Y-4.73
X6.47Y-4.81
X6.47Y-4.89
X6.47Y-4.97
X6.498Y-3.966
X6.498Y-4.006
X6.498Y-4.045
X6.498Y-4.085
X6.53Y-2.965
X6.5481Y-3.3207
X6.55Y-4.25
X6.55Y-4.33
X6.55Y-4.41
X6.55Y-4.49
X6.55Y-4.65
X6.55Y-4.73
X6.55Y-4.81
X6.55Y-4.89
X6.55Y-4.97
X6.5551Y-3.3876
X6.624Y-2.86
X6.626Y-3.438
X6.63Y-3.94
X6.63Y-4.02
X6.63Y-4.1
X6.63Y-4.18
X6.63Y-4.25
X6.63Y-4.33
X6.63Y-4.41
X6.63Y-4.49
X6.63Y-4.57
X6.63Y-4.65
X6.63Y-4.73
X6.63Y-4.81
X6.63Y-4.89
X6.63Y-4.97
X6.71Y-3.94
X6.71Y-4.02
X6.71Y-4.1
X6.71Y-4.18
X6.71Y-4.25
X6.71Y-4.33
X6.71Y-4.41
X6.71Y-4.49
X6.71Y-4.57
X6.71Y-4.65
X6.71Y-4.73
X6.75Y-2.525
X6.76Y-3.238
X6.78Y-4.73
X6.79Y-3.94
X6.79Y-4.02
X6.79Y-4.1
X6.79Y-4.18
X6.79Y-4.25
X6.79Y-4.33
X6.79Y-4.41
X6.79Y-4.49
X6.79Y-4.57
X6.79Y-4.65
X6.87Y-3.94
X6.87Y-4.02
X6.87Y-4.1
X6.87Y-4.18
X6.87Y-4.25
X6.87Y-4.33
X6.87Y-4.41
X6.87Y-4.49
X6.87Y-4.57
X6.87Y-4.64
T2
X4.4465Y-2.9747
X4.4465Y-3.2747
X4.6655Y-2.9747
X4.6655Y-3.2747
X4.7655Y-2.9747
X4.7655Y-3.2747
X4.8655Y-2.9747
X4.8655Y-3.2747
X4.9655Y-2.9747
X4.9655Y-3.2747
X5.1851Y-2.9747
X5.1851Y-3.2747
X5.2851Y-2.9747
X5.2851Y-3.2747
X5.3851Y-2.9747
X5.3851Y-3.2747
X5.4851Y-2.9747
X5.4851Y-3.2747
T3
X4.585Y-4.3415
X4.635Y-4.2415
X4.685Y-4.3415
X4.735Y-4.2415
X4.785Y-4.3415
X4.835Y-4.2415
X4.885Y-4.3415
X4.935Y-4.2415
X6.065Y-4.3415
X6.115Y-4.2415
X6.165Y-4.3415
X6.215Y-4.2415
X6.265Y-4.3415
X6.315Y-4.2415
X6.365Y-4.3415
X6.415Y-4.2415
T4
X5.11Y-3.73
X5.21Y-3.73
X5.31Y-3.73
X5.9356Y-2.9213
X5.9356Y-3.0213
X5.9356Y-3.1213
X6.0356Y-2.9213
X6.0356Y-3.0213
X6.0356Y-3.1213
T5
X4.7728Y-3.78
X4.7728Y-3.88
X4.7728Y-3.98
T6
X4.47Y-2.37
X4.57Y-2.37
X4.67Y-2.37
X4.8933Y-2.37
X4.9933Y-2.37
X5.0933Y-2.37
X5.3167Y-2.3692
X5.4167Y-2.3692
X5.5167Y-2.3692
X5.74Y-2.3692
X5.84Y-2.3692
X5.94Y-2.3692
X6.2006Y-2.3708
X6.3006Y-2.3708
X6.4006Y-2.3708
X6.5006Y-2.3708
T7
X4.1969Y-2.2969
X4.1969Y-4.9031
X6.8031Y-2.2969
X6.8031Y-4.9031
T0
M30
