%TF.GenerationSoftware,KiCad,Pcbnew,(7.0.0)*%
%TF.CreationDate,2023-02-21T14:29:58-06:00*%
%TF.ProjectId,smeza_pcb_v3,736d657a-615f-4706-9362-5f76332e6b69,rev?*%
%TF.SameCoordinates,Original*%
%TF.FileFunction,Soldermask,Top*%
%TF.FilePolarity,Negative*%
%FSLAX46Y46*%
G04 Gerber Fmt 4.6, Leading zero omitted, Abs format (unit mm)*
G04 Created by KiCad (PCBNEW (7.0.0)) date 2023-02-21 14:29:58*
%MOMM*%
%LPD*%
G01*
G04 APERTURE LIST*
G04 Aperture macros list*
%AMRoundRect*
0 Rectangle with rounded corners*
0 $1 Rounding radius*
0 $2 $3 $4 $5 $6 $7 $8 $9 X,Y pos of 4 corners*
0 Add a 4 corners polygon primitive as box body*
4,1,4,$2,$3,$4,$5,$6,$7,$8,$9,$2,$3,0*
0 Add four circle primitives for the rounded corners*
1,1,$1+$1,$2,$3*
1,1,$1+$1,$4,$5*
1,1,$1+$1,$6,$7*
1,1,$1+$1,$8,$9*
0 Add four rect primitives between the rounded corners*
20,1,$1+$1,$2,$3,$4,$5,0*
20,1,$1+$1,$4,$5,$6,$7,0*
20,1,$1+$1,$6,$7,$8,$9,0*
20,1,$1+$1,$8,$9,$2,$3,0*%
G04 Aperture macros list end*
%ADD10RoundRect,0.300000X-0.312500X-0.625000X0.312500X-0.625000X0.312500X0.625000X-0.312500X0.625000X0*%
%ADD11RoundRect,0.300000X0.625000X-0.312500X0.625000X0.312500X-0.625000X0.312500X-0.625000X-0.312500X0*%
%ADD12RoundRect,0.050000X-0.937033X-0.271066X0.937033X-0.271066X0.937033X0.271066X-0.937033X0.271066X0*%
%ADD13RoundRect,0.321066X-0.665967X0.000000X0.665967X0.000000X0.665967X0.000000X-0.665967X0.000000X0*%
%ADD14RoundRect,0.300000X-0.625000X0.375000X-0.625000X-0.375000X0.625000X-0.375000X0.625000X0.375000X0*%
%ADD15RoundRect,0.050000X-0.800000X-0.800000X0.800000X-0.800000X0.800000X0.800000X-0.800000X0.800000X0*%
%ADD16O,1.700000X1.700000*%
%ADD17RoundRect,0.050000X0.350000X0.762500X-0.350000X0.762500X-0.350000X-0.762500X0.350000X-0.762500X0*%
%ADD18RoundRect,0.050000X1.725000X-1.280000X1.725000X1.280000X-1.725000X1.280000X-1.725000X-1.280000X0*%
%ADD19RoundRect,0.050000X-0.675000X-0.675000X0.675000X-0.675000X0.675000X0.675000X-0.675000X0.675000X0*%
%ADD20O,1.450000X1.450000*%
%ADD21RoundRect,0.300000X0.620000X0.845000X-0.620000X0.845000X-0.620000X-0.845000X0.620000X-0.845000X0*%
%ADD22O,1.840000X2.290000*%
%ADD23RoundRect,0.300000X0.325000X0.650000X-0.325000X0.650000X-0.325000X-0.650000X0.325000X-0.650000X0*%
%ADD24RoundRect,0.050000X-1.000000X0.952500X-1.000000X-0.952500X1.000000X-0.952500X1.000000X0.952500X0*%
%ADD25O,2.100000X2.005000*%
%ADD26RoundRect,0.300000X-0.650000X0.325000X-0.650000X-0.325000X0.650000X-0.325000X0.650000X0.325000X0*%
%ADD27RoundRect,0.050000X0.800000X0.275000X-0.800000X0.275000X-0.800000X-0.275000X0.800000X-0.275000X0*%
%ADD28RoundRect,0.050000X-0.275000X0.800000X-0.275000X-0.800000X0.275000X-0.800000X0.275000X0.800000X0*%
%ADD29RoundRect,0.300000X-0.325000X-0.650000X0.325000X-0.650000X0.325000X0.650000X-0.325000X0.650000X0*%
%ADD30RoundRect,0.300000X0.312500X0.625000X-0.312500X0.625000X-0.312500X-0.625000X0.312500X-0.625000X0*%
%ADD31C,3.300000*%
%ADD32RoundRect,0.050000X-2.950000X1.225000X-2.950000X-1.225000X2.950000X-1.225000X2.950000X1.225000X0*%
%ADD33C,3.350000*%
%ADD34RoundRect,0.050000X-0.700000X-0.700000X0.700000X-0.700000X0.700000X0.700000X-0.700000X0.700000X0*%
%ADD35C,1.500000*%
%ADD36RoundRect,0.300000X-0.620000X-0.845000X0.620000X-0.845000X0.620000X0.845000X-0.620000X0.845000X0*%
%ADD37RoundRect,0.050000X0.850000X-0.850000X0.850000X0.850000X-0.850000X0.850000X-0.850000X-0.850000X0*%
%ADD38O,1.800000X1.800000*%
%ADD39RoundRect,0.300000X-0.625000X0.312500X-0.625000X-0.312500X0.625000X-0.312500X0.625000X0.312500X0*%
%ADD40RoundRect,0.300000X0.650000X-0.325000X0.650000X0.325000X-0.650000X0.325000X-0.650000X-0.325000X0*%
%ADD41RoundRect,0.092000X0.258000X-0.788000X0.258000X0.788000X-0.258000X0.788000X-0.258000X-0.788000X0*%
G04 APERTURE END LIST*
D10*
%TO.C,R18*%
X153670000Y-100330000D03*
X156595000Y-100330000D03*
%TD*%
%TO.C,R16*%
X111593500Y-61722000D03*
X114518500Y-61722000D03*
%TD*%
D11*
%TO.C,R22*%
X171450000Y-73852500D03*
X171450000Y-70927500D03*
%TD*%
D12*
%TO.C,T1*%
X160243933Y-95250000D03*
D13*
X160243933Y-96520000D03*
X160243933Y-97790000D03*
X160243933Y-99060000D03*
X164876067Y-99060000D03*
X164876067Y-97790000D03*
X164876067Y-96520000D03*
X164876067Y-95250000D03*
%TD*%
D14*
%TO.C,D1*%
X171450000Y-65786000D03*
X171450000Y-68586000D03*
%TD*%
D15*
%TO.C,SW1*%
X118914500Y-60970000D03*
D16*
X118914499Y-63509999D03*
X118914499Y-66049999D03*
X118914499Y-68589999D03*
X126534499Y-68589999D03*
X126534499Y-66049999D03*
X126534499Y-63509999D03*
X126534499Y-60969999D03*
%TD*%
D17*
%TO.C,B1*%
X137795000Y-117012000D03*
X139065000Y-117012000D03*
X140335000Y-117012000D03*
X141605000Y-117012000D03*
X141605000Y-111588000D03*
X140335000Y-111588000D03*
X139065000Y-111588000D03*
X137795000Y-111588000D03*
D18*
X139700000Y-114300000D03*
%TD*%
D10*
%TO.C,R15*%
X111593500Y-76962000D03*
X114518500Y-76962000D03*
%TD*%
D19*
%TO.C,J9*%
X150765000Y-74200000D03*
D20*
X152764999Y-74199999D03*
X150764999Y-76199999D03*
X152764999Y-76199999D03*
X150764999Y-78199999D03*
X152764999Y-78199999D03*
%TD*%
D21*
%TO.C,J7*%
X142875000Y-75545000D03*
D22*
X140334999Y-75544999D03*
X137794999Y-75544999D03*
%TD*%
D23*
%TO.C,C7*%
X152605000Y-85090000D03*
X149655000Y-85090000D03*
%TD*%
D10*
%TO.C,R10*%
X111593500Y-69342000D03*
X114518500Y-69342000D03*
%TD*%
D24*
%TO.C,U1*%
X121229000Y-96012000D03*
D25*
X121228999Y-98551999D03*
X121228999Y-101091999D03*
%TD*%
D26*
%TO.C,C2A1*%
X147495000Y-100760000D03*
X147495000Y-103710000D03*
%TD*%
D27*
%TO.C,U2*%
X164810000Y-87450000D03*
X164810000Y-86650000D03*
X164810000Y-85850000D03*
X164810000Y-85050000D03*
X164810000Y-84250000D03*
X164810000Y-83450000D03*
X164810000Y-82650000D03*
X164810000Y-81850000D03*
D28*
X163360000Y-80400000D03*
X162560000Y-80400000D03*
X161760000Y-80400000D03*
X160960000Y-80400000D03*
X160160000Y-80400000D03*
X159360000Y-80400000D03*
X158560000Y-80400000D03*
X157760000Y-80400000D03*
D27*
X156310000Y-81850000D03*
X156310000Y-82650000D03*
X156310000Y-83450000D03*
X156310000Y-84250000D03*
X156310000Y-85050000D03*
X156310000Y-85850000D03*
X156310000Y-86650000D03*
X156310000Y-87450000D03*
D28*
X157760000Y-88900000D03*
X158560000Y-88900000D03*
X159360000Y-88900000D03*
X160160000Y-88900000D03*
X160960000Y-88900000D03*
X161760000Y-88900000D03*
X162560000Y-88900000D03*
X163360000Y-88900000D03*
%TD*%
D11*
%TO.C,R9*%
X134620000Y-120207500D03*
X134620000Y-117282500D03*
%TD*%
D29*
%TO.C,C3*%
X140765000Y-109220000D03*
X143715000Y-109220000D03*
%TD*%
D10*
%TO.C,R3*%
X156017500Y-91440000D03*
X158942500Y-91440000D03*
%TD*%
D30*
%TO.C,R19*%
X132298500Y-69342000D03*
X129373500Y-69342000D03*
%TD*%
D23*
%TO.C,C5*%
X117878000Y-98552000D03*
X114928000Y-98552000D03*
%TD*%
D10*
%TO.C,R11*%
X111593500Y-82042000D03*
X114518500Y-82042000D03*
%TD*%
D11*
%TO.C,R6*%
X117673000Y-95950500D03*
X117673000Y-93025500D03*
%TD*%
D10*
%TO.C,R14*%
X111593500Y-64262000D03*
X114518500Y-64262000D03*
%TD*%
D30*
%TO.C,R1*%
X156595000Y-103505000D03*
X153670000Y-103505000D03*
%TD*%
D31*
%TO.C,REF\u002A\u002A*%
X172800000Y-124540000D03*
%TD*%
D26*
%TO.C,C2B1*%
X144145000Y-100760000D03*
X144145000Y-103710000D03*
%TD*%
D30*
%TO.C,R21*%
X132298500Y-87122000D03*
X129373500Y-87122000D03*
%TD*%
D15*
%TO.C,SW2*%
X118872000Y-74168000D03*
D16*
X118871999Y-76707999D03*
X118871999Y-79247999D03*
X118871999Y-81787999D03*
X126491999Y-81787999D03*
X126491999Y-79247999D03*
X126491999Y-76707999D03*
X126491999Y-74167999D03*
%TD*%
D21*
%TO.C,J5*%
X142875000Y-59885000D03*
D22*
X140334999Y-59884999D03*
X137794999Y-59884999D03*
%TD*%
D26*
%TO.C,C1*%
X150622000Y-100887000D03*
X150622000Y-103837000D03*
%TD*%
D11*
%TO.C,R7*%
X140335000Y-122112500D03*
X140335000Y-119187500D03*
%TD*%
D32*
%TO.C,L1*%
X138430000Y-100095000D03*
X138430000Y-105645000D03*
%TD*%
D33*
%TO.C,J2*%
X115570000Y-116625000D03*
X127000000Y-116625000D03*
D34*
X116840000Y-110275000D03*
D35*
X118110000Y-107735000D03*
X119380000Y-110275000D03*
X120650000Y-107735000D03*
X121920000Y-110275000D03*
X123190000Y-107735000D03*
X124460000Y-110275000D03*
X125730000Y-107735000D03*
%TD*%
D36*
%TO.C,J4*%
X157496000Y-60387000D03*
D22*
X160035999Y-60386999D03*
X162575999Y-60386999D03*
X165115999Y-60386999D03*
%TD*%
D33*
%TO.C,J1*%
X151765000Y-116840000D03*
X163195000Y-116840000D03*
D34*
X153035000Y-110490000D03*
D35*
X154305000Y-107950000D03*
X155575000Y-110490000D03*
X156845000Y-107950000D03*
X158115000Y-110490000D03*
X159385000Y-107950000D03*
X160655000Y-110490000D03*
X161925000Y-107950000D03*
%TD*%
D21*
%TO.C,J8*%
X142875000Y-83395000D03*
D22*
X140334999Y-83394999D03*
X137794999Y-83394999D03*
%TD*%
D21*
%TO.C,J6*%
X142875000Y-67925000D03*
D22*
X140334999Y-67924999D03*
X137794999Y-67924999D03*
%TD*%
D37*
%TO.C,J3*%
X129794000Y-94742000D03*
D38*
X132333999Y-94741999D03*
X134873999Y-94741999D03*
%TD*%
D39*
%TO.C,R8*%
X134614319Y-112010000D03*
X134614319Y-114935000D03*
%TD*%
D31*
%TO.C,REF\u002A\u002A*%
X106600000Y-58340000D03*
%TD*%
D23*
%TO.C,C4*%
X118132000Y-103632000D03*
X115182000Y-103632000D03*
%TD*%
D31*
%TO.C,REF\u002A\u002A*%
X106600000Y-124540000D03*
%TD*%
D11*
%TO.C,R4*%
X168656000Y-98490500D03*
X168656000Y-95565500D03*
%TD*%
%TO.C,R2*%
X142875000Y-122112500D03*
X142875000Y-119187500D03*
%TD*%
D31*
%TO.C,REF\u002A\u002A*%
X172800000Y-58340000D03*
%TD*%
D29*
%TO.C,C2*%
X135685000Y-109220000D03*
X138635000Y-109220000D03*
%TD*%
D40*
%TO.C,C6*%
X137795000Y-122125000D03*
X137795000Y-119175000D03*
%TD*%
D10*
%TO.C,R13*%
X111593500Y-79502000D03*
X114518500Y-79502000D03*
%TD*%
D41*
%TO.C,H1*%
X159560000Y-73660000D03*
X160560000Y-73660000D03*
X161560000Y-73660000D03*
X162560000Y-73660000D03*
X163560000Y-73660000D03*
X163560000Y-68410000D03*
X162560000Y-68410000D03*
X161560000Y-68410000D03*
X160560000Y-68410000D03*
X159560000Y-68410000D03*
%TD*%
D10*
%TO.C,R12*%
X111593500Y-66802000D03*
X114518500Y-66802000D03*
%TD*%
%TO.C,R17*%
X111593500Y-74422000D03*
X114518500Y-74422000D03*
%TD*%
D39*
%TO.C,R5*%
X114879000Y-93025500D03*
X114879000Y-95950500D03*
%TD*%
D15*
%TO.C,SW3*%
X118872000Y-87376000D03*
D16*
X126491999Y-87375999D03*
%TD*%
D30*
%TO.C,R20*%
X132298500Y-82042000D03*
X129373500Y-82042000D03*
%TD*%
G36*
X163040194Y-88080768D02*
G01*
X163040550Y-88082349D01*
X163037000Y-88100199D01*
X163037000Y-89699801D01*
X163040550Y-89717649D01*
X163040194Y-89719230D01*
X163038784Y-89720029D01*
X163037245Y-89719521D01*
X163006167Y-89691354D01*
X162960000Y-89679789D01*
X162913832Y-89691354D01*
X162882754Y-89719521D01*
X162881215Y-89720029D01*
X162879805Y-89719230D01*
X162879449Y-89717649D01*
X162883000Y-89699801D01*
X162883000Y-88100199D01*
X162879449Y-88082349D01*
X162879805Y-88080768D01*
X162881215Y-88079969D01*
X162882754Y-88080477D01*
X162913833Y-88108645D01*
X162960000Y-88120209D01*
X163006166Y-88108645D01*
X163037245Y-88080477D01*
X163038784Y-88079969D01*
X163040194Y-88080768D01*
G37*
G36*
X162240194Y-88080768D02*
G01*
X162240550Y-88082349D01*
X162237000Y-88100199D01*
X162237000Y-89699801D01*
X162240550Y-89717649D01*
X162240194Y-89719230D01*
X162238784Y-89720029D01*
X162237245Y-89719521D01*
X162206167Y-89691354D01*
X162160000Y-89679789D01*
X162113832Y-89691354D01*
X162082754Y-89719521D01*
X162081215Y-89720029D01*
X162079805Y-89719230D01*
X162079449Y-89717649D01*
X162083000Y-89699801D01*
X162083000Y-88100199D01*
X162079449Y-88082349D01*
X162079805Y-88080768D01*
X162081215Y-88079969D01*
X162082754Y-88080477D01*
X162113833Y-88108645D01*
X162160000Y-88120209D01*
X162206166Y-88108645D01*
X162237245Y-88080477D01*
X162238784Y-88079969D01*
X162240194Y-88080768D01*
G37*
G36*
X161440194Y-88080768D02*
G01*
X161440550Y-88082349D01*
X161437000Y-88100199D01*
X161437000Y-89699801D01*
X161440550Y-89717649D01*
X161440194Y-89719230D01*
X161438784Y-89720029D01*
X161437245Y-89719521D01*
X161406167Y-89691354D01*
X161360000Y-89679789D01*
X161313832Y-89691354D01*
X161282754Y-89719521D01*
X161281215Y-89720029D01*
X161279805Y-89719230D01*
X161279449Y-89717649D01*
X161283000Y-89699801D01*
X161283000Y-88100199D01*
X161279449Y-88082349D01*
X161279805Y-88080768D01*
X161281215Y-88079969D01*
X161282754Y-88080477D01*
X161313833Y-88108645D01*
X161360000Y-88120209D01*
X161406166Y-88108645D01*
X161437245Y-88080477D01*
X161438784Y-88079969D01*
X161440194Y-88080768D01*
G37*
G36*
X160640194Y-88080768D02*
G01*
X160640550Y-88082349D01*
X160637000Y-88100199D01*
X160637000Y-89699801D01*
X160640550Y-89717649D01*
X160640194Y-89719230D01*
X160638784Y-89720029D01*
X160637245Y-89719521D01*
X160606167Y-89691354D01*
X160560000Y-89679789D01*
X160513832Y-89691354D01*
X160482754Y-89719521D01*
X160481215Y-89720029D01*
X160479805Y-89719230D01*
X160479449Y-89717649D01*
X160483000Y-89699801D01*
X160483000Y-88100199D01*
X160479449Y-88082349D01*
X160479805Y-88080768D01*
X160481215Y-88079969D01*
X160482754Y-88080477D01*
X160513833Y-88108645D01*
X160560000Y-88120209D01*
X160606166Y-88108645D01*
X160637245Y-88080477D01*
X160638784Y-88079969D01*
X160640194Y-88080768D01*
G37*
G36*
X159840194Y-88080768D02*
G01*
X159840550Y-88082349D01*
X159837000Y-88100199D01*
X159837000Y-89699801D01*
X159840550Y-89717649D01*
X159840194Y-89719230D01*
X159838784Y-89720029D01*
X159837245Y-89719521D01*
X159806167Y-89691354D01*
X159760000Y-89679789D01*
X159713832Y-89691354D01*
X159682754Y-89719521D01*
X159681215Y-89720029D01*
X159679805Y-89719230D01*
X159679449Y-89717649D01*
X159683000Y-89699801D01*
X159683000Y-88100199D01*
X159679449Y-88082349D01*
X159679805Y-88080768D01*
X159681215Y-88079969D01*
X159682754Y-88080477D01*
X159713833Y-88108645D01*
X159760000Y-88120209D01*
X159806166Y-88108645D01*
X159837245Y-88080477D01*
X159838784Y-88079969D01*
X159840194Y-88080768D01*
G37*
G36*
X159040194Y-88080768D02*
G01*
X159040550Y-88082349D01*
X159037000Y-88100199D01*
X159037000Y-89699801D01*
X159040550Y-89717649D01*
X159040194Y-89719230D01*
X159038784Y-89720029D01*
X159037245Y-89719521D01*
X159006167Y-89691354D01*
X158960000Y-89679789D01*
X158913832Y-89691354D01*
X158882754Y-89719521D01*
X158881215Y-89720029D01*
X158879805Y-89719230D01*
X158879449Y-89717649D01*
X158883000Y-89699801D01*
X158883000Y-88100199D01*
X158879449Y-88082349D01*
X158879805Y-88080768D01*
X158881215Y-88079969D01*
X158882754Y-88080477D01*
X158913833Y-88108645D01*
X158960000Y-88120209D01*
X159006166Y-88108645D01*
X159037245Y-88080477D01*
X159038784Y-88079969D01*
X159040194Y-88080768D01*
G37*
G36*
X158240194Y-88080768D02*
G01*
X158240550Y-88082349D01*
X158237000Y-88100199D01*
X158237000Y-89699801D01*
X158240550Y-89717649D01*
X158240194Y-89719230D01*
X158238784Y-89720029D01*
X158237245Y-89719521D01*
X158206167Y-89691354D01*
X158160000Y-89679789D01*
X158113832Y-89691354D01*
X158082754Y-89719521D01*
X158081215Y-89720029D01*
X158079805Y-89719230D01*
X158079449Y-89717649D01*
X158083000Y-89699801D01*
X158083000Y-88100199D01*
X158079449Y-88082349D01*
X158079805Y-88080768D01*
X158081215Y-88079969D01*
X158082754Y-88080477D01*
X158113833Y-88108645D01*
X158160000Y-88120209D01*
X158206166Y-88108645D01*
X158237245Y-88080477D01*
X158238784Y-88079969D01*
X158240194Y-88080768D01*
G37*
G36*
X165629230Y-86969805D02*
G01*
X165630029Y-86971215D01*
X165629521Y-86972754D01*
X165601354Y-87003832D01*
X165589789Y-87049999D01*
X165601354Y-87096167D01*
X165629521Y-87127245D01*
X165630029Y-87128784D01*
X165629230Y-87130194D01*
X165627649Y-87130550D01*
X165609801Y-87127000D01*
X164010199Y-87127000D01*
X163992349Y-87130550D01*
X163990768Y-87130194D01*
X163989969Y-87128784D01*
X163990477Y-87127245D01*
X164018645Y-87096166D01*
X164030209Y-87049999D01*
X164018645Y-87003833D01*
X163990477Y-86972754D01*
X163989969Y-86971215D01*
X163990768Y-86969805D01*
X163992349Y-86969449D01*
X164010199Y-86973000D01*
X165609801Y-86973000D01*
X165627649Y-86969449D01*
X165629230Y-86969805D01*
G37*
G36*
X157129230Y-86969805D02*
G01*
X157130029Y-86971215D01*
X157129521Y-86972754D01*
X157101354Y-87003832D01*
X157089789Y-87049999D01*
X157101354Y-87096167D01*
X157129521Y-87127245D01*
X157130029Y-87128784D01*
X157129230Y-87130194D01*
X157127649Y-87130550D01*
X157109801Y-87127000D01*
X155510199Y-87127000D01*
X155492349Y-87130550D01*
X155490768Y-87130194D01*
X155489969Y-87128784D01*
X155490477Y-87127245D01*
X155518645Y-87096166D01*
X155530209Y-87049999D01*
X155518645Y-87003833D01*
X155490477Y-86972754D01*
X155489969Y-86971215D01*
X155490768Y-86969805D01*
X155492349Y-86969449D01*
X155510199Y-86973000D01*
X157109801Y-86973000D01*
X157127649Y-86969449D01*
X157129230Y-86969805D01*
G37*
G36*
X165629230Y-86169805D02*
G01*
X165630029Y-86171215D01*
X165629521Y-86172754D01*
X165601354Y-86203832D01*
X165589789Y-86250000D01*
X165601354Y-86296167D01*
X165629521Y-86327245D01*
X165630029Y-86328784D01*
X165629230Y-86330194D01*
X165627649Y-86330550D01*
X165609801Y-86327000D01*
X164010199Y-86327000D01*
X163992349Y-86330550D01*
X163990768Y-86330194D01*
X163989969Y-86328784D01*
X163990477Y-86327245D01*
X164018645Y-86296166D01*
X164030209Y-86249999D01*
X164018645Y-86203833D01*
X163990477Y-86172754D01*
X163989969Y-86171215D01*
X163990768Y-86169805D01*
X163992349Y-86169449D01*
X164010199Y-86173000D01*
X165609801Y-86173000D01*
X165627649Y-86169449D01*
X165629230Y-86169805D01*
G37*
G36*
X157129230Y-86169805D02*
G01*
X157130029Y-86171215D01*
X157129521Y-86172754D01*
X157101354Y-86203832D01*
X157089789Y-86250000D01*
X157101354Y-86296167D01*
X157129521Y-86327245D01*
X157130029Y-86328784D01*
X157129230Y-86330194D01*
X157127649Y-86330550D01*
X157109801Y-86327000D01*
X155510199Y-86327000D01*
X155492349Y-86330550D01*
X155490768Y-86330194D01*
X155489969Y-86328784D01*
X155490477Y-86327245D01*
X155518645Y-86296166D01*
X155530209Y-86249999D01*
X155518645Y-86203833D01*
X155490477Y-86172754D01*
X155489969Y-86171215D01*
X155490768Y-86169805D01*
X155492349Y-86169449D01*
X155510199Y-86173000D01*
X157109801Y-86173000D01*
X157127649Y-86169449D01*
X157129230Y-86169805D01*
G37*
G36*
X165629230Y-85369805D02*
G01*
X165630029Y-85371215D01*
X165629521Y-85372754D01*
X165601354Y-85403832D01*
X165589789Y-85450000D01*
X165601354Y-85496167D01*
X165629521Y-85527245D01*
X165630029Y-85528784D01*
X165629230Y-85530194D01*
X165627649Y-85530550D01*
X165609801Y-85527000D01*
X164010199Y-85527000D01*
X163992349Y-85530550D01*
X163990768Y-85530194D01*
X163989969Y-85528784D01*
X163990477Y-85527245D01*
X164018645Y-85496166D01*
X164030209Y-85450000D01*
X164018645Y-85403833D01*
X163990477Y-85372754D01*
X163989969Y-85371215D01*
X163990768Y-85369805D01*
X163992349Y-85369449D01*
X164010199Y-85373000D01*
X165609801Y-85373000D01*
X165627649Y-85369449D01*
X165629230Y-85369805D01*
G37*
G36*
X157129230Y-85369805D02*
G01*
X157130029Y-85371215D01*
X157129521Y-85372754D01*
X157101354Y-85403832D01*
X157089789Y-85450000D01*
X157101354Y-85496167D01*
X157129521Y-85527245D01*
X157130029Y-85528784D01*
X157129230Y-85530194D01*
X157127649Y-85530550D01*
X157109801Y-85527000D01*
X155510199Y-85527000D01*
X155492349Y-85530550D01*
X155490768Y-85530194D01*
X155489969Y-85528784D01*
X155490477Y-85527245D01*
X155518645Y-85496166D01*
X155530209Y-85450000D01*
X155518645Y-85403833D01*
X155490477Y-85372754D01*
X155489969Y-85371215D01*
X155490768Y-85369805D01*
X155492349Y-85369449D01*
X155510199Y-85373000D01*
X157109801Y-85373000D01*
X157127649Y-85369449D01*
X157129230Y-85369805D01*
G37*
G36*
X165629230Y-84569805D02*
G01*
X165630029Y-84571215D01*
X165629521Y-84572754D01*
X165601354Y-84603832D01*
X165589789Y-84650000D01*
X165601354Y-84696167D01*
X165629521Y-84727245D01*
X165630029Y-84728784D01*
X165629230Y-84730194D01*
X165627649Y-84730550D01*
X165609801Y-84727000D01*
X164010199Y-84727000D01*
X163992349Y-84730550D01*
X163990768Y-84730194D01*
X163989969Y-84728784D01*
X163990477Y-84727245D01*
X164018645Y-84696166D01*
X164030209Y-84650000D01*
X164018645Y-84603833D01*
X163990477Y-84572754D01*
X163989969Y-84571215D01*
X163990768Y-84569805D01*
X163992349Y-84569449D01*
X164010199Y-84573000D01*
X165609801Y-84573000D01*
X165627649Y-84569449D01*
X165629230Y-84569805D01*
G37*
G36*
X157129230Y-84569805D02*
G01*
X157130029Y-84571215D01*
X157129521Y-84572754D01*
X157101354Y-84603832D01*
X157089789Y-84650000D01*
X157101354Y-84696167D01*
X157129521Y-84727245D01*
X157130029Y-84728784D01*
X157129230Y-84730194D01*
X157127649Y-84730550D01*
X157109801Y-84727000D01*
X155510199Y-84727000D01*
X155492349Y-84730550D01*
X155490768Y-84730194D01*
X155489969Y-84728784D01*
X155490477Y-84727245D01*
X155518645Y-84696166D01*
X155530209Y-84650000D01*
X155518645Y-84603833D01*
X155490477Y-84572754D01*
X155489969Y-84571215D01*
X155490768Y-84569805D01*
X155492349Y-84569449D01*
X155510199Y-84573000D01*
X157109801Y-84573000D01*
X157127649Y-84569449D01*
X157129230Y-84569805D01*
G37*
G36*
X165629230Y-83769805D02*
G01*
X165630029Y-83771215D01*
X165629521Y-83772754D01*
X165601354Y-83803832D01*
X165589789Y-83850000D01*
X165601354Y-83896167D01*
X165629521Y-83927245D01*
X165630029Y-83928784D01*
X165629230Y-83930194D01*
X165627649Y-83930550D01*
X165609801Y-83927000D01*
X164010199Y-83927000D01*
X163992349Y-83930550D01*
X163990768Y-83930194D01*
X163989969Y-83928784D01*
X163990477Y-83927245D01*
X164018645Y-83896166D01*
X164030209Y-83849999D01*
X164018645Y-83803833D01*
X163990477Y-83772754D01*
X163989969Y-83771215D01*
X163990768Y-83769805D01*
X163992349Y-83769449D01*
X164010199Y-83773000D01*
X165609801Y-83773000D01*
X165627649Y-83769449D01*
X165629230Y-83769805D01*
G37*
G36*
X157129230Y-83769805D02*
G01*
X157130029Y-83771215D01*
X157129521Y-83772754D01*
X157101354Y-83803832D01*
X157089789Y-83850000D01*
X157101354Y-83896167D01*
X157129521Y-83927245D01*
X157130029Y-83928784D01*
X157129230Y-83930194D01*
X157127649Y-83930550D01*
X157109801Y-83927000D01*
X155510199Y-83927000D01*
X155492349Y-83930550D01*
X155490768Y-83930194D01*
X155489969Y-83928784D01*
X155490477Y-83927245D01*
X155518645Y-83896166D01*
X155530209Y-83849999D01*
X155518645Y-83803833D01*
X155490477Y-83772754D01*
X155489969Y-83771215D01*
X155490768Y-83769805D01*
X155492349Y-83769449D01*
X155510199Y-83773000D01*
X157109801Y-83773000D01*
X157127649Y-83769449D01*
X157129230Y-83769805D01*
G37*
G36*
X165629230Y-82969805D02*
G01*
X165630029Y-82971215D01*
X165629521Y-82972754D01*
X165601354Y-83003832D01*
X165589789Y-83049999D01*
X165601354Y-83096167D01*
X165629521Y-83127245D01*
X165630029Y-83128784D01*
X165629230Y-83130194D01*
X165627649Y-83130550D01*
X165609801Y-83127000D01*
X164010199Y-83127000D01*
X163992349Y-83130550D01*
X163990768Y-83130194D01*
X163989969Y-83128784D01*
X163990477Y-83127245D01*
X164018645Y-83096166D01*
X164030209Y-83050000D01*
X164018645Y-83003833D01*
X163990477Y-82972754D01*
X163989969Y-82971215D01*
X163990768Y-82969805D01*
X163992349Y-82969449D01*
X164010199Y-82973000D01*
X165609801Y-82973000D01*
X165627649Y-82969449D01*
X165629230Y-82969805D01*
G37*
G36*
X157129230Y-82969805D02*
G01*
X157130029Y-82971215D01*
X157129521Y-82972754D01*
X157101354Y-83003832D01*
X157089789Y-83049999D01*
X157101354Y-83096167D01*
X157129521Y-83127245D01*
X157130029Y-83128784D01*
X157129230Y-83130194D01*
X157127649Y-83130550D01*
X157109801Y-83127000D01*
X155510199Y-83127000D01*
X155492349Y-83130550D01*
X155490768Y-83130194D01*
X155489969Y-83128784D01*
X155490477Y-83127245D01*
X155518645Y-83096166D01*
X155530209Y-83050000D01*
X155518645Y-83003833D01*
X155490477Y-82972754D01*
X155489969Y-82971215D01*
X155490768Y-82969805D01*
X155492349Y-82969449D01*
X155510199Y-82973000D01*
X157109801Y-82973000D01*
X157127649Y-82969449D01*
X157129230Y-82969805D01*
G37*
G36*
X165629230Y-82169805D02*
G01*
X165630029Y-82171215D01*
X165629521Y-82172754D01*
X165601354Y-82203832D01*
X165589789Y-82250000D01*
X165601354Y-82296167D01*
X165629521Y-82327245D01*
X165630029Y-82328784D01*
X165629230Y-82330194D01*
X165627649Y-82330550D01*
X165609801Y-82327000D01*
X164010199Y-82327000D01*
X163992349Y-82330550D01*
X163990768Y-82330194D01*
X163989969Y-82328784D01*
X163990477Y-82327245D01*
X164018645Y-82296166D01*
X164030209Y-82250000D01*
X164018645Y-82203833D01*
X163990477Y-82172754D01*
X163989969Y-82171215D01*
X163990768Y-82169805D01*
X163992349Y-82169449D01*
X164010199Y-82173000D01*
X165609801Y-82173000D01*
X165627649Y-82169449D01*
X165629230Y-82169805D01*
G37*
G36*
X157129230Y-82169805D02*
G01*
X157130029Y-82171215D01*
X157129521Y-82172754D01*
X157101354Y-82203832D01*
X157089789Y-82250000D01*
X157101354Y-82296167D01*
X157129521Y-82327245D01*
X157130029Y-82328784D01*
X157129230Y-82330194D01*
X157127649Y-82330550D01*
X157109801Y-82327000D01*
X155510199Y-82327000D01*
X155492349Y-82330550D01*
X155490768Y-82330194D01*
X155489969Y-82328784D01*
X155490477Y-82327245D01*
X155518645Y-82296166D01*
X155530209Y-82250000D01*
X155518645Y-82203833D01*
X155490477Y-82172754D01*
X155489969Y-82171215D01*
X155490768Y-82169805D01*
X155492349Y-82169449D01*
X155510199Y-82173000D01*
X157109801Y-82173000D01*
X157127649Y-82169449D01*
X157129230Y-82169805D01*
G37*
G36*
X163040194Y-79580768D02*
G01*
X163040550Y-79582349D01*
X163037000Y-79600199D01*
X163037000Y-81199801D01*
X163040550Y-81217649D01*
X163040194Y-81219230D01*
X163038784Y-81220029D01*
X163037245Y-81219521D01*
X163006167Y-81191354D01*
X162960000Y-81179789D01*
X162913832Y-81191354D01*
X162882754Y-81219521D01*
X162881215Y-81220029D01*
X162879805Y-81219230D01*
X162879449Y-81217649D01*
X162883000Y-81199801D01*
X162883000Y-79600199D01*
X162879449Y-79582349D01*
X162879805Y-79580768D01*
X162881215Y-79579969D01*
X162882754Y-79580477D01*
X162913833Y-79608645D01*
X162960000Y-79620209D01*
X163006166Y-79608645D01*
X163037245Y-79580477D01*
X163038784Y-79579969D01*
X163040194Y-79580768D01*
G37*
G36*
X162240194Y-79580768D02*
G01*
X162240550Y-79582349D01*
X162237000Y-79600199D01*
X162237000Y-81199801D01*
X162240550Y-81217649D01*
X162240194Y-81219230D01*
X162238784Y-81220029D01*
X162237245Y-81219521D01*
X162206167Y-81191354D01*
X162160000Y-81179789D01*
X162113832Y-81191354D01*
X162082754Y-81219521D01*
X162081215Y-81220029D01*
X162079805Y-81219230D01*
X162079449Y-81217649D01*
X162083000Y-81199801D01*
X162083000Y-79600199D01*
X162079449Y-79582349D01*
X162079805Y-79580768D01*
X162081215Y-79579969D01*
X162082754Y-79580477D01*
X162113833Y-79608645D01*
X162160000Y-79620209D01*
X162206166Y-79608645D01*
X162237245Y-79580477D01*
X162238784Y-79579969D01*
X162240194Y-79580768D01*
G37*
G36*
X161440194Y-79580768D02*
G01*
X161440550Y-79582349D01*
X161437000Y-79600199D01*
X161437000Y-81199801D01*
X161440550Y-81217649D01*
X161440194Y-81219230D01*
X161438784Y-81220029D01*
X161437245Y-81219521D01*
X161406167Y-81191354D01*
X161360000Y-81179789D01*
X161313832Y-81191354D01*
X161282754Y-81219521D01*
X161281215Y-81220029D01*
X161279805Y-81219230D01*
X161279449Y-81217649D01*
X161283000Y-81199801D01*
X161283000Y-79600199D01*
X161279449Y-79582349D01*
X161279805Y-79580768D01*
X161281215Y-79579969D01*
X161282754Y-79580477D01*
X161313833Y-79608645D01*
X161360000Y-79620209D01*
X161406166Y-79608645D01*
X161437245Y-79580477D01*
X161438784Y-79579969D01*
X161440194Y-79580768D01*
G37*
G36*
X160640194Y-79580768D02*
G01*
X160640550Y-79582349D01*
X160637000Y-79600199D01*
X160637000Y-81199801D01*
X160640550Y-81217649D01*
X160640194Y-81219230D01*
X160638784Y-81220029D01*
X160637245Y-81219521D01*
X160606167Y-81191354D01*
X160560000Y-81179789D01*
X160513832Y-81191354D01*
X160482754Y-81219521D01*
X160481215Y-81220029D01*
X160479805Y-81219230D01*
X160479449Y-81217649D01*
X160483000Y-81199801D01*
X160483000Y-79600199D01*
X160479449Y-79582349D01*
X160479805Y-79580768D01*
X160481215Y-79579969D01*
X160482754Y-79580477D01*
X160513833Y-79608645D01*
X160560000Y-79620209D01*
X160606166Y-79608645D01*
X160637245Y-79580477D01*
X160638784Y-79579969D01*
X160640194Y-79580768D01*
G37*
G36*
X159840194Y-79580768D02*
G01*
X159840550Y-79582349D01*
X159837000Y-79600199D01*
X159837000Y-81199801D01*
X159840550Y-81217649D01*
X159840194Y-81219230D01*
X159838784Y-81220029D01*
X159837245Y-81219521D01*
X159806167Y-81191354D01*
X159760000Y-81179789D01*
X159713832Y-81191354D01*
X159682754Y-81219521D01*
X159681215Y-81220029D01*
X159679805Y-81219230D01*
X159679449Y-81217649D01*
X159683000Y-81199801D01*
X159683000Y-79600199D01*
X159679449Y-79582349D01*
X159679805Y-79580768D01*
X159681215Y-79579969D01*
X159682754Y-79580477D01*
X159713833Y-79608645D01*
X159760000Y-79620209D01*
X159806166Y-79608645D01*
X159837245Y-79580477D01*
X159838784Y-79579969D01*
X159840194Y-79580768D01*
G37*
G36*
X159040194Y-79580768D02*
G01*
X159040550Y-79582349D01*
X159037000Y-79600199D01*
X159037000Y-81199801D01*
X159040550Y-81217649D01*
X159040194Y-81219230D01*
X159038784Y-81220029D01*
X159037245Y-81219521D01*
X159006167Y-81191354D01*
X158960000Y-81179789D01*
X158913832Y-81191354D01*
X158882754Y-81219521D01*
X158881215Y-81220029D01*
X158879805Y-81219230D01*
X158879449Y-81217649D01*
X158883000Y-81199801D01*
X158883000Y-79600199D01*
X158879449Y-79582349D01*
X158879805Y-79580768D01*
X158881215Y-79579969D01*
X158882754Y-79580477D01*
X158913833Y-79608645D01*
X158960000Y-79620209D01*
X159006166Y-79608645D01*
X159037245Y-79580477D01*
X159038784Y-79579969D01*
X159040194Y-79580768D01*
G37*
G36*
X158240194Y-79580768D02*
G01*
X158240550Y-79582349D01*
X158237000Y-79600199D01*
X158237000Y-81199801D01*
X158240550Y-81217649D01*
X158240194Y-81219230D01*
X158238784Y-81220029D01*
X158237245Y-81219521D01*
X158206167Y-81191354D01*
X158160000Y-81179789D01*
X158113832Y-81191354D01*
X158082754Y-81219521D01*
X158081215Y-81220029D01*
X158079805Y-81219230D01*
X158079449Y-81217649D01*
X158083000Y-81199801D01*
X158083000Y-79600199D01*
X158079449Y-79582349D01*
X158079805Y-79580768D01*
X158081215Y-79579969D01*
X158082754Y-79580477D01*
X158113833Y-79608645D01*
X158160000Y-79620209D01*
X158206166Y-79608645D01*
X158237245Y-79580477D01*
X158238784Y-79579969D01*
X158240194Y-79580768D01*
G37*
M02*
