M48
; DRILL file {KiCad (7.0.0)} date Tue Feb 21 14:29:59 2023
; FORMAT={-:-/ absolute / inch / decimal}
; #@! TF.CreationDate,2023-02-21T14:29:59-06:00
; #@! TF.GenerationSoftware,Kicad,Pcbnew,(7.0.0)
; #@! TF.FileFunction,Plated,1,2,PTH
FMAT,2
INCH
; #@! TA.AperFunction,Plated,PTH,ViaDrill
T1C0.0157
; #@! TA.AperFunction,Plated,PTH,ComponentDrill
T2C0.0315
; #@! TA.AperFunction,Plated,PTH,ComponentDrill
T3C0.0354
; #@! TA.AperFunction,Plated,PTH,ComponentDrill
T4C0.0394
; #@! TA.AperFunction,Plated,PTH,ComponentDrill
T5C0.0433
; #@! TA.AperFunction,Plated,PTH,ComponentDrill
T6C0.0469
%
G90
G05
T1
X5.02Y-4.025
X5.1Y-4.05
X5.1175Y-3.5
X5.13Y-4.02
X5.211Y-2.66
X5.211Y-3.16
X5.2205Y-3.3462
X5.45Y-4.48
X5.45Y-4.52
X5.46Y-4.27
X5.49Y-4.48
X5.49Y-4.52
X5.53Y-4.48
X5.53Y-4.52
X5.57Y-4.48
X5.57Y-4.52
X5.61Y-4.48
X5.61Y-4.52
X5.62Y-4.14
X5.62Y-4.18
X5.62Y-4.23
X5.65Y-4.38
X5.65Y-4.43
X5.65Y-4.48
X5.65Y-4.53
X5.65Y-4.58
X5.66Y-4.63
X5.67Y-4.14
X5.67Y-4.18
X5.67Y-4.23
X5.7Y-4.38
X5.7Y-4.43
X5.7Y-4.48
X5.7Y-4.53
X5.7Y-4.58
X5.7Y-4.63
X5.7Y-4.68
X5.71Y-4.73
X5.72Y-4.14
X5.72Y-4.18
X5.72Y-4.23
X5.72Y-4.28
X5.72Y-4.33
X5.75Y-4.38
X5.75Y-4.43
X5.75Y-4.48
X5.75Y-4.53
X5.75Y-4.58
X5.75Y-4.63
X5.75Y-4.68
X5.75Y-4.73
X5.75Y-4.78
X5.77Y-4.14
X5.77Y-4.18
X5.77Y-4.23
X5.77Y-4.28
X5.77Y-4.33
X5.8Y-4.38
X5.8Y-4.43
X5.8Y-4.48
X5.8Y-4.53
X5.8Y-4.58
X5.8Y-4.63
X5.8Y-4.68
X5.8Y-4.73
X5.8Y-4.78
X5.82Y-4.14
X5.82Y-4.18
X5.82Y-4.23
X5.82Y-4.28
X5.82Y-4.33
X5.825Y-3.35
X5.85Y-2.825
X5.85Y-3.0
X5.85Y-4.38
X5.85Y-4.43
X5.85Y-4.48
X5.85Y-4.53
X5.85Y-4.58
X5.85Y-4.63
X5.85Y-4.68
X5.85Y-4.73
X5.85Y-4.78
X5.87Y-4.23
X5.87Y-4.28
X5.87Y-4.33
X5.9Y-4.48
X5.9Y-4.53
X5.9Y-4.68
X5.9Y-4.73
X5.9Y-4.78
X5.95Y-4.73
X6.25Y-3.675
X6.32Y-3.27
X6.32Y-3.31
X6.32Y-3.35
X6.32Y-3.39
X6.324Y-2.976
X6.325Y-3.075
X6.3606Y-2.6067
X6.3693Y-3.75
X6.375Y-3.1
X6.4Y-3.04
X6.42Y-3.27
X6.42Y-3.31
X6.42Y-3.35
X6.42Y-3.39
X6.4469Y-3.5827
X6.47Y-4.04
X6.5Y-3.1
X6.5551Y-3.3169
X6.5551Y-3.3858
X6.675Y-2.975
X6.75Y-2.525
T2
X4.68Y-2.92
X4.68Y-3.02
X4.68Y-3.12
X4.68Y-3.22
X4.68Y-3.44
X4.6817Y-2.4004
X4.6817Y-2.5004
X4.6817Y-2.6004
X4.6817Y-2.7004
X4.98Y-2.92
X4.98Y-3.02
X4.98Y-3.12
X4.98Y-3.22
X4.98Y-3.44
X4.9817Y-2.4004
X4.9817Y-2.5004
X4.9817Y-2.6004
X4.9817Y-2.7004
X5.9356Y-2.9213
X5.9356Y-3.0
X5.9356Y-3.0787
X6.0144Y-2.9213
X6.0144Y-3.0
X6.0144Y-3.0787
T3
X4.6Y-4.3415
X4.65Y-4.2415
X4.7Y-4.3415
X4.75Y-4.2415
X4.8Y-4.3415
X4.85Y-4.2415
X4.9Y-4.3415
X4.95Y-4.2415
X6.025Y-4.35
X6.075Y-4.25
X6.125Y-4.35
X6.175Y-4.25
X6.225Y-4.35
X6.275Y-4.25
X6.325Y-4.35
X6.375Y-4.25
T4
X5.11Y-3.73
X5.21Y-3.73
X5.31Y-3.73
T5
X4.7728Y-3.78
X4.7728Y-3.88
X4.7728Y-3.98
T6
X5.425Y-2.3577
X5.425Y-2.6742
X5.425Y-2.9742
X5.425Y-3.2833
X5.525Y-2.3577
X5.525Y-2.6742
X5.525Y-2.9742
X5.525Y-3.2833
X5.625Y-2.3577
X5.625Y-2.6742
X5.625Y-2.9742
X5.625Y-3.2833
X6.2006Y-2.3774
X6.3006Y-2.3774
X6.4006Y-2.3774
X6.5006Y-2.3774
T0
M30
