%TF.GenerationSoftware,KiCad,Pcbnew,(7.0.0)*%
%TF.CreationDate,2023-03-10T22:11:32-08:00*%
%TF.ProjectId,smeza_pcb,736d657a-615f-4706-9362-2e6b69636164,rev?*%
%TF.SameCoordinates,Original*%
%TF.FileFunction,Soldermask,Top*%
%TF.FilePolarity,Negative*%
%FSLAX46Y46*%
G04 Gerber Fmt 4.6, Leading zero omitted, Abs format (unit mm)*
G04 Created by KiCad (PCBNEW (7.0.0)) date 2023-03-10 22:11:32*
%MOMM*%
%LPD*%
G01*
G04 APERTURE LIST*
G04 Aperture macros list*
%AMRoundRect*
0 Rectangle with rounded corners*
0 $1 Rounding radius*
0 $2 $3 $4 $5 $6 $7 $8 $9 X,Y pos of 4 corners*
0 Add a 4 corners polygon primitive as box body*
4,1,4,$2,$3,$4,$5,$6,$7,$8,$9,$2,$3,0*
0 Add four circle primitives for the rounded corners*
1,1,$1+$1,$2,$3*
1,1,$1+$1,$4,$5*
1,1,$1+$1,$6,$7*
1,1,$1+$1,$8,$9*
0 Add four rect primitives between the rounded corners*
20,1,$1+$1,$2,$3,$4,$5,0*
20,1,$1+$1,$4,$5,$6,$7,0*
20,1,$1+$1,$6,$7,$8,$9,0*
20,1,$1+$1,$8,$9,$2,$3,0*%
%AMFreePoly0*
4,1,16,0.523593,0.794084,0.541603,0.777735,1.041603,0.027735,1.050000,0.000000,1.041603,-0.027735,0.541603,-0.777735,0.523593,-0.794084,0.500000,-0.800000,-0.500000,-0.800000,-0.535355,-0.785355,-0.550000,-0.750000,-0.550000,0.750000,-0.535355,0.785355,-0.500000,0.800000,0.500000,0.800000,0.523593,0.794084,0.523593,0.794084,$1*%
%AMFreePoly1*
4,1,16,0.535355,0.785355,0.550000,0.750000,0.550000,-0.750000,0.535355,-0.785355,0.500000,-0.800000,-0.650000,-0.800000,-0.682954,-0.787603,-0.699568,-0.756561,-0.691603,-0.722265,-0.210093,0.000000,-0.691603,0.722265,-0.699568,0.756561,-0.682954,0.787603,-0.650000,0.800000,0.500000,0.800000,0.535355,0.785355,0.535355,0.785355,$1*%
G04 Aperture macros list end*
%ADD10RoundRect,0.300000X-0.450000X0.262500X-0.450000X-0.262500X0.450000X-0.262500X0.450000X0.262500X0*%
%ADD11RoundRect,0.300000X0.450000X-0.262500X0.450000X0.262500X-0.450000X0.262500X-0.450000X-0.262500X0*%
%ADD12RoundRect,0.050000X-0.937033X-0.271066X0.937033X-0.271066X0.937033X0.271066X-0.937033X0.271066X0*%
%ADD13RoundRect,0.321066X-0.665967X0.000000X0.665967X0.000000X0.665967X0.000000X-0.665967X0.000000X0*%
%ADD14RoundRect,0.268750X-0.256250X0.218750X-0.256250X-0.218750X0.256250X-0.218750X0.256250X0.218750X0*%
%ADD15RoundRect,0.050000X-0.800000X0.800000X-0.800000X-0.800000X0.800000X-0.800000X0.800000X0.800000X0*%
%ADD16O,1.700000X1.700000*%
%ADD17RoundRect,0.050000X-0.850000X-0.850000X0.850000X-0.850000X0.850000X0.850000X-0.850000X0.850000X0*%
%ADD18O,1.800000X1.800000*%
%ADD19C,2.000000*%
%ADD20RoundRect,0.300000X0.620000X0.845000X-0.620000X0.845000X-0.620000X-0.845000X0.620000X-0.845000X0*%
%ADD21O,1.840000X2.290000*%
%ADD22RoundRect,0.300000X0.325000X0.650000X-0.325000X0.650000X-0.325000X-0.650000X0.325000X-0.650000X0*%
%ADD23RoundRect,0.050000X0.350000X0.762500X-0.350000X0.762500X-0.350000X-0.762500X0.350000X-0.762500X0*%
%ADD24RoundRect,0.050000X1.725000X-1.280000X1.725000X1.280000X-1.725000X1.280000X-1.725000X-1.280000X0*%
%ADD25RoundRect,0.050000X-1.000000X0.952500X-1.000000X-0.952500X1.000000X-0.952500X1.000000X0.952500X0*%
%ADD26O,2.100000X2.005000*%
%ADD27RoundRect,0.300000X-0.325000X-0.650000X0.325000X-0.650000X0.325000X0.650000X-0.325000X0.650000X0*%
%ADD28RoundRect,0.050000X0.800000X0.275000X-0.800000X0.275000X-0.800000X-0.275000X0.800000X-0.275000X0*%
%ADD29RoundRect,0.050000X-0.275000X0.800000X-0.275000X-0.800000X0.275000X-0.800000X0.275000X0.800000X0*%
%ADD30FreePoly0,270.000000*%
%ADD31FreePoly1,270.000000*%
%ADD32RoundRect,0.300000X-0.312500X-0.625000X0.312500X-0.625000X0.312500X0.625000X-0.312500X0.625000X0*%
%ADD33RoundRect,0.300000X0.262500X0.450000X-0.262500X0.450000X-0.262500X-0.450000X0.262500X-0.450000X0*%
%ADD34C,1.448000*%
%ADD35C,5.700000*%
%ADD36RoundRect,0.275000X0.225000X0.250000X-0.225000X0.250000X-0.225000X-0.250000X0.225000X-0.250000X0*%
%ADD37RoundRect,0.050000X1.225000X2.950000X-1.225000X2.950000X-1.225000X-2.950000X1.225000X-2.950000X0*%
%ADD38C,3.350000*%
%ADD39RoundRect,0.050000X-0.700000X-0.700000X0.700000X-0.700000X0.700000X0.700000X-0.700000X0.700000X0*%
%ADD40C,1.500000*%
%ADD41RoundRect,0.300000X-0.620000X-0.845000X0.620000X-0.845000X0.620000X0.845000X-0.620000X0.845000X0*%
%ADD42RoundRect,0.050000X0.850000X-0.850000X0.850000X0.850000X-0.850000X0.850000X-0.850000X-0.850000X0*%
%ADD43RoundRect,0.050000X0.950000X-0.200000X0.950000X0.200000X-0.950000X0.200000X-0.950000X-0.200000X0*%
%ADD44RoundRect,0.300000X0.650000X-0.325000X0.650000X0.325000X-0.650000X0.325000X-0.650000X-0.325000X0*%
%ADD45RoundRect,0.092000X0.258000X-0.788000X0.258000X0.788000X-0.258000X0.788000X-0.258000X-0.788000X0*%
%ADD46RoundRect,0.300000X-0.262500X-0.450000X0.262500X-0.450000X0.262500X0.450000X-0.262500X0.450000X0*%
G04 APERTURE END LIST*
D10*
%TO.C,R18*%
X143891000Y-122023500D03*
X143891000Y-123848500D03*
%TD*%
%TO.C,R16*%
X139268200Y-71069200D03*
X139268200Y-72894200D03*
%TD*%
D11*
%TO.C,R22*%
X171450000Y-73302500D03*
X171450000Y-71477500D03*
%TD*%
D12*
%TO.C,T1*%
X160243933Y-95250000D03*
D13*
X160243933Y-96520000D03*
X160243933Y-97790000D03*
X160243933Y-99060000D03*
X164876067Y-99060000D03*
X164876067Y-97790000D03*
X164876067Y-96520000D03*
X164876067Y-95250000D03*
%TD*%
D14*
%TO.C,D1*%
X171450000Y-66398500D03*
X171450000Y-67973500D03*
%TD*%
D15*
%TO.C,SW1*%
X139320800Y-75557600D03*
D16*
X136780799Y-75557599D03*
X134240799Y-75557599D03*
X131700799Y-75557599D03*
X131700799Y-83177599D03*
X134240799Y-83177599D03*
X136780799Y-83177599D03*
X139320799Y-83177599D03*
%TD*%
D10*
%TO.C,R15*%
X123532000Y-71069200D03*
X123532000Y-72894200D03*
%TD*%
D17*
%TO.C,J9*%
X150765000Y-74200000D03*
D18*
X153304999Y-74199999D03*
X150764999Y-76739999D03*
X153304999Y-76739999D03*
X150764999Y-79279999D03*
X153304999Y-79279999D03*
%TD*%
D19*
%TO.C,REF\u002A\u002A*%
X105450000Y-63340000D03*
%TD*%
D20*
%TO.C,J7*%
X129370666Y-60198000D03*
D21*
X126830665Y-60197999D03*
X124290665Y-60197999D03*
%TD*%
D22*
%TO.C,C7*%
X152452600Y-84734400D03*
X149502600Y-84734400D03*
%TD*%
D10*
%TO.C,R10*%
X131648200Y-71069200D03*
X131648200Y-72894200D03*
%TD*%
D19*
%TO.C,REF\u002A\u002A*%
X173950000Y-119540000D03*
%TD*%
D23*
%TO.C,B1*%
X134747000Y-117520000D03*
X136017000Y-117520000D03*
X137287000Y-117520000D03*
X138557000Y-117520000D03*
X138557000Y-112096000D03*
X137287000Y-112096000D03*
X136017000Y-112096000D03*
X134747000Y-112096000D03*
D24*
X136652000Y-114808000D03*
%TD*%
D25*
%TO.C,U1*%
X121229000Y-96012000D03*
D26*
X121228999Y-98551999D03*
X121228999Y-101091999D03*
%TD*%
D27*
%TO.C,C2A1*%
X146402000Y-104140000D03*
X149352000Y-104140000D03*
%TD*%
D28*
%TO.C,U2*%
X164810000Y-87450000D03*
X164810000Y-86650000D03*
X164810000Y-85850000D03*
X164810000Y-85050000D03*
X164810000Y-84250000D03*
X164810000Y-83450000D03*
X164810000Y-82650000D03*
X164810000Y-81850000D03*
D29*
X163360000Y-80400000D03*
X162560000Y-80400000D03*
X161760000Y-80400000D03*
X160960000Y-80400000D03*
X160160000Y-80400000D03*
X159360000Y-80400000D03*
X158560000Y-80400000D03*
X157760000Y-80400000D03*
D28*
X156310000Y-81850000D03*
X156310000Y-82650000D03*
X156310000Y-83450000D03*
X156310000Y-84250000D03*
X156310000Y-85050000D03*
X156310000Y-85850000D03*
X156310000Y-86650000D03*
X156310000Y-87450000D03*
D29*
X157760000Y-88900000D03*
X158560000Y-88900000D03*
X159360000Y-88900000D03*
X160160000Y-88900000D03*
X160960000Y-88900000D03*
X161760000Y-88900000D03*
X162560000Y-88900000D03*
X163360000Y-88900000D03*
%TD*%
D10*
%TO.C,R9*%
X132613400Y-117273700D03*
X132613400Y-119098700D03*
%TD*%
D27*
%TO.C,C11*%
X115580000Y-89408900D03*
X118530000Y-89408900D03*
%TD*%
D30*
%TO.C,JP3*%
X134112000Y-78523000D03*
D31*
X134112000Y-79973000D03*
%TD*%
D27*
%TO.C,C3*%
X138176000Y-109728000D03*
X141126000Y-109728000D03*
%TD*%
D32*
%TO.C,R3*%
X156017500Y-91440000D03*
X158942500Y-91440000D03*
%TD*%
D33*
%TO.C,R19*%
X133853200Y-86868900D03*
X132028200Y-86868900D03*
%TD*%
D30*
%TO.C,JP1*%
X139700000Y-78523000D03*
D31*
X139700000Y-79973000D03*
%TD*%
D27*
%TO.C,C9*%
X131455000Y-89408900D03*
X134405000Y-89408900D03*
%TD*%
D22*
%TO.C,C5*%
X117878000Y-98552000D03*
X114928000Y-98552000D03*
%TD*%
D34*
%TO.C,FAB\u002A\u002A*%
X176174400Y-54965600D03*
%TD*%
D10*
%TO.C,R11*%
X118452000Y-71069200D03*
X118452000Y-72894200D03*
%TD*%
D11*
%TO.C,R6*%
X117673000Y-95400500D03*
X117673000Y-93575500D03*
%TD*%
D10*
%TO.C,R14*%
X136728200Y-71069200D03*
X136728200Y-72894200D03*
%TD*%
D11*
%TO.C,R1*%
X141757400Y-123848500D03*
X141757400Y-122023500D03*
%TD*%
D35*
%TO.C,REF\u002A\u002A*%
X172800000Y-124540000D03*
%TD*%
D22*
%TO.C,C2B1*%
X146206000Y-109728000D03*
X143256000Y-109728000D03*
%TD*%
D33*
%TO.C,R21*%
X117982200Y-86868900D03*
X116157200Y-86868900D03*
%TD*%
D15*
%TO.C,SW2*%
X126122800Y-75557600D03*
D16*
X123582799Y-75557599D03*
X121042799Y-75557599D03*
X118502799Y-75557599D03*
X118502799Y-83177599D03*
X121042799Y-83177599D03*
X123582799Y-83177599D03*
X126122799Y-83177599D03*
%TD*%
D20*
%TO.C,J5*%
X150876000Y-60178000D03*
D21*
X148335999Y-60177999D03*
X145795999Y-60177999D03*
%TD*%
D30*
%TO.C,JP5*%
X118110000Y-79031000D03*
D31*
X118110000Y-80481000D03*
%TD*%
D36*
%TO.C,C1*%
X141110000Y-120015000D03*
X139560000Y-120015000D03*
%TD*%
D30*
%TO.C,JP2*%
X136906000Y-78523000D03*
D31*
X136906000Y-79973000D03*
%TD*%
D11*
%TO.C,R7*%
X137541000Y-121435500D03*
X137541000Y-119610500D03*
%TD*%
D30*
%TO.C,JP7*%
X123698000Y-79031000D03*
D31*
X123698000Y-80481000D03*
%TD*%
D37*
%TO.C,L1*%
X143622000Y-104902000D03*
X138072000Y-104902000D03*
%TD*%
D38*
%TO.C,J2*%
X115189000Y-116625000D03*
X126619000Y-116625000D03*
D39*
X116459000Y-110275000D03*
D40*
X117729000Y-107735000D03*
X118999000Y-110275000D03*
X120269000Y-107735000D03*
X121539000Y-110275000D03*
X122809000Y-107735000D03*
X124079000Y-110275000D03*
X125349000Y-107735000D03*
%TD*%
D41*
%TO.C,J4*%
X157496000Y-60218000D03*
D21*
X160035999Y-60217999D03*
X162575999Y-60217999D03*
X165115999Y-60217999D03*
%TD*%
D19*
%TO.C,REF\u002A\u002A*%
X105450000Y-119540000D03*
%TD*%
D38*
%TO.C,J1*%
X152781000Y-116625000D03*
X164211000Y-116625000D03*
D39*
X154051000Y-110275000D03*
D40*
X155321000Y-107735000D03*
X156591000Y-110275000D03*
X157861000Y-107735000D03*
X159131000Y-110275000D03*
X160401000Y-107735000D03*
X161671000Y-110275000D03*
X162941000Y-107735000D03*
%TD*%
D20*
%TO.C,J8*%
X118618000Y-60198000D03*
D21*
X116077999Y-60197999D03*
X113537999Y-60197999D03*
%TD*%
D30*
%TO.C,JP8*%
X126492000Y-79031000D03*
D31*
X126492000Y-80481000D03*
%TD*%
D20*
%TO.C,J6*%
X140123332Y-60178000D03*
D21*
X137583331Y-60177999D03*
X135043331Y-60177999D03*
%TD*%
D42*
%TO.C,J3*%
X129794000Y-94742000D03*
D18*
X132333999Y-94741999D03*
X134873999Y-94741999D03*
%TD*%
D11*
%TO.C,R8*%
X132969000Y-122705500D03*
X132969000Y-120880500D03*
%TD*%
D43*
%TO.C,Y1*%
X169926000Y-83445200D03*
X169926000Y-82245200D03*
X169926000Y-81045200D03*
%TD*%
D35*
%TO.C,REF\u002A\u002A*%
X106600000Y-58340000D03*
%TD*%
D34*
%TO.C,FAB\u002A\u002A*%
X103225600Y-127914400D03*
%TD*%
%TO.C,FAB\u002A\u002A*%
X176174400Y-127914400D03*
%TD*%
D30*
%TO.C,JP9*%
X112940200Y-78600100D03*
D31*
X112940200Y-80050100D03*
%TD*%
D22*
%TO.C,C4*%
X117807000Y-103632000D03*
X114857000Y-103632000D03*
%TD*%
D27*
%TO.C,C8*%
X161544000Y-75438000D03*
X164494000Y-75438000D03*
%TD*%
D35*
%TO.C,REF\u002A\u002A*%
X106600000Y-124540000D03*
%TD*%
D11*
%TO.C,R4*%
X168656000Y-97940500D03*
X168656000Y-96115500D03*
%TD*%
%TO.C,R2*%
X139623800Y-123848500D03*
X139623800Y-122023500D03*
%TD*%
D35*
%TO.C,REF\u002A\u002A*%
X172800000Y-58340000D03*
%TD*%
D30*
%TO.C,JP6*%
X120904000Y-79031000D03*
D31*
X120904000Y-80481000D03*
%TD*%
D27*
%TO.C,C2*%
X133194000Y-109728000D03*
X136144000Y-109728000D03*
%TD*%
D44*
%TO.C,C6*%
X135259000Y-122633000D03*
X135259000Y-119683000D03*
%TD*%
D10*
%TO.C,R13*%
X120992000Y-71069200D03*
X120992000Y-72894200D03*
%TD*%
D45*
%TO.C,H1*%
X159544000Y-72644000D03*
X160544000Y-72644000D03*
X161544000Y-72644000D03*
X162544000Y-72644000D03*
X163544000Y-72644000D03*
X163544000Y-67394000D03*
X162544000Y-67394000D03*
X161544000Y-67394000D03*
X160544000Y-67394000D03*
X159544000Y-67394000D03*
%TD*%
D10*
%TO.C,R12*%
X134188200Y-71069200D03*
X134188200Y-72894200D03*
%TD*%
D30*
%TO.C,JP4*%
X131318000Y-78523000D03*
D31*
X131318000Y-79973000D03*
%TD*%
D22*
%TO.C,C10*%
X126531000Y-89408900D03*
X123581000Y-89408900D03*
%TD*%
D10*
%TO.C,R17*%
X126072000Y-71069200D03*
X126072000Y-72894200D03*
%TD*%
%TO.C,R5*%
X114879000Y-93575500D03*
X114879000Y-95400500D03*
%TD*%
D15*
%TO.C,SW3*%
X112940200Y-75557600D03*
D16*
X112940199Y-83177599D03*
%TD*%
D46*
%TO.C,R20*%
X124154200Y-86868900D03*
X125979200Y-86868900D03*
%TD*%
M02*
