%TF.GenerationSoftware,KiCad,Pcbnew,(7.0.0)*%
%TF.CreationDate,2023-03-10T18:22:28-08:00*%
%TF.ProjectId,smeza_pcb,736d657a-615f-4706-9362-2e6b69636164,rev?*%
%TF.SameCoordinates,Original*%
%TF.FileFunction,Legend,Top*%
%TF.FilePolarity,Positive*%
%FSLAX46Y46*%
G04 Gerber Fmt 4.6, Leading zero omitted, Abs format (unit mm)*
G04 Created by KiCad (PCBNEW (7.0.0)) date 2023-03-10 18:22:28*
%MOMM*%
%LPD*%
G01*
G04 APERTURE LIST*
G04 Aperture macros list*
%AMRoundRect*
0 Rectangle with rounded corners*
0 $1 Rounding radius*
0 $2 $3 $4 $5 $6 $7 $8 $9 X,Y pos of 4 corners*
0 Add a 4 corners polygon primitive as box body*
4,1,4,$2,$3,$4,$5,$6,$7,$8,$9,$2,$3,0*
0 Add four circle primitives for the rounded corners*
1,1,$1+$1,$2,$3*
1,1,$1+$1,$4,$5*
1,1,$1+$1,$6,$7*
1,1,$1+$1,$8,$9*
0 Add four rect primitives between the rounded corners*
20,1,$1+$1,$2,$3,$4,$5,0*
20,1,$1+$1,$4,$5,$6,$7,0*
20,1,$1+$1,$6,$7,$8,$9,0*
20,1,$1+$1,$8,$9,$2,$3,0*%
G04 Aperture macros list end*
%ADD10C,0.153000*%
%ADD11C,0.300000*%
%ADD12C,0.150000*%
%ADD13C,0.120000*%
%ADD14C,0.250000*%
%ADD15C,0.127000*%
%ADD16C,0.200000*%
%ADD17RoundRect,0.300000X-0.450000X0.262500X-0.450000X-0.262500X0.450000X-0.262500X0.450000X0.262500X0*%
%ADD18RoundRect,0.300000X0.450000X-0.262500X0.450000X0.262500X-0.450000X0.262500X-0.450000X-0.262500X0*%
%ADD19RoundRect,0.050000X-0.937033X-0.271066X0.937033X-0.271066X0.937033X0.271066X-0.937033X0.271066X0*%
%ADD20RoundRect,0.321066X-0.665967X0.000000X0.665967X0.000000X0.665967X0.000000X-0.665967X0.000000X0*%
%ADD21RoundRect,0.268750X-0.256250X0.218750X-0.256250X-0.218750X0.256250X-0.218750X0.256250X0.218750X0*%
%ADD22RoundRect,0.050000X-0.800000X0.800000X-0.800000X-0.800000X0.800000X-0.800000X0.800000X0.800000X0*%
%ADD23O,1.700000X1.700000*%
%ADD24RoundRect,0.050000X-0.850000X-0.850000X0.850000X-0.850000X0.850000X0.850000X-0.850000X0.850000X0*%
%ADD25O,1.800000X1.800000*%
%ADD26RoundRect,0.300000X0.620000X0.845000X-0.620000X0.845000X-0.620000X-0.845000X0.620000X-0.845000X0*%
%ADD27O,1.840000X2.290000*%
%ADD28RoundRect,0.300000X0.325000X0.650000X-0.325000X0.650000X-0.325000X-0.650000X0.325000X-0.650000X0*%
%ADD29RoundRect,0.050000X0.350000X0.762500X-0.350000X0.762500X-0.350000X-0.762500X0.350000X-0.762500X0*%
%ADD30RoundRect,0.050000X1.725000X-1.280000X1.725000X1.280000X-1.725000X1.280000X-1.725000X-1.280000X0*%
%ADD31RoundRect,0.050000X-1.000000X0.952500X-1.000000X-0.952500X1.000000X-0.952500X1.000000X0.952500X0*%
%ADD32O,2.100000X2.005000*%
%ADD33RoundRect,0.300000X-0.325000X-0.650000X0.325000X-0.650000X0.325000X0.650000X-0.325000X0.650000X0*%
%ADD34RoundRect,0.050000X0.800000X0.275000X-0.800000X0.275000X-0.800000X-0.275000X0.800000X-0.275000X0*%
%ADD35RoundRect,0.050000X-0.275000X0.800000X-0.275000X-0.800000X0.275000X-0.800000X0.275000X0.800000X0*%
%ADD36RoundRect,0.300000X-0.312500X-0.625000X0.312500X-0.625000X0.312500X0.625000X-0.312500X0.625000X0*%
%ADD37RoundRect,0.300000X0.262500X0.450000X-0.262500X0.450000X-0.262500X-0.450000X0.262500X-0.450000X0*%
%ADD38C,5.700000*%
%ADD39RoundRect,0.275000X0.225000X0.250000X-0.225000X0.250000X-0.225000X-0.250000X0.225000X-0.250000X0*%
%ADD40RoundRect,0.050000X1.225000X2.950000X-1.225000X2.950000X-1.225000X-2.950000X1.225000X-2.950000X0*%
%ADD41C,3.350000*%
%ADD42RoundRect,0.050000X-0.700000X-0.700000X0.700000X-0.700000X0.700000X0.700000X-0.700000X0.700000X0*%
%ADD43C,1.500000*%
%ADD44RoundRect,0.300000X-0.620000X-0.845000X0.620000X-0.845000X0.620000X0.845000X-0.620000X0.845000X0*%
%ADD45RoundRect,0.050000X0.850000X-0.850000X0.850000X0.850000X-0.850000X0.850000X-0.850000X-0.850000X0*%
%ADD46RoundRect,0.050000X0.950000X-0.200000X0.950000X0.200000X-0.950000X0.200000X-0.950000X-0.200000X0*%
%ADD47RoundRect,0.300000X0.650000X-0.325000X0.650000X0.325000X-0.650000X0.325000X-0.650000X-0.325000X0*%
%ADD48RoundRect,0.092000X0.258000X-0.788000X0.258000X0.788000X-0.258000X0.788000X-0.258000X-0.788000X0*%
%ADD49RoundRect,0.300000X-0.262500X-0.450000X0.262500X-0.450000X0.262500X0.450000X-0.262500X0.450000X0*%
G04 APERTURE END LIST*
D10*
X162723428Y-65801904D02*
X162723428Y-65040000D01*
X162628190Y-64373333D02*
X163104380Y-64373333D01*
X162104380Y-64706666D02*
X162628190Y-64373333D01*
X162628190Y-64373333D02*
X162104380Y-64040000D01*
D11*
X172189952Y-117514761D02*
X169689952Y-117514761D01*
X169689952Y-117514761D02*
X172189952Y-116086190D01*
X172189952Y-116086190D02*
X169689952Y-116086190D01*
X169689952Y-114419523D02*
X169689952Y-113943332D01*
X169689952Y-113943332D02*
X169809000Y-113705237D01*
X169809000Y-113705237D02*
X170047095Y-113467142D01*
X170047095Y-113467142D02*
X170523285Y-113348094D01*
X170523285Y-113348094D02*
X171356619Y-113348094D01*
X171356619Y-113348094D02*
X171832809Y-113467142D01*
X171832809Y-113467142D02*
X172070904Y-113705237D01*
X172070904Y-113705237D02*
X172189952Y-113943332D01*
X172189952Y-113943332D02*
X172189952Y-114419523D01*
X172189952Y-114419523D02*
X172070904Y-114657618D01*
X172070904Y-114657618D02*
X171832809Y-114895713D01*
X171832809Y-114895713D02*
X171356619Y-115014761D01*
X171356619Y-115014761D02*
X170523285Y-115014761D01*
X170523285Y-115014761D02*
X170047095Y-114895713D01*
X170047095Y-114895713D02*
X169809000Y-114657618D01*
X169809000Y-114657618D02*
X169689952Y-114419523D01*
X169689952Y-112633808D02*
X169689952Y-111205237D01*
X172189952Y-111919523D02*
X169689952Y-111919523D01*
X174930428Y-117514761D02*
X174930428Y-116681428D01*
X176239952Y-116324285D02*
X176239952Y-117514761D01*
X176239952Y-117514761D02*
X173739952Y-117514761D01*
X173739952Y-117514761D02*
X173739952Y-116324285D01*
X173739952Y-115609999D02*
X173739952Y-114181428D01*
X176239952Y-114895714D02*
X173739952Y-114895714D01*
X176239952Y-113348094D02*
X173739952Y-113348094D01*
X174930428Y-113348094D02*
X174930428Y-111919523D01*
X176239952Y-111919523D02*
X173739952Y-111919523D01*
X174930428Y-110729046D02*
X174930428Y-109895713D01*
X176239952Y-109538570D02*
X176239952Y-110729046D01*
X176239952Y-110729046D02*
X173739952Y-110729046D01*
X173739952Y-110729046D02*
X173739952Y-109538570D01*
X176239952Y-107038570D02*
X175049476Y-107871903D01*
X176239952Y-108467141D02*
X173739952Y-108467141D01*
X173739952Y-108467141D02*
X173739952Y-107514760D01*
X173739952Y-107514760D02*
X173859000Y-107276665D01*
X173859000Y-107276665D02*
X173978047Y-107157618D01*
X173978047Y-107157618D02*
X174216142Y-107038570D01*
X174216142Y-107038570D02*
X174573285Y-107038570D01*
X174573285Y-107038570D02*
X174811380Y-107157618D01*
X174811380Y-107157618D02*
X174930428Y-107276665D01*
X174930428Y-107276665D02*
X175049476Y-107514760D01*
X175049476Y-107514760D02*
X175049476Y-108467141D01*
X176239952Y-105967141D02*
X173739952Y-105967141D01*
X173739952Y-105967141D02*
X176239952Y-104538570D01*
X176239952Y-104538570D02*
X173739952Y-104538570D01*
X174930428Y-103348093D02*
X174930428Y-102514760D01*
X176239952Y-102157617D02*
X176239952Y-103348093D01*
X176239952Y-103348093D02*
X173739952Y-103348093D01*
X173739952Y-103348093D02*
X173739952Y-102157617D01*
X173739952Y-101443331D02*
X173739952Y-100014760D01*
X176239952Y-100729046D02*
X173739952Y-100729046D01*
X176239952Y-97681426D02*
X173739952Y-97681426D01*
X173739952Y-97681426D02*
X173739952Y-96729045D01*
X173739952Y-96729045D02*
X173859000Y-96490950D01*
X173859000Y-96490950D02*
X173978047Y-96371903D01*
X173978047Y-96371903D02*
X174216142Y-96252855D01*
X174216142Y-96252855D02*
X174573285Y-96252855D01*
X174573285Y-96252855D02*
X174811380Y-96371903D01*
X174811380Y-96371903D02*
X174930428Y-96490950D01*
X174930428Y-96490950D02*
X175049476Y-96729045D01*
X175049476Y-96729045D02*
X175049476Y-97681426D01*
X173739952Y-94705236D02*
X173739952Y-94229045D01*
X173739952Y-94229045D02*
X173859000Y-93990950D01*
X173859000Y-93990950D02*
X174097095Y-93752855D01*
X174097095Y-93752855D02*
X174573285Y-93633807D01*
X174573285Y-93633807D02*
X175406619Y-93633807D01*
X175406619Y-93633807D02*
X175882809Y-93752855D01*
X175882809Y-93752855D02*
X176120904Y-93990950D01*
X176120904Y-93990950D02*
X176239952Y-94229045D01*
X176239952Y-94229045D02*
X176239952Y-94705236D01*
X176239952Y-94705236D02*
X176120904Y-94943331D01*
X176120904Y-94943331D02*
X175882809Y-95181426D01*
X175882809Y-95181426D02*
X175406619Y-95300474D01*
X175406619Y-95300474D02*
X174573285Y-95300474D01*
X174573285Y-95300474D02*
X174097095Y-95181426D01*
X174097095Y-95181426D02*
X173859000Y-94943331D01*
X173859000Y-94943331D02*
X173739952Y-94705236D01*
X176239952Y-91133807D02*
X175049476Y-91967140D01*
X176239952Y-92562378D02*
X173739952Y-92562378D01*
X173739952Y-92562378D02*
X173739952Y-91609997D01*
X173739952Y-91609997D02*
X173859000Y-91371902D01*
X173859000Y-91371902D02*
X173978047Y-91252855D01*
X173978047Y-91252855D02*
X174216142Y-91133807D01*
X174216142Y-91133807D02*
X174573285Y-91133807D01*
X174573285Y-91133807D02*
X174811380Y-91252855D01*
X174811380Y-91252855D02*
X174930428Y-91371902D01*
X174930428Y-91371902D02*
X175049476Y-91609997D01*
X175049476Y-91609997D02*
X175049476Y-92562378D01*
X173739952Y-90419521D02*
X173739952Y-88990950D01*
X176239952Y-89705236D02*
X173739952Y-89705236D01*
X176120904Y-88276664D02*
X176239952Y-87919521D01*
X176239952Y-87919521D02*
X176239952Y-87324283D01*
X176239952Y-87324283D02*
X176120904Y-87086188D01*
X176120904Y-87086188D02*
X176001857Y-86967140D01*
X176001857Y-86967140D02*
X175763761Y-86848093D01*
X175763761Y-86848093D02*
X175525666Y-86848093D01*
X175525666Y-86848093D02*
X175287571Y-86967140D01*
X175287571Y-86967140D02*
X175168523Y-87086188D01*
X175168523Y-87086188D02*
X175049476Y-87324283D01*
X175049476Y-87324283D02*
X174930428Y-87800474D01*
X174930428Y-87800474D02*
X174811380Y-88038569D01*
X174811380Y-88038569D02*
X174692333Y-88157616D01*
X174692333Y-88157616D02*
X174454238Y-88276664D01*
X174454238Y-88276664D02*
X174216142Y-88276664D01*
X174216142Y-88276664D02*
X173978047Y-88157616D01*
X173978047Y-88157616D02*
X173859000Y-88038569D01*
X173859000Y-88038569D02*
X173739952Y-87800474D01*
X173739952Y-87800474D02*
X173739952Y-87205235D01*
X173739952Y-87205235D02*
X173859000Y-86848093D01*
X176001857Y-85776664D02*
X176120904Y-85657617D01*
X176120904Y-85657617D02*
X176239952Y-85776664D01*
X176239952Y-85776664D02*
X176120904Y-85895712D01*
X176120904Y-85895712D02*
X176001857Y-85776664D01*
X176001857Y-85776664D02*
X176239952Y-85776664D01*
X175287571Y-85776664D02*
X173859000Y-85895712D01*
X173859000Y-85895712D02*
X173739952Y-85776664D01*
X173739952Y-85776664D02*
X173859000Y-85657617D01*
X173859000Y-85657617D02*
X175287571Y-85776664D01*
X175287571Y-85776664D02*
X173739952Y-85776664D01*
X135893771Y-88336571D02*
X135893771Y-89050857D01*
X135893771Y-89050857D02*
X134393771Y-89050857D01*
X135822342Y-87907999D02*
X135893771Y-87693714D01*
X135893771Y-87693714D02*
X135893771Y-87336571D01*
X135893771Y-87336571D02*
X135822342Y-87193714D01*
X135822342Y-87193714D02*
X135750914Y-87122285D01*
X135750914Y-87122285D02*
X135608057Y-87050856D01*
X135608057Y-87050856D02*
X135465200Y-87050856D01*
X135465200Y-87050856D02*
X135322342Y-87122285D01*
X135322342Y-87122285D02*
X135250914Y-87193714D01*
X135250914Y-87193714D02*
X135179485Y-87336571D01*
X135179485Y-87336571D02*
X135108057Y-87622285D01*
X135108057Y-87622285D02*
X135036628Y-87765142D01*
X135036628Y-87765142D02*
X134965200Y-87836571D01*
X134965200Y-87836571D02*
X134822342Y-87907999D01*
X134822342Y-87907999D02*
X134679485Y-87907999D01*
X134679485Y-87907999D02*
X134536628Y-87836571D01*
X134536628Y-87836571D02*
X134465200Y-87765142D01*
X134465200Y-87765142D02*
X134393771Y-87622285D01*
X134393771Y-87622285D02*
X134393771Y-87265142D01*
X134393771Y-87265142D02*
X134465200Y-87050856D01*
X135108057Y-85908000D02*
X135179485Y-85693714D01*
X135179485Y-85693714D02*
X135250914Y-85622285D01*
X135250914Y-85622285D02*
X135393771Y-85550857D01*
X135393771Y-85550857D02*
X135608057Y-85550857D01*
X135608057Y-85550857D02*
X135750914Y-85622285D01*
X135750914Y-85622285D02*
X135822342Y-85693714D01*
X135822342Y-85693714D02*
X135893771Y-85836571D01*
X135893771Y-85836571D02*
X135893771Y-86408000D01*
X135893771Y-86408000D02*
X134393771Y-86408000D01*
X134393771Y-86408000D02*
X134393771Y-85908000D01*
X134393771Y-85908000D02*
X134465200Y-85765143D01*
X134465200Y-85765143D02*
X134536628Y-85693714D01*
X134536628Y-85693714D02*
X134679485Y-85622285D01*
X134679485Y-85622285D02*
X134822342Y-85622285D01*
X134822342Y-85622285D02*
X134965200Y-85693714D01*
X134965200Y-85693714D02*
X135036628Y-85765143D01*
X135036628Y-85765143D02*
X135108057Y-85908000D01*
X135108057Y-85908000D02*
X135108057Y-86408000D01*
D10*
X145005380Y-80787904D02*
X144005380Y-80787904D01*
X144005380Y-80787904D02*
X144005380Y-80549809D01*
X144005380Y-80549809D02*
X144053000Y-80406952D01*
X144053000Y-80406952D02*
X144148238Y-80311714D01*
X144148238Y-80311714D02*
X144243476Y-80264095D01*
X144243476Y-80264095D02*
X144433952Y-80216476D01*
X144433952Y-80216476D02*
X144576809Y-80216476D01*
X144576809Y-80216476D02*
X144767285Y-80264095D01*
X144767285Y-80264095D02*
X144862523Y-80311714D01*
X144862523Y-80311714D02*
X144957761Y-80406952D01*
X144957761Y-80406952D02*
X145005380Y-80549809D01*
X145005380Y-80549809D02*
X145005380Y-80787904D01*
X145005380Y-79787904D02*
X144338714Y-79787904D01*
X144005380Y-79787904D02*
X144053000Y-79835523D01*
X144053000Y-79835523D02*
X144100619Y-79787904D01*
X144100619Y-79787904D02*
X144053000Y-79740285D01*
X144053000Y-79740285D02*
X144005380Y-79787904D01*
X144005380Y-79787904D02*
X144100619Y-79787904D01*
X144957761Y-79359333D02*
X145005380Y-79264095D01*
X145005380Y-79264095D02*
X145005380Y-79073619D01*
X145005380Y-79073619D02*
X144957761Y-78978381D01*
X144957761Y-78978381D02*
X144862523Y-78930762D01*
X144862523Y-78930762D02*
X144814904Y-78930762D01*
X144814904Y-78930762D02*
X144719666Y-78978381D01*
X144719666Y-78978381D02*
X144672047Y-79073619D01*
X144672047Y-79073619D02*
X144672047Y-79216476D01*
X144672047Y-79216476D02*
X144624428Y-79311714D01*
X144624428Y-79311714D02*
X144529190Y-79359333D01*
X144529190Y-79359333D02*
X144481571Y-79359333D01*
X144481571Y-79359333D02*
X144386333Y-79311714D01*
X144386333Y-79311714D02*
X144338714Y-79216476D01*
X144338714Y-79216476D02*
X144338714Y-79073619D01*
X144338714Y-79073619D02*
X144386333Y-78978381D01*
X144957761Y-78073619D02*
X145005380Y-78168857D01*
X145005380Y-78168857D02*
X145005380Y-78359333D01*
X145005380Y-78359333D02*
X144957761Y-78454571D01*
X144957761Y-78454571D02*
X144910142Y-78502190D01*
X144910142Y-78502190D02*
X144814904Y-78549809D01*
X144814904Y-78549809D02*
X144529190Y-78549809D01*
X144529190Y-78549809D02*
X144433952Y-78502190D01*
X144433952Y-78502190D02*
X144386333Y-78454571D01*
X144386333Y-78454571D02*
X144338714Y-78359333D01*
X144338714Y-78359333D02*
X144338714Y-78168857D01*
X144338714Y-78168857D02*
X144386333Y-78073619D01*
X145005380Y-77502190D02*
X144957761Y-77597428D01*
X144957761Y-77597428D02*
X144910142Y-77645047D01*
X144910142Y-77645047D02*
X144814904Y-77692666D01*
X144814904Y-77692666D02*
X144529190Y-77692666D01*
X144529190Y-77692666D02*
X144433952Y-77645047D01*
X144433952Y-77645047D02*
X144386333Y-77597428D01*
X144386333Y-77597428D02*
X144338714Y-77502190D01*
X144338714Y-77502190D02*
X144338714Y-77359333D01*
X144338714Y-77359333D02*
X144386333Y-77264095D01*
X144386333Y-77264095D02*
X144433952Y-77216476D01*
X144433952Y-77216476D02*
X144529190Y-77168857D01*
X144529190Y-77168857D02*
X144814904Y-77168857D01*
X144814904Y-77168857D02*
X144910142Y-77216476D01*
X144910142Y-77216476D02*
X144957761Y-77264095D01*
X144957761Y-77264095D02*
X145005380Y-77359333D01*
X145005380Y-77359333D02*
X145005380Y-77502190D01*
X144338714Y-76740285D02*
X145005380Y-76740285D01*
X144433952Y-76740285D02*
X144386333Y-76692666D01*
X144386333Y-76692666D02*
X144338714Y-76597428D01*
X144338714Y-76597428D02*
X144338714Y-76454571D01*
X144338714Y-76454571D02*
X144386333Y-76359333D01*
X144386333Y-76359333D02*
X144481571Y-76311714D01*
X144481571Y-76311714D02*
X145005380Y-76311714D01*
X144338714Y-75835523D02*
X145005380Y-75835523D01*
X144433952Y-75835523D02*
X144386333Y-75787904D01*
X144386333Y-75787904D02*
X144338714Y-75692666D01*
X144338714Y-75692666D02*
X144338714Y-75549809D01*
X144338714Y-75549809D02*
X144386333Y-75454571D01*
X144386333Y-75454571D02*
X144481571Y-75406952D01*
X144481571Y-75406952D02*
X145005380Y-75406952D01*
X144957761Y-74549809D02*
X145005380Y-74645047D01*
X145005380Y-74645047D02*
X145005380Y-74835523D01*
X145005380Y-74835523D02*
X144957761Y-74930761D01*
X144957761Y-74930761D02*
X144862523Y-74978380D01*
X144862523Y-74978380D02*
X144481571Y-74978380D01*
X144481571Y-74978380D02*
X144386333Y-74930761D01*
X144386333Y-74930761D02*
X144338714Y-74835523D01*
X144338714Y-74835523D02*
X144338714Y-74645047D01*
X144338714Y-74645047D02*
X144386333Y-74549809D01*
X144386333Y-74549809D02*
X144481571Y-74502190D01*
X144481571Y-74502190D02*
X144576809Y-74502190D01*
X144576809Y-74502190D02*
X144672047Y-74978380D01*
X144957761Y-73645047D02*
X145005380Y-73740285D01*
X145005380Y-73740285D02*
X145005380Y-73930761D01*
X145005380Y-73930761D02*
X144957761Y-74025999D01*
X144957761Y-74025999D02*
X144910142Y-74073618D01*
X144910142Y-74073618D02*
X144814904Y-74121237D01*
X144814904Y-74121237D02*
X144529190Y-74121237D01*
X144529190Y-74121237D02*
X144433952Y-74073618D01*
X144433952Y-74073618D02*
X144386333Y-74025999D01*
X144386333Y-74025999D02*
X144338714Y-73930761D01*
X144338714Y-73930761D02*
X144338714Y-73740285D01*
X144338714Y-73740285D02*
X144386333Y-73645047D01*
X144338714Y-73359332D02*
X144338714Y-72978380D01*
X144005380Y-73216475D02*
X144862523Y-73216475D01*
X144862523Y-73216475D02*
X144957761Y-73168856D01*
X144957761Y-73168856D02*
X145005380Y-73073618D01*
X145005380Y-73073618D02*
X145005380Y-72978380D01*
X145005380Y-71902189D02*
X144957761Y-71997427D01*
X144957761Y-71997427D02*
X144862523Y-72045046D01*
X144862523Y-72045046D02*
X144005380Y-72045046D01*
X145005380Y-71521236D02*
X144338714Y-71521236D01*
X144005380Y-71521236D02*
X144053000Y-71568855D01*
X144053000Y-71568855D02*
X144100619Y-71521236D01*
X144100619Y-71521236D02*
X144053000Y-71473617D01*
X144053000Y-71473617D02*
X144005380Y-71521236D01*
X144005380Y-71521236D02*
X144100619Y-71521236D01*
X145005380Y-71045046D02*
X144338714Y-71045046D01*
X144433952Y-71045046D02*
X144386333Y-70997427D01*
X144386333Y-70997427D02*
X144338714Y-70902189D01*
X144338714Y-70902189D02*
X144338714Y-70759332D01*
X144338714Y-70759332D02*
X144386333Y-70664094D01*
X144386333Y-70664094D02*
X144481571Y-70616475D01*
X144481571Y-70616475D02*
X145005380Y-70616475D01*
X144481571Y-70616475D02*
X144386333Y-70568856D01*
X144386333Y-70568856D02*
X144338714Y-70473618D01*
X144338714Y-70473618D02*
X144338714Y-70330761D01*
X144338714Y-70330761D02*
X144386333Y-70235522D01*
X144386333Y-70235522D02*
X144481571Y-70187903D01*
X144481571Y-70187903D02*
X145005380Y-70187903D01*
X145005380Y-69711713D02*
X144338714Y-69711713D01*
X144005380Y-69711713D02*
X144053000Y-69759332D01*
X144053000Y-69759332D02*
X144100619Y-69711713D01*
X144100619Y-69711713D02*
X144053000Y-69664094D01*
X144053000Y-69664094D02*
X144005380Y-69711713D01*
X144005380Y-69711713D02*
X144100619Y-69711713D01*
X144338714Y-69378380D02*
X144338714Y-68997428D01*
X144005380Y-69235523D02*
X144862523Y-69235523D01*
X144862523Y-69235523D02*
X144957761Y-69187904D01*
X144957761Y-69187904D02*
X145005380Y-69092666D01*
X145005380Y-69092666D02*
X145005380Y-68997428D01*
X146577761Y-80835523D02*
X146625380Y-80740285D01*
X146625380Y-80740285D02*
X146625380Y-80549809D01*
X146625380Y-80549809D02*
X146577761Y-80454571D01*
X146577761Y-80454571D02*
X146482523Y-80406952D01*
X146482523Y-80406952D02*
X146434904Y-80406952D01*
X146434904Y-80406952D02*
X146339666Y-80454571D01*
X146339666Y-80454571D02*
X146292047Y-80549809D01*
X146292047Y-80549809D02*
X146292047Y-80692666D01*
X146292047Y-80692666D02*
X146244428Y-80787904D01*
X146244428Y-80787904D02*
X146149190Y-80835523D01*
X146149190Y-80835523D02*
X146101571Y-80835523D01*
X146101571Y-80835523D02*
X146006333Y-80787904D01*
X146006333Y-80787904D02*
X145958714Y-80692666D01*
X145958714Y-80692666D02*
X145958714Y-80549809D01*
X145958714Y-80549809D02*
X146006333Y-80454571D01*
X145958714Y-80073618D02*
X146625380Y-79883142D01*
X146625380Y-79883142D02*
X146149190Y-79692666D01*
X146149190Y-79692666D02*
X146625380Y-79502190D01*
X146625380Y-79502190D02*
X145958714Y-79311714D01*
X146625380Y-78930761D02*
X145958714Y-78930761D01*
X145625380Y-78930761D02*
X145673000Y-78978380D01*
X145673000Y-78978380D02*
X145720619Y-78930761D01*
X145720619Y-78930761D02*
X145673000Y-78883142D01*
X145673000Y-78883142D02*
X145625380Y-78930761D01*
X145625380Y-78930761D02*
X145720619Y-78930761D01*
X145958714Y-78597428D02*
X145958714Y-78216476D01*
X145625380Y-78454571D02*
X146482523Y-78454571D01*
X146482523Y-78454571D02*
X146577761Y-78406952D01*
X146577761Y-78406952D02*
X146625380Y-78311714D01*
X146625380Y-78311714D02*
X146625380Y-78216476D01*
X146577761Y-77454571D02*
X146625380Y-77549809D01*
X146625380Y-77549809D02*
X146625380Y-77740285D01*
X146625380Y-77740285D02*
X146577761Y-77835523D01*
X146577761Y-77835523D02*
X146530142Y-77883142D01*
X146530142Y-77883142D02*
X146434904Y-77930761D01*
X146434904Y-77930761D02*
X146149190Y-77930761D01*
X146149190Y-77930761D02*
X146053952Y-77883142D01*
X146053952Y-77883142D02*
X146006333Y-77835523D01*
X146006333Y-77835523D02*
X145958714Y-77740285D01*
X145958714Y-77740285D02*
X145958714Y-77549809D01*
X145958714Y-77549809D02*
X146006333Y-77454571D01*
X146625380Y-77025999D02*
X145625380Y-77025999D01*
X146625380Y-76597428D02*
X146101571Y-76597428D01*
X146101571Y-76597428D02*
X146006333Y-76645047D01*
X146006333Y-76645047D02*
X145958714Y-76740285D01*
X145958714Y-76740285D02*
X145958714Y-76883142D01*
X145958714Y-76883142D02*
X146006333Y-76978380D01*
X146006333Y-76978380D02*
X146053952Y-77025999D01*
X146577761Y-75740285D02*
X146625380Y-75835523D01*
X146625380Y-75835523D02*
X146625380Y-76025999D01*
X146625380Y-76025999D02*
X146577761Y-76121237D01*
X146577761Y-76121237D02*
X146482523Y-76168856D01*
X146482523Y-76168856D02*
X146101571Y-76168856D01*
X146101571Y-76168856D02*
X146006333Y-76121237D01*
X146006333Y-76121237D02*
X145958714Y-76025999D01*
X145958714Y-76025999D02*
X145958714Y-75835523D01*
X145958714Y-75835523D02*
X146006333Y-75740285D01*
X146006333Y-75740285D02*
X146101571Y-75692666D01*
X146101571Y-75692666D02*
X146196809Y-75692666D01*
X146196809Y-75692666D02*
X146292047Y-76168856D01*
X146577761Y-75311713D02*
X146625380Y-75216475D01*
X146625380Y-75216475D02*
X146625380Y-75025999D01*
X146625380Y-75025999D02*
X146577761Y-74930761D01*
X146577761Y-74930761D02*
X146482523Y-74883142D01*
X146482523Y-74883142D02*
X146434904Y-74883142D01*
X146434904Y-74883142D02*
X146339666Y-74930761D01*
X146339666Y-74930761D02*
X146292047Y-75025999D01*
X146292047Y-75025999D02*
X146292047Y-75168856D01*
X146292047Y-75168856D02*
X146244428Y-75264094D01*
X146244428Y-75264094D02*
X146149190Y-75311713D01*
X146149190Y-75311713D02*
X146101571Y-75311713D01*
X146101571Y-75311713D02*
X146006333Y-75264094D01*
X146006333Y-75264094D02*
X145958714Y-75168856D01*
X145958714Y-75168856D02*
X145958714Y-75025999D01*
X145958714Y-75025999D02*
X146006333Y-74930761D01*
X146625380Y-73854570D02*
X145625380Y-73854570D01*
X146006333Y-73854570D02*
X145958714Y-73759332D01*
X145958714Y-73759332D02*
X145958714Y-73568856D01*
X145958714Y-73568856D02*
X146006333Y-73473618D01*
X146006333Y-73473618D02*
X146053952Y-73425999D01*
X146053952Y-73425999D02*
X146149190Y-73378380D01*
X146149190Y-73378380D02*
X146434904Y-73378380D01*
X146434904Y-73378380D02*
X146530142Y-73425999D01*
X146530142Y-73425999D02*
X146577761Y-73473618D01*
X146577761Y-73473618D02*
X146625380Y-73568856D01*
X146625380Y-73568856D02*
X146625380Y-73759332D01*
X146625380Y-73759332D02*
X146577761Y-73854570D01*
X146577761Y-72568856D02*
X146625380Y-72664094D01*
X146625380Y-72664094D02*
X146625380Y-72854570D01*
X146625380Y-72854570D02*
X146577761Y-72949808D01*
X146577761Y-72949808D02*
X146482523Y-72997427D01*
X146482523Y-72997427D02*
X146101571Y-72997427D01*
X146101571Y-72997427D02*
X146006333Y-72949808D01*
X146006333Y-72949808D02*
X145958714Y-72854570D01*
X145958714Y-72854570D02*
X145958714Y-72664094D01*
X145958714Y-72664094D02*
X146006333Y-72568856D01*
X146006333Y-72568856D02*
X146101571Y-72521237D01*
X146101571Y-72521237D02*
X146196809Y-72521237D01*
X146196809Y-72521237D02*
X146292047Y-72997427D01*
X145958714Y-72235522D02*
X145958714Y-71854570D01*
X146625380Y-72092665D02*
X145768238Y-72092665D01*
X145768238Y-72092665D02*
X145673000Y-72045046D01*
X145673000Y-72045046D02*
X145625380Y-71949808D01*
X145625380Y-71949808D02*
X145625380Y-71854570D01*
X146625380Y-71378379D02*
X146577761Y-71473617D01*
X146577761Y-71473617D02*
X146530142Y-71521236D01*
X146530142Y-71521236D02*
X146434904Y-71568855D01*
X146434904Y-71568855D02*
X146149190Y-71568855D01*
X146149190Y-71568855D02*
X146053952Y-71521236D01*
X146053952Y-71521236D02*
X146006333Y-71473617D01*
X146006333Y-71473617D02*
X145958714Y-71378379D01*
X145958714Y-71378379D02*
X145958714Y-71235522D01*
X145958714Y-71235522D02*
X146006333Y-71140284D01*
X146006333Y-71140284D02*
X146053952Y-71092665D01*
X146053952Y-71092665D02*
X146149190Y-71045046D01*
X146149190Y-71045046D02*
X146434904Y-71045046D01*
X146434904Y-71045046D02*
X146530142Y-71092665D01*
X146530142Y-71092665D02*
X146577761Y-71140284D01*
X146577761Y-71140284D02*
X146625380Y-71235522D01*
X146625380Y-71235522D02*
X146625380Y-71378379D01*
X146625380Y-70616474D02*
X145958714Y-70616474D01*
X146149190Y-70616474D02*
X146053952Y-70568855D01*
X146053952Y-70568855D02*
X146006333Y-70521236D01*
X146006333Y-70521236D02*
X145958714Y-70425998D01*
X145958714Y-70425998D02*
X145958714Y-70330760D01*
X146577761Y-69616474D02*
X146625380Y-69711712D01*
X146625380Y-69711712D02*
X146625380Y-69902188D01*
X146625380Y-69902188D02*
X146577761Y-69997426D01*
X146577761Y-69997426D02*
X146482523Y-70045045D01*
X146482523Y-70045045D02*
X146101571Y-70045045D01*
X146101571Y-70045045D02*
X146006333Y-69997426D01*
X146006333Y-69997426D02*
X145958714Y-69902188D01*
X145958714Y-69902188D02*
X145958714Y-69711712D01*
X145958714Y-69711712D02*
X146006333Y-69616474D01*
X146006333Y-69616474D02*
X146101571Y-69568855D01*
X146101571Y-69568855D02*
X146196809Y-69568855D01*
X146196809Y-69568855D02*
X146292047Y-70045045D01*
X147578714Y-80787904D02*
X148578714Y-80787904D01*
X147626333Y-80787904D02*
X147578714Y-80692666D01*
X147578714Y-80692666D02*
X147578714Y-80502190D01*
X147578714Y-80502190D02*
X147626333Y-80406952D01*
X147626333Y-80406952D02*
X147673952Y-80359333D01*
X147673952Y-80359333D02*
X147769190Y-80311714D01*
X147769190Y-80311714D02*
X148054904Y-80311714D01*
X148054904Y-80311714D02*
X148150142Y-80359333D01*
X148150142Y-80359333D02*
X148197761Y-80406952D01*
X148197761Y-80406952D02*
X148245380Y-80502190D01*
X148245380Y-80502190D02*
X148245380Y-80692666D01*
X148245380Y-80692666D02*
X148197761Y-80787904D01*
X148245380Y-79883142D02*
X147578714Y-79883142D01*
X147769190Y-79883142D02*
X147673952Y-79835523D01*
X147673952Y-79835523D02*
X147626333Y-79787904D01*
X147626333Y-79787904D02*
X147578714Y-79692666D01*
X147578714Y-79692666D02*
X147578714Y-79597428D01*
X148245380Y-79121237D02*
X148197761Y-79216475D01*
X148197761Y-79216475D02*
X148150142Y-79264094D01*
X148150142Y-79264094D02*
X148054904Y-79311713D01*
X148054904Y-79311713D02*
X147769190Y-79311713D01*
X147769190Y-79311713D02*
X147673952Y-79264094D01*
X147673952Y-79264094D02*
X147626333Y-79216475D01*
X147626333Y-79216475D02*
X147578714Y-79121237D01*
X147578714Y-79121237D02*
X147578714Y-78978380D01*
X147578714Y-78978380D02*
X147626333Y-78883142D01*
X147626333Y-78883142D02*
X147673952Y-78835523D01*
X147673952Y-78835523D02*
X147769190Y-78787904D01*
X147769190Y-78787904D02*
X148054904Y-78787904D01*
X148054904Y-78787904D02*
X148150142Y-78835523D01*
X148150142Y-78835523D02*
X148197761Y-78883142D01*
X148197761Y-78883142D02*
X148245380Y-78978380D01*
X148245380Y-78978380D02*
X148245380Y-79121237D01*
X147578714Y-77930761D02*
X148388238Y-77930761D01*
X148388238Y-77930761D02*
X148483476Y-77978380D01*
X148483476Y-77978380D02*
X148531095Y-78025999D01*
X148531095Y-78025999D02*
X148578714Y-78121237D01*
X148578714Y-78121237D02*
X148578714Y-78264094D01*
X148578714Y-78264094D02*
X148531095Y-78359332D01*
X148197761Y-77930761D02*
X148245380Y-78025999D01*
X148245380Y-78025999D02*
X148245380Y-78216475D01*
X148245380Y-78216475D02*
X148197761Y-78311713D01*
X148197761Y-78311713D02*
X148150142Y-78359332D01*
X148150142Y-78359332D02*
X148054904Y-78406951D01*
X148054904Y-78406951D02*
X147769190Y-78406951D01*
X147769190Y-78406951D02*
X147673952Y-78359332D01*
X147673952Y-78359332D02*
X147626333Y-78311713D01*
X147626333Y-78311713D02*
X147578714Y-78216475D01*
X147578714Y-78216475D02*
X147578714Y-78025999D01*
X147578714Y-78025999D02*
X147626333Y-77930761D01*
X148245380Y-77454570D02*
X147578714Y-77454570D01*
X147769190Y-77454570D02*
X147673952Y-77406951D01*
X147673952Y-77406951D02*
X147626333Y-77359332D01*
X147626333Y-77359332D02*
X147578714Y-77264094D01*
X147578714Y-77264094D02*
X147578714Y-77168856D01*
X148245380Y-76406951D02*
X147721571Y-76406951D01*
X147721571Y-76406951D02*
X147626333Y-76454570D01*
X147626333Y-76454570D02*
X147578714Y-76549808D01*
X147578714Y-76549808D02*
X147578714Y-76740284D01*
X147578714Y-76740284D02*
X147626333Y-76835522D01*
X148197761Y-76406951D02*
X148245380Y-76502189D01*
X148245380Y-76502189D02*
X148245380Y-76740284D01*
X148245380Y-76740284D02*
X148197761Y-76835522D01*
X148197761Y-76835522D02*
X148102523Y-76883141D01*
X148102523Y-76883141D02*
X148007285Y-76883141D01*
X148007285Y-76883141D02*
X147912047Y-76835522D01*
X147912047Y-76835522D02*
X147864428Y-76740284D01*
X147864428Y-76740284D02*
X147864428Y-76502189D01*
X147864428Y-76502189D02*
X147816809Y-76406951D01*
X148245380Y-75930760D02*
X147578714Y-75930760D01*
X147673952Y-75930760D02*
X147626333Y-75883141D01*
X147626333Y-75883141D02*
X147578714Y-75787903D01*
X147578714Y-75787903D02*
X147578714Y-75645046D01*
X147578714Y-75645046D02*
X147626333Y-75549808D01*
X147626333Y-75549808D02*
X147721571Y-75502189D01*
X147721571Y-75502189D02*
X148245380Y-75502189D01*
X147721571Y-75502189D02*
X147626333Y-75454570D01*
X147626333Y-75454570D02*
X147578714Y-75359332D01*
X147578714Y-75359332D02*
X147578714Y-75216475D01*
X147578714Y-75216475D02*
X147626333Y-75121236D01*
X147626333Y-75121236D02*
X147721571Y-75073617D01*
X147721571Y-75073617D02*
X148245380Y-75073617D01*
X148245380Y-74597427D02*
X147578714Y-74597427D01*
X147673952Y-74597427D02*
X147626333Y-74549808D01*
X147626333Y-74549808D02*
X147578714Y-74454570D01*
X147578714Y-74454570D02*
X147578714Y-74311713D01*
X147578714Y-74311713D02*
X147626333Y-74216475D01*
X147626333Y-74216475D02*
X147721571Y-74168856D01*
X147721571Y-74168856D02*
X148245380Y-74168856D01*
X147721571Y-74168856D02*
X147626333Y-74121237D01*
X147626333Y-74121237D02*
X147578714Y-74025999D01*
X147578714Y-74025999D02*
X147578714Y-73883142D01*
X147578714Y-73883142D02*
X147626333Y-73787903D01*
X147626333Y-73787903D02*
X147721571Y-73740284D01*
X147721571Y-73740284D02*
X148245380Y-73740284D01*
X148245380Y-73264094D02*
X147578714Y-73264094D01*
X147245380Y-73264094D02*
X147293000Y-73311713D01*
X147293000Y-73311713D02*
X147340619Y-73264094D01*
X147340619Y-73264094D02*
X147293000Y-73216475D01*
X147293000Y-73216475D02*
X147245380Y-73264094D01*
X147245380Y-73264094D02*
X147340619Y-73264094D01*
X147578714Y-72787904D02*
X148245380Y-72787904D01*
X147673952Y-72787904D02*
X147626333Y-72740285D01*
X147626333Y-72740285D02*
X147578714Y-72645047D01*
X147578714Y-72645047D02*
X147578714Y-72502190D01*
X147578714Y-72502190D02*
X147626333Y-72406952D01*
X147626333Y-72406952D02*
X147721571Y-72359333D01*
X147721571Y-72359333D02*
X148245380Y-72359333D01*
X147578714Y-71454571D02*
X148388238Y-71454571D01*
X148388238Y-71454571D02*
X148483476Y-71502190D01*
X148483476Y-71502190D02*
X148531095Y-71549809D01*
X148531095Y-71549809D02*
X148578714Y-71645047D01*
X148578714Y-71645047D02*
X148578714Y-71787904D01*
X148578714Y-71787904D02*
X148531095Y-71883142D01*
X148197761Y-71454571D02*
X148245380Y-71549809D01*
X148245380Y-71549809D02*
X148245380Y-71740285D01*
X148245380Y-71740285D02*
X148197761Y-71835523D01*
X148197761Y-71835523D02*
X148150142Y-71883142D01*
X148150142Y-71883142D02*
X148054904Y-71930761D01*
X148054904Y-71930761D02*
X147769190Y-71930761D01*
X147769190Y-71930761D02*
X147673952Y-71883142D01*
X147673952Y-71883142D02*
X147626333Y-71835523D01*
X147626333Y-71835523D02*
X147578714Y-71740285D01*
X147578714Y-71740285D02*
X147578714Y-71549809D01*
X147578714Y-71549809D02*
X147626333Y-71454571D01*
X165263428Y-65801904D02*
X165263428Y-65040000D01*
X165644380Y-65420952D02*
X164882476Y-65420952D01*
X165168190Y-64373333D02*
X165644380Y-64373333D01*
X164644380Y-64706666D02*
X165168190Y-64373333D01*
X165168190Y-64373333D02*
X164644380Y-64040000D01*
D11*
X122977094Y-65142142D02*
X124119952Y-65142142D01*
X123548523Y-65713571D02*
X123548523Y-64570714D01*
X125119952Y-64999285D02*
X125119952Y-65713571D01*
X124619952Y-64213571D02*
X125119952Y-64999285D01*
X125119952Y-64999285D02*
X125619952Y-64213571D01*
X127734237Y-65713571D02*
X127019951Y-65713571D01*
X127019951Y-65713571D02*
X127019951Y-64213571D01*
X128234237Y-65713571D02*
X128234237Y-64713571D01*
X128234237Y-64213571D02*
X128162809Y-64285000D01*
X128162809Y-64285000D02*
X128234237Y-64356428D01*
X128234237Y-64356428D02*
X128305666Y-64285000D01*
X128305666Y-64285000D02*
X128234237Y-64213571D01*
X128234237Y-64213571D02*
X128234237Y-64356428D01*
X128948523Y-65713571D02*
X128948523Y-64713571D01*
X128948523Y-64856428D02*
X129019952Y-64785000D01*
X129019952Y-64785000D02*
X129162809Y-64713571D01*
X129162809Y-64713571D02*
X129377095Y-64713571D01*
X129377095Y-64713571D02*
X129519952Y-64785000D01*
X129519952Y-64785000D02*
X129591381Y-64927857D01*
X129591381Y-64927857D02*
X129591381Y-65713571D01*
X129591381Y-64927857D02*
X129662809Y-64785000D01*
X129662809Y-64785000D02*
X129805666Y-64713571D01*
X129805666Y-64713571D02*
X130019952Y-64713571D01*
X130019952Y-64713571D02*
X130162809Y-64785000D01*
X130162809Y-64785000D02*
X130234238Y-64927857D01*
X130234238Y-64927857D02*
X130234238Y-65713571D01*
X154559571Y-56315571D02*
X154559571Y-54815571D01*
X154559571Y-54815571D02*
X155059571Y-55887000D01*
X155059571Y-55887000D02*
X155559571Y-54815571D01*
X155559571Y-54815571D02*
X155559571Y-56315571D01*
X156488143Y-56315571D02*
X156345286Y-56244142D01*
X156345286Y-56244142D02*
X156273857Y-56172714D01*
X156273857Y-56172714D02*
X156202429Y-56029857D01*
X156202429Y-56029857D02*
X156202429Y-55601285D01*
X156202429Y-55601285D02*
X156273857Y-55458428D01*
X156273857Y-55458428D02*
X156345286Y-55387000D01*
X156345286Y-55387000D02*
X156488143Y-55315571D01*
X156488143Y-55315571D02*
X156702429Y-55315571D01*
X156702429Y-55315571D02*
X156845286Y-55387000D01*
X156845286Y-55387000D02*
X156916715Y-55458428D01*
X156916715Y-55458428D02*
X156988143Y-55601285D01*
X156988143Y-55601285D02*
X156988143Y-56029857D01*
X156988143Y-56029857D02*
X156916715Y-56172714D01*
X156916715Y-56172714D02*
X156845286Y-56244142D01*
X156845286Y-56244142D02*
X156702429Y-56315571D01*
X156702429Y-56315571D02*
X156488143Y-56315571D01*
X157416715Y-55315571D02*
X157988143Y-55315571D01*
X157631000Y-54815571D02*
X157631000Y-56101285D01*
X157631000Y-56101285D02*
X157702429Y-56244142D01*
X157702429Y-56244142D02*
X157845286Y-56315571D01*
X157845286Y-56315571D02*
X157988143Y-56315571D01*
X158702429Y-56315571D02*
X158559572Y-56244142D01*
X158559572Y-56244142D02*
X158488143Y-56172714D01*
X158488143Y-56172714D02*
X158416715Y-56029857D01*
X158416715Y-56029857D02*
X158416715Y-55601285D01*
X158416715Y-55601285D02*
X158488143Y-55458428D01*
X158488143Y-55458428D02*
X158559572Y-55387000D01*
X158559572Y-55387000D02*
X158702429Y-55315571D01*
X158702429Y-55315571D02*
X158916715Y-55315571D01*
X158916715Y-55315571D02*
X159059572Y-55387000D01*
X159059572Y-55387000D02*
X159131001Y-55458428D01*
X159131001Y-55458428D02*
X159202429Y-55601285D01*
X159202429Y-55601285D02*
X159202429Y-56029857D01*
X159202429Y-56029857D02*
X159131001Y-56172714D01*
X159131001Y-56172714D02*
X159059572Y-56244142D01*
X159059572Y-56244142D02*
X158916715Y-56315571D01*
X158916715Y-56315571D02*
X158702429Y-56315571D01*
X159845286Y-56315571D02*
X159845286Y-55315571D01*
X159845286Y-55601285D02*
X159916715Y-55458428D01*
X159916715Y-55458428D02*
X159988144Y-55387000D01*
X159988144Y-55387000D02*
X160131001Y-55315571D01*
X160131001Y-55315571D02*
X160273858Y-55315571D01*
X161673857Y-56315571D02*
X161673857Y-54815571D01*
X161673857Y-54815571D02*
X162245286Y-54815571D01*
X162245286Y-54815571D02*
X162388143Y-54887000D01*
X162388143Y-54887000D02*
X162459572Y-54958428D01*
X162459572Y-54958428D02*
X162531000Y-55101285D01*
X162531000Y-55101285D02*
X162531000Y-55315571D01*
X162531000Y-55315571D02*
X162459572Y-55458428D01*
X162459572Y-55458428D02*
X162388143Y-55529857D01*
X162388143Y-55529857D02*
X162245286Y-55601285D01*
X162245286Y-55601285D02*
X161673857Y-55601285D01*
X163388143Y-56315571D02*
X163245286Y-56244142D01*
X163245286Y-56244142D02*
X163173857Y-56172714D01*
X163173857Y-56172714D02*
X163102429Y-56029857D01*
X163102429Y-56029857D02*
X163102429Y-55601285D01*
X163102429Y-55601285D02*
X163173857Y-55458428D01*
X163173857Y-55458428D02*
X163245286Y-55387000D01*
X163245286Y-55387000D02*
X163388143Y-55315571D01*
X163388143Y-55315571D02*
X163602429Y-55315571D01*
X163602429Y-55315571D02*
X163745286Y-55387000D01*
X163745286Y-55387000D02*
X163816715Y-55458428D01*
X163816715Y-55458428D02*
X163888143Y-55601285D01*
X163888143Y-55601285D02*
X163888143Y-56029857D01*
X163888143Y-56029857D02*
X163816715Y-56172714D01*
X163816715Y-56172714D02*
X163745286Y-56244142D01*
X163745286Y-56244142D02*
X163602429Y-56315571D01*
X163602429Y-56315571D02*
X163388143Y-56315571D01*
X164388143Y-55315571D02*
X164673858Y-56315571D01*
X164673858Y-56315571D02*
X164959572Y-55601285D01*
X164959572Y-55601285D02*
X165245286Y-56315571D01*
X165245286Y-56315571D02*
X165531000Y-55315571D01*
X166673858Y-56244142D02*
X166531001Y-56315571D01*
X166531001Y-56315571D02*
X166245287Y-56315571D01*
X166245287Y-56315571D02*
X166102429Y-56244142D01*
X166102429Y-56244142D02*
X166031001Y-56101285D01*
X166031001Y-56101285D02*
X166031001Y-55529857D01*
X166031001Y-55529857D02*
X166102429Y-55387000D01*
X166102429Y-55387000D02*
X166245287Y-55315571D01*
X166245287Y-55315571D02*
X166531001Y-55315571D01*
X166531001Y-55315571D02*
X166673858Y-55387000D01*
X166673858Y-55387000D02*
X166745287Y-55529857D01*
X166745287Y-55529857D02*
X166745287Y-55672714D01*
X166745287Y-55672714D02*
X166031001Y-55815571D01*
X167388143Y-56315571D02*
X167388143Y-55315571D01*
X167388143Y-55601285D02*
X167459572Y-55458428D01*
X167459572Y-55458428D02*
X167531001Y-55387000D01*
X167531001Y-55387000D02*
X167673858Y-55315571D01*
X167673858Y-55315571D02*
X167816715Y-55315571D01*
D10*
X130084380Y-98345714D02*
X130084380Y-98821904D01*
X130084380Y-98821904D02*
X129084380Y-98821904D01*
X129084380Y-98155237D02*
X130084380Y-97821904D01*
X130084380Y-97821904D02*
X129084380Y-97488571D01*
X130084380Y-96583809D02*
X129608190Y-96917142D01*
X130084380Y-97155237D02*
X129084380Y-97155237D01*
X129084380Y-97155237D02*
X129084380Y-96774285D01*
X129084380Y-96774285D02*
X129132000Y-96679047D01*
X129132000Y-96679047D02*
X129179619Y-96631428D01*
X129179619Y-96631428D02*
X129274857Y-96583809D01*
X129274857Y-96583809D02*
X129417714Y-96583809D01*
X129417714Y-96583809D02*
X129512952Y-96631428D01*
X129512952Y-96631428D02*
X129560571Y-96679047D01*
X129560571Y-96679047D02*
X129608190Y-96774285D01*
X129608190Y-96774285D02*
X129608190Y-97155237D01*
D11*
X144410999Y-65142142D02*
X145553857Y-65142142D01*
X144982428Y-65713571D02*
X144982428Y-64570714D01*
X146125285Y-64213571D02*
X147125285Y-65713571D01*
X147125285Y-64213571D02*
X146125285Y-65713571D01*
X149310999Y-65713571D02*
X148596713Y-65713571D01*
X148596713Y-65713571D02*
X148596713Y-64213571D01*
X149810999Y-65713571D02*
X149810999Y-64713571D01*
X149810999Y-64213571D02*
X149739571Y-64285000D01*
X149739571Y-64285000D02*
X149810999Y-64356428D01*
X149810999Y-64356428D02*
X149882428Y-64285000D01*
X149882428Y-64285000D02*
X149810999Y-64213571D01*
X149810999Y-64213571D02*
X149810999Y-64356428D01*
X150525285Y-65713571D02*
X150525285Y-64713571D01*
X150525285Y-64856428D02*
X150596714Y-64785000D01*
X150596714Y-64785000D02*
X150739571Y-64713571D01*
X150739571Y-64713571D02*
X150953857Y-64713571D01*
X150953857Y-64713571D02*
X151096714Y-64785000D01*
X151096714Y-64785000D02*
X151168143Y-64927857D01*
X151168143Y-64927857D02*
X151168143Y-65713571D01*
X151168143Y-64927857D02*
X151239571Y-64785000D01*
X151239571Y-64785000D02*
X151382428Y-64713571D01*
X151382428Y-64713571D02*
X151596714Y-64713571D01*
X151596714Y-64713571D02*
X151739571Y-64785000D01*
X151739571Y-64785000D02*
X151811000Y-64927857D01*
X151811000Y-64927857D02*
X151811000Y-65713571D01*
D10*
X133140752Y-91977935D02*
X133322180Y-92038411D01*
X133322180Y-92038411D02*
X133382657Y-92098888D01*
X133382657Y-92098888D02*
X133443133Y-92219840D01*
X133443133Y-92219840D02*
X133443133Y-92401269D01*
X133443133Y-92401269D02*
X133382657Y-92522221D01*
X133382657Y-92522221D02*
X133322180Y-92582697D01*
X133322180Y-92582697D02*
X133201228Y-92643173D01*
X133201228Y-92643173D02*
X132717418Y-92643173D01*
X132717418Y-92643173D02*
X132717418Y-91373173D01*
X132717418Y-91373173D02*
X133140752Y-91373173D01*
X133140752Y-91373173D02*
X133261704Y-91433650D01*
X133261704Y-91433650D02*
X133322180Y-91494126D01*
X133322180Y-91494126D02*
X133382657Y-91615078D01*
X133382657Y-91615078D02*
X133382657Y-91736030D01*
X133382657Y-91736030D02*
X133322180Y-91856983D01*
X133322180Y-91856983D02*
X133261704Y-91917459D01*
X133261704Y-91917459D02*
X133140752Y-91977935D01*
X133140752Y-91977935D02*
X132717418Y-91977935D01*
X134652657Y-92643173D02*
X133926942Y-92643173D01*
X134289799Y-92643173D02*
X134289799Y-91373173D01*
X134289799Y-91373173D02*
X134168847Y-91554602D01*
X134168847Y-91554602D02*
X134047895Y-91675554D01*
X134047895Y-91675554D02*
X133926942Y-91736030D01*
D11*
X107445771Y-89558857D02*
X105945771Y-89558857D01*
X105945771Y-89558857D02*
X107017200Y-89058857D01*
X107017200Y-89058857D02*
X105945771Y-88558857D01*
X105945771Y-88558857D02*
X107445771Y-88558857D01*
X107374342Y-87915999D02*
X107445771Y-87701714D01*
X107445771Y-87701714D02*
X107445771Y-87344571D01*
X107445771Y-87344571D02*
X107374342Y-87201714D01*
X107374342Y-87201714D02*
X107302914Y-87130285D01*
X107302914Y-87130285D02*
X107160057Y-87058856D01*
X107160057Y-87058856D02*
X107017200Y-87058856D01*
X107017200Y-87058856D02*
X106874342Y-87130285D01*
X106874342Y-87130285D02*
X106802914Y-87201714D01*
X106802914Y-87201714D02*
X106731485Y-87344571D01*
X106731485Y-87344571D02*
X106660057Y-87630285D01*
X106660057Y-87630285D02*
X106588628Y-87773142D01*
X106588628Y-87773142D02*
X106517200Y-87844571D01*
X106517200Y-87844571D02*
X106374342Y-87915999D01*
X106374342Y-87915999D02*
X106231485Y-87915999D01*
X106231485Y-87915999D02*
X106088628Y-87844571D01*
X106088628Y-87844571D02*
X106017200Y-87773142D01*
X106017200Y-87773142D02*
X105945771Y-87630285D01*
X105945771Y-87630285D02*
X105945771Y-87273142D01*
X105945771Y-87273142D02*
X106017200Y-87058856D01*
X106660057Y-85916000D02*
X106731485Y-85701714D01*
X106731485Y-85701714D02*
X106802914Y-85630285D01*
X106802914Y-85630285D02*
X106945771Y-85558857D01*
X106945771Y-85558857D02*
X107160057Y-85558857D01*
X107160057Y-85558857D02*
X107302914Y-85630285D01*
X107302914Y-85630285D02*
X107374342Y-85701714D01*
X107374342Y-85701714D02*
X107445771Y-85844571D01*
X107445771Y-85844571D02*
X107445771Y-86416000D01*
X107445771Y-86416000D02*
X105945771Y-86416000D01*
X105945771Y-86416000D02*
X105945771Y-85916000D01*
X105945771Y-85916000D02*
X106017200Y-85773143D01*
X106017200Y-85773143D02*
X106088628Y-85701714D01*
X106088628Y-85701714D02*
X106231485Y-85630285D01*
X106231485Y-85630285D02*
X106374342Y-85630285D01*
X106374342Y-85630285D02*
X106517200Y-85701714D01*
X106517200Y-85701714D02*
X106588628Y-85773143D01*
X106588628Y-85773143D02*
X106660057Y-85916000D01*
X106660057Y-85916000D02*
X106660057Y-86416000D01*
X133658331Y-65142142D02*
X134801189Y-65142142D01*
X135372617Y-64213571D02*
X136372617Y-65713571D01*
X136372617Y-64213571D02*
X135372617Y-65713571D01*
X138558331Y-65713571D02*
X137844045Y-65713571D01*
X137844045Y-65713571D02*
X137844045Y-64213571D01*
X139058331Y-65713571D02*
X139058331Y-64713571D01*
X139058331Y-64213571D02*
X138986903Y-64285000D01*
X138986903Y-64285000D02*
X139058331Y-64356428D01*
X139058331Y-64356428D02*
X139129760Y-64285000D01*
X139129760Y-64285000D02*
X139058331Y-64213571D01*
X139058331Y-64213571D02*
X139058331Y-64356428D01*
X139772617Y-65713571D02*
X139772617Y-64713571D01*
X139772617Y-64856428D02*
X139844046Y-64785000D01*
X139844046Y-64785000D02*
X139986903Y-64713571D01*
X139986903Y-64713571D02*
X140201189Y-64713571D01*
X140201189Y-64713571D02*
X140344046Y-64785000D01*
X140344046Y-64785000D02*
X140415475Y-64927857D01*
X140415475Y-64927857D02*
X140415475Y-65713571D01*
X140415475Y-64927857D02*
X140486903Y-64785000D01*
X140486903Y-64785000D02*
X140629760Y-64713571D01*
X140629760Y-64713571D02*
X140844046Y-64713571D01*
X140844046Y-64713571D02*
X140986903Y-64785000D01*
X140986903Y-64785000D02*
X141058332Y-64927857D01*
X141058332Y-64927857D02*
X141058332Y-65713571D01*
D10*
X159929428Y-65801904D02*
X159929428Y-65040000D01*
X160310380Y-65420952D02*
X159548476Y-65420952D01*
X159310380Y-64659047D02*
X160310380Y-63992381D01*
X159310380Y-63992381D02*
X160310380Y-64659047D01*
D11*
X137263142Y-92857571D02*
X137263142Y-91357571D01*
X137263142Y-91357571D02*
X137834571Y-91357571D01*
X137834571Y-91357571D02*
X137977428Y-91429000D01*
X137977428Y-91429000D02*
X138048857Y-91500428D01*
X138048857Y-91500428D02*
X138120285Y-91643285D01*
X138120285Y-91643285D02*
X138120285Y-91857571D01*
X138120285Y-91857571D02*
X138048857Y-92000428D01*
X138048857Y-92000428D02*
X137977428Y-92071857D01*
X137977428Y-92071857D02*
X137834571Y-92143285D01*
X137834571Y-92143285D02*
X137263142Y-92143285D01*
X138977428Y-92857571D02*
X138834571Y-92786142D01*
X138834571Y-92786142D02*
X138763142Y-92714714D01*
X138763142Y-92714714D02*
X138691714Y-92571857D01*
X138691714Y-92571857D02*
X138691714Y-92143285D01*
X138691714Y-92143285D02*
X138763142Y-92000428D01*
X138763142Y-92000428D02*
X138834571Y-91929000D01*
X138834571Y-91929000D02*
X138977428Y-91857571D01*
X138977428Y-91857571D02*
X139191714Y-91857571D01*
X139191714Y-91857571D02*
X139334571Y-91929000D01*
X139334571Y-91929000D02*
X139406000Y-92000428D01*
X139406000Y-92000428D02*
X139477428Y-92143285D01*
X139477428Y-92143285D02*
X139477428Y-92571857D01*
X139477428Y-92571857D02*
X139406000Y-92714714D01*
X139406000Y-92714714D02*
X139334571Y-92786142D01*
X139334571Y-92786142D02*
X139191714Y-92857571D01*
X139191714Y-92857571D02*
X138977428Y-92857571D01*
X139977428Y-91857571D02*
X140263143Y-92857571D01*
X140263143Y-92857571D02*
X140548857Y-92143285D01*
X140548857Y-92143285D02*
X140834571Y-92857571D01*
X140834571Y-92857571D02*
X141120285Y-91857571D01*
X142263143Y-92786142D02*
X142120286Y-92857571D01*
X142120286Y-92857571D02*
X141834572Y-92857571D01*
X141834572Y-92857571D02*
X141691714Y-92786142D01*
X141691714Y-92786142D02*
X141620286Y-92643285D01*
X141620286Y-92643285D02*
X141620286Y-92071857D01*
X141620286Y-92071857D02*
X141691714Y-91929000D01*
X141691714Y-91929000D02*
X141834572Y-91857571D01*
X141834572Y-91857571D02*
X142120286Y-91857571D01*
X142120286Y-91857571D02*
X142263143Y-91929000D01*
X142263143Y-91929000D02*
X142334572Y-92071857D01*
X142334572Y-92071857D02*
X142334572Y-92214714D01*
X142334572Y-92214714D02*
X141620286Y-92357571D01*
X142977428Y-92857571D02*
X142977428Y-91857571D01*
X142977428Y-92143285D02*
X143048857Y-92000428D01*
X143048857Y-92000428D02*
X143120286Y-91929000D01*
X143120286Y-91929000D02*
X143263143Y-91857571D01*
X143263143Y-91857571D02*
X143406000Y-91857571D01*
X137191714Y-95216142D02*
X137406000Y-95287571D01*
X137406000Y-95287571D02*
X137763142Y-95287571D01*
X137763142Y-95287571D02*
X137906000Y-95216142D01*
X137906000Y-95216142D02*
X137977428Y-95144714D01*
X137977428Y-95144714D02*
X138048857Y-95001857D01*
X138048857Y-95001857D02*
X138048857Y-94859000D01*
X138048857Y-94859000D02*
X137977428Y-94716142D01*
X137977428Y-94716142D02*
X137906000Y-94644714D01*
X137906000Y-94644714D02*
X137763142Y-94573285D01*
X137763142Y-94573285D02*
X137477428Y-94501857D01*
X137477428Y-94501857D02*
X137334571Y-94430428D01*
X137334571Y-94430428D02*
X137263142Y-94359000D01*
X137263142Y-94359000D02*
X137191714Y-94216142D01*
X137191714Y-94216142D02*
X137191714Y-94073285D01*
X137191714Y-94073285D02*
X137263142Y-93930428D01*
X137263142Y-93930428D02*
X137334571Y-93859000D01*
X137334571Y-93859000D02*
X137477428Y-93787571D01*
X137477428Y-93787571D02*
X137834571Y-93787571D01*
X137834571Y-93787571D02*
X138048857Y-93859000D01*
X138905999Y-95287571D02*
X138763142Y-95216142D01*
X138763142Y-95216142D02*
X138691713Y-95144714D01*
X138691713Y-95144714D02*
X138620285Y-95001857D01*
X138620285Y-95001857D02*
X138620285Y-94573285D01*
X138620285Y-94573285D02*
X138691713Y-94430428D01*
X138691713Y-94430428D02*
X138763142Y-94359000D01*
X138763142Y-94359000D02*
X138905999Y-94287571D01*
X138905999Y-94287571D02*
X139120285Y-94287571D01*
X139120285Y-94287571D02*
X139263142Y-94359000D01*
X139263142Y-94359000D02*
X139334571Y-94430428D01*
X139334571Y-94430428D02*
X139405999Y-94573285D01*
X139405999Y-94573285D02*
X139405999Y-95001857D01*
X139405999Y-95001857D02*
X139334571Y-95144714D01*
X139334571Y-95144714D02*
X139263142Y-95216142D01*
X139263142Y-95216142D02*
X139120285Y-95287571D01*
X139120285Y-95287571D02*
X138905999Y-95287571D01*
X140691714Y-94287571D02*
X140691714Y-95287571D01*
X140048856Y-94287571D02*
X140048856Y-95073285D01*
X140048856Y-95073285D02*
X140120285Y-95216142D01*
X140120285Y-95216142D02*
X140263142Y-95287571D01*
X140263142Y-95287571D02*
X140477428Y-95287571D01*
X140477428Y-95287571D02*
X140620285Y-95216142D01*
X140620285Y-95216142D02*
X140691714Y-95144714D01*
X141405999Y-95287571D02*
X141405999Y-94287571D01*
X141405999Y-94573285D02*
X141477428Y-94430428D01*
X141477428Y-94430428D02*
X141548857Y-94359000D01*
X141548857Y-94359000D02*
X141691714Y-94287571D01*
X141691714Y-94287571D02*
X141834571Y-94287571D01*
X142977428Y-95216142D02*
X142834570Y-95287571D01*
X142834570Y-95287571D02*
X142548856Y-95287571D01*
X142548856Y-95287571D02*
X142405999Y-95216142D01*
X142405999Y-95216142D02*
X142334570Y-95144714D01*
X142334570Y-95144714D02*
X142263142Y-95001857D01*
X142263142Y-95001857D02*
X142263142Y-94573285D01*
X142263142Y-94573285D02*
X142334570Y-94430428D01*
X142334570Y-94430428D02*
X142405999Y-94359000D01*
X142405999Y-94359000D02*
X142548856Y-94287571D01*
X142548856Y-94287571D02*
X142834570Y-94287571D01*
X142834570Y-94287571D02*
X142977428Y-94359000D01*
X144191713Y-95216142D02*
X144048856Y-95287571D01*
X144048856Y-95287571D02*
X143763142Y-95287571D01*
X143763142Y-95287571D02*
X143620284Y-95216142D01*
X143620284Y-95216142D02*
X143548856Y-95073285D01*
X143548856Y-95073285D02*
X143548856Y-94501857D01*
X143548856Y-94501857D02*
X143620284Y-94359000D01*
X143620284Y-94359000D02*
X143763142Y-94287571D01*
X143763142Y-94287571D02*
X144048856Y-94287571D01*
X144048856Y-94287571D02*
X144191713Y-94359000D01*
X144191713Y-94359000D02*
X144263142Y-94501857D01*
X144263142Y-94501857D02*
X144263142Y-94644714D01*
X144263142Y-94644714D02*
X143548856Y-94787571D01*
X137191714Y-97646142D02*
X137406000Y-97717571D01*
X137406000Y-97717571D02*
X137763142Y-97717571D01*
X137763142Y-97717571D02*
X137906000Y-97646142D01*
X137906000Y-97646142D02*
X137977428Y-97574714D01*
X137977428Y-97574714D02*
X138048857Y-97431857D01*
X138048857Y-97431857D02*
X138048857Y-97289000D01*
X138048857Y-97289000D02*
X137977428Y-97146142D01*
X137977428Y-97146142D02*
X137906000Y-97074714D01*
X137906000Y-97074714D02*
X137763142Y-97003285D01*
X137763142Y-97003285D02*
X137477428Y-96931857D01*
X137477428Y-96931857D02*
X137334571Y-96860428D01*
X137334571Y-96860428D02*
X137263142Y-96789000D01*
X137263142Y-96789000D02*
X137191714Y-96646142D01*
X137191714Y-96646142D02*
X137191714Y-96503285D01*
X137191714Y-96503285D02*
X137263142Y-96360428D01*
X137263142Y-96360428D02*
X137334571Y-96289000D01*
X137334571Y-96289000D02*
X137477428Y-96217571D01*
X137477428Y-96217571D02*
X137834571Y-96217571D01*
X137834571Y-96217571D02*
X138048857Y-96289000D01*
X139263142Y-97646142D02*
X139120285Y-97717571D01*
X139120285Y-97717571D02*
X138834571Y-97717571D01*
X138834571Y-97717571D02*
X138691713Y-97646142D01*
X138691713Y-97646142D02*
X138620285Y-97503285D01*
X138620285Y-97503285D02*
X138620285Y-96931857D01*
X138620285Y-96931857D02*
X138691713Y-96789000D01*
X138691713Y-96789000D02*
X138834571Y-96717571D01*
X138834571Y-96717571D02*
X139120285Y-96717571D01*
X139120285Y-96717571D02*
X139263142Y-96789000D01*
X139263142Y-96789000D02*
X139334571Y-96931857D01*
X139334571Y-96931857D02*
X139334571Y-97074714D01*
X139334571Y-97074714D02*
X138620285Y-97217571D01*
X140191713Y-97717571D02*
X140048856Y-97646142D01*
X140048856Y-97646142D02*
X139977427Y-97503285D01*
X139977427Y-97503285D02*
X139977427Y-96217571D01*
X141334570Y-97646142D02*
X141191713Y-97717571D01*
X141191713Y-97717571D02*
X140905999Y-97717571D01*
X140905999Y-97717571D02*
X140763141Y-97646142D01*
X140763141Y-97646142D02*
X140691713Y-97503285D01*
X140691713Y-97503285D02*
X140691713Y-96931857D01*
X140691713Y-96931857D02*
X140763141Y-96789000D01*
X140763141Y-96789000D02*
X140905999Y-96717571D01*
X140905999Y-96717571D02*
X141191713Y-96717571D01*
X141191713Y-96717571D02*
X141334570Y-96789000D01*
X141334570Y-96789000D02*
X141405999Y-96931857D01*
X141405999Y-96931857D02*
X141405999Y-97074714D01*
X141405999Y-97074714D02*
X140691713Y-97217571D01*
X142691713Y-97646142D02*
X142548855Y-97717571D01*
X142548855Y-97717571D02*
X142263141Y-97717571D01*
X142263141Y-97717571D02*
X142120284Y-97646142D01*
X142120284Y-97646142D02*
X142048855Y-97574714D01*
X142048855Y-97574714D02*
X141977427Y-97431857D01*
X141977427Y-97431857D02*
X141977427Y-97003285D01*
X141977427Y-97003285D02*
X142048855Y-96860428D01*
X142048855Y-96860428D02*
X142120284Y-96789000D01*
X142120284Y-96789000D02*
X142263141Y-96717571D01*
X142263141Y-96717571D02*
X142548855Y-96717571D01*
X142548855Y-96717571D02*
X142691713Y-96789000D01*
X143120284Y-96717571D02*
X143691712Y-96717571D01*
X143334569Y-96217571D02*
X143334569Y-97503285D01*
X143334569Y-97503285D02*
X143405998Y-97646142D01*
X143405998Y-97646142D02*
X143548855Y-97717571D01*
X143548855Y-97717571D02*
X143691712Y-97717571D01*
X107165523Y-116459047D02*
X107260761Y-116173333D01*
X107260761Y-116173333D02*
X107260761Y-115697142D01*
X107260761Y-115697142D02*
X107165523Y-115506666D01*
X107165523Y-115506666D02*
X107070285Y-115411428D01*
X107070285Y-115411428D02*
X106879809Y-115316190D01*
X106879809Y-115316190D02*
X106689333Y-115316190D01*
X106689333Y-115316190D02*
X106498857Y-115411428D01*
X106498857Y-115411428D02*
X106403619Y-115506666D01*
X106403619Y-115506666D02*
X106308380Y-115697142D01*
X106308380Y-115697142D02*
X106213142Y-116078095D01*
X106213142Y-116078095D02*
X106117904Y-116268571D01*
X106117904Y-116268571D02*
X106022666Y-116363809D01*
X106022666Y-116363809D02*
X105832190Y-116459047D01*
X105832190Y-116459047D02*
X105641714Y-116459047D01*
X105641714Y-116459047D02*
X105451238Y-116363809D01*
X105451238Y-116363809D02*
X105356000Y-116268571D01*
X105356000Y-116268571D02*
X105260761Y-116078095D01*
X105260761Y-116078095D02*
X105260761Y-115601904D01*
X105260761Y-115601904D02*
X105356000Y-115316190D01*
X107260761Y-114459047D02*
X105260761Y-114459047D01*
X105260761Y-114459047D02*
X106689333Y-113792380D01*
X106689333Y-113792380D02*
X105260761Y-113125714D01*
X105260761Y-113125714D02*
X107260761Y-113125714D01*
X106213142Y-112173333D02*
X106213142Y-111506666D01*
X107260761Y-111220952D02*
X107260761Y-112173333D01*
X107260761Y-112173333D02*
X105260761Y-112173333D01*
X105260761Y-112173333D02*
X105260761Y-111220952D01*
X105260761Y-110554285D02*
X105260761Y-109220952D01*
X105260761Y-109220952D02*
X107260761Y-110554285D01*
X107260761Y-110554285D02*
X107260761Y-109220952D01*
X106689333Y-108554285D02*
X106689333Y-107601904D01*
X107260761Y-108744761D02*
X105260761Y-108078095D01*
X105260761Y-108078095D02*
X107260761Y-107411428D01*
X105260761Y-105830475D02*
X107260761Y-105163809D01*
X107260761Y-105163809D02*
X105260761Y-104497142D01*
X105260761Y-103449523D02*
X105260761Y-103259046D01*
X105260761Y-103259046D02*
X105356000Y-103068570D01*
X105356000Y-103068570D02*
X105451238Y-102973332D01*
X105451238Y-102973332D02*
X105641714Y-102878094D01*
X105641714Y-102878094D02*
X106022666Y-102782856D01*
X106022666Y-102782856D02*
X106498857Y-102782856D01*
X106498857Y-102782856D02*
X106879809Y-102878094D01*
X106879809Y-102878094D02*
X107070285Y-102973332D01*
X107070285Y-102973332D02*
X107165523Y-103068570D01*
X107165523Y-103068570D02*
X107260761Y-103259046D01*
X107260761Y-103259046D02*
X107260761Y-103449523D01*
X107260761Y-103449523D02*
X107165523Y-103639999D01*
X107165523Y-103639999D02*
X107070285Y-103735237D01*
X107070285Y-103735237D02*
X106879809Y-103830475D01*
X106879809Y-103830475D02*
X106498857Y-103925713D01*
X106498857Y-103925713D02*
X106022666Y-103925713D01*
X106022666Y-103925713D02*
X105641714Y-103830475D01*
X105641714Y-103830475D02*
X105451238Y-103735237D01*
X105451238Y-103735237D02*
X105356000Y-103639999D01*
X105356000Y-103639999D02*
X105260761Y-103449523D01*
X107070285Y-101925713D02*
X107165523Y-101830475D01*
X107165523Y-101830475D02*
X107260761Y-101925713D01*
X107260761Y-101925713D02*
X107165523Y-102020951D01*
X107165523Y-102020951D02*
X107070285Y-101925713D01*
X107070285Y-101925713D02*
X107260761Y-101925713D01*
X105260761Y-101163808D02*
X105260761Y-99925713D01*
X105260761Y-99925713D02*
X106022666Y-100592380D01*
X106022666Y-100592380D02*
X106022666Y-100306665D01*
X106022666Y-100306665D02*
X106117904Y-100116189D01*
X106117904Y-100116189D02*
X106213142Y-100020951D01*
X106213142Y-100020951D02*
X106403619Y-99925713D01*
X106403619Y-99925713D02*
X106879809Y-99925713D01*
X106879809Y-99925713D02*
X107070285Y-100020951D01*
X107070285Y-100020951D02*
X107165523Y-100116189D01*
X107165523Y-100116189D02*
X107260761Y-100306665D01*
X107260761Y-100306665D02*
X107260761Y-100878094D01*
X107260761Y-100878094D02*
X107165523Y-101068570D01*
X107165523Y-101068570D02*
X107070285Y-101163808D01*
D10*
X157389428Y-65801904D02*
X157389428Y-65040000D01*
X156770380Y-64659047D02*
X157770380Y-63992381D01*
X156770380Y-63992381D02*
X157770380Y-64659047D01*
X134640571Y-99250571D02*
X134688190Y-99107714D01*
X134688190Y-99107714D02*
X134735809Y-99060095D01*
X134735809Y-99060095D02*
X134831047Y-99012476D01*
X134831047Y-99012476D02*
X134973904Y-99012476D01*
X134973904Y-99012476D02*
X135069142Y-99060095D01*
X135069142Y-99060095D02*
X135116761Y-99107714D01*
X135116761Y-99107714D02*
X135164380Y-99202952D01*
X135164380Y-99202952D02*
X135164380Y-99583904D01*
X135164380Y-99583904D02*
X134164380Y-99583904D01*
X134164380Y-99583904D02*
X134164380Y-99250571D01*
X134164380Y-99250571D02*
X134212000Y-99155333D01*
X134212000Y-99155333D02*
X134259619Y-99107714D01*
X134259619Y-99107714D02*
X134354857Y-99060095D01*
X134354857Y-99060095D02*
X134450095Y-99060095D01*
X134450095Y-99060095D02*
X134545333Y-99107714D01*
X134545333Y-99107714D02*
X134592952Y-99155333D01*
X134592952Y-99155333D02*
X134640571Y-99250571D01*
X134640571Y-99250571D02*
X134640571Y-99583904D01*
X134497714Y-98155333D02*
X135164380Y-98155333D01*
X134497714Y-98583904D02*
X135021523Y-98583904D01*
X135021523Y-98583904D02*
X135116761Y-98536285D01*
X135116761Y-98536285D02*
X135164380Y-98441047D01*
X135164380Y-98441047D02*
X135164380Y-98298190D01*
X135164380Y-98298190D02*
X135116761Y-98202952D01*
X135116761Y-98202952D02*
X135069142Y-98155333D01*
X135116761Y-97250571D02*
X135164380Y-97345809D01*
X135164380Y-97345809D02*
X135164380Y-97536285D01*
X135164380Y-97536285D02*
X135116761Y-97631523D01*
X135116761Y-97631523D02*
X135069142Y-97679142D01*
X135069142Y-97679142D02*
X134973904Y-97726761D01*
X134973904Y-97726761D02*
X134688190Y-97726761D01*
X134688190Y-97726761D02*
X134592952Y-97679142D01*
X134592952Y-97679142D02*
X134545333Y-97631523D01*
X134545333Y-97631523D02*
X134497714Y-97536285D01*
X134497714Y-97536285D02*
X134497714Y-97345809D01*
X134497714Y-97345809D02*
X134545333Y-97250571D01*
X135164380Y-96821999D02*
X134164380Y-96821999D01*
X134783428Y-96726761D02*
X135164380Y-96441047D01*
X134497714Y-96441047D02*
X134878666Y-96821999D01*
D11*
X112224428Y-65142142D02*
X113367286Y-65142142D01*
X114367286Y-64999285D02*
X114367286Y-65713571D01*
X113867286Y-64213571D02*
X114367286Y-64999285D01*
X114367286Y-64999285D02*
X114867286Y-64213571D01*
X116981571Y-65713571D02*
X116267285Y-65713571D01*
X116267285Y-65713571D02*
X116267285Y-64213571D01*
X117481571Y-65713571D02*
X117481571Y-64713571D01*
X117481571Y-64213571D02*
X117410143Y-64285000D01*
X117410143Y-64285000D02*
X117481571Y-64356428D01*
X117481571Y-64356428D02*
X117553000Y-64285000D01*
X117553000Y-64285000D02*
X117481571Y-64213571D01*
X117481571Y-64213571D02*
X117481571Y-64356428D01*
X118195857Y-65713571D02*
X118195857Y-64713571D01*
X118195857Y-64856428D02*
X118267286Y-64785000D01*
X118267286Y-64785000D02*
X118410143Y-64713571D01*
X118410143Y-64713571D02*
X118624429Y-64713571D01*
X118624429Y-64713571D02*
X118767286Y-64785000D01*
X118767286Y-64785000D02*
X118838715Y-64927857D01*
X118838715Y-64927857D02*
X118838715Y-65713571D01*
X118838715Y-64927857D02*
X118910143Y-64785000D01*
X118910143Y-64785000D02*
X119053000Y-64713571D01*
X119053000Y-64713571D02*
X119267286Y-64713571D01*
X119267286Y-64713571D02*
X119410143Y-64785000D01*
X119410143Y-64785000D02*
X119481572Y-64927857D01*
X119481572Y-64927857D02*
X119481572Y-65713571D01*
D12*
%TO.C,R18*%
X145908380Y-123578857D02*
X145432190Y-123912190D01*
X145908380Y-124150285D02*
X144908380Y-124150285D01*
X144908380Y-124150285D02*
X144908380Y-123769333D01*
X144908380Y-123769333D02*
X144956000Y-123674095D01*
X144956000Y-123674095D02*
X145003619Y-123626476D01*
X145003619Y-123626476D02*
X145098857Y-123578857D01*
X145098857Y-123578857D02*
X145241714Y-123578857D01*
X145241714Y-123578857D02*
X145336952Y-123626476D01*
X145336952Y-123626476D02*
X145384571Y-123674095D01*
X145384571Y-123674095D02*
X145432190Y-123769333D01*
X145432190Y-123769333D02*
X145432190Y-124150285D01*
X145908380Y-122626476D02*
X145908380Y-123197904D01*
X145908380Y-122912190D02*
X144908380Y-122912190D01*
X144908380Y-122912190D02*
X145051238Y-123007428D01*
X145051238Y-123007428D02*
X145146476Y-123102666D01*
X145146476Y-123102666D02*
X145194095Y-123197904D01*
X145336952Y-122055047D02*
X145289333Y-122150285D01*
X145289333Y-122150285D02*
X145241714Y-122197904D01*
X145241714Y-122197904D02*
X145146476Y-122245523D01*
X145146476Y-122245523D02*
X145098857Y-122245523D01*
X145098857Y-122245523D02*
X145003619Y-122197904D01*
X145003619Y-122197904D02*
X144956000Y-122150285D01*
X144956000Y-122150285D02*
X144908380Y-122055047D01*
X144908380Y-122055047D02*
X144908380Y-121864571D01*
X144908380Y-121864571D02*
X144956000Y-121769333D01*
X144956000Y-121769333D02*
X145003619Y-121721714D01*
X145003619Y-121721714D02*
X145098857Y-121674095D01*
X145098857Y-121674095D02*
X145146476Y-121674095D01*
X145146476Y-121674095D02*
X145241714Y-121721714D01*
X145241714Y-121721714D02*
X145289333Y-121769333D01*
X145289333Y-121769333D02*
X145336952Y-121864571D01*
X145336952Y-121864571D02*
X145336952Y-122055047D01*
X145336952Y-122055047D02*
X145384571Y-122150285D01*
X145384571Y-122150285D02*
X145432190Y-122197904D01*
X145432190Y-122197904D02*
X145527428Y-122245523D01*
X145527428Y-122245523D02*
X145717904Y-122245523D01*
X145717904Y-122245523D02*
X145813142Y-122197904D01*
X145813142Y-122197904D02*
X145860761Y-122150285D01*
X145860761Y-122150285D02*
X145908380Y-122055047D01*
X145908380Y-122055047D02*
X145908380Y-121864571D01*
X145908380Y-121864571D02*
X145860761Y-121769333D01*
X145860761Y-121769333D02*
X145813142Y-121721714D01*
X145813142Y-121721714D02*
X145717904Y-121674095D01*
X145717904Y-121674095D02*
X145527428Y-121674095D01*
X145527428Y-121674095D02*
X145432190Y-121721714D01*
X145432190Y-121721714D02*
X145384571Y-121769333D01*
X145384571Y-121769333D02*
X145336952Y-121864571D01*
%TO.C,R16*%
X135621380Y-71316357D02*
X135145190Y-71649690D01*
X135621380Y-71887785D02*
X134621380Y-71887785D01*
X134621380Y-71887785D02*
X134621380Y-71506833D01*
X134621380Y-71506833D02*
X134669000Y-71411595D01*
X134669000Y-71411595D02*
X134716619Y-71363976D01*
X134716619Y-71363976D02*
X134811857Y-71316357D01*
X134811857Y-71316357D02*
X134954714Y-71316357D01*
X134954714Y-71316357D02*
X135049952Y-71363976D01*
X135049952Y-71363976D02*
X135097571Y-71411595D01*
X135097571Y-71411595D02*
X135145190Y-71506833D01*
X135145190Y-71506833D02*
X135145190Y-71887785D01*
X135621380Y-70363976D02*
X135621380Y-70935404D01*
X135621380Y-70649690D02*
X134621380Y-70649690D01*
X134621380Y-70649690D02*
X134764238Y-70744928D01*
X134764238Y-70744928D02*
X134859476Y-70840166D01*
X134859476Y-70840166D02*
X134907095Y-70935404D01*
X134621380Y-69506833D02*
X134621380Y-69697309D01*
X134621380Y-69697309D02*
X134669000Y-69792547D01*
X134669000Y-69792547D02*
X134716619Y-69840166D01*
X134716619Y-69840166D02*
X134859476Y-69935404D01*
X134859476Y-69935404D02*
X135049952Y-69983023D01*
X135049952Y-69983023D02*
X135430904Y-69983023D01*
X135430904Y-69983023D02*
X135526142Y-69935404D01*
X135526142Y-69935404D02*
X135573761Y-69887785D01*
X135573761Y-69887785D02*
X135621380Y-69792547D01*
X135621380Y-69792547D02*
X135621380Y-69602071D01*
X135621380Y-69602071D02*
X135573761Y-69506833D01*
X135573761Y-69506833D02*
X135526142Y-69459214D01*
X135526142Y-69459214D02*
X135430904Y-69411595D01*
X135430904Y-69411595D02*
X135192809Y-69411595D01*
X135192809Y-69411595D02*
X135097571Y-69459214D01*
X135097571Y-69459214D02*
X135049952Y-69506833D01*
X135049952Y-69506833D02*
X135002333Y-69602071D01*
X135002333Y-69602071D02*
X135002333Y-69792547D01*
X135002333Y-69792547D02*
X135049952Y-69887785D01*
X135049952Y-69887785D02*
X135097571Y-69935404D01*
X135097571Y-69935404D02*
X135192809Y-69983023D01*
%TO.C,R22*%
X170167380Y-73032857D02*
X169691190Y-73366190D01*
X170167380Y-73604285D02*
X169167380Y-73604285D01*
X169167380Y-73604285D02*
X169167380Y-73223333D01*
X169167380Y-73223333D02*
X169215000Y-73128095D01*
X169215000Y-73128095D02*
X169262619Y-73080476D01*
X169262619Y-73080476D02*
X169357857Y-73032857D01*
X169357857Y-73032857D02*
X169500714Y-73032857D01*
X169500714Y-73032857D02*
X169595952Y-73080476D01*
X169595952Y-73080476D02*
X169643571Y-73128095D01*
X169643571Y-73128095D02*
X169691190Y-73223333D01*
X169691190Y-73223333D02*
X169691190Y-73604285D01*
X169262619Y-72651904D02*
X169215000Y-72604285D01*
X169215000Y-72604285D02*
X169167380Y-72509047D01*
X169167380Y-72509047D02*
X169167380Y-72270952D01*
X169167380Y-72270952D02*
X169215000Y-72175714D01*
X169215000Y-72175714D02*
X169262619Y-72128095D01*
X169262619Y-72128095D02*
X169357857Y-72080476D01*
X169357857Y-72080476D02*
X169453095Y-72080476D01*
X169453095Y-72080476D02*
X169595952Y-72128095D01*
X169595952Y-72128095D02*
X170167380Y-72699523D01*
X170167380Y-72699523D02*
X170167380Y-72080476D01*
X169262619Y-71699523D02*
X169215000Y-71651904D01*
X169215000Y-71651904D02*
X169167380Y-71556666D01*
X169167380Y-71556666D02*
X169167380Y-71318571D01*
X169167380Y-71318571D02*
X169215000Y-71223333D01*
X169215000Y-71223333D02*
X169262619Y-71175714D01*
X169262619Y-71175714D02*
X169357857Y-71128095D01*
X169357857Y-71128095D02*
X169453095Y-71128095D01*
X169453095Y-71128095D02*
X169595952Y-71175714D01*
X169595952Y-71175714D02*
X170167380Y-71747142D01*
X170167380Y-71747142D02*
X170167380Y-71128095D01*
D10*
%TO.C,T1*%
X159202138Y-93172380D02*
X159773566Y-93172380D01*
X159487852Y-94172380D02*
X159487852Y-93172380D01*
X160630709Y-94172380D02*
X160059281Y-94172380D01*
X160344995Y-94172380D02*
X160344995Y-93172380D01*
X160344995Y-93172380D02*
X160249757Y-93315238D01*
X160249757Y-93315238D02*
X160154519Y-93410476D01*
X160154519Y-93410476D02*
X160059281Y-93458095D01*
D12*
%TO.C,D1*%
X173247380Y-67924094D02*
X172247380Y-67924094D01*
X172247380Y-67924094D02*
X172247380Y-67685999D01*
X172247380Y-67685999D02*
X172295000Y-67543142D01*
X172295000Y-67543142D02*
X172390238Y-67447904D01*
X172390238Y-67447904D02*
X172485476Y-67400285D01*
X172485476Y-67400285D02*
X172675952Y-67352666D01*
X172675952Y-67352666D02*
X172818809Y-67352666D01*
X172818809Y-67352666D02*
X173009285Y-67400285D01*
X173009285Y-67400285D02*
X173104523Y-67447904D01*
X173104523Y-67447904D02*
X173199761Y-67543142D01*
X173199761Y-67543142D02*
X173247380Y-67685999D01*
X173247380Y-67685999D02*
X173247380Y-67924094D01*
X173247380Y-66400285D02*
X173247380Y-66971713D01*
X173247380Y-66685999D02*
X172247380Y-66685999D01*
X172247380Y-66685999D02*
X172390238Y-66781237D01*
X172390238Y-66781237D02*
X172485476Y-66876475D01*
X172485476Y-66876475D02*
X172533095Y-66971713D01*
D10*
%TO.C,SW1*%
X135955761Y-80809932D02*
X136003380Y-80667075D01*
X136003380Y-80667075D02*
X136003380Y-80428980D01*
X136003380Y-80428980D02*
X135955761Y-80333742D01*
X135955761Y-80333742D02*
X135908142Y-80286123D01*
X135908142Y-80286123D02*
X135812904Y-80238504D01*
X135812904Y-80238504D02*
X135717666Y-80238504D01*
X135717666Y-80238504D02*
X135622428Y-80286123D01*
X135622428Y-80286123D02*
X135574809Y-80333742D01*
X135574809Y-80333742D02*
X135527190Y-80428980D01*
X135527190Y-80428980D02*
X135479571Y-80619456D01*
X135479571Y-80619456D02*
X135431952Y-80714694D01*
X135431952Y-80714694D02*
X135384333Y-80762313D01*
X135384333Y-80762313D02*
X135289095Y-80809932D01*
X135289095Y-80809932D02*
X135193857Y-80809932D01*
X135193857Y-80809932D02*
X135098619Y-80762313D01*
X135098619Y-80762313D02*
X135051000Y-80714694D01*
X135051000Y-80714694D02*
X135003380Y-80619456D01*
X135003380Y-80619456D02*
X135003380Y-80381361D01*
X135003380Y-80381361D02*
X135051000Y-80238504D01*
X135003380Y-79905170D02*
X136003380Y-79667075D01*
X136003380Y-79667075D02*
X135289095Y-79476599D01*
X135289095Y-79476599D02*
X136003380Y-79286123D01*
X136003380Y-79286123D02*
X135003380Y-79048028D01*
X136003380Y-78143266D02*
X136003380Y-78714694D01*
X136003380Y-78428980D02*
X135003380Y-78428980D01*
X135003380Y-78428980D02*
X135146238Y-78524218D01*
X135146238Y-78524218D02*
X135241476Y-78619456D01*
X135241476Y-78619456D02*
X135289095Y-78714694D01*
D12*
%TO.C,R15*%
X120381380Y-71316357D02*
X119905190Y-71649690D01*
X120381380Y-71887785D02*
X119381380Y-71887785D01*
X119381380Y-71887785D02*
X119381380Y-71506833D01*
X119381380Y-71506833D02*
X119429000Y-71411595D01*
X119429000Y-71411595D02*
X119476619Y-71363976D01*
X119476619Y-71363976D02*
X119571857Y-71316357D01*
X119571857Y-71316357D02*
X119714714Y-71316357D01*
X119714714Y-71316357D02*
X119809952Y-71363976D01*
X119809952Y-71363976D02*
X119857571Y-71411595D01*
X119857571Y-71411595D02*
X119905190Y-71506833D01*
X119905190Y-71506833D02*
X119905190Y-71887785D01*
X120381380Y-70363976D02*
X120381380Y-70935404D01*
X120381380Y-70649690D02*
X119381380Y-70649690D01*
X119381380Y-70649690D02*
X119524238Y-70744928D01*
X119524238Y-70744928D02*
X119619476Y-70840166D01*
X119619476Y-70840166D02*
X119667095Y-70935404D01*
X119381380Y-69459214D02*
X119381380Y-69935404D01*
X119381380Y-69935404D02*
X119857571Y-69983023D01*
X119857571Y-69983023D02*
X119809952Y-69935404D01*
X119809952Y-69935404D02*
X119762333Y-69840166D01*
X119762333Y-69840166D02*
X119762333Y-69602071D01*
X119762333Y-69602071D02*
X119809952Y-69506833D01*
X119809952Y-69506833D02*
X119857571Y-69459214D01*
X119857571Y-69459214D02*
X119952809Y-69411595D01*
X119952809Y-69411595D02*
X120190904Y-69411595D01*
X120190904Y-69411595D02*
X120286142Y-69459214D01*
X120286142Y-69459214D02*
X120333761Y-69506833D01*
X120333761Y-69506833D02*
X120381380Y-69602071D01*
X120381380Y-69602071D02*
X120381380Y-69840166D01*
X120381380Y-69840166D02*
X120333761Y-69935404D01*
X120333761Y-69935404D02*
X120286142Y-69983023D01*
D10*
%TO.C,J9*%
X151701666Y-71237380D02*
X151701666Y-71951666D01*
X151701666Y-71951666D02*
X151654047Y-72094523D01*
X151654047Y-72094523D02*
X151558809Y-72189761D01*
X151558809Y-72189761D02*
X151415952Y-72237380D01*
X151415952Y-72237380D02*
X151320714Y-72237380D01*
X152225476Y-72237380D02*
X152415952Y-72237380D01*
X152415952Y-72237380D02*
X152511190Y-72189761D01*
X152511190Y-72189761D02*
X152558809Y-72142142D01*
X152558809Y-72142142D02*
X152654047Y-71999285D01*
X152654047Y-71999285D02*
X152701666Y-71808809D01*
X152701666Y-71808809D02*
X152701666Y-71427857D01*
X152701666Y-71427857D02*
X152654047Y-71332619D01*
X152654047Y-71332619D02*
X152606428Y-71285000D01*
X152606428Y-71285000D02*
X152511190Y-71237380D01*
X152511190Y-71237380D02*
X152320714Y-71237380D01*
X152320714Y-71237380D02*
X152225476Y-71285000D01*
X152225476Y-71285000D02*
X152177857Y-71332619D01*
X152177857Y-71332619D02*
X152130238Y-71427857D01*
X152130238Y-71427857D02*
X152130238Y-71665952D01*
X152130238Y-71665952D02*
X152177857Y-71761190D01*
X152177857Y-71761190D02*
X152225476Y-71808809D01*
X152225476Y-71808809D02*
X152320714Y-71856428D01*
X152320714Y-71856428D02*
X152511190Y-71856428D01*
X152511190Y-71856428D02*
X152606428Y-71808809D01*
X152606428Y-71808809D02*
X152654047Y-71761190D01*
X152654047Y-71761190D02*
X152701666Y-71665952D01*
%TO.C,J7*%
X131704332Y-59712380D02*
X131704332Y-60426666D01*
X131704332Y-60426666D02*
X131656713Y-60569523D01*
X131656713Y-60569523D02*
X131561475Y-60664761D01*
X131561475Y-60664761D02*
X131418618Y-60712380D01*
X131418618Y-60712380D02*
X131323380Y-60712380D01*
X132085285Y-59712380D02*
X132751951Y-59712380D01*
X132751951Y-59712380D02*
X132323380Y-60712380D01*
%TO.C,C7*%
X150810933Y-86856542D02*
X150763314Y-86904161D01*
X150763314Y-86904161D02*
X150620457Y-86951780D01*
X150620457Y-86951780D02*
X150525219Y-86951780D01*
X150525219Y-86951780D02*
X150382362Y-86904161D01*
X150382362Y-86904161D02*
X150287124Y-86808923D01*
X150287124Y-86808923D02*
X150239505Y-86713685D01*
X150239505Y-86713685D02*
X150191886Y-86523209D01*
X150191886Y-86523209D02*
X150191886Y-86380352D01*
X150191886Y-86380352D02*
X150239505Y-86189876D01*
X150239505Y-86189876D02*
X150287124Y-86094638D01*
X150287124Y-86094638D02*
X150382362Y-85999400D01*
X150382362Y-85999400D02*
X150525219Y-85951780D01*
X150525219Y-85951780D02*
X150620457Y-85951780D01*
X150620457Y-85951780D02*
X150763314Y-85999400D01*
X150763314Y-85999400D02*
X150810933Y-86047019D01*
X151144267Y-85951780D02*
X151810933Y-85951780D01*
X151810933Y-85951780D02*
X151382362Y-86951780D01*
D12*
%TO.C,R10*%
X128001380Y-71316357D02*
X127525190Y-71649690D01*
X128001380Y-71887785D02*
X127001380Y-71887785D01*
X127001380Y-71887785D02*
X127001380Y-71506833D01*
X127001380Y-71506833D02*
X127049000Y-71411595D01*
X127049000Y-71411595D02*
X127096619Y-71363976D01*
X127096619Y-71363976D02*
X127191857Y-71316357D01*
X127191857Y-71316357D02*
X127334714Y-71316357D01*
X127334714Y-71316357D02*
X127429952Y-71363976D01*
X127429952Y-71363976D02*
X127477571Y-71411595D01*
X127477571Y-71411595D02*
X127525190Y-71506833D01*
X127525190Y-71506833D02*
X127525190Y-71887785D01*
X128001380Y-70363976D02*
X128001380Y-70935404D01*
X128001380Y-70649690D02*
X127001380Y-70649690D01*
X127001380Y-70649690D02*
X127144238Y-70744928D01*
X127144238Y-70744928D02*
X127239476Y-70840166D01*
X127239476Y-70840166D02*
X127287095Y-70935404D01*
X127001380Y-69744928D02*
X127001380Y-69649690D01*
X127001380Y-69649690D02*
X127049000Y-69554452D01*
X127049000Y-69554452D02*
X127096619Y-69506833D01*
X127096619Y-69506833D02*
X127191857Y-69459214D01*
X127191857Y-69459214D02*
X127382333Y-69411595D01*
X127382333Y-69411595D02*
X127620428Y-69411595D01*
X127620428Y-69411595D02*
X127810904Y-69459214D01*
X127810904Y-69459214D02*
X127906142Y-69506833D01*
X127906142Y-69506833D02*
X127953761Y-69554452D01*
X127953761Y-69554452D02*
X128001380Y-69649690D01*
X128001380Y-69649690D02*
X128001380Y-69744928D01*
X128001380Y-69744928D02*
X127953761Y-69840166D01*
X127953761Y-69840166D02*
X127906142Y-69887785D01*
X127906142Y-69887785D02*
X127810904Y-69935404D01*
X127810904Y-69935404D02*
X127620428Y-69983023D01*
X127620428Y-69983023D02*
X127382333Y-69983023D01*
X127382333Y-69983023D02*
X127191857Y-69935404D01*
X127191857Y-69935404D02*
X127096619Y-69887785D01*
X127096619Y-69887785D02*
X127049000Y-69840166D01*
X127049000Y-69840166D02*
X127001380Y-69744928D01*
D10*
%TO.C,B1*%
X140314135Y-115169647D02*
X140374611Y-114988219D01*
X140374611Y-114988219D02*
X140435088Y-114927742D01*
X140435088Y-114927742D02*
X140556040Y-114867266D01*
X140556040Y-114867266D02*
X140737469Y-114867266D01*
X140737469Y-114867266D02*
X140858421Y-114927742D01*
X140858421Y-114927742D02*
X140918897Y-114988219D01*
X140918897Y-114988219D02*
X140979373Y-115109171D01*
X140979373Y-115109171D02*
X140979373Y-115592981D01*
X140979373Y-115592981D02*
X139709373Y-115592981D01*
X139709373Y-115592981D02*
X139709373Y-115169647D01*
X139709373Y-115169647D02*
X139769850Y-115048695D01*
X139769850Y-115048695D02*
X139830326Y-114988219D01*
X139830326Y-114988219D02*
X139951278Y-114927742D01*
X139951278Y-114927742D02*
X140072230Y-114927742D01*
X140072230Y-114927742D02*
X140193183Y-114988219D01*
X140193183Y-114988219D02*
X140253659Y-115048695D01*
X140253659Y-115048695D02*
X140314135Y-115169647D01*
X140314135Y-115169647D02*
X140314135Y-115592981D01*
X140979373Y-113657742D02*
X140979373Y-114383457D01*
X140979373Y-114020600D02*
X139709373Y-114020600D01*
X139709373Y-114020600D02*
X139890802Y-114141552D01*
X139890802Y-114141552D02*
X140011754Y-114262504D01*
X140011754Y-114262504D02*
X140072230Y-114383457D01*
%TO.C,U1*%
X124843380Y-96773904D02*
X125652904Y-96773904D01*
X125652904Y-96773904D02*
X125748142Y-96726285D01*
X125748142Y-96726285D02*
X125795761Y-96678666D01*
X125795761Y-96678666D02*
X125843380Y-96583428D01*
X125843380Y-96583428D02*
X125843380Y-96392952D01*
X125843380Y-96392952D02*
X125795761Y-96297714D01*
X125795761Y-96297714D02*
X125748142Y-96250095D01*
X125748142Y-96250095D02*
X125652904Y-96202476D01*
X125652904Y-96202476D02*
X124843380Y-96202476D01*
X125843380Y-95202476D02*
X125843380Y-95773904D01*
X125843380Y-95488190D02*
X124843380Y-95488190D01*
X124843380Y-95488190D02*
X124986238Y-95583428D01*
X124986238Y-95583428D02*
X125081476Y-95678666D01*
X125081476Y-95678666D02*
X125129095Y-95773904D01*
%TO.C,C2A1*%
X147010571Y-102634142D02*
X146962952Y-102681761D01*
X146962952Y-102681761D02*
X146820095Y-102729380D01*
X146820095Y-102729380D02*
X146724857Y-102729380D01*
X146724857Y-102729380D02*
X146582000Y-102681761D01*
X146582000Y-102681761D02*
X146486762Y-102586523D01*
X146486762Y-102586523D02*
X146439143Y-102491285D01*
X146439143Y-102491285D02*
X146391524Y-102300809D01*
X146391524Y-102300809D02*
X146391524Y-102157952D01*
X146391524Y-102157952D02*
X146439143Y-101967476D01*
X146439143Y-101967476D02*
X146486762Y-101872238D01*
X146486762Y-101872238D02*
X146582000Y-101777000D01*
X146582000Y-101777000D02*
X146724857Y-101729380D01*
X146724857Y-101729380D02*
X146820095Y-101729380D01*
X146820095Y-101729380D02*
X146962952Y-101777000D01*
X146962952Y-101777000D02*
X147010571Y-101824619D01*
X147391524Y-101824619D02*
X147439143Y-101777000D01*
X147439143Y-101777000D02*
X147534381Y-101729380D01*
X147534381Y-101729380D02*
X147772476Y-101729380D01*
X147772476Y-101729380D02*
X147867714Y-101777000D01*
X147867714Y-101777000D02*
X147915333Y-101824619D01*
X147915333Y-101824619D02*
X147962952Y-101919857D01*
X147962952Y-101919857D02*
X147962952Y-102015095D01*
X147962952Y-102015095D02*
X147915333Y-102157952D01*
X147915333Y-102157952D02*
X147343905Y-102729380D01*
X147343905Y-102729380D02*
X147962952Y-102729380D01*
X148343905Y-102443666D02*
X148820095Y-102443666D01*
X148248667Y-102729380D02*
X148582000Y-101729380D01*
X148582000Y-101729380D02*
X148915333Y-102729380D01*
X149772476Y-102729380D02*
X149201048Y-102729380D01*
X149486762Y-102729380D02*
X149486762Y-101729380D01*
X149486762Y-101729380D02*
X149391524Y-101872238D01*
X149391524Y-101872238D02*
X149296286Y-101967476D01*
X149296286Y-101967476D02*
X149201048Y-102015095D01*
%TO.C,U2*%
X164338095Y-88521380D02*
X164338095Y-89330904D01*
X164338095Y-89330904D02*
X164385714Y-89426142D01*
X164385714Y-89426142D02*
X164433333Y-89473761D01*
X164433333Y-89473761D02*
X164528571Y-89521380D01*
X164528571Y-89521380D02*
X164719047Y-89521380D01*
X164719047Y-89521380D02*
X164814285Y-89473761D01*
X164814285Y-89473761D02*
X164861904Y-89426142D01*
X164861904Y-89426142D02*
X164909523Y-89330904D01*
X164909523Y-89330904D02*
X164909523Y-88521380D01*
X165338095Y-88616619D02*
X165385714Y-88569000D01*
X165385714Y-88569000D02*
X165480952Y-88521380D01*
X165480952Y-88521380D02*
X165719047Y-88521380D01*
X165719047Y-88521380D02*
X165814285Y-88569000D01*
X165814285Y-88569000D02*
X165861904Y-88616619D01*
X165861904Y-88616619D02*
X165909523Y-88711857D01*
X165909523Y-88711857D02*
X165909523Y-88807095D01*
X165909523Y-88807095D02*
X165861904Y-88949952D01*
X165861904Y-88949952D02*
X165290476Y-89521380D01*
X165290476Y-89521380D02*
X165909523Y-89521380D01*
D12*
%TO.C,R9*%
X134732380Y-118403666D02*
X134256190Y-118736999D01*
X134732380Y-118975094D02*
X133732380Y-118975094D01*
X133732380Y-118975094D02*
X133732380Y-118594142D01*
X133732380Y-118594142D02*
X133780000Y-118498904D01*
X133780000Y-118498904D02*
X133827619Y-118451285D01*
X133827619Y-118451285D02*
X133922857Y-118403666D01*
X133922857Y-118403666D02*
X134065714Y-118403666D01*
X134065714Y-118403666D02*
X134160952Y-118451285D01*
X134160952Y-118451285D02*
X134208571Y-118498904D01*
X134208571Y-118498904D02*
X134256190Y-118594142D01*
X134256190Y-118594142D02*
X134256190Y-118975094D01*
X134732380Y-117927475D02*
X134732380Y-117736999D01*
X134732380Y-117736999D02*
X134684761Y-117641761D01*
X134684761Y-117641761D02*
X134637142Y-117594142D01*
X134637142Y-117594142D02*
X134494285Y-117498904D01*
X134494285Y-117498904D02*
X134303809Y-117451285D01*
X134303809Y-117451285D02*
X133922857Y-117451285D01*
X133922857Y-117451285D02*
X133827619Y-117498904D01*
X133827619Y-117498904D02*
X133780000Y-117546523D01*
X133780000Y-117546523D02*
X133732380Y-117641761D01*
X133732380Y-117641761D02*
X133732380Y-117832237D01*
X133732380Y-117832237D02*
X133780000Y-117927475D01*
X133780000Y-117927475D02*
X133827619Y-117975094D01*
X133827619Y-117975094D02*
X133922857Y-118022713D01*
X133922857Y-118022713D02*
X134160952Y-118022713D01*
X134160952Y-118022713D02*
X134256190Y-117975094D01*
X134256190Y-117975094D02*
X134303809Y-117927475D01*
X134303809Y-117927475D02*
X134351428Y-117832237D01*
X134351428Y-117832237D02*
X134351428Y-117641761D01*
X134351428Y-117641761D02*
X134303809Y-117546523D01*
X134303809Y-117546523D02*
X134256190Y-117498904D01*
X134256190Y-117498904D02*
X134160952Y-117451285D01*
D10*
%TO.C,C11*%
X114673142Y-89680142D02*
X114625523Y-89727761D01*
X114625523Y-89727761D02*
X114482666Y-89775380D01*
X114482666Y-89775380D02*
X114387428Y-89775380D01*
X114387428Y-89775380D02*
X114244571Y-89727761D01*
X114244571Y-89727761D02*
X114149333Y-89632523D01*
X114149333Y-89632523D02*
X114101714Y-89537285D01*
X114101714Y-89537285D02*
X114054095Y-89346809D01*
X114054095Y-89346809D02*
X114054095Y-89203952D01*
X114054095Y-89203952D02*
X114101714Y-89013476D01*
X114101714Y-89013476D02*
X114149333Y-88918238D01*
X114149333Y-88918238D02*
X114244571Y-88823000D01*
X114244571Y-88823000D02*
X114387428Y-88775380D01*
X114387428Y-88775380D02*
X114482666Y-88775380D01*
X114482666Y-88775380D02*
X114625523Y-88823000D01*
X114625523Y-88823000D02*
X114673142Y-88870619D01*
X115625523Y-89775380D02*
X115054095Y-89775380D01*
X115339809Y-89775380D02*
X115339809Y-88775380D01*
X115339809Y-88775380D02*
X115244571Y-88918238D01*
X115244571Y-88918238D02*
X115149333Y-89013476D01*
X115149333Y-89013476D02*
X115054095Y-89061095D01*
X116577904Y-89775380D02*
X116006476Y-89775380D01*
X116292190Y-89775380D02*
X116292190Y-88775380D01*
X116292190Y-88775380D02*
X116196952Y-88918238D01*
X116196952Y-88918238D02*
X116101714Y-89013476D01*
X116101714Y-89013476D02*
X116006476Y-89061095D01*
%TO.C,C3*%
X139484333Y-108150142D02*
X139436714Y-108197761D01*
X139436714Y-108197761D02*
X139293857Y-108245380D01*
X139293857Y-108245380D02*
X139198619Y-108245380D01*
X139198619Y-108245380D02*
X139055762Y-108197761D01*
X139055762Y-108197761D02*
X138960524Y-108102523D01*
X138960524Y-108102523D02*
X138912905Y-108007285D01*
X138912905Y-108007285D02*
X138865286Y-107816809D01*
X138865286Y-107816809D02*
X138865286Y-107673952D01*
X138865286Y-107673952D02*
X138912905Y-107483476D01*
X138912905Y-107483476D02*
X138960524Y-107388238D01*
X138960524Y-107388238D02*
X139055762Y-107293000D01*
X139055762Y-107293000D02*
X139198619Y-107245380D01*
X139198619Y-107245380D02*
X139293857Y-107245380D01*
X139293857Y-107245380D02*
X139436714Y-107293000D01*
X139436714Y-107293000D02*
X139484333Y-107340619D01*
X139817667Y-107245380D02*
X140436714Y-107245380D01*
X140436714Y-107245380D02*
X140103381Y-107626333D01*
X140103381Y-107626333D02*
X140246238Y-107626333D01*
X140246238Y-107626333D02*
X140341476Y-107673952D01*
X140341476Y-107673952D02*
X140389095Y-107721571D01*
X140389095Y-107721571D02*
X140436714Y-107816809D01*
X140436714Y-107816809D02*
X140436714Y-108054904D01*
X140436714Y-108054904D02*
X140389095Y-108150142D01*
X140389095Y-108150142D02*
X140341476Y-108197761D01*
X140341476Y-108197761D02*
X140246238Y-108245380D01*
X140246238Y-108245380D02*
X139960524Y-108245380D01*
X139960524Y-108245380D02*
X139865286Y-108197761D01*
X139865286Y-108197761D02*
X139817667Y-108150142D01*
%TO.C,R3*%
X156043333Y-93839380D02*
X155710000Y-93363190D01*
X155471905Y-93839380D02*
X155471905Y-92839380D01*
X155471905Y-92839380D02*
X155852857Y-92839380D01*
X155852857Y-92839380D02*
X155948095Y-92887000D01*
X155948095Y-92887000D02*
X155995714Y-92934619D01*
X155995714Y-92934619D02*
X156043333Y-93029857D01*
X156043333Y-93029857D02*
X156043333Y-93172714D01*
X156043333Y-93172714D02*
X155995714Y-93267952D01*
X155995714Y-93267952D02*
X155948095Y-93315571D01*
X155948095Y-93315571D02*
X155852857Y-93363190D01*
X155852857Y-93363190D02*
X155471905Y-93363190D01*
X156376667Y-92839380D02*
X156995714Y-92839380D01*
X156995714Y-92839380D02*
X156662381Y-93220333D01*
X156662381Y-93220333D02*
X156805238Y-93220333D01*
X156805238Y-93220333D02*
X156900476Y-93267952D01*
X156900476Y-93267952D02*
X156948095Y-93315571D01*
X156948095Y-93315571D02*
X156995714Y-93410809D01*
X156995714Y-93410809D02*
X156995714Y-93648904D01*
X156995714Y-93648904D02*
X156948095Y-93744142D01*
X156948095Y-93744142D02*
X156900476Y-93791761D01*
X156900476Y-93791761D02*
X156805238Y-93839380D01*
X156805238Y-93839380D02*
X156519524Y-93839380D01*
X156519524Y-93839380D02*
X156424286Y-93791761D01*
X156424286Y-93791761D02*
X156376667Y-93744142D01*
D12*
%TO.C,R19*%
X126748842Y-88885380D02*
X126415509Y-88409190D01*
X126177414Y-88885380D02*
X126177414Y-87885380D01*
X126177414Y-87885380D02*
X126558366Y-87885380D01*
X126558366Y-87885380D02*
X126653604Y-87933000D01*
X126653604Y-87933000D02*
X126701223Y-87980619D01*
X126701223Y-87980619D02*
X126748842Y-88075857D01*
X126748842Y-88075857D02*
X126748842Y-88218714D01*
X126748842Y-88218714D02*
X126701223Y-88313952D01*
X126701223Y-88313952D02*
X126653604Y-88361571D01*
X126653604Y-88361571D02*
X126558366Y-88409190D01*
X126558366Y-88409190D02*
X126177414Y-88409190D01*
X127701223Y-88885380D02*
X127129795Y-88885380D01*
X127415509Y-88885380D02*
X127415509Y-87885380D01*
X127415509Y-87885380D02*
X127320271Y-88028238D01*
X127320271Y-88028238D02*
X127225033Y-88123476D01*
X127225033Y-88123476D02*
X127129795Y-88171095D01*
X128177414Y-88885380D02*
X128367890Y-88885380D01*
X128367890Y-88885380D02*
X128463128Y-88837761D01*
X128463128Y-88837761D02*
X128510747Y-88790142D01*
X128510747Y-88790142D02*
X128605985Y-88647285D01*
X128605985Y-88647285D02*
X128653604Y-88456809D01*
X128653604Y-88456809D02*
X128653604Y-88075857D01*
X128653604Y-88075857D02*
X128605985Y-87980619D01*
X128605985Y-87980619D02*
X128558366Y-87933000D01*
X128558366Y-87933000D02*
X128463128Y-87885380D01*
X128463128Y-87885380D02*
X128272652Y-87885380D01*
X128272652Y-87885380D02*
X128177414Y-87933000D01*
X128177414Y-87933000D02*
X128129795Y-87980619D01*
X128129795Y-87980619D02*
X128082176Y-88075857D01*
X128082176Y-88075857D02*
X128082176Y-88313952D01*
X128082176Y-88313952D02*
X128129795Y-88409190D01*
X128129795Y-88409190D02*
X128177414Y-88456809D01*
X128177414Y-88456809D02*
X128272652Y-88504428D01*
X128272652Y-88504428D02*
X128463128Y-88504428D01*
X128463128Y-88504428D02*
X128558366Y-88456809D01*
X128558366Y-88456809D02*
X128605985Y-88409190D01*
X128605985Y-88409190D02*
X128653604Y-88313952D01*
D10*
%TO.C,C9*%
X130897333Y-89680142D02*
X130849714Y-89727761D01*
X130849714Y-89727761D02*
X130706857Y-89775380D01*
X130706857Y-89775380D02*
X130611619Y-89775380D01*
X130611619Y-89775380D02*
X130468762Y-89727761D01*
X130468762Y-89727761D02*
X130373524Y-89632523D01*
X130373524Y-89632523D02*
X130325905Y-89537285D01*
X130325905Y-89537285D02*
X130278286Y-89346809D01*
X130278286Y-89346809D02*
X130278286Y-89203952D01*
X130278286Y-89203952D02*
X130325905Y-89013476D01*
X130325905Y-89013476D02*
X130373524Y-88918238D01*
X130373524Y-88918238D02*
X130468762Y-88823000D01*
X130468762Y-88823000D02*
X130611619Y-88775380D01*
X130611619Y-88775380D02*
X130706857Y-88775380D01*
X130706857Y-88775380D02*
X130849714Y-88823000D01*
X130849714Y-88823000D02*
X130897333Y-88870619D01*
X131373524Y-89775380D02*
X131564000Y-89775380D01*
X131564000Y-89775380D02*
X131659238Y-89727761D01*
X131659238Y-89727761D02*
X131706857Y-89680142D01*
X131706857Y-89680142D02*
X131802095Y-89537285D01*
X131802095Y-89537285D02*
X131849714Y-89346809D01*
X131849714Y-89346809D02*
X131849714Y-88965857D01*
X131849714Y-88965857D02*
X131802095Y-88870619D01*
X131802095Y-88870619D02*
X131754476Y-88823000D01*
X131754476Y-88823000D02*
X131659238Y-88775380D01*
X131659238Y-88775380D02*
X131468762Y-88775380D01*
X131468762Y-88775380D02*
X131373524Y-88823000D01*
X131373524Y-88823000D02*
X131325905Y-88870619D01*
X131325905Y-88870619D02*
X131278286Y-88965857D01*
X131278286Y-88965857D02*
X131278286Y-89203952D01*
X131278286Y-89203952D02*
X131325905Y-89299190D01*
X131325905Y-89299190D02*
X131373524Y-89346809D01*
X131373524Y-89346809D02*
X131468762Y-89394428D01*
X131468762Y-89394428D02*
X131659238Y-89394428D01*
X131659238Y-89394428D02*
X131754476Y-89346809D01*
X131754476Y-89346809D02*
X131802095Y-89299190D01*
X131802095Y-89299190D02*
X131849714Y-89203952D01*
%TO.C,C5*%
X116236333Y-100674142D02*
X116188714Y-100721761D01*
X116188714Y-100721761D02*
X116045857Y-100769380D01*
X116045857Y-100769380D02*
X115950619Y-100769380D01*
X115950619Y-100769380D02*
X115807762Y-100721761D01*
X115807762Y-100721761D02*
X115712524Y-100626523D01*
X115712524Y-100626523D02*
X115664905Y-100531285D01*
X115664905Y-100531285D02*
X115617286Y-100340809D01*
X115617286Y-100340809D02*
X115617286Y-100197952D01*
X115617286Y-100197952D02*
X115664905Y-100007476D01*
X115664905Y-100007476D02*
X115712524Y-99912238D01*
X115712524Y-99912238D02*
X115807762Y-99817000D01*
X115807762Y-99817000D02*
X115950619Y-99769380D01*
X115950619Y-99769380D02*
X116045857Y-99769380D01*
X116045857Y-99769380D02*
X116188714Y-99817000D01*
X116188714Y-99817000D02*
X116236333Y-99864619D01*
X117141095Y-99769380D02*
X116664905Y-99769380D01*
X116664905Y-99769380D02*
X116617286Y-100245571D01*
X116617286Y-100245571D02*
X116664905Y-100197952D01*
X116664905Y-100197952D02*
X116760143Y-100150333D01*
X116760143Y-100150333D02*
X116998238Y-100150333D01*
X116998238Y-100150333D02*
X117093476Y-100197952D01*
X117093476Y-100197952D02*
X117141095Y-100245571D01*
X117141095Y-100245571D02*
X117188714Y-100340809D01*
X117188714Y-100340809D02*
X117188714Y-100578904D01*
X117188714Y-100578904D02*
X117141095Y-100674142D01*
X117141095Y-100674142D02*
X117093476Y-100721761D01*
X117093476Y-100721761D02*
X116998238Y-100769380D01*
X116998238Y-100769380D02*
X116760143Y-100769380D01*
X116760143Y-100769380D02*
X116664905Y-100721761D01*
X116664905Y-100721761D02*
X116617286Y-100674142D01*
D12*
%TO.C,R11*%
X115301380Y-71316357D02*
X114825190Y-71649690D01*
X115301380Y-71887785D02*
X114301380Y-71887785D01*
X114301380Y-71887785D02*
X114301380Y-71506833D01*
X114301380Y-71506833D02*
X114349000Y-71411595D01*
X114349000Y-71411595D02*
X114396619Y-71363976D01*
X114396619Y-71363976D02*
X114491857Y-71316357D01*
X114491857Y-71316357D02*
X114634714Y-71316357D01*
X114634714Y-71316357D02*
X114729952Y-71363976D01*
X114729952Y-71363976D02*
X114777571Y-71411595D01*
X114777571Y-71411595D02*
X114825190Y-71506833D01*
X114825190Y-71506833D02*
X114825190Y-71887785D01*
X115301380Y-70363976D02*
X115301380Y-70935404D01*
X115301380Y-70649690D02*
X114301380Y-70649690D01*
X114301380Y-70649690D02*
X114444238Y-70744928D01*
X114444238Y-70744928D02*
X114539476Y-70840166D01*
X114539476Y-70840166D02*
X114587095Y-70935404D01*
X115301380Y-69411595D02*
X115301380Y-69983023D01*
X115301380Y-69697309D02*
X114301380Y-69697309D01*
X114301380Y-69697309D02*
X114444238Y-69792547D01*
X114444238Y-69792547D02*
X114539476Y-69887785D01*
X114539476Y-69887785D02*
X114587095Y-69983023D01*
D10*
%TO.C,R6*%
X118223380Y-92114666D02*
X117747190Y-92447999D01*
X118223380Y-92686094D02*
X117223380Y-92686094D01*
X117223380Y-92686094D02*
X117223380Y-92305142D01*
X117223380Y-92305142D02*
X117271000Y-92209904D01*
X117271000Y-92209904D02*
X117318619Y-92162285D01*
X117318619Y-92162285D02*
X117413857Y-92114666D01*
X117413857Y-92114666D02*
X117556714Y-92114666D01*
X117556714Y-92114666D02*
X117651952Y-92162285D01*
X117651952Y-92162285D02*
X117699571Y-92209904D01*
X117699571Y-92209904D02*
X117747190Y-92305142D01*
X117747190Y-92305142D02*
X117747190Y-92686094D01*
X117223380Y-91257523D02*
X117223380Y-91447999D01*
X117223380Y-91447999D02*
X117271000Y-91543237D01*
X117271000Y-91543237D02*
X117318619Y-91590856D01*
X117318619Y-91590856D02*
X117461476Y-91686094D01*
X117461476Y-91686094D02*
X117651952Y-91733713D01*
X117651952Y-91733713D02*
X118032904Y-91733713D01*
X118032904Y-91733713D02*
X118128142Y-91686094D01*
X118128142Y-91686094D02*
X118175761Y-91638475D01*
X118175761Y-91638475D02*
X118223380Y-91543237D01*
X118223380Y-91543237D02*
X118223380Y-91352761D01*
X118223380Y-91352761D02*
X118175761Y-91257523D01*
X118175761Y-91257523D02*
X118128142Y-91209904D01*
X118128142Y-91209904D02*
X118032904Y-91162285D01*
X118032904Y-91162285D02*
X117794809Y-91162285D01*
X117794809Y-91162285D02*
X117699571Y-91209904D01*
X117699571Y-91209904D02*
X117651952Y-91257523D01*
X117651952Y-91257523D02*
X117604333Y-91352761D01*
X117604333Y-91352761D02*
X117604333Y-91543237D01*
X117604333Y-91543237D02*
X117651952Y-91638475D01*
X117651952Y-91638475D02*
X117699571Y-91686094D01*
X117699571Y-91686094D02*
X117794809Y-91733713D01*
D12*
%TO.C,R14*%
X133081380Y-71316357D02*
X132605190Y-71649690D01*
X133081380Y-71887785D02*
X132081380Y-71887785D01*
X132081380Y-71887785D02*
X132081380Y-71506833D01*
X132081380Y-71506833D02*
X132129000Y-71411595D01*
X132129000Y-71411595D02*
X132176619Y-71363976D01*
X132176619Y-71363976D02*
X132271857Y-71316357D01*
X132271857Y-71316357D02*
X132414714Y-71316357D01*
X132414714Y-71316357D02*
X132509952Y-71363976D01*
X132509952Y-71363976D02*
X132557571Y-71411595D01*
X132557571Y-71411595D02*
X132605190Y-71506833D01*
X132605190Y-71506833D02*
X132605190Y-71887785D01*
X133081380Y-70363976D02*
X133081380Y-70935404D01*
X133081380Y-70649690D02*
X132081380Y-70649690D01*
X132081380Y-70649690D02*
X132224238Y-70744928D01*
X132224238Y-70744928D02*
X132319476Y-70840166D01*
X132319476Y-70840166D02*
X132367095Y-70935404D01*
X132414714Y-69506833D02*
X133081380Y-69506833D01*
X132033761Y-69744928D02*
X132748047Y-69983023D01*
X132748047Y-69983023D02*
X132748047Y-69363976D01*
%TO.C,R1*%
X142226380Y-125769666D02*
X141750190Y-126102999D01*
X142226380Y-126341094D02*
X141226380Y-126341094D01*
X141226380Y-126341094D02*
X141226380Y-125960142D01*
X141226380Y-125960142D02*
X141274000Y-125864904D01*
X141274000Y-125864904D02*
X141321619Y-125817285D01*
X141321619Y-125817285D02*
X141416857Y-125769666D01*
X141416857Y-125769666D02*
X141559714Y-125769666D01*
X141559714Y-125769666D02*
X141654952Y-125817285D01*
X141654952Y-125817285D02*
X141702571Y-125864904D01*
X141702571Y-125864904D02*
X141750190Y-125960142D01*
X141750190Y-125960142D02*
X141750190Y-126341094D01*
X142226380Y-124817285D02*
X142226380Y-125388713D01*
X142226380Y-125102999D02*
X141226380Y-125102999D01*
X141226380Y-125102999D02*
X141369238Y-125198237D01*
X141369238Y-125198237D02*
X141464476Y-125293475D01*
X141464476Y-125293475D02*
X141512095Y-125388713D01*
D10*
%TO.C,C2B1*%
X145923142Y-108222142D02*
X145875523Y-108269761D01*
X145875523Y-108269761D02*
X145732666Y-108317380D01*
X145732666Y-108317380D02*
X145637428Y-108317380D01*
X145637428Y-108317380D02*
X145494571Y-108269761D01*
X145494571Y-108269761D02*
X145399333Y-108174523D01*
X145399333Y-108174523D02*
X145351714Y-108079285D01*
X145351714Y-108079285D02*
X145304095Y-107888809D01*
X145304095Y-107888809D02*
X145304095Y-107745952D01*
X145304095Y-107745952D02*
X145351714Y-107555476D01*
X145351714Y-107555476D02*
X145399333Y-107460238D01*
X145399333Y-107460238D02*
X145494571Y-107365000D01*
X145494571Y-107365000D02*
X145637428Y-107317380D01*
X145637428Y-107317380D02*
X145732666Y-107317380D01*
X145732666Y-107317380D02*
X145875523Y-107365000D01*
X145875523Y-107365000D02*
X145923142Y-107412619D01*
X146304095Y-107412619D02*
X146351714Y-107365000D01*
X146351714Y-107365000D02*
X146446952Y-107317380D01*
X146446952Y-107317380D02*
X146685047Y-107317380D01*
X146685047Y-107317380D02*
X146780285Y-107365000D01*
X146780285Y-107365000D02*
X146827904Y-107412619D01*
X146827904Y-107412619D02*
X146875523Y-107507857D01*
X146875523Y-107507857D02*
X146875523Y-107603095D01*
X146875523Y-107603095D02*
X146827904Y-107745952D01*
X146827904Y-107745952D02*
X146256476Y-108317380D01*
X146256476Y-108317380D02*
X146875523Y-108317380D01*
X147637428Y-107793571D02*
X147780285Y-107841190D01*
X147780285Y-107841190D02*
X147827904Y-107888809D01*
X147827904Y-107888809D02*
X147875523Y-107984047D01*
X147875523Y-107984047D02*
X147875523Y-108126904D01*
X147875523Y-108126904D02*
X147827904Y-108222142D01*
X147827904Y-108222142D02*
X147780285Y-108269761D01*
X147780285Y-108269761D02*
X147685047Y-108317380D01*
X147685047Y-108317380D02*
X147304095Y-108317380D01*
X147304095Y-108317380D02*
X147304095Y-107317380D01*
X147304095Y-107317380D02*
X147637428Y-107317380D01*
X147637428Y-107317380D02*
X147732666Y-107365000D01*
X147732666Y-107365000D02*
X147780285Y-107412619D01*
X147780285Y-107412619D02*
X147827904Y-107507857D01*
X147827904Y-107507857D02*
X147827904Y-107603095D01*
X147827904Y-107603095D02*
X147780285Y-107698333D01*
X147780285Y-107698333D02*
X147732666Y-107745952D01*
X147732666Y-107745952D02*
X147637428Y-107793571D01*
X147637428Y-107793571D02*
X147304095Y-107793571D01*
X148827904Y-108317380D02*
X148256476Y-108317380D01*
X148542190Y-108317380D02*
X148542190Y-107317380D01*
X148542190Y-107317380D02*
X148446952Y-107460238D01*
X148446952Y-107460238D02*
X148351714Y-107555476D01*
X148351714Y-107555476D02*
X148256476Y-107603095D01*
%TO.C,R21*%
X110877842Y-92061380D02*
X110544509Y-91585190D01*
X110306414Y-92061380D02*
X110306414Y-91061380D01*
X110306414Y-91061380D02*
X110687366Y-91061380D01*
X110687366Y-91061380D02*
X110782604Y-91109000D01*
X110782604Y-91109000D02*
X110830223Y-91156619D01*
X110830223Y-91156619D02*
X110877842Y-91251857D01*
X110877842Y-91251857D02*
X110877842Y-91394714D01*
X110877842Y-91394714D02*
X110830223Y-91489952D01*
X110830223Y-91489952D02*
X110782604Y-91537571D01*
X110782604Y-91537571D02*
X110687366Y-91585190D01*
X110687366Y-91585190D02*
X110306414Y-91585190D01*
X111258795Y-91156619D02*
X111306414Y-91109000D01*
X111306414Y-91109000D02*
X111401652Y-91061380D01*
X111401652Y-91061380D02*
X111639747Y-91061380D01*
X111639747Y-91061380D02*
X111734985Y-91109000D01*
X111734985Y-91109000D02*
X111782604Y-91156619D01*
X111782604Y-91156619D02*
X111830223Y-91251857D01*
X111830223Y-91251857D02*
X111830223Y-91347095D01*
X111830223Y-91347095D02*
X111782604Y-91489952D01*
X111782604Y-91489952D02*
X111211176Y-92061380D01*
X111211176Y-92061380D02*
X111830223Y-92061380D01*
X112782604Y-92061380D02*
X112211176Y-92061380D01*
X112496890Y-92061380D02*
X112496890Y-91061380D01*
X112496890Y-91061380D02*
X112401652Y-91204238D01*
X112401652Y-91204238D02*
X112306414Y-91299476D01*
X112306414Y-91299476D02*
X112211176Y-91347095D01*
%TO.C,SW2*%
X122671561Y-80835332D02*
X122719180Y-80692475D01*
X122719180Y-80692475D02*
X122719180Y-80454380D01*
X122719180Y-80454380D02*
X122671561Y-80359142D01*
X122671561Y-80359142D02*
X122623942Y-80311523D01*
X122623942Y-80311523D02*
X122528704Y-80263904D01*
X122528704Y-80263904D02*
X122433466Y-80263904D01*
X122433466Y-80263904D02*
X122338228Y-80311523D01*
X122338228Y-80311523D02*
X122290609Y-80359142D01*
X122290609Y-80359142D02*
X122242990Y-80454380D01*
X122242990Y-80454380D02*
X122195371Y-80644856D01*
X122195371Y-80644856D02*
X122147752Y-80740094D01*
X122147752Y-80740094D02*
X122100133Y-80787713D01*
X122100133Y-80787713D02*
X122004895Y-80835332D01*
X122004895Y-80835332D02*
X121909657Y-80835332D01*
X121909657Y-80835332D02*
X121814419Y-80787713D01*
X121814419Y-80787713D02*
X121766800Y-80740094D01*
X121766800Y-80740094D02*
X121719180Y-80644856D01*
X121719180Y-80644856D02*
X121719180Y-80406761D01*
X121719180Y-80406761D02*
X121766800Y-80263904D01*
X121719180Y-79930570D02*
X122719180Y-79692475D01*
X122719180Y-79692475D02*
X122004895Y-79501999D01*
X122004895Y-79501999D02*
X122719180Y-79311523D01*
X122719180Y-79311523D02*
X121719180Y-79073428D01*
X121814419Y-78740094D02*
X121766800Y-78692475D01*
X121766800Y-78692475D02*
X121719180Y-78597237D01*
X121719180Y-78597237D02*
X121719180Y-78359142D01*
X121719180Y-78359142D02*
X121766800Y-78263904D01*
X121766800Y-78263904D02*
X121814419Y-78216285D01*
X121814419Y-78216285D02*
X121909657Y-78168666D01*
X121909657Y-78168666D02*
X122004895Y-78168666D01*
X122004895Y-78168666D02*
X122147752Y-78216285D01*
X122147752Y-78216285D02*
X122719180Y-78787713D01*
X122719180Y-78787713D02*
X122719180Y-78168666D01*
%TO.C,J5*%
X153209666Y-59604380D02*
X153209666Y-60318666D01*
X153209666Y-60318666D02*
X153162047Y-60461523D01*
X153162047Y-60461523D02*
X153066809Y-60556761D01*
X153066809Y-60556761D02*
X152923952Y-60604380D01*
X152923952Y-60604380D02*
X152828714Y-60604380D01*
X154162047Y-59604380D02*
X153685857Y-59604380D01*
X153685857Y-59604380D02*
X153638238Y-60080571D01*
X153638238Y-60080571D02*
X153685857Y-60032952D01*
X153685857Y-60032952D02*
X153781095Y-59985333D01*
X153781095Y-59985333D02*
X154019190Y-59985333D01*
X154019190Y-59985333D02*
X154114428Y-60032952D01*
X154114428Y-60032952D02*
X154162047Y-60080571D01*
X154162047Y-60080571D02*
X154209666Y-60175809D01*
X154209666Y-60175809D02*
X154209666Y-60413904D01*
X154209666Y-60413904D02*
X154162047Y-60509142D01*
X154162047Y-60509142D02*
X154114428Y-60556761D01*
X154114428Y-60556761D02*
X154019190Y-60604380D01*
X154019190Y-60604380D02*
X153781095Y-60604380D01*
X153781095Y-60604380D02*
X153685857Y-60556761D01*
X153685857Y-60556761D02*
X153638238Y-60509142D01*
%TO.C,C1*%
X142581333Y-120287142D02*
X142533714Y-120334761D01*
X142533714Y-120334761D02*
X142390857Y-120382380D01*
X142390857Y-120382380D02*
X142295619Y-120382380D01*
X142295619Y-120382380D02*
X142152762Y-120334761D01*
X142152762Y-120334761D02*
X142057524Y-120239523D01*
X142057524Y-120239523D02*
X142009905Y-120144285D01*
X142009905Y-120144285D02*
X141962286Y-119953809D01*
X141962286Y-119953809D02*
X141962286Y-119810952D01*
X141962286Y-119810952D02*
X142009905Y-119620476D01*
X142009905Y-119620476D02*
X142057524Y-119525238D01*
X142057524Y-119525238D02*
X142152762Y-119430000D01*
X142152762Y-119430000D02*
X142295619Y-119382380D01*
X142295619Y-119382380D02*
X142390857Y-119382380D01*
X142390857Y-119382380D02*
X142533714Y-119430000D01*
X142533714Y-119430000D02*
X142581333Y-119477619D01*
X143533714Y-120382380D02*
X142962286Y-120382380D01*
X143248000Y-120382380D02*
X143248000Y-119382380D01*
X143248000Y-119382380D02*
X143152762Y-119525238D01*
X143152762Y-119525238D02*
X143057524Y-119620476D01*
X143057524Y-119620476D02*
X142962286Y-119668095D01*
%TO.C,R7*%
X137904380Y-123356666D02*
X137428190Y-123689999D01*
X137904380Y-123928094D02*
X136904380Y-123928094D01*
X136904380Y-123928094D02*
X136904380Y-123547142D01*
X136904380Y-123547142D02*
X136952000Y-123451904D01*
X136952000Y-123451904D02*
X136999619Y-123404285D01*
X136999619Y-123404285D02*
X137094857Y-123356666D01*
X137094857Y-123356666D02*
X137237714Y-123356666D01*
X137237714Y-123356666D02*
X137332952Y-123404285D01*
X137332952Y-123404285D02*
X137380571Y-123451904D01*
X137380571Y-123451904D02*
X137428190Y-123547142D01*
X137428190Y-123547142D02*
X137428190Y-123928094D01*
X136904380Y-123023332D02*
X136904380Y-122356666D01*
X136904380Y-122356666D02*
X137904380Y-122785237D01*
%TO.C,L1*%
X140680333Y-101459380D02*
X140204143Y-101459380D01*
X140204143Y-101459380D02*
X140204143Y-100459380D01*
X141537476Y-101459380D02*
X140966048Y-101459380D01*
X141251762Y-101459380D02*
X141251762Y-100459380D01*
X141251762Y-100459380D02*
X141156524Y-100602238D01*
X141156524Y-100602238D02*
X141061286Y-100697476D01*
X141061286Y-100697476D02*
X140966048Y-100745095D01*
%TO.C,J2*%
X120480667Y-116036573D02*
X120480667Y-116943716D01*
X120480667Y-116943716D02*
X120420190Y-117125145D01*
X120420190Y-117125145D02*
X120299238Y-117246097D01*
X120299238Y-117246097D02*
X120117809Y-117306573D01*
X120117809Y-117306573D02*
X119996857Y-117306573D01*
X121024952Y-116157526D02*
X121085428Y-116097050D01*
X121085428Y-116097050D02*
X121206381Y-116036573D01*
X121206381Y-116036573D02*
X121508762Y-116036573D01*
X121508762Y-116036573D02*
X121629714Y-116097050D01*
X121629714Y-116097050D02*
X121690190Y-116157526D01*
X121690190Y-116157526D02*
X121750667Y-116278478D01*
X121750667Y-116278478D02*
X121750667Y-116399430D01*
X121750667Y-116399430D02*
X121690190Y-116580859D01*
X121690190Y-116580859D02*
X120964476Y-117306573D01*
X120964476Y-117306573D02*
X121750667Y-117306573D01*
%TO.C,J4*%
X167306666Y-59650380D02*
X167306666Y-60364666D01*
X167306666Y-60364666D02*
X167259047Y-60507523D01*
X167259047Y-60507523D02*
X167163809Y-60602761D01*
X167163809Y-60602761D02*
X167020952Y-60650380D01*
X167020952Y-60650380D02*
X166925714Y-60650380D01*
X168211428Y-59983714D02*
X168211428Y-60650380D01*
X167973333Y-59602761D02*
X167735238Y-60317047D01*
X167735238Y-60317047D02*
X168354285Y-60317047D01*
%TO.C,J1*%
X158072667Y-116036573D02*
X158072667Y-116943716D01*
X158072667Y-116943716D02*
X158012190Y-117125145D01*
X158012190Y-117125145D02*
X157891238Y-117246097D01*
X157891238Y-117246097D02*
X157709809Y-117306573D01*
X157709809Y-117306573D02*
X157588857Y-117306573D01*
X159342667Y-117306573D02*
X158616952Y-117306573D01*
X158979809Y-117306573D02*
X158979809Y-116036573D01*
X158979809Y-116036573D02*
X158858857Y-116218002D01*
X158858857Y-116218002D02*
X158737905Y-116338954D01*
X158737905Y-116338954D02*
X158616952Y-116399430D01*
%TO.C,J8*%
X120951666Y-59482380D02*
X120951666Y-60196666D01*
X120951666Y-60196666D02*
X120904047Y-60339523D01*
X120904047Y-60339523D02*
X120808809Y-60434761D01*
X120808809Y-60434761D02*
X120665952Y-60482380D01*
X120665952Y-60482380D02*
X120570714Y-60482380D01*
X121570714Y-59910952D02*
X121475476Y-59863333D01*
X121475476Y-59863333D02*
X121427857Y-59815714D01*
X121427857Y-59815714D02*
X121380238Y-59720476D01*
X121380238Y-59720476D02*
X121380238Y-59672857D01*
X121380238Y-59672857D02*
X121427857Y-59577619D01*
X121427857Y-59577619D02*
X121475476Y-59530000D01*
X121475476Y-59530000D02*
X121570714Y-59482380D01*
X121570714Y-59482380D02*
X121761190Y-59482380D01*
X121761190Y-59482380D02*
X121856428Y-59530000D01*
X121856428Y-59530000D02*
X121904047Y-59577619D01*
X121904047Y-59577619D02*
X121951666Y-59672857D01*
X121951666Y-59672857D02*
X121951666Y-59720476D01*
X121951666Y-59720476D02*
X121904047Y-59815714D01*
X121904047Y-59815714D02*
X121856428Y-59863333D01*
X121856428Y-59863333D02*
X121761190Y-59910952D01*
X121761190Y-59910952D02*
X121570714Y-59910952D01*
X121570714Y-59910952D02*
X121475476Y-59958571D01*
X121475476Y-59958571D02*
X121427857Y-60006190D01*
X121427857Y-60006190D02*
X121380238Y-60101428D01*
X121380238Y-60101428D02*
X121380238Y-60291904D01*
X121380238Y-60291904D02*
X121427857Y-60387142D01*
X121427857Y-60387142D02*
X121475476Y-60434761D01*
X121475476Y-60434761D02*
X121570714Y-60482380D01*
X121570714Y-60482380D02*
X121761190Y-60482380D01*
X121761190Y-60482380D02*
X121856428Y-60434761D01*
X121856428Y-60434761D02*
X121904047Y-60387142D01*
X121904047Y-60387142D02*
X121951666Y-60291904D01*
X121951666Y-60291904D02*
X121951666Y-60101428D01*
X121951666Y-60101428D02*
X121904047Y-60006190D01*
X121904047Y-60006190D02*
X121856428Y-59958571D01*
X121856428Y-59958571D02*
X121761190Y-59910952D01*
%TO.C,J6*%
X142202998Y-59692380D02*
X142202998Y-60406666D01*
X142202998Y-60406666D02*
X142155379Y-60549523D01*
X142155379Y-60549523D02*
X142060141Y-60644761D01*
X142060141Y-60644761D02*
X141917284Y-60692380D01*
X141917284Y-60692380D02*
X141822046Y-60692380D01*
X143107760Y-59692380D02*
X142917284Y-59692380D01*
X142917284Y-59692380D02*
X142822046Y-59740000D01*
X142822046Y-59740000D02*
X142774427Y-59787619D01*
X142774427Y-59787619D02*
X142679189Y-59930476D01*
X142679189Y-59930476D02*
X142631570Y-60120952D01*
X142631570Y-60120952D02*
X142631570Y-60501904D01*
X142631570Y-60501904D02*
X142679189Y-60597142D01*
X142679189Y-60597142D02*
X142726808Y-60644761D01*
X142726808Y-60644761D02*
X142822046Y-60692380D01*
X142822046Y-60692380D02*
X143012522Y-60692380D01*
X143012522Y-60692380D02*
X143107760Y-60644761D01*
X143107760Y-60644761D02*
X143155379Y-60597142D01*
X143155379Y-60597142D02*
X143202998Y-60501904D01*
X143202998Y-60501904D02*
X143202998Y-60263809D01*
X143202998Y-60263809D02*
X143155379Y-60168571D01*
X143155379Y-60168571D02*
X143107760Y-60120952D01*
X143107760Y-60120952D02*
X143012522Y-60073333D01*
X143012522Y-60073333D02*
X142822046Y-60073333D01*
X142822046Y-60073333D02*
X142726808Y-60120952D01*
X142726808Y-60120952D02*
X142679189Y-60168571D01*
X142679189Y-60168571D02*
X142631570Y-60263809D01*
%TO.C,J3*%
X126831380Y-95075333D02*
X127545666Y-95075333D01*
X127545666Y-95075333D02*
X127688523Y-95122952D01*
X127688523Y-95122952D02*
X127783761Y-95218190D01*
X127783761Y-95218190D02*
X127831380Y-95361047D01*
X127831380Y-95361047D02*
X127831380Y-95456285D01*
X126831380Y-94694380D02*
X126831380Y-94075333D01*
X126831380Y-94075333D02*
X127212333Y-94408666D01*
X127212333Y-94408666D02*
X127212333Y-94265809D01*
X127212333Y-94265809D02*
X127259952Y-94170571D01*
X127259952Y-94170571D02*
X127307571Y-94122952D01*
X127307571Y-94122952D02*
X127402809Y-94075333D01*
X127402809Y-94075333D02*
X127640904Y-94075333D01*
X127640904Y-94075333D02*
X127736142Y-94122952D01*
X127736142Y-94122952D02*
X127783761Y-94170571D01*
X127783761Y-94170571D02*
X127831380Y-94265809D01*
X127831380Y-94265809D02*
X127831380Y-94551523D01*
X127831380Y-94551523D02*
X127783761Y-94646761D01*
X127783761Y-94646761D02*
X127736142Y-94694380D01*
D12*
%TO.C,R8*%
X131686380Y-121959666D02*
X131210190Y-122292999D01*
X131686380Y-122531094D02*
X130686380Y-122531094D01*
X130686380Y-122531094D02*
X130686380Y-122150142D01*
X130686380Y-122150142D02*
X130734000Y-122054904D01*
X130734000Y-122054904D02*
X130781619Y-122007285D01*
X130781619Y-122007285D02*
X130876857Y-121959666D01*
X130876857Y-121959666D02*
X131019714Y-121959666D01*
X131019714Y-121959666D02*
X131114952Y-122007285D01*
X131114952Y-122007285D02*
X131162571Y-122054904D01*
X131162571Y-122054904D02*
X131210190Y-122150142D01*
X131210190Y-122150142D02*
X131210190Y-122531094D01*
X131114952Y-121388237D02*
X131067333Y-121483475D01*
X131067333Y-121483475D02*
X131019714Y-121531094D01*
X131019714Y-121531094D02*
X130924476Y-121578713D01*
X130924476Y-121578713D02*
X130876857Y-121578713D01*
X130876857Y-121578713D02*
X130781619Y-121531094D01*
X130781619Y-121531094D02*
X130734000Y-121483475D01*
X130734000Y-121483475D02*
X130686380Y-121388237D01*
X130686380Y-121388237D02*
X130686380Y-121197761D01*
X130686380Y-121197761D02*
X130734000Y-121102523D01*
X130734000Y-121102523D02*
X130781619Y-121054904D01*
X130781619Y-121054904D02*
X130876857Y-121007285D01*
X130876857Y-121007285D02*
X130924476Y-121007285D01*
X130924476Y-121007285D02*
X131019714Y-121054904D01*
X131019714Y-121054904D02*
X131067333Y-121102523D01*
X131067333Y-121102523D02*
X131114952Y-121197761D01*
X131114952Y-121197761D02*
X131114952Y-121388237D01*
X131114952Y-121388237D02*
X131162571Y-121483475D01*
X131162571Y-121483475D02*
X131210190Y-121531094D01*
X131210190Y-121531094D02*
X131305428Y-121578713D01*
X131305428Y-121578713D02*
X131495904Y-121578713D01*
X131495904Y-121578713D02*
X131591142Y-121531094D01*
X131591142Y-121531094D02*
X131638761Y-121483475D01*
X131638761Y-121483475D02*
X131686380Y-121388237D01*
X131686380Y-121388237D02*
X131686380Y-121197761D01*
X131686380Y-121197761D02*
X131638761Y-121102523D01*
X131638761Y-121102523D02*
X131591142Y-121054904D01*
X131591142Y-121054904D02*
X131495904Y-121007285D01*
X131495904Y-121007285D02*
X131305428Y-121007285D01*
X131305428Y-121007285D02*
X131210190Y-121054904D01*
X131210190Y-121054904D02*
X131162571Y-121102523D01*
X131162571Y-121102523D02*
X131114952Y-121197761D01*
D10*
%TO.C,Y1*%
X171849190Y-82689390D02*
X172325380Y-82689390D01*
X171325380Y-83022723D02*
X171849190Y-82689390D01*
X171849190Y-82689390D02*
X171325380Y-82356057D01*
X172325380Y-81498914D02*
X172325380Y-82070342D01*
X172325380Y-81784628D02*
X171325380Y-81784628D01*
X171325380Y-81784628D02*
X171468238Y-81879866D01*
X171468238Y-81879866D02*
X171563476Y-81975104D01*
X171563476Y-81975104D02*
X171611095Y-82070342D01*
%TO.C,C4*%
X116165333Y-105754142D02*
X116117714Y-105801761D01*
X116117714Y-105801761D02*
X115974857Y-105849380D01*
X115974857Y-105849380D02*
X115879619Y-105849380D01*
X115879619Y-105849380D02*
X115736762Y-105801761D01*
X115736762Y-105801761D02*
X115641524Y-105706523D01*
X115641524Y-105706523D02*
X115593905Y-105611285D01*
X115593905Y-105611285D02*
X115546286Y-105420809D01*
X115546286Y-105420809D02*
X115546286Y-105277952D01*
X115546286Y-105277952D02*
X115593905Y-105087476D01*
X115593905Y-105087476D02*
X115641524Y-104992238D01*
X115641524Y-104992238D02*
X115736762Y-104897000D01*
X115736762Y-104897000D02*
X115879619Y-104849380D01*
X115879619Y-104849380D02*
X115974857Y-104849380D01*
X115974857Y-104849380D02*
X116117714Y-104897000D01*
X116117714Y-104897000D02*
X116165333Y-104944619D01*
X117022476Y-105182714D02*
X117022476Y-105849380D01*
X116784381Y-104801761D02*
X116546286Y-105516047D01*
X116546286Y-105516047D02*
X117165333Y-105516047D01*
%TO.C,C8*%
X162852333Y-77742142D02*
X162804714Y-77789761D01*
X162804714Y-77789761D02*
X162661857Y-77837380D01*
X162661857Y-77837380D02*
X162566619Y-77837380D01*
X162566619Y-77837380D02*
X162423762Y-77789761D01*
X162423762Y-77789761D02*
X162328524Y-77694523D01*
X162328524Y-77694523D02*
X162280905Y-77599285D01*
X162280905Y-77599285D02*
X162233286Y-77408809D01*
X162233286Y-77408809D02*
X162233286Y-77265952D01*
X162233286Y-77265952D02*
X162280905Y-77075476D01*
X162280905Y-77075476D02*
X162328524Y-76980238D01*
X162328524Y-76980238D02*
X162423762Y-76885000D01*
X162423762Y-76885000D02*
X162566619Y-76837380D01*
X162566619Y-76837380D02*
X162661857Y-76837380D01*
X162661857Y-76837380D02*
X162804714Y-76885000D01*
X162804714Y-76885000D02*
X162852333Y-76932619D01*
X163423762Y-77265952D02*
X163328524Y-77218333D01*
X163328524Y-77218333D02*
X163280905Y-77170714D01*
X163280905Y-77170714D02*
X163233286Y-77075476D01*
X163233286Y-77075476D02*
X163233286Y-77027857D01*
X163233286Y-77027857D02*
X163280905Y-76932619D01*
X163280905Y-76932619D02*
X163328524Y-76885000D01*
X163328524Y-76885000D02*
X163423762Y-76837380D01*
X163423762Y-76837380D02*
X163614238Y-76837380D01*
X163614238Y-76837380D02*
X163709476Y-76885000D01*
X163709476Y-76885000D02*
X163757095Y-76932619D01*
X163757095Y-76932619D02*
X163804714Y-77027857D01*
X163804714Y-77027857D02*
X163804714Y-77075476D01*
X163804714Y-77075476D02*
X163757095Y-77170714D01*
X163757095Y-77170714D02*
X163709476Y-77218333D01*
X163709476Y-77218333D02*
X163614238Y-77265952D01*
X163614238Y-77265952D02*
X163423762Y-77265952D01*
X163423762Y-77265952D02*
X163328524Y-77313571D01*
X163328524Y-77313571D02*
X163280905Y-77361190D01*
X163280905Y-77361190D02*
X163233286Y-77456428D01*
X163233286Y-77456428D02*
X163233286Y-77646904D01*
X163233286Y-77646904D02*
X163280905Y-77742142D01*
X163280905Y-77742142D02*
X163328524Y-77789761D01*
X163328524Y-77789761D02*
X163423762Y-77837380D01*
X163423762Y-77837380D02*
X163614238Y-77837380D01*
X163614238Y-77837380D02*
X163709476Y-77789761D01*
X163709476Y-77789761D02*
X163757095Y-77742142D01*
X163757095Y-77742142D02*
X163804714Y-77646904D01*
X163804714Y-77646904D02*
X163804714Y-77456428D01*
X163804714Y-77456428D02*
X163757095Y-77361190D01*
X163757095Y-77361190D02*
X163709476Y-77313571D01*
X163709476Y-77313571D02*
X163614238Y-77265952D01*
D12*
%TO.C,R4*%
X167373380Y-97194666D02*
X166897190Y-97527999D01*
X167373380Y-97766094D02*
X166373380Y-97766094D01*
X166373380Y-97766094D02*
X166373380Y-97385142D01*
X166373380Y-97385142D02*
X166421000Y-97289904D01*
X166421000Y-97289904D02*
X166468619Y-97242285D01*
X166468619Y-97242285D02*
X166563857Y-97194666D01*
X166563857Y-97194666D02*
X166706714Y-97194666D01*
X166706714Y-97194666D02*
X166801952Y-97242285D01*
X166801952Y-97242285D02*
X166849571Y-97289904D01*
X166849571Y-97289904D02*
X166897190Y-97385142D01*
X166897190Y-97385142D02*
X166897190Y-97766094D01*
X166706714Y-96337523D02*
X167373380Y-96337523D01*
X166325761Y-96575618D02*
X167040047Y-96813713D01*
X167040047Y-96813713D02*
X167040047Y-96194666D01*
%TO.C,R2*%
X140194380Y-125769666D02*
X139718190Y-126102999D01*
X140194380Y-126341094D02*
X139194380Y-126341094D01*
X139194380Y-126341094D02*
X139194380Y-125960142D01*
X139194380Y-125960142D02*
X139242000Y-125864904D01*
X139242000Y-125864904D02*
X139289619Y-125817285D01*
X139289619Y-125817285D02*
X139384857Y-125769666D01*
X139384857Y-125769666D02*
X139527714Y-125769666D01*
X139527714Y-125769666D02*
X139622952Y-125817285D01*
X139622952Y-125817285D02*
X139670571Y-125864904D01*
X139670571Y-125864904D02*
X139718190Y-125960142D01*
X139718190Y-125960142D02*
X139718190Y-126341094D01*
X139289619Y-125388713D02*
X139242000Y-125341094D01*
X139242000Y-125341094D02*
X139194380Y-125245856D01*
X139194380Y-125245856D02*
X139194380Y-125007761D01*
X139194380Y-125007761D02*
X139242000Y-124912523D01*
X139242000Y-124912523D02*
X139289619Y-124864904D01*
X139289619Y-124864904D02*
X139384857Y-124817285D01*
X139384857Y-124817285D02*
X139480095Y-124817285D01*
X139480095Y-124817285D02*
X139622952Y-124864904D01*
X139622952Y-124864904D02*
X140194380Y-125436332D01*
X140194380Y-125436332D02*
X140194380Y-124817285D01*
D10*
%TO.C,C2*%
X134502333Y-108150142D02*
X134454714Y-108197761D01*
X134454714Y-108197761D02*
X134311857Y-108245380D01*
X134311857Y-108245380D02*
X134216619Y-108245380D01*
X134216619Y-108245380D02*
X134073762Y-108197761D01*
X134073762Y-108197761D02*
X133978524Y-108102523D01*
X133978524Y-108102523D02*
X133930905Y-108007285D01*
X133930905Y-108007285D02*
X133883286Y-107816809D01*
X133883286Y-107816809D02*
X133883286Y-107673952D01*
X133883286Y-107673952D02*
X133930905Y-107483476D01*
X133930905Y-107483476D02*
X133978524Y-107388238D01*
X133978524Y-107388238D02*
X134073762Y-107293000D01*
X134073762Y-107293000D02*
X134216619Y-107245380D01*
X134216619Y-107245380D02*
X134311857Y-107245380D01*
X134311857Y-107245380D02*
X134454714Y-107293000D01*
X134454714Y-107293000D02*
X134502333Y-107340619D01*
X134883286Y-107340619D02*
X134930905Y-107293000D01*
X134930905Y-107293000D02*
X135026143Y-107245380D01*
X135026143Y-107245380D02*
X135264238Y-107245380D01*
X135264238Y-107245380D02*
X135359476Y-107293000D01*
X135359476Y-107293000D02*
X135407095Y-107340619D01*
X135407095Y-107340619D02*
X135454714Y-107435857D01*
X135454714Y-107435857D02*
X135454714Y-107531095D01*
X135454714Y-107531095D02*
X135407095Y-107673952D01*
X135407095Y-107673952D02*
X134835667Y-108245380D01*
X134835667Y-108245380D02*
X135454714Y-108245380D01*
%TO.C,C6*%
X135658142Y-124626666D02*
X135705761Y-124674285D01*
X135705761Y-124674285D02*
X135753380Y-124817142D01*
X135753380Y-124817142D02*
X135753380Y-124912380D01*
X135753380Y-124912380D02*
X135705761Y-125055237D01*
X135705761Y-125055237D02*
X135610523Y-125150475D01*
X135610523Y-125150475D02*
X135515285Y-125198094D01*
X135515285Y-125198094D02*
X135324809Y-125245713D01*
X135324809Y-125245713D02*
X135181952Y-125245713D01*
X135181952Y-125245713D02*
X134991476Y-125198094D01*
X134991476Y-125198094D02*
X134896238Y-125150475D01*
X134896238Y-125150475D02*
X134801000Y-125055237D01*
X134801000Y-125055237D02*
X134753380Y-124912380D01*
X134753380Y-124912380D02*
X134753380Y-124817142D01*
X134753380Y-124817142D02*
X134801000Y-124674285D01*
X134801000Y-124674285D02*
X134848619Y-124626666D01*
X134753380Y-123769523D02*
X134753380Y-123959999D01*
X134753380Y-123959999D02*
X134801000Y-124055237D01*
X134801000Y-124055237D02*
X134848619Y-124102856D01*
X134848619Y-124102856D02*
X134991476Y-124198094D01*
X134991476Y-124198094D02*
X135181952Y-124245713D01*
X135181952Y-124245713D02*
X135562904Y-124245713D01*
X135562904Y-124245713D02*
X135658142Y-124198094D01*
X135658142Y-124198094D02*
X135705761Y-124150475D01*
X135705761Y-124150475D02*
X135753380Y-124055237D01*
X135753380Y-124055237D02*
X135753380Y-123864761D01*
X135753380Y-123864761D02*
X135705761Y-123769523D01*
X135705761Y-123769523D02*
X135658142Y-123721904D01*
X135658142Y-123721904D02*
X135562904Y-123674285D01*
X135562904Y-123674285D02*
X135324809Y-123674285D01*
X135324809Y-123674285D02*
X135229571Y-123721904D01*
X135229571Y-123721904D02*
X135181952Y-123769523D01*
X135181952Y-123769523D02*
X135134333Y-123864761D01*
X135134333Y-123864761D02*
X135134333Y-124055237D01*
X135134333Y-124055237D02*
X135181952Y-124150475D01*
X135181952Y-124150475D02*
X135229571Y-124198094D01*
X135229571Y-124198094D02*
X135324809Y-124245713D01*
D12*
%TO.C,R13*%
X117841380Y-71316357D02*
X117365190Y-71649690D01*
X117841380Y-71887785D02*
X116841380Y-71887785D01*
X116841380Y-71887785D02*
X116841380Y-71506833D01*
X116841380Y-71506833D02*
X116889000Y-71411595D01*
X116889000Y-71411595D02*
X116936619Y-71363976D01*
X116936619Y-71363976D02*
X117031857Y-71316357D01*
X117031857Y-71316357D02*
X117174714Y-71316357D01*
X117174714Y-71316357D02*
X117269952Y-71363976D01*
X117269952Y-71363976D02*
X117317571Y-71411595D01*
X117317571Y-71411595D02*
X117365190Y-71506833D01*
X117365190Y-71506833D02*
X117365190Y-71887785D01*
X117841380Y-70363976D02*
X117841380Y-70935404D01*
X117841380Y-70649690D02*
X116841380Y-70649690D01*
X116841380Y-70649690D02*
X116984238Y-70744928D01*
X116984238Y-70744928D02*
X117079476Y-70840166D01*
X117079476Y-70840166D02*
X117127095Y-70935404D01*
X116841380Y-70030642D02*
X116841380Y-69411595D01*
X116841380Y-69411595D02*
X117222333Y-69744928D01*
X117222333Y-69744928D02*
X117222333Y-69602071D01*
X117222333Y-69602071D02*
X117269952Y-69506833D01*
X117269952Y-69506833D02*
X117317571Y-69459214D01*
X117317571Y-69459214D02*
X117412809Y-69411595D01*
X117412809Y-69411595D02*
X117650904Y-69411595D01*
X117650904Y-69411595D02*
X117746142Y-69459214D01*
X117746142Y-69459214D02*
X117793761Y-69506833D01*
X117793761Y-69506833D02*
X117841380Y-69602071D01*
X117841380Y-69602071D02*
X117841380Y-69887785D01*
X117841380Y-69887785D02*
X117793761Y-69983023D01*
X117793761Y-69983023D02*
X117746142Y-70030642D01*
D10*
%TO.C,H1*%
X157939380Y-71265904D02*
X156939380Y-71265904D01*
X157415571Y-71265904D02*
X157415571Y-70694476D01*
X157939380Y-70694476D02*
X156939380Y-70694476D01*
X157939380Y-69694476D02*
X157939380Y-70265904D01*
X157939380Y-69980190D02*
X156939380Y-69980190D01*
X156939380Y-69980190D02*
X157082238Y-70075428D01*
X157082238Y-70075428D02*
X157177476Y-70170666D01*
X157177476Y-70170666D02*
X157225095Y-70265904D01*
D12*
%TO.C,R12*%
X130541380Y-71316357D02*
X130065190Y-71649690D01*
X130541380Y-71887785D02*
X129541380Y-71887785D01*
X129541380Y-71887785D02*
X129541380Y-71506833D01*
X129541380Y-71506833D02*
X129589000Y-71411595D01*
X129589000Y-71411595D02*
X129636619Y-71363976D01*
X129636619Y-71363976D02*
X129731857Y-71316357D01*
X129731857Y-71316357D02*
X129874714Y-71316357D01*
X129874714Y-71316357D02*
X129969952Y-71363976D01*
X129969952Y-71363976D02*
X130017571Y-71411595D01*
X130017571Y-71411595D02*
X130065190Y-71506833D01*
X130065190Y-71506833D02*
X130065190Y-71887785D01*
X130541380Y-70363976D02*
X130541380Y-70935404D01*
X130541380Y-70649690D02*
X129541380Y-70649690D01*
X129541380Y-70649690D02*
X129684238Y-70744928D01*
X129684238Y-70744928D02*
X129779476Y-70840166D01*
X129779476Y-70840166D02*
X129827095Y-70935404D01*
X129636619Y-69983023D02*
X129589000Y-69935404D01*
X129589000Y-69935404D02*
X129541380Y-69840166D01*
X129541380Y-69840166D02*
X129541380Y-69602071D01*
X129541380Y-69602071D02*
X129589000Y-69506833D01*
X129589000Y-69506833D02*
X129636619Y-69459214D01*
X129636619Y-69459214D02*
X129731857Y-69411595D01*
X129731857Y-69411595D02*
X129827095Y-69411595D01*
X129827095Y-69411595D02*
X129969952Y-69459214D01*
X129969952Y-69459214D02*
X130541380Y-70030642D01*
X130541380Y-70030642D02*
X130541380Y-69411595D01*
D10*
%TO.C,C10*%
X122674142Y-89632142D02*
X122626523Y-89679761D01*
X122626523Y-89679761D02*
X122483666Y-89727380D01*
X122483666Y-89727380D02*
X122388428Y-89727380D01*
X122388428Y-89727380D02*
X122245571Y-89679761D01*
X122245571Y-89679761D02*
X122150333Y-89584523D01*
X122150333Y-89584523D02*
X122102714Y-89489285D01*
X122102714Y-89489285D02*
X122055095Y-89298809D01*
X122055095Y-89298809D02*
X122055095Y-89155952D01*
X122055095Y-89155952D02*
X122102714Y-88965476D01*
X122102714Y-88965476D02*
X122150333Y-88870238D01*
X122150333Y-88870238D02*
X122245571Y-88775000D01*
X122245571Y-88775000D02*
X122388428Y-88727380D01*
X122388428Y-88727380D02*
X122483666Y-88727380D01*
X122483666Y-88727380D02*
X122626523Y-88775000D01*
X122626523Y-88775000D02*
X122674142Y-88822619D01*
X123626523Y-89727380D02*
X123055095Y-89727380D01*
X123340809Y-89727380D02*
X123340809Y-88727380D01*
X123340809Y-88727380D02*
X123245571Y-88870238D01*
X123245571Y-88870238D02*
X123150333Y-88965476D01*
X123150333Y-88965476D02*
X123055095Y-89013095D01*
X124245571Y-88727380D02*
X124340809Y-88727380D01*
X124340809Y-88727380D02*
X124436047Y-88775000D01*
X124436047Y-88775000D02*
X124483666Y-88822619D01*
X124483666Y-88822619D02*
X124531285Y-88917857D01*
X124531285Y-88917857D02*
X124578904Y-89108333D01*
X124578904Y-89108333D02*
X124578904Y-89346428D01*
X124578904Y-89346428D02*
X124531285Y-89536904D01*
X124531285Y-89536904D02*
X124483666Y-89632142D01*
X124483666Y-89632142D02*
X124436047Y-89679761D01*
X124436047Y-89679761D02*
X124340809Y-89727380D01*
X124340809Y-89727380D02*
X124245571Y-89727380D01*
X124245571Y-89727380D02*
X124150333Y-89679761D01*
X124150333Y-89679761D02*
X124102714Y-89632142D01*
X124102714Y-89632142D02*
X124055095Y-89536904D01*
X124055095Y-89536904D02*
X124007476Y-89346428D01*
X124007476Y-89346428D02*
X124007476Y-89108333D01*
X124007476Y-89108333D02*
X124055095Y-88917857D01*
X124055095Y-88917857D02*
X124102714Y-88822619D01*
X124102714Y-88822619D02*
X124150333Y-88775000D01*
X124150333Y-88775000D02*
X124245571Y-88727380D01*
D12*
%TO.C,R17*%
X122921380Y-71316357D02*
X122445190Y-71649690D01*
X122921380Y-71887785D02*
X121921380Y-71887785D01*
X121921380Y-71887785D02*
X121921380Y-71506833D01*
X121921380Y-71506833D02*
X121969000Y-71411595D01*
X121969000Y-71411595D02*
X122016619Y-71363976D01*
X122016619Y-71363976D02*
X122111857Y-71316357D01*
X122111857Y-71316357D02*
X122254714Y-71316357D01*
X122254714Y-71316357D02*
X122349952Y-71363976D01*
X122349952Y-71363976D02*
X122397571Y-71411595D01*
X122397571Y-71411595D02*
X122445190Y-71506833D01*
X122445190Y-71506833D02*
X122445190Y-71887785D01*
X122921380Y-70363976D02*
X122921380Y-70935404D01*
X122921380Y-70649690D02*
X121921380Y-70649690D01*
X121921380Y-70649690D02*
X122064238Y-70744928D01*
X122064238Y-70744928D02*
X122159476Y-70840166D01*
X122159476Y-70840166D02*
X122207095Y-70935404D01*
X121921380Y-70030642D02*
X121921380Y-69363976D01*
X121921380Y-69363976D02*
X122921380Y-69792547D01*
D10*
%TO.C,R5*%
X115175380Y-92114666D02*
X114699190Y-92447999D01*
X115175380Y-92686094D02*
X114175380Y-92686094D01*
X114175380Y-92686094D02*
X114175380Y-92305142D01*
X114175380Y-92305142D02*
X114223000Y-92209904D01*
X114223000Y-92209904D02*
X114270619Y-92162285D01*
X114270619Y-92162285D02*
X114365857Y-92114666D01*
X114365857Y-92114666D02*
X114508714Y-92114666D01*
X114508714Y-92114666D02*
X114603952Y-92162285D01*
X114603952Y-92162285D02*
X114651571Y-92209904D01*
X114651571Y-92209904D02*
X114699190Y-92305142D01*
X114699190Y-92305142D02*
X114699190Y-92686094D01*
X114175380Y-91209904D02*
X114175380Y-91686094D01*
X114175380Y-91686094D02*
X114651571Y-91733713D01*
X114651571Y-91733713D02*
X114603952Y-91686094D01*
X114603952Y-91686094D02*
X114556333Y-91590856D01*
X114556333Y-91590856D02*
X114556333Y-91352761D01*
X114556333Y-91352761D02*
X114603952Y-91257523D01*
X114603952Y-91257523D02*
X114651571Y-91209904D01*
X114651571Y-91209904D02*
X114746809Y-91162285D01*
X114746809Y-91162285D02*
X114984904Y-91162285D01*
X114984904Y-91162285D02*
X115080142Y-91209904D01*
X115080142Y-91209904D02*
X115127761Y-91257523D01*
X115127761Y-91257523D02*
X115175380Y-91352761D01*
X115175380Y-91352761D02*
X115175380Y-91590856D01*
X115175380Y-91590856D02*
X115127761Y-91686094D01*
X115127761Y-91686094D02*
X115080142Y-91733713D01*
%TO.C,SW3*%
X109438161Y-80835332D02*
X109485780Y-80692475D01*
X109485780Y-80692475D02*
X109485780Y-80454380D01*
X109485780Y-80454380D02*
X109438161Y-80359142D01*
X109438161Y-80359142D02*
X109390542Y-80311523D01*
X109390542Y-80311523D02*
X109295304Y-80263904D01*
X109295304Y-80263904D02*
X109200066Y-80263904D01*
X109200066Y-80263904D02*
X109104828Y-80311523D01*
X109104828Y-80311523D02*
X109057209Y-80359142D01*
X109057209Y-80359142D02*
X109009590Y-80454380D01*
X109009590Y-80454380D02*
X108961971Y-80644856D01*
X108961971Y-80644856D02*
X108914352Y-80740094D01*
X108914352Y-80740094D02*
X108866733Y-80787713D01*
X108866733Y-80787713D02*
X108771495Y-80835332D01*
X108771495Y-80835332D02*
X108676257Y-80835332D01*
X108676257Y-80835332D02*
X108581019Y-80787713D01*
X108581019Y-80787713D02*
X108533400Y-80740094D01*
X108533400Y-80740094D02*
X108485780Y-80644856D01*
X108485780Y-80644856D02*
X108485780Y-80406761D01*
X108485780Y-80406761D02*
X108533400Y-80263904D01*
X108485780Y-79930570D02*
X109485780Y-79692475D01*
X109485780Y-79692475D02*
X108771495Y-79501999D01*
X108771495Y-79501999D02*
X109485780Y-79311523D01*
X109485780Y-79311523D02*
X108485780Y-79073428D01*
X108485780Y-78787713D02*
X108485780Y-78168666D01*
X108485780Y-78168666D02*
X108866733Y-78501999D01*
X108866733Y-78501999D02*
X108866733Y-78359142D01*
X108866733Y-78359142D02*
X108914352Y-78263904D01*
X108914352Y-78263904D02*
X108961971Y-78216285D01*
X108961971Y-78216285D02*
X109057209Y-78168666D01*
X109057209Y-78168666D02*
X109295304Y-78168666D01*
X109295304Y-78168666D02*
X109390542Y-78216285D01*
X109390542Y-78216285D02*
X109438161Y-78263904D01*
X109438161Y-78263904D02*
X109485780Y-78359142D01*
X109485780Y-78359142D02*
X109485780Y-78644856D01*
X109485780Y-78644856D02*
X109438161Y-78740094D01*
X109438161Y-78740094D02*
X109390542Y-78787713D01*
D12*
%TO.C,R20*%
X118874842Y-85585380D02*
X118541509Y-85109190D01*
X118303414Y-85585380D02*
X118303414Y-84585380D01*
X118303414Y-84585380D02*
X118684366Y-84585380D01*
X118684366Y-84585380D02*
X118779604Y-84633000D01*
X118779604Y-84633000D02*
X118827223Y-84680619D01*
X118827223Y-84680619D02*
X118874842Y-84775857D01*
X118874842Y-84775857D02*
X118874842Y-84918714D01*
X118874842Y-84918714D02*
X118827223Y-85013952D01*
X118827223Y-85013952D02*
X118779604Y-85061571D01*
X118779604Y-85061571D02*
X118684366Y-85109190D01*
X118684366Y-85109190D02*
X118303414Y-85109190D01*
X119255795Y-84680619D02*
X119303414Y-84633000D01*
X119303414Y-84633000D02*
X119398652Y-84585380D01*
X119398652Y-84585380D02*
X119636747Y-84585380D01*
X119636747Y-84585380D02*
X119731985Y-84633000D01*
X119731985Y-84633000D02*
X119779604Y-84680619D01*
X119779604Y-84680619D02*
X119827223Y-84775857D01*
X119827223Y-84775857D02*
X119827223Y-84871095D01*
X119827223Y-84871095D02*
X119779604Y-85013952D01*
X119779604Y-85013952D02*
X119208176Y-85585380D01*
X119208176Y-85585380D02*
X119827223Y-85585380D01*
X120446271Y-84585380D02*
X120541509Y-84585380D01*
X120541509Y-84585380D02*
X120636747Y-84633000D01*
X120636747Y-84633000D02*
X120684366Y-84680619D01*
X120684366Y-84680619D02*
X120731985Y-84775857D01*
X120731985Y-84775857D02*
X120779604Y-84966333D01*
X120779604Y-84966333D02*
X120779604Y-85204428D01*
X120779604Y-85204428D02*
X120731985Y-85394904D01*
X120731985Y-85394904D02*
X120684366Y-85490142D01*
X120684366Y-85490142D02*
X120636747Y-85537761D01*
X120636747Y-85537761D02*
X120541509Y-85585380D01*
X120541509Y-85585380D02*
X120446271Y-85585380D01*
X120446271Y-85585380D02*
X120351033Y-85537761D01*
X120351033Y-85537761D02*
X120303414Y-85490142D01*
X120303414Y-85490142D02*
X120255795Y-85394904D01*
X120255795Y-85394904D02*
X120208176Y-85204428D01*
X120208176Y-85204428D02*
X120208176Y-84966333D01*
X120208176Y-84966333D02*
X120255795Y-84775857D01*
X120255795Y-84775857D02*
X120303414Y-84680619D01*
X120303414Y-84680619D02*
X120351033Y-84633000D01*
X120351033Y-84633000D02*
X120446271Y-84585380D01*
D13*
%TO.C,R18*%
X144626000Y-122708936D02*
X144626000Y-123163064D01*
X143156000Y-122708936D02*
X143156000Y-123163064D01*
%TO.C,R16*%
X134339000Y-70446436D02*
X134339000Y-70900564D01*
X132869000Y-70446436D02*
X132869000Y-70900564D01*
%TO.C,R22*%
X170715000Y-72617064D02*
X170715000Y-72162936D01*
X172185000Y-72617064D02*
X172185000Y-72162936D01*
D12*
%TO.C,T1*%
X161680966Y-94705000D02*
X163439034Y-94705000D01*
X161680966Y-99605000D02*
X161680966Y-94705000D01*
D10*
X163439034Y-94705000D02*
X163439034Y-99605000D01*
D12*
X163439034Y-99605000D02*
X161680966Y-99605000D01*
D14*
X158581900Y-95250000D02*
G75*
G03*
X158581900Y-95250000I-125000J0D01*
G01*
D13*
%TO.C,D1*%
X172185000Y-65701000D02*
X170715000Y-65701000D01*
X170715000Y-65701000D02*
X170715000Y-67986000D01*
X172185000Y-67986000D02*
X172185000Y-65701000D01*
%TO.C,SW1*%
X136431800Y-74176700D02*
X135048800Y-74176700D01*
X136431800Y-74176700D02*
X136431800Y-75560700D01*
X136191800Y-74416700D02*
X123731800Y-74416700D01*
X136191800Y-74416700D02*
X136191800Y-84316700D01*
X123731800Y-74416700D02*
X123731800Y-84316700D01*
X134406800Y-77336700D02*
X133136800Y-77336700D01*
X134286800Y-77336700D02*
X134286800Y-78690033D01*
X134166800Y-77336700D02*
X134166800Y-78690033D01*
X134046800Y-77336700D02*
X134046800Y-78690033D01*
X133926800Y-77336700D02*
X133926800Y-78690033D01*
X133806800Y-77336700D02*
X133806800Y-78690033D01*
X133686800Y-77336700D02*
X133686800Y-78690033D01*
X133566800Y-77336700D02*
X133566800Y-78690033D01*
X133446800Y-77336700D02*
X133446800Y-78690033D01*
X133326800Y-77336700D02*
X133326800Y-78690033D01*
X133206800Y-77336700D02*
X133206800Y-78690033D01*
X133136800Y-77336700D02*
X133136800Y-81396700D01*
X131866800Y-77336700D02*
X130596800Y-77336700D01*
X131746800Y-77336700D02*
X131746800Y-78690033D01*
X131626800Y-77336700D02*
X131626800Y-78690033D01*
X131506800Y-77336700D02*
X131506800Y-78690033D01*
X131386800Y-77336700D02*
X131386800Y-78690033D01*
X131266800Y-77336700D02*
X131266800Y-78690033D01*
X131146800Y-77336700D02*
X131146800Y-78690033D01*
X131026800Y-77336700D02*
X131026800Y-78690033D01*
X130906800Y-77336700D02*
X130906800Y-78690033D01*
X130786800Y-77336700D02*
X130786800Y-78690033D01*
X130666800Y-77336700D02*
X130666800Y-78690033D01*
X130596800Y-77336700D02*
X130596800Y-81396700D01*
X129326800Y-77336700D02*
X128056800Y-77336700D01*
X129206800Y-77336700D02*
X129206800Y-78690033D01*
X129086800Y-77336700D02*
X129086800Y-78690033D01*
X128966800Y-77336700D02*
X128966800Y-78690033D01*
X128846800Y-77336700D02*
X128846800Y-78690033D01*
X128726800Y-77336700D02*
X128726800Y-78690033D01*
X128606800Y-77336700D02*
X128606800Y-78690033D01*
X128486800Y-77336700D02*
X128486800Y-78690033D01*
X128366800Y-77336700D02*
X128366800Y-78690033D01*
X128246800Y-77336700D02*
X128246800Y-78690033D01*
X128126800Y-77336700D02*
X128126800Y-78690033D01*
X128056800Y-77336700D02*
X128056800Y-81396700D01*
X126786800Y-77336700D02*
X125516800Y-77336700D01*
X126666800Y-77336700D02*
X126666800Y-78690033D01*
X126546800Y-77336700D02*
X126546800Y-78690033D01*
X126426800Y-77336700D02*
X126426800Y-78690033D01*
X126306800Y-77336700D02*
X126306800Y-78690033D01*
X126186800Y-77336700D02*
X126186800Y-78690033D01*
X126066800Y-77336700D02*
X126066800Y-78690033D01*
X125946800Y-77336700D02*
X125946800Y-78690033D01*
X125826800Y-77336700D02*
X125826800Y-78690033D01*
X125706800Y-77336700D02*
X125706800Y-78690033D01*
X125586800Y-77336700D02*
X125586800Y-78690033D01*
X125516800Y-77336700D02*
X125516800Y-81396700D01*
X134406800Y-78690033D02*
X133136800Y-78690033D01*
X131866800Y-78690033D02*
X130596800Y-78690033D01*
X129326800Y-78690033D02*
X128056800Y-78690033D01*
X126786800Y-78690033D02*
X125516800Y-78690033D01*
X134406800Y-81396700D02*
X134406800Y-77336700D01*
X133136800Y-81396700D02*
X134406800Y-81396700D01*
X131866800Y-81396700D02*
X131866800Y-77336700D01*
X130596800Y-81396700D02*
X131866800Y-81396700D01*
X129326800Y-81396700D02*
X129326800Y-77336700D01*
X128056800Y-81396700D02*
X129326800Y-81396700D01*
X126786800Y-81396700D02*
X126786800Y-77336700D01*
X125516800Y-81396700D02*
X126786800Y-81396700D01*
X136191800Y-84316700D02*
X123731800Y-84316700D01*
%TO.C,R15*%
X119099000Y-70446436D02*
X119099000Y-70900564D01*
X117629000Y-70446436D02*
X117629000Y-70900564D01*
%TO.C,J9*%
X149435000Y-72870000D02*
X150765000Y-72870000D01*
X149435000Y-74200000D02*
X149435000Y-72870000D01*
X149435000Y-75470000D02*
X149435000Y-80610000D01*
X149435000Y-75470000D02*
X152035000Y-75470000D01*
X149435000Y-80610000D02*
X154635000Y-80610000D01*
X152035000Y-72870000D02*
X154635000Y-72870000D01*
X152035000Y-75470000D02*
X152035000Y-72870000D01*
X154635000Y-72870000D02*
X154635000Y-80610000D01*
%TO.C,J7*%
X131040666Y-62198000D02*
X131040666Y-58198000D01*
X130750666Y-63228000D02*
X130750666Y-57208000D01*
X130750666Y-57208000D02*
X122910666Y-57208000D01*
X130170666Y-63228000D02*
X130170666Y-62628000D01*
X130170666Y-62628000D02*
X128570666Y-62628000D01*
X129370666Y-58208000D02*
X129120666Y-58738000D01*
X129370666Y-58208000D02*
X124290666Y-58208000D01*
X129370666Y-57208000D02*
X129370666Y-58208000D01*
X129120666Y-58738000D02*
X124540666Y-58738000D01*
X129120666Y-57208000D02*
X129120666Y-58208000D01*
X128570666Y-62628000D02*
X128570666Y-63228000D01*
X127630666Y-63228000D02*
X127630666Y-62628000D01*
X127630666Y-62628000D02*
X126030666Y-62628000D01*
X126030666Y-62628000D02*
X126030666Y-63228000D01*
X125090666Y-63228000D02*
X125090666Y-62628000D01*
X125090666Y-62628000D02*
X123490666Y-62628000D01*
X124540666Y-58738000D02*
X124290666Y-58208000D01*
X124540666Y-57208000D02*
X124540666Y-58208000D01*
X124290666Y-58208000D02*
X124290666Y-57208000D01*
X123490666Y-62628000D02*
X123490666Y-63228000D01*
X122910666Y-63228000D02*
X130750666Y-63228000D01*
X122910666Y-57208000D02*
X122910666Y-63228000D01*
%TO.C,C7*%
X151688852Y-85644400D02*
X150266348Y-85644400D01*
X151688852Y-83824400D02*
X150266348Y-83824400D01*
%TO.C,R10*%
X126719000Y-70446436D02*
X126719000Y-70900564D01*
X125249000Y-70446436D02*
X125249000Y-70900564D01*
D10*
%TO.C,B1*%
X134047000Y-118283000D02*
X134047000Y-116758000D01*
D13*
%TO.C,U1*%
X124499000Y-93432000D02*
X119858000Y-93432000D01*
X124499000Y-93432000D02*
X124499000Y-103672000D01*
X122989000Y-93432000D02*
X122989000Y-103672000D01*
X119858000Y-93432000D02*
X119858000Y-103672000D01*
X124499000Y-96702000D02*
X122989000Y-96702000D01*
X124499000Y-100403000D02*
X122989000Y-100403000D01*
X124499000Y-103672000D02*
X119858000Y-103672000D01*
%TO.C,C2A1*%
X147165748Y-103230000D02*
X148588252Y-103230000D01*
X147165748Y-105050000D02*
X148588252Y-105050000D01*
D12*
%TO.C,U2*%
X164185000Y-88275000D02*
X164185000Y-88050000D01*
X164185000Y-88275000D02*
X163860000Y-88275000D01*
X164185000Y-88050000D02*
X165610000Y-88050000D01*
X164185000Y-81025000D02*
X164185000Y-81350000D01*
X164185000Y-81025000D02*
X163860000Y-81025000D01*
X156935000Y-88275000D02*
X157260000Y-88275000D01*
X156935000Y-88275000D02*
X156935000Y-87950000D01*
X156935000Y-81025000D02*
X157260000Y-81025000D01*
X156935000Y-81025000D02*
X156935000Y-81350000D01*
D13*
%TO.C,R9*%
X133450000Y-118009936D02*
X133450000Y-118464064D01*
X131980000Y-118009936D02*
X131980000Y-118464064D01*
%TO.C,C11*%
X110794748Y-88498000D02*
X112217252Y-88498000D01*
X110794748Y-90318000D02*
X112217252Y-90318000D01*
%TO.C,C3*%
X138939748Y-108818000D02*
X140362252Y-108818000D01*
X138939748Y-110638000D02*
X140362252Y-110638000D01*
%TO.C,R3*%
X156752936Y-90530000D02*
X158207064Y-90530000D01*
X156752936Y-92350000D02*
X158207064Y-92350000D01*
%TO.C,R19*%
X127618764Y-87603000D02*
X127164636Y-87603000D01*
X127618764Y-86133000D02*
X127164636Y-86133000D01*
%TO.C,C9*%
X126669748Y-88498000D02*
X128092252Y-88498000D01*
X126669748Y-90318000D02*
X128092252Y-90318000D01*
%TO.C,C5*%
X117114252Y-99462000D02*
X115691748Y-99462000D01*
X117114252Y-97642000D02*
X115691748Y-97642000D01*
%TO.C,R11*%
X114019000Y-70446436D02*
X114019000Y-70900564D01*
X112549000Y-70446436D02*
X112549000Y-70900564D01*
%TO.C,R6*%
X116938000Y-94715064D02*
X116938000Y-94260936D01*
X118408000Y-94715064D02*
X118408000Y-94260936D01*
%TO.C,R14*%
X131799000Y-70446436D02*
X131799000Y-70900564D01*
X130329000Y-70446436D02*
X130329000Y-70900564D01*
%TO.C,R1*%
X141124000Y-123163064D02*
X141124000Y-122708936D01*
X142594000Y-123163064D02*
X142594000Y-122708936D01*
%TO.C,C2B1*%
X145442252Y-110638000D02*
X144019748Y-110638000D01*
X145442252Y-108818000D02*
X144019748Y-108818000D01*
%TO.C,R21*%
X111747764Y-87603000D02*
X111293636Y-87603000D01*
X111747764Y-86133000D02*
X111293636Y-86133000D01*
%TO.C,SW2*%
X123233800Y-74176700D02*
X121850800Y-74176700D01*
X123233800Y-74176700D02*
X123233800Y-75560700D01*
X122993800Y-74416700D02*
X110533800Y-74416700D01*
X122993800Y-74416700D02*
X122993800Y-84316700D01*
X110533800Y-74416700D02*
X110533800Y-84316700D01*
X121208800Y-77336700D02*
X119938800Y-77336700D01*
X121088800Y-77336700D02*
X121088800Y-78690033D01*
X120968800Y-77336700D02*
X120968800Y-78690033D01*
X120848800Y-77336700D02*
X120848800Y-78690033D01*
X120728800Y-77336700D02*
X120728800Y-78690033D01*
X120608800Y-77336700D02*
X120608800Y-78690033D01*
X120488800Y-77336700D02*
X120488800Y-78690033D01*
X120368800Y-77336700D02*
X120368800Y-78690033D01*
X120248800Y-77336700D02*
X120248800Y-78690033D01*
X120128800Y-77336700D02*
X120128800Y-78690033D01*
X120008800Y-77336700D02*
X120008800Y-78690033D01*
X119938800Y-77336700D02*
X119938800Y-81396700D01*
X118668800Y-77336700D02*
X117398800Y-77336700D01*
X118548800Y-77336700D02*
X118548800Y-78690033D01*
X118428800Y-77336700D02*
X118428800Y-78690033D01*
X118308800Y-77336700D02*
X118308800Y-78690033D01*
X118188800Y-77336700D02*
X118188800Y-78690033D01*
X118068800Y-77336700D02*
X118068800Y-78690033D01*
X117948800Y-77336700D02*
X117948800Y-78690033D01*
X117828800Y-77336700D02*
X117828800Y-78690033D01*
X117708800Y-77336700D02*
X117708800Y-78690033D01*
X117588800Y-77336700D02*
X117588800Y-78690033D01*
X117468800Y-77336700D02*
X117468800Y-78690033D01*
X117398800Y-77336700D02*
X117398800Y-81396700D01*
X116128800Y-77336700D02*
X114858800Y-77336700D01*
X116008800Y-77336700D02*
X116008800Y-78690033D01*
X115888800Y-77336700D02*
X115888800Y-78690033D01*
X115768800Y-77336700D02*
X115768800Y-78690033D01*
X115648800Y-77336700D02*
X115648800Y-78690033D01*
X115528800Y-77336700D02*
X115528800Y-78690033D01*
X115408800Y-77336700D02*
X115408800Y-78690033D01*
X115288800Y-77336700D02*
X115288800Y-78690033D01*
X115168800Y-77336700D02*
X115168800Y-78690033D01*
X115048800Y-77336700D02*
X115048800Y-78690033D01*
X114928800Y-77336700D02*
X114928800Y-78690033D01*
X114858800Y-77336700D02*
X114858800Y-81396700D01*
X113588800Y-77336700D02*
X112318800Y-77336700D01*
X113468800Y-77336700D02*
X113468800Y-78690033D01*
X113348800Y-77336700D02*
X113348800Y-78690033D01*
X113228800Y-77336700D02*
X113228800Y-78690033D01*
X113108800Y-77336700D02*
X113108800Y-78690033D01*
X112988800Y-77336700D02*
X112988800Y-78690033D01*
X112868800Y-77336700D02*
X112868800Y-78690033D01*
X112748800Y-77336700D02*
X112748800Y-78690033D01*
X112628800Y-77336700D02*
X112628800Y-78690033D01*
X112508800Y-77336700D02*
X112508800Y-78690033D01*
X112388800Y-77336700D02*
X112388800Y-78690033D01*
X112318800Y-77336700D02*
X112318800Y-81396700D01*
X121208800Y-78690033D02*
X119938800Y-78690033D01*
X118668800Y-78690033D02*
X117398800Y-78690033D01*
X116128800Y-78690033D02*
X114858800Y-78690033D01*
X113588800Y-78690033D02*
X112318800Y-78690033D01*
X121208800Y-81396700D02*
X121208800Y-77336700D01*
X119938800Y-81396700D02*
X121208800Y-81396700D01*
X118668800Y-81396700D02*
X118668800Y-77336700D01*
X117398800Y-81396700D02*
X118668800Y-81396700D01*
X116128800Y-81396700D02*
X116128800Y-77336700D01*
X114858800Y-81396700D02*
X116128800Y-81396700D01*
X113588800Y-81396700D02*
X113588800Y-77336700D01*
X112318800Y-81396700D02*
X113588800Y-81396700D01*
X122993800Y-84316700D02*
X110533800Y-84316700D01*
%TO.C,J5*%
X152546000Y-62178000D02*
X152546000Y-58178000D01*
X152256000Y-63208000D02*
X152256000Y-57188000D01*
X152256000Y-57188000D02*
X144416000Y-57188000D01*
X151676000Y-63208000D02*
X151676000Y-62608000D01*
X151676000Y-62608000D02*
X150076000Y-62608000D01*
X150876000Y-58188000D02*
X150626000Y-58718000D01*
X150876000Y-58188000D02*
X145796000Y-58188000D01*
X150876000Y-57188000D02*
X150876000Y-58188000D01*
X150626000Y-58718000D02*
X146046000Y-58718000D01*
X150626000Y-57188000D02*
X150626000Y-58188000D01*
X150076000Y-62608000D02*
X150076000Y-63208000D01*
X149136000Y-63208000D02*
X149136000Y-62608000D01*
X149136000Y-62608000D02*
X147536000Y-62608000D01*
X147536000Y-62608000D02*
X147536000Y-63208000D01*
X146596000Y-63208000D02*
X146596000Y-62608000D01*
X146596000Y-62608000D02*
X144996000Y-62608000D01*
X146046000Y-58718000D02*
X145796000Y-58188000D01*
X146046000Y-57188000D02*
X146046000Y-58188000D01*
X145796000Y-58188000D02*
X145796000Y-57188000D01*
X144996000Y-62608000D02*
X144996000Y-63208000D01*
X144416000Y-63208000D02*
X152256000Y-63208000D01*
X144416000Y-57188000D02*
X144416000Y-63208000D01*
%TO.C,C1*%
X140475580Y-120525000D02*
X140194420Y-120525000D01*
X140475580Y-119505000D02*
X140194420Y-119505000D01*
%TO.C,R7*%
X136806000Y-120750064D02*
X136806000Y-120295936D01*
X138276000Y-120750064D02*
X138276000Y-120295936D01*
%TO.C,L1*%
X144847000Y-108002000D02*
X136847000Y-108002000D01*
X144847000Y-101802000D02*
X136847000Y-101802000D01*
D10*
%TO.C,J2*%
X111459000Y-110275000D02*
X111459000Y-110275000D01*
X111559000Y-110275000D02*
X111559000Y-110275000D01*
X112014000Y-106555000D02*
X129794000Y-106555000D01*
X112014000Y-127125000D02*
X112014000Y-106555000D01*
X129794000Y-106555000D02*
X129794000Y-127125000D01*
X129794000Y-127125000D02*
X112014000Y-127125000D01*
X111559000Y-110275000D02*
G75*
G03*
X111459000Y-110275000I-50000J0D01*
G01*
X111459000Y-110275000D02*
G75*
G03*
X111559000Y-110275000I50000J0D01*
G01*
D13*
%TO.C,J4*%
X155826000Y-58218000D02*
X155826000Y-62218000D01*
X156116000Y-57188000D02*
X156116000Y-63208000D01*
X156116000Y-63208000D02*
X166496000Y-63208000D01*
X156696000Y-57188000D02*
X156696000Y-57788000D01*
X156696000Y-57788000D02*
X158296000Y-57788000D01*
X157496000Y-62208000D02*
X157746000Y-61678000D01*
X157496000Y-62208000D02*
X165116000Y-62208000D01*
X157496000Y-63208000D02*
X157496000Y-62208000D01*
X157746000Y-61678000D02*
X164866000Y-61678000D01*
X157746000Y-63208000D02*
X157746000Y-62208000D01*
X158296000Y-57788000D02*
X158296000Y-57188000D01*
X159236000Y-57188000D02*
X159236000Y-57788000D01*
X159236000Y-57788000D02*
X160836000Y-57788000D01*
X160836000Y-57788000D02*
X160836000Y-57188000D01*
X161776000Y-57188000D02*
X161776000Y-57788000D01*
X161776000Y-57788000D02*
X163376000Y-57788000D01*
X163376000Y-57788000D02*
X163376000Y-57188000D01*
X164316000Y-57188000D02*
X164316000Y-57788000D01*
X164316000Y-57788000D02*
X165916000Y-57788000D01*
X164866000Y-61678000D02*
X165116000Y-62208000D01*
X164866000Y-63208000D02*
X164866000Y-62208000D01*
X165116000Y-62208000D02*
X165116000Y-63208000D01*
X165916000Y-57788000D02*
X165916000Y-57188000D01*
X166496000Y-57188000D02*
X156116000Y-57188000D01*
X166496000Y-63208000D02*
X166496000Y-57188000D01*
D10*
%TO.C,J1*%
X149051000Y-110275000D02*
X149051000Y-110275000D01*
X149151000Y-110275000D02*
X149151000Y-110275000D01*
X149606000Y-106555000D02*
X167386000Y-106555000D01*
X149606000Y-127125000D02*
X149606000Y-106555000D01*
X167386000Y-106555000D02*
X167386000Y-127125000D01*
X167386000Y-127125000D02*
X149606000Y-127125000D01*
X149151000Y-110275000D02*
G75*
G03*
X149051000Y-110275000I-50000J0D01*
G01*
X149051000Y-110275000D02*
G75*
G03*
X149151000Y-110275000I50000J0D01*
G01*
D13*
%TO.C,J8*%
X120288000Y-62198000D02*
X120288000Y-58198000D01*
X119998000Y-63228000D02*
X119998000Y-57208000D01*
X119998000Y-57208000D02*
X112158000Y-57208000D01*
X119418000Y-63228000D02*
X119418000Y-62628000D01*
X119418000Y-62628000D02*
X117818000Y-62628000D01*
X118618000Y-58208000D02*
X118368000Y-58738000D01*
X118618000Y-58208000D02*
X113538000Y-58208000D01*
X118618000Y-57208000D02*
X118618000Y-58208000D01*
X118368000Y-58738000D02*
X113788000Y-58738000D01*
X118368000Y-57208000D02*
X118368000Y-58208000D01*
X117818000Y-62628000D02*
X117818000Y-63228000D01*
X116878000Y-63228000D02*
X116878000Y-62628000D01*
X116878000Y-62628000D02*
X115278000Y-62628000D01*
X115278000Y-62628000D02*
X115278000Y-63228000D01*
X114338000Y-63228000D02*
X114338000Y-62628000D01*
X114338000Y-62628000D02*
X112738000Y-62628000D01*
X113788000Y-58738000D02*
X113538000Y-58208000D01*
X113788000Y-57208000D02*
X113788000Y-58208000D01*
X113538000Y-58208000D02*
X113538000Y-57208000D01*
X112738000Y-62628000D02*
X112738000Y-63228000D01*
X112158000Y-63228000D02*
X119998000Y-63228000D01*
X112158000Y-57208000D02*
X112158000Y-63228000D01*
%TO.C,J6*%
X141793332Y-62178000D02*
X141793332Y-58178000D01*
X141503332Y-63208000D02*
X141503332Y-57188000D01*
X141503332Y-57188000D02*
X133663332Y-57188000D01*
X140923332Y-63208000D02*
X140923332Y-62608000D01*
X140923332Y-62608000D02*
X139323332Y-62608000D01*
X140123332Y-58188000D02*
X139873332Y-58718000D01*
X140123332Y-58188000D02*
X135043332Y-58188000D01*
X140123332Y-57188000D02*
X140123332Y-58188000D01*
X139873332Y-58718000D02*
X135293332Y-58718000D01*
X139873332Y-57188000D02*
X139873332Y-58188000D01*
X139323332Y-62608000D02*
X139323332Y-63208000D01*
X138383332Y-63208000D02*
X138383332Y-62608000D01*
X138383332Y-62608000D02*
X136783332Y-62608000D01*
X136783332Y-62608000D02*
X136783332Y-63208000D01*
X135843332Y-63208000D02*
X135843332Y-62608000D01*
X135843332Y-62608000D02*
X134243332Y-62608000D01*
X135293332Y-58718000D02*
X135043332Y-58188000D01*
X135293332Y-57188000D02*
X135293332Y-58188000D01*
X135043332Y-58188000D02*
X135043332Y-57188000D01*
X134243332Y-62608000D02*
X134243332Y-63208000D01*
X133663332Y-63208000D02*
X141503332Y-63208000D01*
X133663332Y-57188000D02*
X133663332Y-63208000D01*
%TO.C,J3*%
X128464000Y-96072000D02*
X128464000Y-94742000D01*
X129794000Y-96072000D02*
X128464000Y-96072000D01*
X131064000Y-96072000D02*
X136204000Y-96072000D01*
X131064000Y-96072000D02*
X131064000Y-93412000D01*
X136204000Y-96072000D02*
X136204000Y-93412000D01*
X131064000Y-93412000D02*
X136204000Y-93412000D01*
%TO.C,R8*%
X132234000Y-122020064D02*
X132234000Y-121565936D01*
X133704000Y-122020064D02*
X133704000Y-121565936D01*
D15*
%TO.C,Y1*%
X169276000Y-83965200D02*
X170576000Y-83965200D01*
X169276000Y-80525200D02*
X170576000Y-80525200D01*
D16*
X170026000Y-84465200D02*
G75*
G03*
X170026000Y-84465200I-100000J0D01*
G01*
D13*
%TO.C,C4*%
X117043252Y-104542000D02*
X115620748Y-104542000D01*
X117043252Y-102722000D02*
X115620748Y-102722000D01*
%TO.C,C8*%
X162307748Y-74528000D02*
X163730252Y-74528000D01*
X162307748Y-76348000D02*
X163730252Y-76348000D01*
%TO.C,R4*%
X167921000Y-97255064D02*
X167921000Y-96800936D01*
X169391000Y-97255064D02*
X169391000Y-96800936D01*
%TO.C,R2*%
X139092000Y-123163064D02*
X139092000Y-122708936D01*
X140562000Y-123163064D02*
X140562000Y-122708936D01*
%TO.C,C2*%
X133957748Y-108818000D02*
X135380252Y-108818000D01*
X133957748Y-110638000D02*
X135380252Y-110638000D01*
%TO.C,C6*%
X134349000Y-121869252D02*
X134349000Y-120446748D01*
X136169000Y-121869252D02*
X136169000Y-120446748D01*
%TO.C,R13*%
X116559000Y-70446436D02*
X116559000Y-70900564D01*
X115089000Y-70446436D02*
X115089000Y-70900564D01*
D10*
%TO.C,H1*%
X158930000Y-72019000D02*
X158930000Y-68019000D01*
X164158000Y-72019000D02*
X164158000Y-68019000D01*
X158944000Y-74119000D02*
G75*
G03*
X158944000Y-74119000I-100000J0D01*
G01*
D13*
%TO.C,R12*%
X129259000Y-70446436D02*
X129259000Y-70900564D01*
X127789000Y-70446436D02*
X127789000Y-70900564D01*
%TO.C,C10*%
X120218252Y-90318000D02*
X118795748Y-90318000D01*
X120218252Y-88498000D02*
X118795748Y-88498000D01*
%TO.C,R17*%
X121639000Y-70446436D02*
X121639000Y-70900564D01*
X120169000Y-70446436D02*
X120169000Y-70900564D01*
%TO.C,R5*%
X115614000Y-94260936D02*
X115614000Y-94715064D01*
X114144000Y-94260936D02*
X114144000Y-94715064D01*
%TO.C,SW3*%
X110051200Y-74176700D02*
X108668200Y-74176700D01*
X110051200Y-74176700D02*
X110051200Y-75560700D01*
X109811200Y-74416700D02*
X104971200Y-74416700D01*
X109811200Y-74416700D02*
X109811200Y-84316700D01*
X104971200Y-74416700D02*
X104971200Y-84316700D01*
X108026200Y-77336700D02*
X106756200Y-77336700D01*
X107906200Y-77336700D02*
X107906200Y-78690033D01*
X107786200Y-77336700D02*
X107786200Y-78690033D01*
X107666200Y-77336700D02*
X107666200Y-78690033D01*
X107546200Y-77336700D02*
X107546200Y-78690033D01*
X107426200Y-77336700D02*
X107426200Y-78690033D01*
X107306200Y-77336700D02*
X107306200Y-78690033D01*
X107186200Y-77336700D02*
X107186200Y-78690033D01*
X107066200Y-77336700D02*
X107066200Y-78690033D01*
X106946200Y-77336700D02*
X106946200Y-78690033D01*
X106826200Y-77336700D02*
X106826200Y-78690033D01*
X106756200Y-77336700D02*
X106756200Y-81396700D01*
X108026200Y-78690033D02*
X106756200Y-78690033D01*
X108026200Y-81396700D02*
X108026200Y-77336700D01*
X106756200Y-81396700D02*
X108026200Y-81396700D01*
X109811200Y-84316700D02*
X104971200Y-84316700D01*
%TO.C,R20*%
X119290636Y-86133000D02*
X119744764Y-86133000D01*
X119290636Y-87603000D02*
X119744764Y-87603000D01*
%TD*%
%LPC*%
D17*
%TO.C,R18*%
X143891000Y-122023500D03*
X143891000Y-123848500D03*
%TD*%
%TO.C,R16*%
X133604000Y-69761000D03*
X133604000Y-71586000D03*
%TD*%
D18*
%TO.C,R22*%
X171450000Y-73302500D03*
X171450000Y-71477500D03*
%TD*%
D19*
%TO.C,T1*%
X160243933Y-95250000D03*
D20*
X160243933Y-96520000D03*
X160243933Y-97790000D03*
X160243933Y-99060000D03*
X164876067Y-99060000D03*
X164876067Y-97790000D03*
X164876067Y-96520000D03*
X164876067Y-95250000D03*
%TD*%
D21*
%TO.C,D1*%
X171450000Y-66398500D03*
X171450000Y-67973500D03*
%TD*%
D22*
%TO.C,SW1*%
X133771800Y-75556700D03*
D23*
X131231799Y-75556699D03*
X128691799Y-75556699D03*
X126151799Y-75556699D03*
X126151799Y-83176699D03*
X128691799Y-83176699D03*
X131231799Y-83176699D03*
X133771799Y-83176699D03*
%TD*%
D17*
%TO.C,R15*%
X118364000Y-69761000D03*
X118364000Y-71586000D03*
%TD*%
D24*
%TO.C,J9*%
X150765000Y-74200000D03*
D25*
X153304999Y-74199999D03*
X150764999Y-76739999D03*
X153304999Y-76739999D03*
X150764999Y-79279999D03*
X153304999Y-79279999D03*
%TD*%
D26*
%TO.C,J7*%
X129370666Y-60198000D03*
D27*
X126830665Y-60197999D03*
X124290665Y-60197999D03*
%TD*%
D28*
%TO.C,C7*%
X152452600Y-84734400D03*
X149502600Y-84734400D03*
%TD*%
D17*
%TO.C,R10*%
X125984000Y-69761000D03*
X125984000Y-71586000D03*
%TD*%
D29*
%TO.C,B1*%
X134747000Y-117520000D03*
X136017000Y-117520000D03*
X137287000Y-117520000D03*
X138557000Y-117520000D03*
X138557000Y-112096000D03*
X137287000Y-112096000D03*
X136017000Y-112096000D03*
X134747000Y-112096000D03*
D30*
X136652000Y-114808000D03*
%TD*%
D31*
%TO.C,U1*%
X121229000Y-96012000D03*
D32*
X121228999Y-98551999D03*
X121228999Y-101091999D03*
%TD*%
D33*
%TO.C,C2A1*%
X146402000Y-104140000D03*
X149352000Y-104140000D03*
%TD*%
D34*
%TO.C,U2*%
X164810000Y-87450000D03*
X164810000Y-86650000D03*
X164810000Y-85850000D03*
X164810000Y-85050000D03*
X164810000Y-84250000D03*
X164810000Y-83450000D03*
X164810000Y-82650000D03*
X164810000Y-81850000D03*
D35*
X163360000Y-80400000D03*
X162560000Y-80400000D03*
X161760000Y-80400000D03*
X160960000Y-80400000D03*
X160160000Y-80400000D03*
X159360000Y-80400000D03*
X158560000Y-80400000D03*
X157760000Y-80400000D03*
D34*
X156310000Y-81850000D03*
X156310000Y-82650000D03*
X156310000Y-83450000D03*
X156310000Y-84250000D03*
X156310000Y-85050000D03*
X156310000Y-85850000D03*
X156310000Y-86650000D03*
X156310000Y-87450000D03*
D35*
X157760000Y-88900000D03*
X158560000Y-88900000D03*
X159360000Y-88900000D03*
X160160000Y-88900000D03*
X160960000Y-88900000D03*
X161760000Y-88900000D03*
X162560000Y-88900000D03*
X163360000Y-88900000D03*
%TD*%
D17*
%TO.C,R9*%
X132715000Y-117324500D03*
X132715000Y-119149500D03*
%TD*%
D33*
%TO.C,C11*%
X110031000Y-89408000D03*
X112981000Y-89408000D03*
%TD*%
%TO.C,C3*%
X138176000Y-109728000D03*
X141126000Y-109728000D03*
%TD*%
D36*
%TO.C,R3*%
X156017500Y-91440000D03*
X158942500Y-91440000D03*
%TD*%
D37*
%TO.C,R19*%
X128304200Y-86868000D03*
X126479200Y-86868000D03*
%TD*%
D33*
%TO.C,C9*%
X125906000Y-89408000D03*
X128856000Y-89408000D03*
%TD*%
D28*
%TO.C,C5*%
X117878000Y-98552000D03*
X114928000Y-98552000D03*
%TD*%
D17*
%TO.C,R11*%
X113284000Y-69761000D03*
X113284000Y-71586000D03*
%TD*%
D18*
%TO.C,R6*%
X117673000Y-95400500D03*
X117673000Y-93575500D03*
%TD*%
D17*
%TO.C,R14*%
X131064000Y-69761000D03*
X131064000Y-71586000D03*
%TD*%
D18*
%TO.C,R1*%
X141859000Y-123848500D03*
X141859000Y-122023500D03*
%TD*%
D38*
%TO.C,REF\u002A\u002A*%
X172800000Y-124540000D03*
%TD*%
D28*
%TO.C,C2B1*%
X146206000Y-109728000D03*
X143256000Y-109728000D03*
%TD*%
D37*
%TO.C,R21*%
X112433200Y-86868000D03*
X110608200Y-86868000D03*
%TD*%
D22*
%TO.C,SW2*%
X120573800Y-75556700D03*
D23*
X118033799Y-75556699D03*
X115493799Y-75556699D03*
X112953799Y-75556699D03*
X112953799Y-83176699D03*
X115493799Y-83176699D03*
X118033799Y-83176699D03*
X120573799Y-83176699D03*
%TD*%
D26*
%TO.C,J5*%
X150876000Y-60178000D03*
D27*
X148335999Y-60177999D03*
X145795999Y-60177999D03*
%TD*%
D39*
%TO.C,C1*%
X141110000Y-120015000D03*
X139560000Y-120015000D03*
%TD*%
D18*
%TO.C,R7*%
X137541000Y-121435500D03*
X137541000Y-119610500D03*
%TD*%
D40*
%TO.C,L1*%
X143622000Y-104902000D03*
X138072000Y-104902000D03*
%TD*%
D41*
%TO.C,J2*%
X115189000Y-116625000D03*
X126619000Y-116625000D03*
D42*
X116459000Y-110275000D03*
D43*
X117729000Y-107735000D03*
X118999000Y-110275000D03*
X120269000Y-107735000D03*
X121539000Y-110275000D03*
X122809000Y-107735000D03*
X124079000Y-110275000D03*
X125349000Y-107735000D03*
%TD*%
D44*
%TO.C,J4*%
X157496000Y-60218000D03*
D27*
X160035999Y-60217999D03*
X162575999Y-60217999D03*
X165115999Y-60217999D03*
%TD*%
D41*
%TO.C,J1*%
X152781000Y-116625000D03*
X164211000Y-116625000D03*
D42*
X154051000Y-110275000D03*
D43*
X155321000Y-107735000D03*
X156591000Y-110275000D03*
X157861000Y-107735000D03*
X159131000Y-110275000D03*
X160401000Y-107735000D03*
X161671000Y-110275000D03*
X162941000Y-107735000D03*
%TD*%
D26*
%TO.C,J8*%
X118618000Y-60198000D03*
D27*
X116077999Y-60197999D03*
X113537999Y-60197999D03*
%TD*%
D26*
%TO.C,J6*%
X140123332Y-60178000D03*
D27*
X137583331Y-60177999D03*
X135043331Y-60177999D03*
%TD*%
D45*
%TO.C,J3*%
X129794000Y-94742000D03*
D25*
X132333999Y-94741999D03*
X134873999Y-94741999D03*
%TD*%
D18*
%TO.C,R8*%
X132969000Y-122705500D03*
X132969000Y-120880500D03*
%TD*%
D46*
%TO.C,Y1*%
X169926000Y-83445200D03*
X169926000Y-82245200D03*
X169926000Y-81045200D03*
%TD*%
D38*
%TO.C,REF\u002A\u002A*%
X106600000Y-58340000D03*
%TD*%
D28*
%TO.C,C4*%
X117807000Y-103632000D03*
X114857000Y-103632000D03*
%TD*%
D33*
%TO.C,C8*%
X161544000Y-75438000D03*
X164494000Y-75438000D03*
%TD*%
D38*
%TO.C,REF\u002A\u002A*%
X106600000Y-124540000D03*
%TD*%
D18*
%TO.C,R4*%
X168656000Y-97940500D03*
X168656000Y-96115500D03*
%TD*%
%TO.C,R2*%
X139827000Y-123848500D03*
X139827000Y-122023500D03*
%TD*%
D38*
%TO.C,REF\u002A\u002A*%
X172800000Y-58340000D03*
%TD*%
D33*
%TO.C,C2*%
X133194000Y-109728000D03*
X136144000Y-109728000D03*
%TD*%
D47*
%TO.C,C6*%
X135259000Y-122633000D03*
X135259000Y-119683000D03*
%TD*%
D17*
%TO.C,R13*%
X115824000Y-69761000D03*
X115824000Y-71586000D03*
%TD*%
D48*
%TO.C,H1*%
X159544000Y-72644000D03*
X160544000Y-72644000D03*
X161544000Y-72644000D03*
X162544000Y-72644000D03*
X163544000Y-72644000D03*
X163544000Y-67394000D03*
X162544000Y-67394000D03*
X161544000Y-67394000D03*
X160544000Y-67394000D03*
X159544000Y-67394000D03*
%TD*%
D17*
%TO.C,R12*%
X128524000Y-69761000D03*
X128524000Y-71586000D03*
%TD*%
D28*
%TO.C,C10*%
X120982000Y-89408000D03*
X118032000Y-89408000D03*
%TD*%
D17*
%TO.C,R17*%
X120904000Y-69761000D03*
X120904000Y-71586000D03*
%TD*%
%TO.C,R5*%
X114879000Y-93575500D03*
X114879000Y-95400500D03*
%TD*%
D22*
%TO.C,SW3*%
X107391200Y-75556700D03*
D23*
X107391199Y-83176699D03*
%TD*%
D49*
%TO.C,R20*%
X118605200Y-86868000D03*
X120430200Y-86868000D03*
%TD*%
M02*
