%TF.GenerationSoftware,KiCad,Pcbnew,(7.0.0)*%
%TF.CreationDate,2023-03-07T00:51:13-05:00*%
%TF.ProjectId,smeza_pcb,736d657a-615f-4706-9362-2e6b69636164,rev?*%
%TF.SameCoordinates,Original*%
%TF.FileFunction,Copper,L2,Bot*%
%TF.FilePolarity,Positive*%
%FSLAX46Y46*%
G04 Gerber Fmt 4.6, Leading zero omitted, Abs format (unit mm)*
G04 Created by KiCad (PCBNEW (7.0.0)) date 2023-03-07 00:51:13*
%MOMM*%
%LPD*%
G01*
G04 APERTURE LIST*
G04 Aperture macros list*
%AMRoundRect*
0 Rectangle with rounded corners*
0 $1 Rounding radius*
0 $2 $3 $4 $5 $6 $7 $8 $9 X,Y pos of 4 corners*
0 Add a 4 corners polygon primitive as box body*
4,1,4,$2,$3,$4,$5,$6,$7,$8,$9,$2,$3,0*
0 Add four circle primitives for the rounded corners*
1,1,$1+$1,$2,$3*
1,1,$1+$1,$4,$5*
1,1,$1+$1,$6,$7*
1,1,$1+$1,$8,$9*
0 Add four rect primitives between the rounded corners*
20,1,$1+$1,$2,$3,$4,$5,0*
20,1,$1+$1,$4,$5,$6,$7,0*
20,1,$1+$1,$6,$7,$8,$9,0*
20,1,$1+$1,$8,$9,$2,$3,0*%
G04 Aperture macros list end*
%TA.AperFunction,ComponentPad*%
%ADD10R,1.400000X1.400000*%
%TD*%
%TA.AperFunction,ComponentPad*%
%ADD11C,1.400000*%
%TD*%
%TA.AperFunction,ComponentPad*%
%ADD12R,1.600000X1.600000*%
%TD*%
%TA.AperFunction,ComponentPad*%
%ADD13O,1.600000X1.600000*%
%TD*%
%TA.AperFunction,ComponentPad*%
%ADD14R,1.700000X1.700000*%
%TD*%
%TA.AperFunction,ComponentPad*%
%ADD15O,1.700000X1.700000*%
%TD*%
%TA.AperFunction,ComponentPad*%
%ADD16RoundRect,0.250000X0.620000X0.845000X-0.620000X0.845000X-0.620000X-0.845000X0.620000X-0.845000X0*%
%TD*%
%TA.AperFunction,ComponentPad*%
%ADD17O,1.740000X2.190000*%
%TD*%
%TA.AperFunction,ComponentPad*%
%ADD18O,2.000000X1.905000*%
%TD*%
%TA.AperFunction,ComponentPad*%
%ADD19R,2.000000X1.905000*%
%TD*%
%TA.AperFunction,ComponentPad*%
%ADD20C,5.600000*%
%TD*%
%TA.AperFunction,ComponentPad*%
%ADD21RoundRect,0.250000X-0.620000X-0.845000X0.620000X-0.845000X0.620000X0.845000X-0.620000X0.845000X0*%
%TD*%
%TA.AperFunction,ViaPad*%
%ADD22C,0.800000*%
%TD*%
%TA.AperFunction,ViaPad*%
%ADD23C,1.000000*%
%TD*%
%TA.AperFunction,Conductor*%
%ADD24C,0.250000*%
%TD*%
%TA.AperFunction,Conductor*%
%ADD25C,0.500000*%
%TD*%
%TA.AperFunction,Conductor*%
%ADD26C,3.000000*%
%TD*%
%TA.AperFunction,Conductor*%
%ADD27C,0.200000*%
%TD*%
G04 APERTURE END LIST*
D10*
%TO.P,J1,1,1*%
%TO.N,/+50V*%
X154050999Y-110274999D03*
D11*
%TO.P,J1,2,2*%
X155321000Y-107735000D03*
%TO.P,J1,3,3*%
X156591000Y-110275000D03*
%TO.P,J1,4,4*%
%TO.N,GND*%
X157861000Y-107735000D03*
%TO.P,J1,5,5*%
X159131000Y-110275000D03*
%TO.P,J1,6,6*%
X160401000Y-107735000D03*
%TO.P,J1,7,7*%
%TO.N,/D+*%
X161671000Y-110275000D03*
%TO.P,J1,8,8*%
%TO.N,/D-*%
X162941000Y-107735000D03*
%TD*%
D10*
%TO.P,J2,1,1*%
%TO.N,/+50V*%
X116458999Y-110274999D03*
D11*
%TO.P,J2,2,2*%
X117729000Y-107735000D03*
%TO.P,J2,3,3*%
X118999000Y-110275000D03*
%TO.P,J2,4,4*%
%TO.N,GND*%
X120269000Y-107735000D03*
%TO.P,J2,5,5*%
X121539000Y-110275000D03*
%TO.P,J2,6,6*%
X122809000Y-107735000D03*
%TO.P,J2,7,7*%
%TO.N,/D+*%
X124079000Y-110275000D03*
%TO.P,J2,8,8*%
%TO.N,/D-*%
X125349000Y-107735000D03*
%TD*%
D12*
%TO.P,SW1,1*%
%TO.N,Net-(R16-Pad2)*%
X133771799Y-75556699D03*
D13*
%TO.P,SW1,2*%
%TO.N,Net-(R14-Pad2)*%
X131231799Y-75556699D03*
%TO.P,SW1,3*%
%TO.N,Net-(R12-Pad2)*%
X128691799Y-75556699D03*
%TO.P,SW1,4*%
%TO.N,Net-(R10-Pad2)*%
X126151799Y-75556699D03*
%TO.P,SW1,5*%
%TO.N,/DIPS14*%
X126151799Y-83176699D03*
%TO.P,SW1,6*%
X128691799Y-83176699D03*
%TO.P,SW1,7*%
X131231799Y-83176699D03*
%TO.P,SW1,8*%
X133771799Y-83176699D03*
%TD*%
D12*
%TO.P,SW2,1*%
%TO.N,Net-(R17-Pad2)*%
X120573799Y-75556699D03*
D13*
%TO.P,SW2,2*%
%TO.N,Net-(R15-Pad2)*%
X118033799Y-75556699D03*
%TO.P,SW2,3*%
%TO.N,Net-(R13-Pad2)*%
X115493799Y-75556699D03*
%TO.P,SW2,4*%
%TO.N,Net-(R11-Pad2)*%
X112953799Y-75556699D03*
%TO.P,SW2,5*%
%TO.N,/DIPS58*%
X112953799Y-83176699D03*
%TO.P,SW2,6*%
X115493799Y-83176699D03*
%TO.P,SW2,7*%
X118033799Y-83176699D03*
%TO.P,SW2,8*%
X120573799Y-83176699D03*
%TD*%
%TO.P,SW3,2*%
%TO.N,/DIP9*%
X107391199Y-83176699D03*
D12*
%TO.P,SW3,1*%
%TO.N,/+5V*%
X107391199Y-75556699D03*
%TD*%
D14*
%TO.P,J9,1,Pin_1*%
%TO.N,/M1 +Limit (MISO)*%
X150764999Y-74199999D03*
D15*
%TO.P,J9,2,Pin_2*%
%TO.N,/+5V*%
X153304999Y-74199999D03*
%TO.P,J9,3,Pin_3*%
%TO.N,/M1 -Limit (SCK)*%
X150764999Y-76739999D03*
%TO.P,J9,4,Pin_4*%
%TO.N,/M2 Bkwd Signal (MOSI)*%
X153304999Y-76739999D03*
%TO.P,J9,5,Pin_5*%
%TO.N,/RESET*%
X150764999Y-79279999D03*
%TO.P,J9,6,Pin_6*%
%TO.N,GND*%
X153304999Y-79279999D03*
%TD*%
D16*
%TO.P,J7,1,Pin_1*%
%TO.N,/M2 +Limit*%
X129370666Y-60198000D03*
D17*
%TO.P,J7,2,Pin_2*%
%TO.N,/+5V*%
X126830665Y-60197999D03*
%TO.P,J7,3,Pin_3*%
%TO.N,GND*%
X124290665Y-60197999D03*
%TD*%
D18*
%TO.P,U1,3,VI*%
%TO.N,/+50V*%
X121228999Y-101091999D03*
%TO.P,U1,2,VO*%
%TO.N,/LVR+5V*%
X121228999Y-98551999D03*
D19*
%TO.P,U1,1,ADJ*%
%TO.N,Net-(U1-ADJ)*%
X121228999Y-96011999D03*
%TD*%
D20*
%TO.P,REF\u002A\u002A,1*%
%TO.N,N/C*%
X172800000Y-124540000D03*
%TD*%
D16*
%TO.P,J5,1,Pin_1*%
%TO.N,/M1 +Limit (MISO)*%
X150876000Y-60178000D03*
D17*
%TO.P,J5,2,Pin_2*%
%TO.N,/+5V*%
X148335999Y-60177999D03*
%TO.P,J5,3,Pin_3*%
%TO.N,GND*%
X145795999Y-60177999D03*
%TD*%
D21*
%TO.P,J4,1,Pin_1*%
%TO.N,/M1 Bkwd*%
X157496000Y-60218000D03*
D17*
%TO.P,J4,2,Pin_2*%
%TO.N,/M1 Fwd*%
X160035999Y-60217999D03*
%TO.P,J4,3,Pin_3*%
%TO.N,/M2 Bkwd*%
X162575999Y-60217999D03*
%TO.P,J4,4,Pin_4*%
%TO.N,/M2 Fwd*%
X165115999Y-60217999D03*
%TD*%
D16*
%TO.P,J8,1,Pin_1*%
%TO.N,/M2 -Limit*%
X118618000Y-60198000D03*
D17*
%TO.P,J8,2,Pin_2*%
%TO.N,/+5V*%
X116077999Y-60197999D03*
%TO.P,J8,3,Pin_3*%
%TO.N,GND*%
X113537999Y-60197999D03*
%TD*%
D16*
%TO.P,J6,1,Pin_1*%
%TO.N,/M1 -Limit (SCK)*%
X140123332Y-60178000D03*
D17*
%TO.P,J6,2,Pin_2*%
%TO.N,/+5V*%
X137583331Y-60177999D03*
%TO.P,J6,3,Pin_3*%
%TO.N,GND*%
X135043331Y-60177999D03*
%TD*%
D14*
%TO.P,J3,1,Pin_1*%
%TO.N,/LVR+5V*%
X129793999Y-94741999D03*
D15*
%TO.P,J3,2,Pin_2*%
%TO.N,/+5V*%
X132333999Y-94741999D03*
%TO.P,J3,3,Pin_3*%
%TO.N,/Buck+5V*%
X134873999Y-94741999D03*
%TD*%
D20*
%TO.P,REF\u002A\u002A,1*%
%TO.N,N/C*%
X106600000Y-58340000D03*
%TD*%
%TO.P,REF\u002A\u002A,1*%
%TO.N,N/C*%
X106600000Y-124540000D03*
%TD*%
%TO.P,REF\u002A\u002A,1*%
%TO.N,N/C*%
X172800000Y-58340000D03*
%TD*%
D22*
%TO.N,/+5V*%
X128778000Y-92329000D03*
X127762000Y-91313000D03*
X129794000Y-91313000D03*
X128778000Y-91313000D03*
X129794000Y-92329000D03*
X132842000Y-92329000D03*
X132842000Y-91313000D03*
X133858000Y-91313000D03*
X133858000Y-92329000D03*
X130810000Y-91313000D03*
X131826000Y-93345000D03*
X131826000Y-92329000D03*
X131826000Y-91313000D03*
X130810000Y-92329000D03*
X134874000Y-91313000D03*
X135890000Y-91313000D03*
X135890000Y-92329000D03*
X134874000Y-92329000D03*
X135890000Y-93345000D03*
X132842000Y-93345000D03*
X133858000Y-93345000D03*
X136906000Y-92329000D03*
X136906000Y-91313000D03*
X137922000Y-91313000D03*
X137922000Y-92329000D03*
X136906000Y-94361000D03*
X136906000Y-93345000D03*
X137922000Y-93345000D03*
X137922000Y-95377000D03*
X137922000Y-94361000D03*
X140970000Y-92329000D03*
X140970000Y-91313000D03*
X141986000Y-91313000D03*
X141986000Y-92329000D03*
X138938000Y-92329000D03*
X138938000Y-91313000D03*
X139954000Y-91313000D03*
X139954000Y-92329000D03*
X138938000Y-95377000D03*
X138938000Y-94361000D03*
X138938000Y-93345000D03*
X139954000Y-93345000D03*
X139954000Y-94361000D03*
X139954000Y-95377000D03*
X140970000Y-95377000D03*
X140970000Y-94361000D03*
X140970000Y-93345000D03*
X141986000Y-95377000D03*
X141986000Y-94361000D03*
X141986000Y-93345000D03*
%TO.N,GND*%
X119380000Y-123190000D03*
X119380000Y-125222000D03*
X121412000Y-125222000D03*
X121412000Y-123190000D03*
X113284000Y-123190000D03*
X115316000Y-123190000D03*
X111252000Y-123190000D03*
X111252000Y-125222000D03*
X113284000Y-121158000D03*
X115316000Y-125222000D03*
X115316000Y-121158000D03*
X113284000Y-125222000D03*
X111252000Y-121158000D03*
X117348000Y-121158000D03*
X117348000Y-125222000D03*
X117348000Y-123190000D03*
X164338000Y-106172000D03*
X172466000Y-118110000D03*
X170434000Y-112014000D03*
X170434000Y-118110000D03*
X174498000Y-118110000D03*
X172466000Y-112014000D03*
X174498000Y-120142000D03*
X174498000Y-112014000D03*
X170434000Y-107950000D03*
X172466000Y-116078000D03*
X172466000Y-107950000D03*
X170434000Y-120142000D03*
X170434000Y-109982000D03*
X170434000Y-116078000D03*
X170434000Y-114046000D03*
X172466000Y-120142000D03*
X174498000Y-114046000D03*
X174498000Y-116078000D03*
X172466000Y-114046000D03*
X174498000Y-109982000D03*
X174498000Y-107950000D03*
X172466000Y-109982000D03*
X166370000Y-112014000D03*
X168402000Y-112014000D03*
X164338000Y-114046000D03*
X168402000Y-116078000D03*
X166370000Y-114046000D03*
X166370000Y-118110000D03*
X168402000Y-114046000D03*
X168402000Y-109982000D03*
X168402000Y-107950000D03*
X166370000Y-107950000D03*
X168402000Y-118110000D03*
X166370000Y-109982000D03*
X168402000Y-102108000D03*
X168402000Y-100076000D03*
X168402000Y-104140000D03*
X168402000Y-106172000D03*
X174498000Y-104140000D03*
X172466000Y-106172000D03*
X174498000Y-106172000D03*
X172466000Y-102108000D03*
X174498000Y-102108000D03*
X170434000Y-100076000D03*
X170434000Y-102108000D03*
X172466000Y-100076000D03*
X174498000Y-100076000D03*
X170434000Y-106172000D03*
X172466000Y-104140000D03*
X170434000Y-104140000D03*
X115316000Y-101092000D03*
X115316000Y-105156000D03*
X113284000Y-101092000D03*
X113284000Y-99060000D03*
X113284000Y-103124000D03*
X113284000Y-105156000D03*
X107188000Y-103124000D03*
X109220000Y-97028000D03*
X109220000Y-103124000D03*
X105156000Y-103124000D03*
X107188000Y-97028000D03*
X105156000Y-105156000D03*
X105156000Y-97028000D03*
X107188000Y-101092000D03*
X109220000Y-105156000D03*
X109220000Y-94996000D03*
X109220000Y-101092000D03*
X109220000Y-99060000D03*
X107188000Y-105156000D03*
X105156000Y-99060000D03*
X105156000Y-101092000D03*
X107188000Y-99060000D03*
X105156000Y-94996000D03*
X107188000Y-94996000D03*
X111252000Y-97028000D03*
X111252000Y-101092000D03*
X111252000Y-105156000D03*
X111252000Y-99060000D03*
X111252000Y-94996000D03*
X111252000Y-103124000D03*
X111252000Y-117094000D03*
X113284000Y-110998000D03*
X111252000Y-110998000D03*
X115316000Y-106934000D03*
X113284000Y-106934000D03*
X115316000Y-113030000D03*
X115316000Y-119126000D03*
X111252000Y-119126000D03*
X113284000Y-119126000D03*
X111252000Y-113030000D03*
X111252000Y-115062000D03*
X113284000Y-113030000D03*
X113284000Y-115062000D03*
X113284000Y-108966000D03*
X111252000Y-108966000D03*
X111252000Y-106934000D03*
X107188000Y-117094000D03*
X109220000Y-117094000D03*
X105156000Y-117094000D03*
X107188000Y-110998000D03*
X105156000Y-110998000D03*
X109220000Y-106934000D03*
X107188000Y-106934000D03*
X109220000Y-108966000D03*
X109220000Y-115062000D03*
X109220000Y-113030000D03*
X109220000Y-119126000D03*
X105156000Y-119126000D03*
X107188000Y-119126000D03*
X105156000Y-113030000D03*
X105156000Y-115062000D03*
X107188000Y-113030000D03*
X107188000Y-115062000D03*
X107188000Y-108966000D03*
X105156000Y-108966000D03*
X109220000Y-110998000D03*
X105156000Y-106934000D03*
X125476000Y-102362000D03*
X125476000Y-100330000D03*
X131572000Y-102362000D03*
X131572000Y-100330000D03*
X135636000Y-104394000D03*
X135636000Y-102362000D03*
X133604000Y-104394000D03*
X123444000Y-100330000D03*
X123444000Y-102362000D03*
X129540000Y-100330000D03*
X127508000Y-100330000D03*
X129540000Y-102362000D03*
X127508000Y-102362000D03*
X133604000Y-102362000D03*
X133604000Y-100330000D03*
X131572000Y-104394000D03*
X135636000Y-100330000D03*
X149352000Y-102616000D03*
X149352000Y-104648000D03*
X149352000Y-100584000D03*
X151384000Y-104648000D03*
X151384000Y-100584000D03*
X151384000Y-102616000D03*
X160274000Y-120142000D03*
X162306000Y-120142000D03*
X166370000Y-124206000D03*
X168402000Y-120142000D03*
X166370000Y-120142000D03*
X168402000Y-122174000D03*
X168402000Y-126238000D03*
X166370000Y-126238000D03*
X166370000Y-122174000D03*
X168402000Y-124206000D03*
X164338000Y-120142000D03*
X160274000Y-124206000D03*
X160274000Y-122174000D03*
X164338000Y-126238000D03*
X164338000Y-124206000D03*
X162306000Y-126238000D03*
X158242000Y-126238000D03*
X158242000Y-122174000D03*
X158242000Y-124206000D03*
X162306000Y-124206000D03*
X162306000Y-122174000D03*
X160274000Y-126238000D03*
X164338000Y-122174000D03*
X155448000Y-104648000D03*
X161544000Y-100584000D03*
X157480000Y-104648000D03*
X153416000Y-102616000D03*
X159512000Y-102616000D03*
X157480000Y-102616000D03*
X161544000Y-104648000D03*
X157480000Y-100584000D03*
X161544000Y-102616000D03*
X155448000Y-100584000D03*
X155448000Y-102616000D03*
X153416000Y-100584000D03*
X159512000Y-104648000D03*
X153416000Y-104648000D03*
X159512000Y-100584000D03*
%TO.N,/DIPS14*%
X146812000Y-83185000D03*
%TO.N,GND*%
X127508000Y-113792000D03*
X129540000Y-119888000D03*
X130556000Y-113792000D03*
X162560000Y-71120000D03*
X171450000Y-64135000D03*
X135636000Y-114808000D03*
X165049200Y-103759000D03*
X159512000Y-69088000D03*
X132588000Y-114808000D03*
X129540000Y-115824000D03*
X140716000Y-117856000D03*
X139700000Y-116840000D03*
X163576000Y-70104000D03*
X131572000Y-113792000D03*
X130556000Y-116840000D03*
X128854200Y-86868000D03*
X130556000Y-118872000D03*
X141732000Y-112776000D03*
X147828000Y-120904000D03*
X161544000Y-71120000D03*
X129540000Y-117856000D03*
X146812000Y-112776000D03*
X141732000Y-113792000D03*
X145796000Y-117856000D03*
X128524000Y-114808000D03*
X143764000Y-111760000D03*
X140716000Y-112776000D03*
X166500000Y-86045542D03*
X142748000Y-114808000D03*
X147828000Y-119888000D03*
X147828000Y-115824000D03*
X142748000Y-115824000D03*
X132588000Y-115824000D03*
X129540000Y-113792000D03*
X143764000Y-114808000D03*
X130556000Y-111760000D03*
X137668000Y-113792000D03*
X145796000Y-112776000D03*
X143764000Y-117856000D03*
X162560000Y-69088000D03*
X130556000Y-112776000D03*
X166321370Y-84346542D03*
X144780000Y-111760000D03*
X159512000Y-70104000D03*
X132588000Y-112776000D03*
X130556000Y-114808000D03*
X133604000Y-113792000D03*
X131572000Y-114808000D03*
X138684000Y-114808000D03*
X146812000Y-115824000D03*
X148844000Y-115824000D03*
X145796000Y-113792000D03*
X144780000Y-118872000D03*
X154178000Y-85099500D03*
X142748000Y-112776000D03*
X129540000Y-112776000D03*
X136652000Y-115824000D03*
X165049200Y-101752400D03*
X130556000Y-119888000D03*
X131572000Y-116840000D03*
X141732000Y-117856000D03*
X164033200Y-102743000D03*
X139700000Y-113792000D03*
X139700000Y-117856000D03*
X160528000Y-71120000D03*
X164033200Y-103759000D03*
X165049200Y-102743000D03*
X128524000Y-111760000D03*
X132588000Y-113792000D03*
X128524000Y-112776000D03*
X140716000Y-116840000D03*
X134620000Y-114808000D03*
X130556000Y-110744000D03*
X136652000Y-113792000D03*
X144780000Y-119888000D03*
X164033200Y-100736400D03*
X165049200Y-100736400D03*
X129540000Y-118872000D03*
X128524000Y-110744000D03*
X139700000Y-112776000D03*
X164592000Y-75438000D03*
X146812000Y-116840000D03*
X145796000Y-118872000D03*
X134620000Y-113792000D03*
X129540000Y-114808000D03*
X160528000Y-69088000D03*
X142748000Y-111760000D03*
X148844000Y-113792000D03*
X128524000Y-118872000D03*
X146812000Y-114808000D03*
X140716000Y-113792000D03*
X145796000Y-114808000D03*
X127508000Y-112776000D03*
X140716000Y-114808000D03*
X127508000Y-119888000D03*
X148844000Y-119888000D03*
X139700000Y-115824000D03*
X137668000Y-114808000D03*
X138684000Y-115824000D03*
X147828000Y-112776000D03*
X147828000Y-116840000D03*
X135636000Y-113792000D03*
X145796000Y-120904000D03*
X131572000Y-115824000D03*
X136652000Y-114808000D03*
X159512000Y-71120000D03*
X131572000Y-111760000D03*
X146304000Y-84582000D03*
X147828000Y-117856000D03*
X145796000Y-115824000D03*
X128524000Y-113792000D03*
X118032000Y-89408000D03*
X169926000Y-82245200D03*
X140716000Y-111760000D03*
X128856000Y-89408000D03*
X133604000Y-115824000D03*
X140716000Y-115824000D03*
X143764000Y-113792000D03*
X148844000Y-114808000D03*
X144780000Y-114808000D03*
X161560000Y-65193000D03*
X141732000Y-116840000D03*
X143764000Y-115824000D03*
X146812000Y-111760000D03*
X127508000Y-110744000D03*
X129540000Y-116840000D03*
X131572000Y-112776000D03*
X148844000Y-116840000D03*
X146812000Y-118872000D03*
X118055200Y-86868000D03*
X129540000Y-111760000D03*
X163576000Y-71120000D03*
X146812000Y-113792000D03*
X148844000Y-118872000D03*
X135636000Y-115824000D03*
X144780000Y-112776000D03*
X129540000Y-110744000D03*
X148844000Y-111760000D03*
X137668000Y-115824000D03*
X112981000Y-89408000D03*
X163576000Y-69088000D03*
X139700000Y-114808000D03*
X147828000Y-111760000D03*
X127508000Y-111760000D03*
X138684000Y-113792000D03*
X161544000Y-69088000D03*
X147828000Y-118872000D03*
X141732000Y-111760000D03*
X164033200Y-101752400D03*
X147828000Y-114808000D03*
X130556000Y-117856000D03*
X142748000Y-117856000D03*
X132588000Y-116840000D03*
X143764000Y-116840000D03*
X160528000Y-70104000D03*
X145796000Y-119888000D03*
X144780000Y-117856000D03*
X146812000Y-119888000D03*
X112983200Y-86868000D03*
X142748000Y-113792000D03*
X144780000Y-115824000D03*
X141732000Y-114808000D03*
X148844000Y-117856000D03*
X146812000Y-117856000D03*
X162560000Y-70104000D03*
X128524000Y-119888000D03*
X148844000Y-112776000D03*
X146812000Y-120904000D03*
X133604000Y-114808000D03*
X145796000Y-111760000D03*
X130556000Y-115824000D03*
X147828000Y-113792000D03*
X142748000Y-116840000D03*
X141732000Y-115824000D03*
X143764000Y-112776000D03*
X144780000Y-113792000D03*
X145796000Y-116840000D03*
X127508000Y-118872000D03*
X161544000Y-70104000D03*
X134620000Y-115824000D03*
X144780000Y-116840000D03*
D23*
%TO.N,/+50V*%
X132359400Y-123215400D03*
D22*
%TO.N,/D+*%
X123453768Y-125511168D03*
%TO.N,/D-*%
X124196232Y-126253632D03*
%TO.N,/Rx*%
X160243933Y-95250000D03*
X161086800Y-90932000D03*
%TO.N,/Tx*%
X162204400Y-90932000D03*
X160243933Y-99060000D03*
%TO.N,/DIPS58*%
X145694400Y-86131400D03*
X120980200Y-86868000D03*
%TO.N,/DIP9*%
X146304000Y-72898000D03*
X136728200Y-72898000D03*
%TO.N,/M2 Fwd Signal*%
X168300400Y-87325200D03*
X168249600Y-72644000D03*
%TO.N,/M2 Bkwd Signal (MOSI)*%
X160169786Y-78420064D03*
X162543998Y-72644000D03*
%TO.N,/M1 Fwd Signal*%
X160543998Y-72644000D03*
X159054800Y-78486000D03*
%TO.N,/M1 Bkwd Signal*%
X157988000Y-78587600D03*
X159543998Y-72644000D03*
%TO.N,/M1 -Limit (SCK)*%
X149098000Y-63500000D03*
%TO.N,/M2 +Limit*%
X148336000Y-64331636D03*
X149860000Y-86728900D03*
%TO.N,/M2 -Limit*%
X147447000Y-65151000D03*
X148844000Y-86728900D03*
%TO.N,/RESET*%
X150774400Y-93167200D03*
%TD*%
D24*
%TO.N,/DIPS14*%
X146803700Y-83176700D02*
X146812000Y-83185000D01*
X133771800Y-83176700D02*
X146803700Y-83176700D01*
%TO.N,/DIPS58*%
X145669000Y-86106000D02*
X145694400Y-86131400D01*
X130733800Y-86106000D02*
X145669000Y-86106000D01*
X122250200Y-85598000D02*
X130225800Y-85598000D01*
X120980200Y-86868000D02*
X122250200Y-85598000D01*
X130225800Y-85598000D02*
X130733800Y-86106000D01*
D25*
%TO.N,GND*%
X154178000Y-85099500D02*
X154178000Y-85217000D01*
D26*
%TO.N,/+50V*%
X125622800Y-123215400D02*
X132359400Y-123215400D01*
X125622800Y-123215400D02*
X151942800Y-123215400D01*
X151942800Y-123215400D02*
X156531000Y-118627200D01*
X118714000Y-112530000D02*
X118714000Y-116306600D01*
X118714000Y-116306600D02*
X125622800Y-123215400D01*
X154051000Y-110275000D02*
X154051000Y-110490000D01*
X154051000Y-110490000D02*
X156531000Y-112970000D01*
X156531000Y-118627200D02*
X156531000Y-112970000D01*
X116459000Y-110275000D02*
X118714000Y-112530000D01*
D27*
%TO.N,/D+*%
X162490999Y-113965600D02*
X162490999Y-114115001D01*
X161182851Y-115423148D02*
X161182851Y-115423149D01*
X160334321Y-116271676D02*
X160334322Y-116271677D01*
X159910056Y-116271678D02*
X159910057Y-116271678D01*
X161607115Y-114574620D02*
X161396916Y-114364421D01*
X124173801Y-125215400D02*
X123878033Y-125511168D01*
X160758585Y-115423149D02*
X160758586Y-115423149D01*
X162490999Y-111094999D02*
X162490999Y-112115600D01*
X159275577Y-116485726D02*
X159485792Y-116695941D01*
X152771228Y-125215400D02*
X124173801Y-125215400D01*
X159485792Y-117120205D02*
X159485793Y-117120206D01*
X158531000Y-119455628D02*
X152771228Y-125215400D01*
X160334322Y-116271677D02*
X160334322Y-116271678D01*
X160972652Y-114788685D02*
X161182850Y-114998883D01*
X160758586Y-115423149D02*
X160548387Y-115212950D01*
X162190999Y-112415600D02*
X161893710Y-112415600D01*
X159910057Y-116271678D02*
X159699841Y-116061462D01*
X159485793Y-117120206D02*
X158531000Y-118075000D01*
X162490999Y-113315600D02*
X162490999Y-113965600D01*
X161671000Y-110275000D02*
X162490999Y-111094999D01*
X161182850Y-115423147D02*
X161182851Y-115423148D01*
X158531000Y-118075000D02*
X158531000Y-119455628D01*
X161607114Y-114574620D02*
X161607115Y-114574620D01*
X123878033Y-125511168D02*
X123453768Y-125511168D01*
X162490999Y-114115001D02*
X162031380Y-114574620D01*
X161893710Y-113015600D02*
X162190999Y-113015600D01*
X160124123Y-115637214D02*
X160334321Y-115847412D01*
X160548386Y-115212951D02*
G75*
G03*
X160124124Y-115212951I-212131J-212131D01*
G01*
X162491000Y-113315600D02*
G75*
G03*
X162190999Y-113015600I-300000J0D01*
G01*
X162190999Y-112415599D02*
G75*
G03*
X162490999Y-112115600I1J299999D01*
G01*
X159275583Y-116061468D02*
G75*
G03*
X159275577Y-116485726I212117J-212132D01*
G01*
X160124141Y-115212968D02*
G75*
G03*
X160124123Y-115637214I212159J-212132D01*
G01*
X160972699Y-114364468D02*
G75*
G03*
X160972652Y-114788685I212101J-212132D01*
G01*
X161396915Y-114364422D02*
G75*
G03*
X160972653Y-114364422I-212131J-212131D01*
G01*
X161893710Y-112415610D02*
G75*
G03*
X161593710Y-112715600I-10J-299990D01*
G01*
X161607114Y-114574620D02*
G75*
G03*
X162031380Y-114574620I212133J212134D01*
G01*
X161182835Y-115423132D02*
G75*
G03*
X161182850Y-114998883I-212135J212132D01*
G01*
X159910056Y-116271678D02*
G75*
G03*
X160334322Y-116271678I212133J212134D01*
G01*
X160334277Y-116271632D02*
G75*
G03*
X160334321Y-115847412I-212077J212132D01*
G01*
X159485818Y-117120231D02*
G75*
G03*
X159485791Y-116695942I-212118J212131D01*
G01*
X159699840Y-116061463D02*
G75*
G03*
X159275578Y-116061463I-212131J-212131D01*
G01*
X160758585Y-115423149D02*
G75*
G03*
X161182851Y-115423149I212133J212134D01*
G01*
X161593700Y-112715600D02*
G75*
G03*
X161893710Y-113015600I300000J0D01*
G01*
%TO.N,/D-*%
X158931000Y-119691998D02*
X158931000Y-118240686D01*
X124196232Y-126253632D02*
X124196232Y-125829367D01*
X152957617Y-125665381D02*
X158931000Y-119691998D01*
X158931000Y-118240686D02*
X162941000Y-114230686D01*
X124360218Y-125665381D02*
X152957617Y-125665381D01*
X124196232Y-125829367D02*
X124360218Y-125665381D01*
X162941000Y-114230686D02*
X162941000Y-107735000D01*
D24*
%TO.N,/Rx*%
X161086800Y-90932000D02*
X161086800Y-94407133D01*
X161086800Y-94407133D02*
X160243933Y-95250000D01*
%TO.N,/Tx*%
X162204400Y-97099533D02*
X160243933Y-99060000D01*
X162204400Y-90932000D02*
X162204400Y-97099533D01*
%TO.N,/DIP9*%
X136728200Y-72898000D02*
X146304000Y-72898000D01*
%TO.N,/M2 Fwd Signal*%
X168300400Y-87325200D02*
X168249600Y-87274400D01*
X168249600Y-87274400D02*
X168249600Y-72644000D01*
%TO.N,/M2 Bkwd Signal (MOSI)*%
X162543998Y-76045852D02*
X160169786Y-78420064D01*
X162543998Y-72644000D02*
X162543998Y-76045852D01*
%TO.N,/M1 Fwd Signal*%
X160543998Y-72644000D02*
X160543998Y-72685307D01*
X160543998Y-72685307D02*
X159054800Y-74174505D01*
X159054800Y-74174505D02*
X159054800Y-78486000D01*
%TO.N,/M1 Bkwd Signal*%
X159543998Y-72644000D02*
X157988000Y-74199998D01*
X157988000Y-74199998D02*
X157988000Y-78587600D01*
%TO.N,/M1 +Limit (MISO)*%
X150765000Y-74200000D02*
X150765000Y-60289000D01*
X150765000Y-60289000D02*
X150876000Y-60178000D01*
%TO.N,/M1 -Limit (SCK)*%
X149590000Y-63992000D02*
X149098000Y-63500000D01*
X150765000Y-76740000D02*
X149590000Y-75565000D01*
X149590000Y-75184000D02*
X149590000Y-63992000D01*
X149590000Y-75565000D02*
X149590000Y-75184000D01*
%TO.N,/M2 +Limit*%
X149590000Y-76201396D02*
X149590000Y-86458900D01*
X149140000Y-75751396D02*
X149590000Y-76201396D01*
X149140000Y-65135636D02*
X149140000Y-75751396D01*
X149590000Y-86458900D02*
X149860000Y-86728900D01*
X148336000Y-64331636D02*
X149140000Y-65135636D01*
%TO.N,/M2 -Limit*%
X147447000Y-65151000D02*
X148140500Y-65844500D01*
X148140500Y-86025400D02*
X148844000Y-86728900D01*
X148140500Y-65844500D02*
X148140500Y-86025400D01*
%TO.N,/RESET*%
X150765000Y-79280000D02*
X150765000Y-93157800D01*
X150765000Y-93157800D02*
X150774400Y-93167200D01*
%TD*%
%TA.AperFunction,Conductor*%
%TO.N,GND*%
G36*
X168417980Y-55882383D02*
G01*
X168477480Y-55894218D01*
X168522175Y-55912730D01*
X168562272Y-55939522D01*
X168596477Y-55973727D01*
X168623267Y-56013822D01*
X168641781Y-56058518D01*
X168653617Y-56118019D01*
X168656000Y-56142211D01*
X168656000Y-62484000D01*
X174997789Y-62484000D01*
X175021980Y-62486383D01*
X175081480Y-62498218D01*
X175126175Y-62516730D01*
X175166272Y-62543522D01*
X175200477Y-62577727D01*
X175227267Y-62617822D01*
X175245781Y-62662518D01*
X175254667Y-62707189D01*
X175257149Y-62719669D01*
X175257617Y-62722019D01*
X175260000Y-62746211D01*
X175260000Y-120133789D01*
X175257617Y-120157982D01*
X175245781Y-120217482D01*
X175227267Y-120262179D01*
X175200481Y-120302268D01*
X175166269Y-120336479D01*
X175131975Y-120359394D01*
X175126179Y-120363267D01*
X175081482Y-120381781D01*
X175047857Y-120388469D01*
X175021978Y-120393617D01*
X174997789Y-120396000D01*
X168656000Y-120396000D01*
X168656000Y-120646000D01*
X168656000Y-120652096D01*
X168656000Y-126737789D01*
X168653617Y-126761982D01*
X168641781Y-126821482D01*
X168623267Y-126866179D01*
X168596481Y-126906268D01*
X168562269Y-126940479D01*
X168527975Y-126963394D01*
X168522179Y-126967267D01*
X168477482Y-126985781D01*
X168443857Y-126992469D01*
X168417978Y-126997617D01*
X168393789Y-127000000D01*
X125014450Y-127000000D01*
X124959315Y-126987068D01*
X124915680Y-126950970D01*
X124892646Y-126899235D01*
X124895018Y-126842653D01*
X124920672Y-126795989D01*
X124920597Y-126795935D01*
X124921029Y-126795339D01*
X124922301Y-126793027D01*
X124922348Y-126792974D01*
X124928765Y-126785848D01*
X125023411Y-126621916D01*
X125081906Y-126441888D01*
X125088734Y-126376918D01*
X125109254Y-126320542D01*
X125153840Y-126280396D01*
X125212055Y-126265881D01*
X152910130Y-126265881D01*
X152926315Y-126266942D01*
X152957617Y-126271063D01*
X153114379Y-126250425D01*
X153260458Y-126189917D01*
X153335666Y-126132208D01*
X153385899Y-126093663D01*
X153405127Y-126068603D01*
X153415806Y-126056425D01*
X159322044Y-120150187D01*
X159334222Y-120139508D01*
X159359282Y-120120280D01*
X159455536Y-119994839D01*
X159516044Y-119848760D01*
X159531500Y-119731359D01*
X159536682Y-119691998D01*
X159532561Y-119660696D01*
X159531500Y-119644511D01*
X159531500Y-118540783D01*
X159540939Y-118493330D01*
X159567819Y-118453102D01*
X160924742Y-117096179D01*
X162289230Y-115731689D01*
X162349949Y-115698338D01*
X162419085Y-115702763D01*
X162475056Y-115743585D01*
X162500394Y-115808062D01*
X162487190Y-115876067D01*
X162480273Y-115889521D01*
X162478813Y-115893798D01*
X162478808Y-115893812D01*
X162393096Y-116145054D01*
X162393092Y-116145066D01*
X162391630Y-116149354D01*
X162390805Y-116153818D01*
X162390805Y-116153820D01*
X162342587Y-116414866D01*
X162342585Y-116414876D01*
X162341764Y-116419326D01*
X162341598Y-116423851D01*
X162341598Y-116423857D01*
X162336758Y-116556320D01*
X162331738Y-116693680D01*
X162332232Y-116698177D01*
X162332233Y-116698182D01*
X162361267Y-116962059D01*
X162361268Y-116962066D01*
X162361764Y-116966571D01*
X162362909Y-116970951D01*
X162362911Y-116970961D01*
X162426482Y-117214120D01*
X162431204Y-117232182D01*
X162432969Y-117236336D01*
X162432972Y-117236344D01*
X162528232Y-117460509D01*
X162538577Y-117484852D01*
X162540934Y-117488714D01*
X162621053Y-117619995D01*
X162681595Y-117719196D01*
X162684493Y-117722678D01*
X162684495Y-117722681D01*
X162774791Y-117831183D01*
X162857209Y-117930218D01*
X163061677Y-118113423D01*
X163290641Y-118264904D01*
X163294732Y-118266821D01*
X163294736Y-118266824D01*
X163535125Y-118379513D01*
X163539221Y-118381433D01*
X163802119Y-118460527D01*
X164073731Y-118500500D01*
X164277285Y-118500500D01*
X164279547Y-118500500D01*
X164484805Y-118485477D01*
X164752775Y-118425784D01*
X165009198Y-118327711D01*
X165248609Y-118193347D01*
X165465904Y-118025557D01*
X165656454Y-117827916D01*
X165816196Y-117604637D01*
X165941727Y-117360479D01*
X166030370Y-117100646D01*
X166080236Y-116830674D01*
X166090262Y-116556320D01*
X166060236Y-116283429D01*
X165990796Y-116017818D01*
X165883423Y-115765148D01*
X165740405Y-115530804D01*
X165564791Y-115319782D01*
X165360323Y-115136577D01*
X165297885Y-115095268D01*
X165135131Y-114987591D01*
X165135125Y-114987588D01*
X165131359Y-114985096D01*
X165127272Y-114983180D01*
X165127263Y-114983175D01*
X164886874Y-114870486D01*
X164886866Y-114870483D01*
X164882779Y-114868567D01*
X164878452Y-114867265D01*
X164878449Y-114867264D01*
X164624211Y-114790775D01*
X164624202Y-114790773D01*
X164619881Y-114789473D01*
X164615414Y-114788815D01*
X164615407Y-114788814D01*
X164352741Y-114750158D01*
X164352739Y-114750157D01*
X164348269Y-114749500D01*
X164142453Y-114749500D01*
X164140204Y-114749664D01*
X164140193Y-114749665D01*
X163941714Y-114764192D01*
X163941710Y-114764192D01*
X163937195Y-114764523D01*
X163932777Y-114765507D01*
X163932771Y-114765508D01*
X163673651Y-114823229D01*
X163673637Y-114823233D01*
X163669225Y-114824216D01*
X163664999Y-114825832D01*
X163664990Y-114825835D01*
X163447302Y-114909093D01*
X163380928Y-114915294D01*
X163320935Y-114886229D01*
X163284662Y-114830298D01*
X163282593Y-114763667D01*
X163315323Y-114705596D01*
X163332044Y-114688875D01*
X163344222Y-114678196D01*
X163369282Y-114658968D01*
X163465536Y-114533527D01*
X163526044Y-114387448D01*
X163541500Y-114270047D01*
X163546682Y-114230686D01*
X163542561Y-114199384D01*
X163541500Y-114183199D01*
X163541500Y-108844245D01*
X163557171Y-108783906D01*
X163600222Y-108738818D01*
X163667562Y-108697124D01*
X163831981Y-108547236D01*
X163966058Y-108369689D01*
X164065229Y-108170528D01*
X164126115Y-107956536D01*
X164146643Y-107735000D01*
X164126115Y-107513464D01*
X164065229Y-107299472D01*
X163966058Y-107100311D01*
X163962605Y-107095738D01*
X163835438Y-106927341D01*
X163835434Y-106927337D01*
X163831981Y-106922764D01*
X163827744Y-106918901D01*
X163827740Y-106918897D01*
X163701646Y-106803948D01*
X163667562Y-106772876D01*
X163662692Y-106769861D01*
X163662690Y-106769859D01*
X163483275Y-106658771D01*
X163483276Y-106658771D01*
X163478401Y-106655753D01*
X163270940Y-106575382D01*
X163265302Y-106574328D01*
X163057872Y-106535552D01*
X163057869Y-106535551D01*
X163052243Y-106534500D01*
X162829757Y-106534500D01*
X162824131Y-106535551D01*
X162824127Y-106535552D01*
X162616697Y-106574328D01*
X162616694Y-106574328D01*
X162611060Y-106575382D01*
X162605717Y-106577451D01*
X162605713Y-106577453D01*
X162408941Y-106653683D01*
X162408936Y-106653685D01*
X162403599Y-106655753D01*
X162398727Y-106658769D01*
X162398724Y-106658771D01*
X162219309Y-106769859D01*
X162219301Y-106769864D01*
X162214438Y-106772876D01*
X162210207Y-106776732D01*
X162210203Y-106776736D01*
X162054259Y-106918897D01*
X162054249Y-106918907D01*
X162050019Y-106922764D01*
X162046570Y-106927330D01*
X162046561Y-106927341D01*
X161919394Y-107095738D01*
X161919387Y-107095748D01*
X161915942Y-107100311D01*
X161913392Y-107105431D01*
X161913387Y-107105440D01*
X161819325Y-107294341D01*
X161819321Y-107294349D01*
X161816771Y-107299472D01*
X161815205Y-107304975D01*
X161815201Y-107304986D01*
X161787586Y-107402046D01*
X161755885Y-107513464D01*
X161735357Y-107735000D01*
X161755885Y-107956536D01*
X161757454Y-107962050D01*
X161815201Y-108165013D01*
X161815204Y-108165021D01*
X161816771Y-108170528D01*
X161819323Y-108175653D01*
X161819325Y-108175658D01*
X161913387Y-108364559D01*
X161913389Y-108364563D01*
X161915942Y-108369689D01*
X161919391Y-108374256D01*
X161919394Y-108374261D01*
X162046561Y-108542658D01*
X162046566Y-108542663D01*
X162050019Y-108547236D01*
X162054255Y-108551097D01*
X162054259Y-108551102D01*
X162166603Y-108653517D01*
X162214438Y-108697124D01*
X162281777Y-108738818D01*
X162324829Y-108783906D01*
X162340500Y-108844245D01*
X162340500Y-109065910D01*
X162326194Y-109123731D01*
X162286577Y-109168210D01*
X162230790Y-109189084D01*
X162171706Y-109181537D01*
X162006287Y-109117453D01*
X162006282Y-109117451D01*
X162000940Y-109115382D01*
X161995302Y-109114328D01*
X161787872Y-109075552D01*
X161787869Y-109075551D01*
X161782243Y-109074500D01*
X161559757Y-109074500D01*
X161554131Y-109075551D01*
X161554127Y-109075552D01*
X161346697Y-109114328D01*
X161346694Y-109114328D01*
X161341060Y-109115382D01*
X161335717Y-109117451D01*
X161335713Y-109117453D01*
X161138941Y-109193683D01*
X161138936Y-109193685D01*
X161133599Y-109195753D01*
X161128727Y-109198769D01*
X161128724Y-109198771D01*
X160949309Y-109309859D01*
X160949301Y-109309864D01*
X160944438Y-109312876D01*
X160940207Y-109316732D01*
X160940203Y-109316736D01*
X160784259Y-109458897D01*
X160784249Y-109458907D01*
X160780019Y-109462764D01*
X160776570Y-109467330D01*
X160776561Y-109467341D01*
X160649394Y-109635738D01*
X160649387Y-109635748D01*
X160645942Y-109640311D01*
X160643392Y-109645431D01*
X160643387Y-109645440D01*
X160549325Y-109834341D01*
X160549321Y-109834349D01*
X160546771Y-109839472D01*
X160545205Y-109844975D01*
X160545201Y-109844986D01*
X160487457Y-110047940D01*
X160485885Y-110053464D01*
X160485356Y-110059169D01*
X160485356Y-110059171D01*
X160471772Y-110205768D01*
X160465357Y-110275000D01*
X160485885Y-110496536D01*
X160487454Y-110502050D01*
X160545201Y-110705013D01*
X160545204Y-110705021D01*
X160546771Y-110710528D01*
X160549323Y-110715653D01*
X160549325Y-110715658D01*
X160643387Y-110904559D01*
X160643389Y-110904563D01*
X160645942Y-110909689D01*
X160649391Y-110914256D01*
X160649394Y-110914261D01*
X160776561Y-111082658D01*
X160776566Y-111082663D01*
X160780019Y-111087236D01*
X160784255Y-111091097D01*
X160784259Y-111091102D01*
X160813785Y-111118018D01*
X160944438Y-111237124D01*
X161133599Y-111354247D01*
X161341060Y-111434618D01*
X161559757Y-111475500D01*
X161565486Y-111475500D01*
X161766499Y-111475500D01*
X161828499Y-111492113D01*
X161873886Y-111537500D01*
X161890499Y-111599500D01*
X161890499Y-111696343D01*
X161877711Y-111751188D01*
X161841984Y-111794720D01*
X161790687Y-111817961D01*
X161637032Y-111848520D01*
X161637029Y-111848520D01*
X161631060Y-111849708D01*
X161625438Y-111852036D01*
X161625433Y-111852038D01*
X161472804Y-111915254D01*
X161472795Y-111915258D01*
X161467176Y-111917586D01*
X161462119Y-111920964D01*
X161462113Y-111920968D01*
X161324745Y-112012751D01*
X161324741Y-112012753D01*
X161319684Y-112016133D01*
X161315388Y-112020428D01*
X161315378Y-112020437D01*
X161198559Y-112137253D01*
X161198553Y-112137259D01*
X161194252Y-112141561D01*
X161190873Y-112146616D01*
X161190867Y-112146625D01*
X161099083Y-112283987D01*
X161099078Y-112283994D01*
X161095701Y-112289050D01*
X161093374Y-112294666D01*
X161093370Y-112294675D01*
X161049414Y-112400792D01*
X161027817Y-112452931D01*
X161026629Y-112458902D01*
X161026629Y-112458903D01*
X160994399Y-112620928D01*
X160994398Y-112620933D01*
X160993210Y-112626908D01*
X160993210Y-112633003D01*
X160993210Y-112715563D01*
X160993205Y-112715600D01*
X160993200Y-112715600D01*
X160993200Y-112804293D01*
X160994388Y-112810267D01*
X160994389Y-112810273D01*
X161026618Y-112972296D01*
X161027807Y-112978272D01*
X161030136Y-112983894D01*
X161030138Y-112983901D01*
X161093358Y-113136521D01*
X161095692Y-113142155D01*
X161194244Y-113289645D01*
X161319678Y-113415075D01*
X161324740Y-113418457D01*
X161377077Y-113453426D01*
X161420798Y-113504614D01*
X161431330Y-113571102D01*
X161405570Y-113633296D01*
X161351109Y-113672865D01*
X161284001Y-113678147D01*
X161273475Y-113676054D01*
X161096093Y-113676054D01*
X161090118Y-113677242D01*
X161090112Y-113677243D01*
X160928092Y-113709471D01*
X160928085Y-113709473D01*
X160922118Y-113710660D01*
X160916497Y-113712987D01*
X160916491Y-113712990D01*
X160763867Y-113776209D01*
X160763863Y-113776210D01*
X160758238Y-113778541D01*
X160753175Y-113781923D01*
X160753171Y-113781926D01*
X160615812Y-113873706D01*
X160615805Y-113873711D01*
X160610749Y-113877090D01*
X160606446Y-113881392D01*
X160606441Y-113881397D01*
X160561600Y-113926239D01*
X160548065Y-113939772D01*
X160547878Y-113939585D01*
X160547850Y-113939619D01*
X160548034Y-113939803D01*
X160496826Y-113991012D01*
X160496818Y-113991020D01*
X160496477Y-113991362D01*
X160496393Y-113991499D01*
X160496168Y-113991753D01*
X160489705Y-113998215D01*
X160489695Y-113998226D01*
X160485398Y-114002524D01*
X160482022Y-114007574D01*
X160482015Y-114007584D01*
X160390229Y-114144928D01*
X160390226Y-114144932D01*
X160386844Y-114149994D01*
X160384514Y-114155616D01*
X160384511Y-114155623D01*
X160321282Y-114308231D01*
X160321279Y-114308239D01*
X160318952Y-114313857D01*
X160317764Y-114319824D01*
X160317763Y-114319829D01*
X160294397Y-114437233D01*
X160275879Y-114481927D01*
X160241669Y-114516134D01*
X160196973Y-114534646D01*
X160073589Y-114559189D01*
X160067968Y-114561516D01*
X160067962Y-114561519D01*
X159915338Y-114624738D01*
X159915334Y-114624739D01*
X159909709Y-114627070D01*
X159904646Y-114630452D01*
X159904642Y-114630455D01*
X159767285Y-114722234D01*
X159767280Y-114722237D01*
X159762220Y-114725619D01*
X159757917Y-114729921D01*
X159757908Y-114729929D01*
X159751052Y-114736785D01*
X159751045Y-114736791D01*
X159751033Y-114736799D01*
X159751002Y-114736829D01*
X159750992Y-114736839D01*
X159699505Y-114788332D01*
X159648118Y-114839720D01*
X159648110Y-114839728D01*
X159647948Y-114839891D01*
X159647907Y-114839956D01*
X159647810Y-114840067D01*
X159641098Y-114846779D01*
X159641087Y-114846791D01*
X159636792Y-114851088D01*
X159633416Y-114856139D01*
X159633410Y-114856148D01*
X159541642Y-114993499D01*
X159541636Y-114993509D01*
X159538260Y-114998563D01*
X159535932Y-115004183D01*
X159535929Y-115004189D01*
X159479845Y-115139593D01*
X159470388Y-115162426D01*
X159469201Y-115168391D01*
X159469199Y-115168399D01*
X159445859Y-115285733D01*
X159427344Y-115330432D01*
X159393132Y-115364642D01*
X159348433Y-115383157D01*
X159231017Y-115406512D01*
X159231010Y-115406514D01*
X159225043Y-115407701D01*
X159219422Y-115410028D01*
X159219416Y-115410031D01*
X159066792Y-115473250D01*
X159066788Y-115473251D01*
X159061163Y-115475582D01*
X159056100Y-115478964D01*
X159056096Y-115478967D01*
X158918744Y-115570743D01*
X158918741Y-115570744D01*
X158913674Y-115574131D01*
X158909365Y-115578439D01*
X158909360Y-115578444D01*
X158871596Y-115616208D01*
X158850979Y-115636823D01*
X158850975Y-115636827D01*
X158850974Y-115636829D01*
X158850973Y-115636831D01*
X158850964Y-115636840D01*
X158850959Y-115636844D01*
X158799433Y-115688371D01*
X158799423Y-115688381D01*
X158799402Y-115688403D01*
X158799396Y-115688411D01*
X158799373Y-115688437D01*
X158792574Y-115695236D01*
X158792566Y-115695244D01*
X158788263Y-115699549D01*
X158758600Y-115743941D01*
X158711792Y-115785533D01*
X158650630Y-115798951D01*
X158590709Y-115780774D01*
X158547310Y-115735635D01*
X158531500Y-115675047D01*
X158531500Y-112831347D01*
X158531500Y-112826921D01*
X158521932Y-112760382D01*
X158520988Y-112751592D01*
X158518417Y-112715638D01*
X158516196Y-112684572D01*
X158501906Y-112618886D01*
X158500338Y-112610191D01*
X158490776Y-112543678D01*
X158471837Y-112479182D01*
X158469657Y-112470641D01*
X158455369Y-112404954D01*
X158448643Y-112386921D01*
X158431881Y-112341979D01*
X158429085Y-112333579D01*
X158411406Y-112273368D01*
X158411404Y-112273363D01*
X158410156Y-112269112D01*
X158406302Y-112260674D01*
X158400176Y-112244295D01*
X158398980Y-112240248D01*
X157790177Y-110179799D01*
X157785625Y-110156105D01*
X157776115Y-110053464D01*
X157715229Y-109839472D01*
X157616058Y-109640311D01*
X157481981Y-109462764D01*
X157481981Y-109462763D01*
X157482600Y-109462296D01*
X157468837Y-109442273D01*
X156830195Y-108170528D01*
X156516603Y-107546064D01*
X156506304Y-107515506D01*
X156506115Y-107513464D01*
X156445229Y-107299472D01*
X156346058Y-107100311D01*
X156342605Y-107095738D01*
X156215438Y-106927341D01*
X156215434Y-106927337D01*
X156211981Y-106922764D01*
X156207744Y-106918901D01*
X156207740Y-106918897D01*
X156081646Y-106803948D01*
X156047562Y-106772876D01*
X156042692Y-106769861D01*
X156042690Y-106769859D01*
X155863275Y-106658771D01*
X155863276Y-106658771D01*
X155858401Y-106655753D01*
X155650940Y-106575382D01*
X155645302Y-106574328D01*
X155437872Y-106535552D01*
X155437869Y-106535551D01*
X155432243Y-106534500D01*
X155209757Y-106534500D01*
X155204131Y-106535551D01*
X155204127Y-106535552D01*
X154996697Y-106574328D01*
X154996694Y-106574328D01*
X154991060Y-106575382D01*
X154985717Y-106577451D01*
X154985713Y-106577453D01*
X154788941Y-106653683D01*
X154788936Y-106653685D01*
X154783599Y-106655753D01*
X154778727Y-106658769D01*
X154778724Y-106658771D01*
X154599309Y-106769859D01*
X154599301Y-106769864D01*
X154594438Y-106772876D01*
X154590207Y-106776732D01*
X154590203Y-106776736D01*
X154434259Y-106918897D01*
X154434249Y-106918907D01*
X154430019Y-106922764D01*
X154426570Y-106927330D01*
X154426561Y-106927341D01*
X154299394Y-107095738D01*
X154299387Y-107095748D01*
X154295942Y-107100311D01*
X154293392Y-107105431D01*
X154293387Y-107105440D01*
X154199328Y-107294335D01*
X154199326Y-107294341D01*
X154196771Y-107299472D01*
X154195201Y-107304986D01*
X154195201Y-107304989D01*
X154181687Y-107352484D01*
X154154095Y-107402046D01*
X153194425Y-108455691D01*
X153162179Y-108481025D01*
X152970574Y-108585650D01*
X152970569Y-108585652D01*
X152966685Y-108587774D01*
X152963135Y-108590431D01*
X152963131Y-108590434D01*
X152741156Y-108756602D01*
X152741149Y-108756607D01*
X152737605Y-108759261D01*
X152734474Y-108762391D01*
X152734467Y-108762398D01*
X152538398Y-108958467D01*
X152538391Y-108958474D01*
X152535261Y-108961605D01*
X152532607Y-108965149D01*
X152532602Y-108965156D01*
X152370622Y-109181537D01*
X152363774Y-109190685D01*
X152361651Y-109194571D01*
X152361647Y-109194579D01*
X152228756Y-109437949D01*
X152228750Y-109437961D01*
X152226633Y-109441839D01*
X152225089Y-109445976D01*
X152225085Y-109445987D01*
X152128176Y-109705810D01*
X152128173Y-109705818D01*
X152126631Y-109709954D01*
X152125690Y-109714276D01*
X152125690Y-109714279D01*
X152066746Y-109985238D01*
X152066744Y-109985248D01*
X152065804Y-109989572D01*
X152065488Y-109993983D01*
X152065487Y-109993994D01*
X152051260Y-110192928D01*
X152050500Y-110203552D01*
X152050500Y-110346921D01*
X152050500Y-110633079D01*
X152051129Y-110637457D01*
X152051130Y-110637464D01*
X152060062Y-110699594D01*
X152061008Y-110708390D01*
X152065487Y-110771005D01*
X152065488Y-110771013D01*
X152065804Y-110775428D01*
X152066746Y-110779762D01*
X152066747Y-110779763D01*
X152080089Y-110841096D01*
X152081661Y-110849806D01*
X152089533Y-110904559D01*
X152091225Y-110916322D01*
X152092473Y-110920571D01*
X152110155Y-110980793D01*
X152112343Y-110989367D01*
X152125688Y-111050714D01*
X152125690Y-111050722D01*
X152126631Y-111055046D01*
X152128178Y-111059195D01*
X152128180Y-111059200D01*
X152150118Y-111118018D01*
X152152913Y-111126416D01*
X152170596Y-111186640D01*
X152170599Y-111186648D01*
X152171844Y-111190888D01*
X152173678Y-111194905D01*
X152173683Y-111194917D01*
X152199759Y-111252016D01*
X152203145Y-111260191D01*
X152225081Y-111319003D01*
X152225087Y-111319016D01*
X152226633Y-111323161D01*
X152228753Y-111327043D01*
X152228756Y-111327050D01*
X152258840Y-111382144D01*
X152262799Y-111390054D01*
X152290718Y-111451187D01*
X152293111Y-111454911D01*
X152293113Y-111454914D01*
X152327054Y-111507727D01*
X152331569Y-111515336D01*
X152363774Y-111574315D01*
X152366434Y-111577868D01*
X152404039Y-111628103D01*
X152409087Y-111635373D01*
X152443032Y-111688193D01*
X152443037Y-111688199D01*
X152445426Y-111691917D01*
X152448323Y-111695260D01*
X152489434Y-111742705D01*
X152494988Y-111749597D01*
X152535261Y-111803395D01*
X152538393Y-111806527D01*
X154494181Y-113762315D01*
X154521061Y-113802543D01*
X154530500Y-113849996D01*
X154530500Y-115452579D01*
X154515077Y-115512471D01*
X154472644Y-115557464D01*
X154413757Y-115576366D01*
X154353065Y-115564475D01*
X154311652Y-115529765D01*
X154310405Y-115530804D01*
X154134791Y-115319782D01*
X153930323Y-115136577D01*
X153867885Y-115095268D01*
X153705131Y-114987591D01*
X153705125Y-114987588D01*
X153701359Y-114985096D01*
X153697272Y-114983180D01*
X153697263Y-114983175D01*
X153456874Y-114870486D01*
X153456866Y-114870483D01*
X153452779Y-114868567D01*
X153448452Y-114867265D01*
X153448449Y-114867264D01*
X153194211Y-114790775D01*
X153194202Y-114790773D01*
X153189881Y-114789473D01*
X153185414Y-114788815D01*
X153185407Y-114788814D01*
X152922741Y-114750158D01*
X152922739Y-114750157D01*
X152918269Y-114749500D01*
X152712453Y-114749500D01*
X152710204Y-114749664D01*
X152710193Y-114749665D01*
X152511714Y-114764192D01*
X152511710Y-114764192D01*
X152507195Y-114764523D01*
X152502777Y-114765507D01*
X152502771Y-114765508D01*
X152243651Y-114823229D01*
X152243637Y-114823233D01*
X152239225Y-114824216D01*
X152234999Y-114825832D01*
X152234990Y-114825835D01*
X151987033Y-114920670D01*
X151987023Y-114920674D01*
X151982802Y-114922289D01*
X151978861Y-114924500D01*
X151978852Y-114924505D01*
X151747342Y-115054435D01*
X151747336Y-115054438D01*
X151743391Y-115056653D01*
X151739820Y-115059410D01*
X151739807Y-115059419D01*
X151529680Y-115221675D01*
X151529675Y-115221678D01*
X151526096Y-115224443D01*
X151522956Y-115227698D01*
X151522949Y-115227706D01*
X151338695Y-115418816D01*
X151338683Y-115418829D01*
X151335546Y-115422084D01*
X151332913Y-115425763D01*
X151332904Y-115425775D01*
X151178443Y-115641673D01*
X151178437Y-115641682D01*
X151175804Y-115645363D01*
X151173731Y-115649393D01*
X151173729Y-115649398D01*
X151052345Y-115885489D01*
X151052343Y-115885494D01*
X151050273Y-115889521D01*
X151048813Y-115893798D01*
X151048808Y-115893812D01*
X150963096Y-116145054D01*
X150963092Y-116145066D01*
X150961630Y-116149354D01*
X150960805Y-116153818D01*
X150960805Y-116153820D01*
X150912587Y-116414866D01*
X150912585Y-116414876D01*
X150911764Y-116419326D01*
X150911598Y-116423851D01*
X150911598Y-116423857D01*
X150906758Y-116556320D01*
X150901738Y-116693680D01*
X150902232Y-116698177D01*
X150902233Y-116698182D01*
X150931267Y-116962059D01*
X150931268Y-116962066D01*
X150931764Y-116966571D01*
X150932909Y-116970951D01*
X150932911Y-116970961D01*
X150996482Y-117214120D01*
X151001204Y-117232182D01*
X151002969Y-117236336D01*
X151002972Y-117236344D01*
X151098232Y-117460509D01*
X151108577Y-117484852D01*
X151110934Y-117488714D01*
X151191053Y-117619995D01*
X151251595Y-117719196D01*
X151254493Y-117722678D01*
X151254495Y-117722681D01*
X151344791Y-117831183D01*
X151427209Y-117930218D01*
X151631677Y-118113423D01*
X151860641Y-118264904D01*
X151864732Y-118266821D01*
X151864736Y-118266824D01*
X152105125Y-118379513D01*
X152109221Y-118381433D01*
X152372119Y-118460527D01*
X152643731Y-118500500D01*
X152847285Y-118500500D01*
X152849547Y-118500500D01*
X153054805Y-118485477D01*
X153322775Y-118425784D01*
X153579198Y-118327711D01*
X153756906Y-118227975D01*
X153813439Y-118212181D01*
X153870906Y-118224158D01*
X153916424Y-118261225D01*
X153939794Y-118315074D01*
X153935776Y-118373638D01*
X153905272Y-118423792D01*
X151150485Y-121178581D01*
X151110257Y-121205461D01*
X151062804Y-121214900D01*
X126502797Y-121214900D01*
X126455344Y-121205461D01*
X126415116Y-121178581D01*
X121930214Y-116693680D01*
X124739738Y-116693680D01*
X124740232Y-116698177D01*
X124740233Y-116698182D01*
X124769267Y-116962059D01*
X124769268Y-116962066D01*
X124769764Y-116966571D01*
X124770909Y-116970951D01*
X124770911Y-116970961D01*
X124834482Y-117214120D01*
X124839204Y-117232182D01*
X124840969Y-117236336D01*
X124840972Y-117236344D01*
X124936232Y-117460509D01*
X124946577Y-117484852D01*
X124948934Y-117488714D01*
X125029053Y-117619995D01*
X125089595Y-117719196D01*
X125092493Y-117722678D01*
X125092495Y-117722681D01*
X125182791Y-117831183D01*
X125265209Y-117930218D01*
X125469677Y-118113423D01*
X125698641Y-118264904D01*
X125702732Y-118266821D01*
X125702736Y-118266824D01*
X125943125Y-118379513D01*
X125947221Y-118381433D01*
X126210119Y-118460527D01*
X126481731Y-118500500D01*
X126685285Y-118500500D01*
X126687547Y-118500500D01*
X126892805Y-118485477D01*
X127160775Y-118425784D01*
X127417198Y-118327711D01*
X127656609Y-118193347D01*
X127873904Y-118025557D01*
X128064454Y-117827916D01*
X128224196Y-117604637D01*
X128349727Y-117360479D01*
X128438370Y-117100646D01*
X128488236Y-116830674D01*
X128498262Y-116556320D01*
X128468236Y-116283429D01*
X128398796Y-116017818D01*
X128291423Y-115765148D01*
X128148405Y-115530804D01*
X127972791Y-115319782D01*
X127768323Y-115136577D01*
X127705885Y-115095268D01*
X127543131Y-114987591D01*
X127543125Y-114987588D01*
X127539359Y-114985096D01*
X127535272Y-114983180D01*
X127535263Y-114983175D01*
X127294874Y-114870486D01*
X127294866Y-114870483D01*
X127290779Y-114868567D01*
X127286452Y-114867265D01*
X127286449Y-114867264D01*
X127032211Y-114790775D01*
X127032202Y-114790773D01*
X127027881Y-114789473D01*
X127023414Y-114788815D01*
X127023407Y-114788814D01*
X126760741Y-114750158D01*
X126760739Y-114750157D01*
X126756269Y-114749500D01*
X126550453Y-114749500D01*
X126548204Y-114749664D01*
X126548193Y-114749665D01*
X126349714Y-114764192D01*
X126349710Y-114764192D01*
X126345195Y-114764523D01*
X126340777Y-114765507D01*
X126340771Y-114765508D01*
X126081651Y-114823229D01*
X126081637Y-114823233D01*
X126077225Y-114824216D01*
X126072999Y-114825832D01*
X126072990Y-114825835D01*
X125825033Y-114920670D01*
X125825023Y-114920674D01*
X125820802Y-114922289D01*
X125816861Y-114924500D01*
X125816852Y-114924505D01*
X125585342Y-115054435D01*
X125585336Y-115054438D01*
X125581391Y-115056653D01*
X125577820Y-115059410D01*
X125577807Y-115059419D01*
X125367680Y-115221675D01*
X125367675Y-115221678D01*
X125364096Y-115224443D01*
X125360956Y-115227698D01*
X125360949Y-115227706D01*
X125176695Y-115418816D01*
X125176683Y-115418829D01*
X125173546Y-115422084D01*
X125170913Y-115425763D01*
X125170904Y-115425775D01*
X125016443Y-115641673D01*
X125016437Y-115641682D01*
X125013804Y-115645363D01*
X125011731Y-115649393D01*
X125011729Y-115649398D01*
X124890345Y-115885489D01*
X124890343Y-115885494D01*
X124888273Y-115889521D01*
X124886813Y-115893798D01*
X124886808Y-115893812D01*
X124801096Y-116145054D01*
X124801092Y-116145066D01*
X124799630Y-116149354D01*
X124798805Y-116153818D01*
X124798805Y-116153820D01*
X124750587Y-116414866D01*
X124750585Y-116414876D01*
X124749764Y-116419326D01*
X124749598Y-116423851D01*
X124749598Y-116423857D01*
X124744758Y-116556320D01*
X124739738Y-116693680D01*
X121930214Y-116693680D01*
X120750819Y-115514285D01*
X120723939Y-115474057D01*
X120714500Y-115426604D01*
X120714500Y-112391347D01*
X120714500Y-112386921D01*
X120704932Y-112320382D01*
X120703988Y-112311592D01*
X120699196Y-112244572D01*
X120684906Y-112178886D01*
X120683338Y-112170191D01*
X120679222Y-112141561D01*
X120673776Y-112103678D01*
X120654837Y-112039182D01*
X120652657Y-112030641D01*
X120638369Y-111964954D01*
X120636822Y-111960806D01*
X120636819Y-111960796D01*
X120614882Y-111901983D01*
X120612086Y-111893584D01*
X120601922Y-111858970D01*
X120597860Y-111839428D01*
X120402308Y-110275000D01*
X122873357Y-110275000D01*
X122893885Y-110496536D01*
X122895454Y-110502050D01*
X122953201Y-110705013D01*
X122953204Y-110705021D01*
X122954771Y-110710528D01*
X122957323Y-110715653D01*
X122957325Y-110715658D01*
X123051387Y-110904559D01*
X123051389Y-110904563D01*
X123053942Y-110909689D01*
X123057391Y-110914256D01*
X123057394Y-110914261D01*
X123184561Y-111082658D01*
X123184566Y-111082663D01*
X123188019Y-111087236D01*
X123192255Y-111091097D01*
X123192259Y-111091102D01*
X123221785Y-111118018D01*
X123352438Y-111237124D01*
X123541599Y-111354247D01*
X123749060Y-111434618D01*
X123967757Y-111475500D01*
X124184514Y-111475500D01*
X124190243Y-111475500D01*
X124408940Y-111434618D01*
X124616401Y-111354247D01*
X124805562Y-111237124D01*
X124969981Y-111087236D01*
X125104058Y-110909689D01*
X125203229Y-110710528D01*
X125264115Y-110496536D01*
X125284643Y-110275000D01*
X125264115Y-110053464D01*
X125203229Y-109839472D01*
X125104058Y-109640311D01*
X125054067Y-109574112D01*
X124973438Y-109467341D01*
X124973434Y-109467337D01*
X124969981Y-109462764D01*
X124965744Y-109458901D01*
X124965740Y-109458897D01*
X124809796Y-109316736D01*
X124809797Y-109316736D01*
X124805562Y-109312876D01*
X124800692Y-109309861D01*
X124800690Y-109309859D01*
X124621275Y-109198771D01*
X124621276Y-109198771D01*
X124616401Y-109195753D01*
X124599186Y-109189084D01*
X124414286Y-109117453D01*
X124414285Y-109117452D01*
X124408940Y-109115382D01*
X124403302Y-109114328D01*
X124195872Y-109075552D01*
X124195869Y-109075551D01*
X124190243Y-109074500D01*
X123967757Y-109074500D01*
X123962131Y-109075551D01*
X123962127Y-109075552D01*
X123754697Y-109114328D01*
X123754694Y-109114328D01*
X123749060Y-109115382D01*
X123743717Y-109117451D01*
X123743713Y-109117453D01*
X123546941Y-109193683D01*
X123546936Y-109193685D01*
X123541599Y-109195753D01*
X123536727Y-109198769D01*
X123536724Y-109198771D01*
X123357309Y-109309859D01*
X123357301Y-109309864D01*
X123352438Y-109312876D01*
X123348207Y-109316732D01*
X123348203Y-109316736D01*
X123192259Y-109458897D01*
X123192249Y-109458907D01*
X123188019Y-109462764D01*
X123184570Y-109467330D01*
X123184561Y-109467341D01*
X123057394Y-109635738D01*
X123057387Y-109635748D01*
X123053942Y-109640311D01*
X123051392Y-109645431D01*
X123051387Y-109645440D01*
X122957325Y-109834341D01*
X122957321Y-109834349D01*
X122954771Y-109839472D01*
X122953205Y-109844975D01*
X122953201Y-109844986D01*
X122895457Y-110047940D01*
X122893885Y-110053464D01*
X122893356Y-110059169D01*
X122893356Y-110059171D01*
X122879772Y-110205768D01*
X122873357Y-110275000D01*
X120402308Y-110275000D01*
X120392389Y-110195646D01*
X120373120Y-110107046D01*
X120359858Y-110064768D01*
X120325060Y-109981018D01*
X120253316Y-109844420D01*
X119909123Y-109189084D01*
X119145414Y-107735000D01*
X124143357Y-107735000D01*
X124163885Y-107956536D01*
X124165454Y-107962050D01*
X124223201Y-108165013D01*
X124223204Y-108165021D01*
X124224771Y-108170528D01*
X124227323Y-108175653D01*
X124227325Y-108175658D01*
X124321387Y-108364559D01*
X124321389Y-108364563D01*
X124323942Y-108369689D01*
X124327391Y-108374256D01*
X124327394Y-108374261D01*
X124454561Y-108542658D01*
X124454566Y-108542663D01*
X124458019Y-108547236D01*
X124462255Y-108551097D01*
X124462259Y-108551102D01*
X124574603Y-108653517D01*
X124622438Y-108697124D01*
X124811599Y-108814247D01*
X125019060Y-108894618D01*
X125237757Y-108935500D01*
X125454514Y-108935500D01*
X125460243Y-108935500D01*
X125678940Y-108894618D01*
X125886401Y-108814247D01*
X126075562Y-108697124D01*
X126239981Y-108547236D01*
X126374058Y-108369689D01*
X126473229Y-108170528D01*
X126534115Y-107956536D01*
X126554643Y-107735000D01*
X126534115Y-107513464D01*
X126473229Y-107299472D01*
X126374058Y-107100311D01*
X126370605Y-107095738D01*
X126243438Y-106927341D01*
X126243434Y-106927337D01*
X126239981Y-106922764D01*
X126235744Y-106918901D01*
X126235740Y-106918897D01*
X126109646Y-106803948D01*
X126075562Y-106772876D01*
X126070692Y-106769861D01*
X126070690Y-106769859D01*
X125891275Y-106658771D01*
X125891276Y-106658771D01*
X125886401Y-106655753D01*
X125678940Y-106575382D01*
X125673302Y-106574328D01*
X125465872Y-106535552D01*
X125465869Y-106535551D01*
X125460243Y-106534500D01*
X125237757Y-106534500D01*
X125232131Y-106535551D01*
X125232127Y-106535552D01*
X125024697Y-106574328D01*
X125024694Y-106574328D01*
X125019060Y-106575382D01*
X125013717Y-106577451D01*
X125013713Y-106577453D01*
X124816941Y-106653683D01*
X124816936Y-106653685D01*
X124811599Y-106655753D01*
X124806727Y-106658769D01*
X124806724Y-106658771D01*
X124627309Y-106769859D01*
X124627301Y-106769864D01*
X124622438Y-106772876D01*
X124618207Y-106776732D01*
X124618203Y-106776736D01*
X124462259Y-106918897D01*
X124462249Y-106918907D01*
X124458019Y-106922764D01*
X124454570Y-106927330D01*
X124454561Y-106927341D01*
X124327394Y-107095738D01*
X124327387Y-107095748D01*
X124323942Y-107100311D01*
X124321392Y-107105431D01*
X124321387Y-107105440D01*
X124227325Y-107294341D01*
X124227321Y-107294349D01*
X124224771Y-107299472D01*
X124223205Y-107304975D01*
X124223201Y-107304986D01*
X124195586Y-107402046D01*
X124163885Y-107513464D01*
X124143357Y-107735000D01*
X119145414Y-107735000D01*
X118810756Y-107097818D01*
X118727653Y-106982547D01*
X118679819Y-106932787D01*
X118567923Y-106845204D01*
X118559797Y-106841939D01*
X118559794Y-106841937D01*
X118529640Y-106829820D01*
X118492336Y-106806399D01*
X118459801Y-106776740D01*
X118459796Y-106776736D01*
X118455562Y-106772876D01*
X118266401Y-106655753D01*
X118058940Y-106575382D01*
X118053302Y-106574328D01*
X117845872Y-106535552D01*
X117845869Y-106535551D01*
X117840243Y-106534500D01*
X117617757Y-106534500D01*
X117612131Y-106535551D01*
X117612127Y-106535552D01*
X117404697Y-106574328D01*
X117404694Y-106574328D01*
X117399060Y-106575382D01*
X117393717Y-106577451D01*
X117393713Y-106577453D01*
X117196941Y-106653683D01*
X117196936Y-106653685D01*
X117191599Y-106655753D01*
X117186727Y-106658769D01*
X117186724Y-106658771D01*
X117007313Y-106769857D01*
X117007309Y-106769860D01*
X117002438Y-106772876D01*
X116998210Y-106776729D01*
X116998197Y-106776740D01*
X116900386Y-106865906D01*
X116880873Y-106880461D01*
X116821100Y-106916497D01*
X116821078Y-106916511D01*
X116818442Y-106918101D01*
X116815964Y-106919956D01*
X116815958Y-106919961D01*
X116781376Y-106945862D01*
X116781369Y-106945867D01*
X116778888Y-106947726D01*
X116776608Y-106949820D01*
X116776596Y-106949831D01*
X116706622Y-107014131D01*
X116706614Y-107014138D01*
X116704332Y-107016236D01*
X116702276Y-107018545D01*
X116702265Y-107018557D01*
X115156467Y-108755237D01*
X115145050Y-108766502D01*
X115135039Y-108775178D01*
X115044167Y-108853919D01*
X115044161Y-108853924D01*
X115040820Y-108856820D01*
X115037924Y-108860161D01*
X115037916Y-108860170D01*
X114856323Y-109069739D01*
X114856319Y-109069744D01*
X114853426Y-109073083D01*
X114851035Y-109076802D01*
X114851033Y-109076806D01*
X114701115Y-109310082D01*
X114701110Y-109310089D01*
X114698718Y-109313813D01*
X114696879Y-109317839D01*
X114696874Y-109317849D01*
X114581688Y-109570072D01*
X114581683Y-109570083D01*
X114579844Y-109574112D01*
X114578593Y-109578369D01*
X114578593Y-109578372D01*
X114503435Y-109834341D01*
X114499225Y-109848678D01*
X114498595Y-109853054D01*
X114498593Y-109853067D01*
X114459129Y-110127540D01*
X114459128Y-110127552D01*
X114458500Y-110131921D01*
X114458500Y-110418079D01*
X114459128Y-110422448D01*
X114459129Y-110422459D01*
X114498593Y-110696932D01*
X114498595Y-110696942D01*
X114499225Y-110701322D01*
X114579844Y-110975888D01*
X114581685Y-110979920D01*
X114581688Y-110979927D01*
X114696874Y-111232150D01*
X114698718Y-111236187D01*
X114853426Y-111476917D01*
X114993912Y-111639046D01*
X114995492Y-111640626D01*
X114995493Y-111640627D01*
X116677181Y-113322315D01*
X116704061Y-113362543D01*
X116713500Y-113409996D01*
X116713500Y-115195139D01*
X116700595Y-115250220D01*
X116664566Y-115293836D01*
X116612913Y-115316909D01*
X116556386Y-115314636D01*
X116506752Y-115287490D01*
X116341697Y-115139599D01*
X116341687Y-115139591D01*
X116338323Y-115136577D01*
X116275885Y-115095268D01*
X116113131Y-114987591D01*
X116113125Y-114987588D01*
X116109359Y-114985096D01*
X116105272Y-114983180D01*
X116105263Y-114983175D01*
X115864874Y-114870486D01*
X115864866Y-114870483D01*
X115860779Y-114868567D01*
X115856452Y-114867265D01*
X115856449Y-114867264D01*
X115602211Y-114790775D01*
X115602202Y-114790773D01*
X115597881Y-114789473D01*
X115593414Y-114788815D01*
X115593407Y-114788814D01*
X115330741Y-114750158D01*
X115330739Y-114750157D01*
X115326269Y-114749500D01*
X115120453Y-114749500D01*
X115118204Y-114749664D01*
X115118193Y-114749665D01*
X114919714Y-114764192D01*
X114919710Y-114764192D01*
X114915195Y-114764523D01*
X114910777Y-114765507D01*
X114910771Y-114765508D01*
X114651651Y-114823229D01*
X114651637Y-114823233D01*
X114647225Y-114824216D01*
X114642999Y-114825832D01*
X114642990Y-114825835D01*
X114395033Y-114920670D01*
X114395023Y-114920674D01*
X114390802Y-114922289D01*
X114386861Y-114924500D01*
X114386852Y-114924505D01*
X114155342Y-115054435D01*
X114155336Y-115054438D01*
X114151391Y-115056653D01*
X114147820Y-115059410D01*
X114147807Y-115059419D01*
X113937680Y-115221675D01*
X113937675Y-115221678D01*
X113934096Y-115224443D01*
X113930956Y-115227698D01*
X113930949Y-115227706D01*
X113746695Y-115418816D01*
X113746683Y-115418829D01*
X113743546Y-115422084D01*
X113740913Y-115425763D01*
X113740904Y-115425775D01*
X113586443Y-115641673D01*
X113586437Y-115641682D01*
X113583804Y-115645363D01*
X113581731Y-115649393D01*
X113581729Y-115649398D01*
X113460345Y-115885489D01*
X113460343Y-115885494D01*
X113458273Y-115889521D01*
X113456813Y-115893798D01*
X113456808Y-115893812D01*
X113371096Y-116145054D01*
X113371092Y-116145066D01*
X113369630Y-116149354D01*
X113368805Y-116153818D01*
X113368805Y-116153820D01*
X113320587Y-116414866D01*
X113320585Y-116414876D01*
X113319764Y-116419326D01*
X113319598Y-116423851D01*
X113319598Y-116423857D01*
X113314758Y-116556320D01*
X113309738Y-116693680D01*
X113310232Y-116698177D01*
X113310233Y-116698182D01*
X113339267Y-116962059D01*
X113339268Y-116962066D01*
X113339764Y-116966571D01*
X113340909Y-116970951D01*
X113340911Y-116970961D01*
X113404482Y-117214120D01*
X113409204Y-117232182D01*
X113410969Y-117236336D01*
X113410972Y-117236344D01*
X113506232Y-117460509D01*
X113516577Y-117484852D01*
X113518934Y-117488714D01*
X113599053Y-117619995D01*
X113659595Y-117719196D01*
X113662493Y-117722678D01*
X113662495Y-117722681D01*
X113752791Y-117831183D01*
X113835209Y-117930218D01*
X114039677Y-118113423D01*
X114268641Y-118264904D01*
X114272732Y-118266821D01*
X114272736Y-118266824D01*
X114513125Y-118379513D01*
X114517221Y-118381433D01*
X114780119Y-118460527D01*
X115051731Y-118500500D01*
X115255285Y-118500500D01*
X115257547Y-118500500D01*
X115462805Y-118485477D01*
X115730775Y-118425784D01*
X115987198Y-118327711D01*
X116226609Y-118193347D01*
X116443904Y-118025557D01*
X116634454Y-117827916D01*
X116794196Y-117604637D01*
X116862981Y-117470849D01*
X116906132Y-117423289D01*
X116967289Y-117403693D01*
X117030047Y-117417318D01*
X117077573Y-117460509D01*
X117106032Y-117504793D01*
X117106037Y-117504799D01*
X117108426Y-117508517D01*
X117111323Y-117511860D01*
X117152434Y-117559305D01*
X117157988Y-117566197D01*
X117198261Y-117619995D01*
X117201393Y-117623127D01*
X117248912Y-117670646D01*
X124021283Y-124443018D01*
X124052263Y-124494704D01*
X124055219Y-124554890D01*
X124029455Y-124609364D01*
X123981055Y-124645260D01*
X123896524Y-124680274D01*
X123847448Y-124689702D01*
X123798636Y-124678993D01*
X123774195Y-124668111D01*
X123733571Y-124650024D01*
X123727212Y-124648672D01*
X123727208Y-124648671D01*
X123554776Y-124612020D01*
X123554773Y-124612019D01*
X123548414Y-124610668D01*
X123359122Y-124610668D01*
X123352763Y-124612019D01*
X123352759Y-124612020D01*
X123180327Y-124648671D01*
X123180320Y-124648673D01*
X123173965Y-124650024D01*
X123168030Y-124652666D01*
X123168022Y-124652669D01*
X123006975Y-124724373D01*
X123006970Y-124724375D01*
X123001038Y-124727017D01*
X122995784Y-124730833D01*
X122995779Y-124730837D01*
X122853156Y-124834458D01*
X122853149Y-124834463D01*
X122847897Y-124838280D01*
X122843552Y-124843105D01*
X122843547Y-124843110D01*
X122725581Y-124974124D01*
X122725576Y-124974130D01*
X122721235Y-124978952D01*
X122717990Y-124984572D01*
X122717986Y-124984578D01*
X122629837Y-125137257D01*
X122629834Y-125137262D01*
X122626589Y-125142884D01*
X122624583Y-125149056D01*
X122624581Y-125149062D01*
X122570101Y-125316732D01*
X122570099Y-125316741D01*
X122568094Y-125322912D01*
X122567416Y-125329362D01*
X122567414Y-125329372D01*
X122549730Y-125497632D01*
X122548308Y-125511168D01*
X122548987Y-125517628D01*
X122567414Y-125692963D01*
X122567415Y-125692971D01*
X122568094Y-125699424D01*
X122570099Y-125705596D01*
X122570101Y-125705603D01*
X122624581Y-125873273D01*
X122626589Y-125879452D01*
X122721235Y-126043384D01*
X122725579Y-126048209D01*
X122725581Y-126048211D01*
X122770961Y-126098610D01*
X122847897Y-126184056D01*
X123001038Y-126295319D01*
X123173965Y-126372312D01*
X123180326Y-126373664D01*
X123226380Y-126383453D01*
X123283571Y-126412593D01*
X123318530Y-126466424D01*
X123342537Y-126540311D01*
X123369053Y-126621916D01*
X123463699Y-126785848D01*
X123468045Y-126790675D01*
X123468046Y-126790676D01*
X123470163Y-126793027D01*
X123471434Y-126795339D01*
X123471867Y-126795935D01*
X123471791Y-126795989D01*
X123497446Y-126842653D01*
X123499818Y-126899235D01*
X123476784Y-126950970D01*
X123433149Y-126987068D01*
X123378014Y-127000000D01*
X111006211Y-127000000D01*
X110982020Y-126997617D01*
X110967189Y-126994667D01*
X110922518Y-126985781D01*
X110877822Y-126967267D01*
X110837727Y-126940477D01*
X110803522Y-126906272D01*
X110776730Y-126866175D01*
X110758218Y-126821480D01*
X110752558Y-126793027D01*
X110746383Y-126761980D01*
X110744000Y-126737789D01*
X110744000Y-120398096D01*
X110744000Y-120392000D01*
X110744000Y-120142000D01*
X110494000Y-120142000D01*
X110487904Y-120142000D01*
X104402211Y-120142000D01*
X104378020Y-120139617D01*
X104363189Y-120136667D01*
X104318518Y-120127781D01*
X104273822Y-120109267D01*
X104233727Y-120082477D01*
X104199522Y-120048272D01*
X104172730Y-120008175D01*
X104154218Y-119963480D01*
X104142383Y-119903980D01*
X104140000Y-119879789D01*
X104140000Y-101212399D01*
X119728500Y-101212399D01*
X119729343Y-101217452D01*
X119729344Y-101217461D01*
X119767289Y-101444854D01*
X119767291Y-101444863D01*
X119768134Y-101449913D01*
X119846321Y-101677664D01*
X119960928Y-101889439D01*
X120108829Y-102079463D01*
X120112602Y-102082936D01*
X120282220Y-102239081D01*
X120282223Y-102239083D01*
X120285990Y-102242551D01*
X120487578Y-102374255D01*
X120708095Y-102470983D01*
X120941524Y-102530095D01*
X121121400Y-102545000D01*
X121334030Y-102545000D01*
X121336600Y-102545000D01*
X121516476Y-102530095D01*
X121749905Y-102470983D01*
X121970422Y-102374255D01*
X122172010Y-102242551D01*
X122349171Y-102079463D01*
X122497072Y-101889439D01*
X122611679Y-101677664D01*
X122689866Y-101449913D01*
X122729500Y-101212399D01*
X122729500Y-100971601D01*
X122689866Y-100734087D01*
X122611679Y-100506336D01*
X122497072Y-100294561D01*
X122349171Y-100104537D01*
X122172010Y-99941449D01*
X122148070Y-99925808D01*
X122106837Y-99881018D01*
X122091892Y-99822000D01*
X122106837Y-99762982D01*
X122148071Y-99718191D01*
X122172010Y-99702551D01*
X122349171Y-99539463D01*
X122497072Y-99349439D01*
X122611679Y-99137664D01*
X122638341Y-99060000D01*
X159338473Y-99060000D01*
X159339152Y-99066460D01*
X159357579Y-99241795D01*
X159357580Y-99241803D01*
X159358259Y-99248256D01*
X159360264Y-99254428D01*
X159360266Y-99254435D01*
X159392450Y-99353485D01*
X159416754Y-99428284D01*
X159511400Y-99592216D01*
X159515744Y-99597041D01*
X159515746Y-99597043D01*
X159633712Y-99728057D01*
X159638062Y-99732888D01*
X159791203Y-99844151D01*
X159964130Y-99921144D01*
X160149287Y-99960500D01*
X160332076Y-99960500D01*
X160338579Y-99960500D01*
X160523736Y-99921144D01*
X160696663Y-99844151D01*
X160849804Y-99732888D01*
X160976466Y-99592216D01*
X161071112Y-99428284D01*
X161129607Y-99248256D01*
X161147254Y-99080345D01*
X161158654Y-99039926D01*
X161182891Y-99005631D01*
X162591711Y-97596811D01*
X162599881Y-97589377D01*
X162606277Y-97585319D01*
X162652318Y-97536289D01*
X162654935Y-97533587D01*
X162674520Y-97514004D01*
X162676985Y-97510825D01*
X162684567Y-97501949D01*
X162714462Y-97470115D01*
X162724113Y-97452556D01*
X162734790Y-97436303D01*
X162747073Y-97420469D01*
X162764426Y-97380365D01*
X162769558Y-97369894D01*
X162786835Y-97338468D01*
X162786835Y-97338467D01*
X162790597Y-97331625D01*
X162795577Y-97312224D01*
X162801881Y-97293814D01*
X162809838Y-97275429D01*
X162816672Y-97232274D01*
X162819038Y-97220854D01*
X162827960Y-97186107D01*
X162829900Y-97178552D01*
X162829900Y-97158516D01*
X162831425Y-97139130D01*
X162834560Y-97119337D01*
X162830450Y-97075857D01*
X162829900Y-97064188D01*
X162829900Y-91630687D01*
X162838136Y-91586249D01*
X162861750Y-91547715D01*
X162917674Y-91485605D01*
X162936933Y-91464216D01*
X163031579Y-91300284D01*
X163090074Y-91120256D01*
X163109860Y-90932000D01*
X163090074Y-90743744D01*
X163031579Y-90563716D01*
X162936933Y-90399784D01*
X162810271Y-90259112D01*
X162805013Y-90255292D01*
X162805011Y-90255290D01*
X162662388Y-90151669D01*
X162662387Y-90151668D01*
X162657130Y-90147849D01*
X162651192Y-90145205D01*
X162490145Y-90073501D01*
X162490140Y-90073499D01*
X162484203Y-90070856D01*
X162477844Y-90069504D01*
X162477840Y-90069503D01*
X162305408Y-90032852D01*
X162305405Y-90032851D01*
X162299046Y-90031500D01*
X162109754Y-90031500D01*
X162103395Y-90032851D01*
X162103391Y-90032852D01*
X161930959Y-90069503D01*
X161930952Y-90069505D01*
X161924597Y-90070856D01*
X161918662Y-90073498D01*
X161918654Y-90073501D01*
X161757608Y-90145205D01*
X161751670Y-90147849D01*
X161746420Y-90151662D01*
X161746410Y-90151669D01*
X161718482Y-90171960D01*
X161671378Y-90192931D01*
X161619817Y-90192930D01*
X161572713Y-90171958D01*
X161544784Y-90151666D01*
X161544782Y-90151664D01*
X161539530Y-90147849D01*
X161533592Y-90145205D01*
X161372545Y-90073501D01*
X161372540Y-90073499D01*
X161366603Y-90070856D01*
X161360244Y-90069504D01*
X161360240Y-90069503D01*
X161187808Y-90032852D01*
X161187805Y-90032851D01*
X161181446Y-90031500D01*
X160992154Y-90031500D01*
X160985795Y-90032851D01*
X160985791Y-90032852D01*
X160813359Y-90069503D01*
X160813352Y-90069505D01*
X160806997Y-90070856D01*
X160801062Y-90073498D01*
X160801054Y-90073501D01*
X160640007Y-90145205D01*
X160640002Y-90145207D01*
X160634070Y-90147849D01*
X160628816Y-90151665D01*
X160628811Y-90151669D01*
X160486188Y-90255290D01*
X160486181Y-90255295D01*
X160480929Y-90259112D01*
X160476584Y-90263937D01*
X160476579Y-90263942D01*
X160358613Y-90394956D01*
X160358608Y-90394962D01*
X160354267Y-90399784D01*
X160351022Y-90405404D01*
X160351018Y-90405410D01*
X160262869Y-90558089D01*
X160262866Y-90558094D01*
X160259621Y-90563716D01*
X160257615Y-90569888D01*
X160257613Y-90569894D01*
X160203133Y-90737564D01*
X160203131Y-90737573D01*
X160201126Y-90743744D01*
X160200448Y-90750194D01*
X160200446Y-90750204D01*
X160188162Y-90867090D01*
X160181340Y-90932000D01*
X160182019Y-90938460D01*
X160200446Y-91113795D01*
X160200447Y-91113803D01*
X160201126Y-91120256D01*
X160203131Y-91126428D01*
X160203133Y-91126435D01*
X160257613Y-91294105D01*
X160259621Y-91300284D01*
X160354267Y-91464216D01*
X160358611Y-91469041D01*
X160358613Y-91469043D01*
X160429450Y-91547715D01*
X160453064Y-91586249D01*
X160461300Y-91630687D01*
X160461300Y-94096681D01*
X160451861Y-94144134D01*
X160424981Y-94184362D01*
X160296162Y-94313181D01*
X160255934Y-94340061D01*
X160208481Y-94349500D01*
X160149287Y-94349500D01*
X160142928Y-94350851D01*
X160142924Y-94350852D01*
X159970492Y-94387503D01*
X159970485Y-94387505D01*
X159964130Y-94388856D01*
X159958195Y-94391498D01*
X159958187Y-94391501D01*
X159797140Y-94463205D01*
X159797135Y-94463207D01*
X159791203Y-94465849D01*
X159785949Y-94469665D01*
X159785944Y-94469669D01*
X159643321Y-94573290D01*
X159643314Y-94573295D01*
X159638062Y-94577112D01*
X159633717Y-94581937D01*
X159633712Y-94581942D01*
X159515746Y-94712956D01*
X159515741Y-94712962D01*
X159511400Y-94717784D01*
X159508155Y-94723404D01*
X159508151Y-94723410D01*
X159420002Y-94876089D01*
X159419999Y-94876094D01*
X159416754Y-94881716D01*
X159414748Y-94887888D01*
X159414746Y-94887894D01*
X159360266Y-95055564D01*
X159360264Y-95055573D01*
X159358259Y-95061744D01*
X159357581Y-95068194D01*
X159357579Y-95068204D01*
X159340583Y-95229926D01*
X159338473Y-95250000D01*
X159339152Y-95256460D01*
X159357579Y-95431795D01*
X159357580Y-95431803D01*
X159358259Y-95438256D01*
X159360264Y-95444428D01*
X159360266Y-95444435D01*
X159414746Y-95612105D01*
X159416754Y-95618284D01*
X159420001Y-95623908D01*
X159420002Y-95623910D01*
X159467831Y-95706753D01*
X159511400Y-95782216D01*
X159515744Y-95787041D01*
X159515746Y-95787043D01*
X159606475Y-95887807D01*
X159638062Y-95922888D01*
X159643320Y-95926708D01*
X159643321Y-95926709D01*
X159674754Y-95949546D01*
X159791203Y-96034151D01*
X159964130Y-96111144D01*
X160149287Y-96150500D01*
X160332076Y-96150500D01*
X160338579Y-96150500D01*
X160523736Y-96111144D01*
X160696663Y-96034151D01*
X160849804Y-95922888D01*
X160976466Y-95782216D01*
X161071112Y-95618284D01*
X161129607Y-95438256D01*
X161147254Y-95270345D01*
X161158654Y-95229926D01*
X161182891Y-95195631D01*
X161367219Y-95011303D01*
X161416582Y-94981054D01*
X161474298Y-94976512D01*
X161527785Y-94998667D01*
X161565385Y-95042690D01*
X161578900Y-95098985D01*
X161578900Y-96789081D01*
X161569461Y-96836534D01*
X161542581Y-96876762D01*
X160296161Y-98123181D01*
X160255933Y-98150061D01*
X160208480Y-98159500D01*
X160149287Y-98159500D01*
X160142928Y-98160851D01*
X160142924Y-98160852D01*
X159970492Y-98197503D01*
X159970485Y-98197505D01*
X159964130Y-98198856D01*
X159958195Y-98201498D01*
X159958187Y-98201501D01*
X159797140Y-98273205D01*
X159797135Y-98273207D01*
X159791203Y-98275849D01*
X159785949Y-98279665D01*
X159785944Y-98279669D01*
X159643321Y-98383290D01*
X159643314Y-98383295D01*
X159638062Y-98387112D01*
X159633717Y-98391937D01*
X159633712Y-98391942D01*
X159515746Y-98522956D01*
X159515741Y-98522962D01*
X159511400Y-98527784D01*
X159508155Y-98533404D01*
X159508151Y-98533410D01*
X159420002Y-98686089D01*
X159419999Y-98686094D01*
X159416754Y-98691716D01*
X159414748Y-98697888D01*
X159414746Y-98697894D01*
X159360266Y-98865564D01*
X159360264Y-98865573D01*
X159358259Y-98871744D01*
X159357581Y-98878194D01*
X159357579Y-98878204D01*
X159340583Y-99039926D01*
X159338473Y-99060000D01*
X122638341Y-99060000D01*
X122689866Y-98909913D01*
X122729500Y-98672399D01*
X122729500Y-98431601D01*
X122689866Y-98194087D01*
X122611679Y-97966336D01*
X122497072Y-97754561D01*
X122493922Y-97750514D01*
X122493917Y-97750506D01*
X122386167Y-97612069D01*
X122362312Y-97559640D01*
X122364720Y-97502090D01*
X122392870Y-97451837D01*
X122440686Y-97419725D01*
X122471331Y-97408296D01*
X122586546Y-97322046D01*
X122672796Y-97206831D01*
X122723091Y-97071983D01*
X122729500Y-97012373D01*
X122729499Y-95011628D01*
X122723091Y-94952017D01*
X122672796Y-94817169D01*
X122586546Y-94701954D01*
X122471331Y-94615704D01*
X122380810Y-94581942D01*
X122343752Y-94568120D01*
X122343750Y-94568119D01*
X122336483Y-94565409D01*
X122328770Y-94564579D01*
X122328767Y-94564579D01*
X122280180Y-94559355D01*
X122280169Y-94559354D01*
X122276873Y-94559000D01*
X122273550Y-94559000D01*
X120184439Y-94559000D01*
X120184420Y-94559000D01*
X120181128Y-94559001D01*
X120177850Y-94559353D01*
X120177838Y-94559354D01*
X120129231Y-94564579D01*
X120129225Y-94564580D01*
X120121517Y-94565409D01*
X120114252Y-94568118D01*
X120114246Y-94568120D01*
X119994980Y-94612604D01*
X119994978Y-94612604D01*
X119986669Y-94615704D01*
X119979572Y-94621016D01*
X119979568Y-94621019D01*
X119878550Y-94696641D01*
X119878546Y-94696644D01*
X119871454Y-94701954D01*
X119866144Y-94709046D01*
X119866141Y-94709050D01*
X119790519Y-94810068D01*
X119790516Y-94810072D01*
X119785204Y-94817169D01*
X119782104Y-94825478D01*
X119782104Y-94825480D01*
X119737620Y-94944747D01*
X119737619Y-94944750D01*
X119734909Y-94952017D01*
X119734079Y-94959727D01*
X119734079Y-94959732D01*
X119728855Y-95008319D01*
X119728854Y-95008331D01*
X119728500Y-95011627D01*
X119728500Y-95014948D01*
X119728500Y-95014949D01*
X119728500Y-97009060D01*
X119728500Y-97009078D01*
X119728501Y-97012372D01*
X119728853Y-97015650D01*
X119728854Y-97015661D01*
X119734079Y-97064268D01*
X119734080Y-97064273D01*
X119734909Y-97071983D01*
X119737619Y-97079249D01*
X119737620Y-97079253D01*
X119749673Y-97111568D01*
X119785204Y-97206831D01*
X119790518Y-97213930D01*
X119790519Y-97213931D01*
X119850319Y-97293814D01*
X119871454Y-97322046D01*
X119986669Y-97408296D01*
X120017309Y-97419724D01*
X120017312Y-97419725D01*
X120065129Y-97451838D01*
X120093279Y-97502091D01*
X120095687Y-97559640D01*
X120071833Y-97612069D01*
X119964077Y-97750514D01*
X119964072Y-97750521D01*
X119960928Y-97754561D01*
X119958490Y-97759065D01*
X119958488Y-97759069D01*
X119848758Y-97961831D01*
X119848753Y-97961840D01*
X119846321Y-97966336D01*
X119844659Y-97971176D01*
X119844656Y-97971184D01*
X119769800Y-98189233D01*
X119768134Y-98194087D01*
X119767291Y-98199133D01*
X119767289Y-98199145D01*
X119729344Y-98426538D01*
X119729343Y-98426548D01*
X119728500Y-98431601D01*
X119728500Y-98672399D01*
X119729343Y-98677452D01*
X119729344Y-98677461D01*
X119767289Y-98904854D01*
X119767291Y-98904863D01*
X119768134Y-98909913D01*
X119769799Y-98914765D01*
X119769800Y-98914766D01*
X119821876Y-99066460D01*
X119846321Y-99137664D01*
X119960928Y-99349439D01*
X120108829Y-99539463D01*
X120112602Y-99542936D01*
X120282220Y-99699081D01*
X120282223Y-99699083D01*
X120285990Y-99702551D01*
X120297158Y-99709848D01*
X120309929Y-99718192D01*
X120351161Y-99762983D01*
X120366106Y-99822000D01*
X120351161Y-99881017D01*
X120309929Y-99925808D01*
X120290281Y-99938645D01*
X120290276Y-99938648D01*
X120285990Y-99941449D01*
X120282230Y-99944909D01*
X120282220Y-99944918D01*
X120112602Y-100101063D01*
X120112597Y-100101067D01*
X120108829Y-100104537D01*
X120105685Y-100108576D01*
X120105678Y-100108584D01*
X119964077Y-100290514D01*
X119964072Y-100290521D01*
X119960928Y-100294561D01*
X119958490Y-100299065D01*
X119958488Y-100299069D01*
X119848758Y-100501831D01*
X119848753Y-100501840D01*
X119846321Y-100506336D01*
X119844659Y-100511176D01*
X119844656Y-100511184D01*
X119769800Y-100729233D01*
X119768134Y-100734087D01*
X119767291Y-100739133D01*
X119767289Y-100739145D01*
X119729344Y-100966538D01*
X119729343Y-100966548D01*
X119728500Y-100971601D01*
X119728500Y-101212399D01*
X104140000Y-101212399D01*
X104140000Y-91059216D01*
X126148388Y-91059216D01*
X126148569Y-91062794D01*
X126148569Y-91062803D01*
X126151083Y-91112491D01*
X126151084Y-91112503D01*
X126151265Y-91116073D01*
X126170610Y-91231280D01*
X126173394Y-91237902D01*
X126201985Y-91305910D01*
X126215884Y-91338969D01*
X126243864Y-91388549D01*
X126312656Y-91482978D01*
X126315081Y-91485605D01*
X128410831Y-93756001D01*
X128436367Y-93798056D01*
X128443154Y-93844127D01*
X128443500Y-93844127D01*
X128443500Y-93847441D01*
X128443500Y-93847442D01*
X128443500Y-95636560D01*
X128443500Y-95636578D01*
X128443501Y-95639872D01*
X128443853Y-95643150D01*
X128443854Y-95643161D01*
X128449079Y-95691768D01*
X128449080Y-95691773D01*
X128449909Y-95699483D01*
X128452619Y-95706749D01*
X128452620Y-95706753D01*
X128472853Y-95761000D01*
X128500204Y-95834331D01*
X128586454Y-95949546D01*
X128701669Y-96035796D01*
X128836517Y-96086091D01*
X128896127Y-96092500D01*
X130545109Y-96092499D01*
X130594802Y-96102892D01*
X130636166Y-96132328D01*
X130715606Y-96218267D01*
X130759629Y-96255867D01*
X130808812Y-96288730D01*
X130852352Y-96317824D01*
X130852355Y-96317825D01*
X130858435Y-96321888D01*
X130969924Y-96363018D01*
X131026219Y-96376533D01*
X131144224Y-96390500D01*
X133945503Y-96390500D01*
X133949163Y-96390500D01*
X134067168Y-96376533D01*
X134123463Y-96363018D01*
X134234952Y-96321888D01*
X134333758Y-96255867D01*
X134377781Y-96218267D01*
X134458441Y-96131008D01*
X134462014Y-96124627D01*
X134466312Y-96118712D01*
X134467258Y-96119399D01*
X134497263Y-96085922D01*
X134547210Y-96064845D01*
X134601375Y-96067091D01*
X134633361Y-96075662D01*
X134633368Y-96075663D01*
X134638592Y-96077063D01*
X134874000Y-96097659D01*
X135109408Y-96077063D01*
X135146623Y-96067090D01*
X135200779Y-96064843D01*
X135250720Y-96085910D01*
X135280746Y-96119398D01*
X135281689Y-96118714D01*
X135285987Y-96124630D01*
X135289559Y-96131008D01*
X135370219Y-96218267D01*
X135414242Y-96255867D01*
X135463425Y-96288730D01*
X135506965Y-96317824D01*
X135506968Y-96317825D01*
X135513048Y-96321888D01*
X135624537Y-96363018D01*
X135680832Y-96376533D01*
X135798837Y-96390500D01*
X142365947Y-96390500D01*
X142370000Y-96390500D01*
X142500834Y-96373275D01*
X142562834Y-96356662D01*
X142684750Y-96306163D01*
X142789442Y-96225829D01*
X142834829Y-96180442D01*
X142915163Y-96075750D01*
X142965662Y-95953834D01*
X142982275Y-95891834D01*
X142999500Y-95761000D01*
X142999500Y-91056000D01*
X142982275Y-90925166D01*
X142965662Y-90863166D01*
X142915163Y-90741250D01*
X142834829Y-90636558D01*
X142789442Y-90591171D01*
X142761714Y-90569894D01*
X142691199Y-90515785D01*
X142691196Y-90515783D01*
X142684750Y-90510837D01*
X142677241Y-90507726D01*
X142677240Y-90507726D01*
X142566589Y-90461893D01*
X142566584Y-90461891D01*
X142562834Y-90460338D01*
X142558913Y-90459287D01*
X142558909Y-90459286D01*
X142504754Y-90444775D01*
X142504748Y-90444773D01*
X142500834Y-90443725D01*
X142496819Y-90443196D01*
X142496807Y-90443194D01*
X142374019Y-90427029D01*
X142374017Y-90427028D01*
X142370000Y-90426500D01*
X142365947Y-90426500D01*
X142159542Y-90426500D01*
X142133761Y-90423790D01*
X142087008Y-90413852D01*
X142087005Y-90413851D01*
X142080646Y-90412500D01*
X141891354Y-90412500D01*
X141884995Y-90413851D01*
X141884991Y-90413852D01*
X141838239Y-90423790D01*
X141812458Y-90426500D01*
X141143542Y-90426500D01*
X141117761Y-90423790D01*
X141071008Y-90413852D01*
X141071005Y-90413851D01*
X141064646Y-90412500D01*
X140875354Y-90412500D01*
X140868995Y-90413851D01*
X140868991Y-90413852D01*
X140822239Y-90423790D01*
X140796458Y-90426500D01*
X140127542Y-90426500D01*
X140101761Y-90423790D01*
X140055008Y-90413852D01*
X140055005Y-90413851D01*
X140048646Y-90412500D01*
X139859354Y-90412500D01*
X139852995Y-90413851D01*
X139852991Y-90413852D01*
X139806239Y-90423790D01*
X139780458Y-90426500D01*
X139111542Y-90426500D01*
X139085761Y-90423790D01*
X139039008Y-90413852D01*
X139039005Y-90413851D01*
X139032646Y-90412500D01*
X138843354Y-90412500D01*
X138836995Y-90413851D01*
X138836991Y-90413852D01*
X138790239Y-90423790D01*
X138764458Y-90426500D01*
X138095542Y-90426500D01*
X138069761Y-90423790D01*
X138023008Y-90413852D01*
X138023005Y-90413851D01*
X138016646Y-90412500D01*
X137827354Y-90412500D01*
X137820995Y-90413851D01*
X137820991Y-90413852D01*
X137774239Y-90423790D01*
X137748458Y-90426500D01*
X137079542Y-90426500D01*
X137053761Y-90423790D01*
X137007008Y-90413852D01*
X137007005Y-90413851D01*
X137000646Y-90412500D01*
X136811354Y-90412500D01*
X136804995Y-90413851D01*
X136804991Y-90413852D01*
X136758239Y-90423790D01*
X136732458Y-90426500D01*
X136063542Y-90426500D01*
X136037761Y-90423790D01*
X135991008Y-90413852D01*
X135991005Y-90413851D01*
X135984646Y-90412500D01*
X135795354Y-90412500D01*
X135788995Y-90413851D01*
X135788991Y-90413852D01*
X135742239Y-90423790D01*
X135716458Y-90426500D01*
X135047542Y-90426500D01*
X135021761Y-90423790D01*
X134975008Y-90413852D01*
X134975005Y-90413851D01*
X134968646Y-90412500D01*
X134779354Y-90412500D01*
X134772995Y-90413851D01*
X134772991Y-90413852D01*
X134726239Y-90423790D01*
X134700458Y-90426500D01*
X134031542Y-90426500D01*
X134005761Y-90423790D01*
X133959008Y-90413852D01*
X133959005Y-90413851D01*
X133952646Y-90412500D01*
X133763354Y-90412500D01*
X133756995Y-90413851D01*
X133756991Y-90413852D01*
X133710239Y-90423790D01*
X133684458Y-90426500D01*
X133015542Y-90426500D01*
X132989761Y-90423790D01*
X132943008Y-90413852D01*
X132943005Y-90413851D01*
X132936646Y-90412500D01*
X132747354Y-90412500D01*
X132740995Y-90413851D01*
X132740991Y-90413852D01*
X132694239Y-90423790D01*
X132668458Y-90426500D01*
X131999542Y-90426500D01*
X131973761Y-90423790D01*
X131927008Y-90413852D01*
X131927005Y-90413851D01*
X131920646Y-90412500D01*
X131731354Y-90412500D01*
X131724995Y-90413851D01*
X131724991Y-90413852D01*
X131678239Y-90423790D01*
X131652458Y-90426500D01*
X130983542Y-90426500D01*
X130957761Y-90423790D01*
X130911008Y-90413852D01*
X130911005Y-90413851D01*
X130904646Y-90412500D01*
X130715354Y-90412500D01*
X130708995Y-90413851D01*
X130708991Y-90413852D01*
X130662239Y-90423790D01*
X130636458Y-90426500D01*
X129967542Y-90426500D01*
X129941761Y-90423790D01*
X129895008Y-90413852D01*
X129895005Y-90413851D01*
X129888646Y-90412500D01*
X129699354Y-90412500D01*
X129692995Y-90413851D01*
X129692991Y-90413852D01*
X129646239Y-90423790D01*
X129620458Y-90426500D01*
X128951542Y-90426500D01*
X128925761Y-90423790D01*
X128879008Y-90413852D01*
X128879005Y-90413851D01*
X128872646Y-90412500D01*
X128683354Y-90412500D01*
X128676995Y-90413851D01*
X128676991Y-90413852D01*
X128630239Y-90423790D01*
X128604458Y-90426500D01*
X127935542Y-90426500D01*
X127909761Y-90423790D01*
X127863008Y-90413852D01*
X127863005Y-90413851D01*
X127856646Y-90412500D01*
X127667354Y-90412500D01*
X127660995Y-90413851D01*
X127660991Y-90413852D01*
X127614239Y-90423790D01*
X127588458Y-90426500D01*
X126775215Y-90426500D01*
X126771652Y-90426914D01*
X126771643Y-90426915D01*
X126662736Y-90439585D01*
X126662729Y-90439586D01*
X126659172Y-90440000D01*
X126655679Y-90440823D01*
X126655678Y-90440824D01*
X126607268Y-90452241D01*
X126607250Y-90452246D01*
X126603762Y-90453069D01*
X126600393Y-90454288D01*
X126600376Y-90454294D01*
X126500682Y-90490396D01*
X126500679Y-90490397D01*
X126493920Y-90492845D01*
X126487903Y-90496778D01*
X126487899Y-90496781D01*
X126399154Y-90554804D01*
X126399138Y-90554815D01*
X126396143Y-90556774D01*
X126393388Y-90559069D01*
X126393379Y-90559077D01*
X126355164Y-90590931D01*
X126355155Y-90590939D01*
X126352413Y-90593225D01*
X126349964Y-90595800D01*
X126349948Y-90595816D01*
X126276871Y-90672685D01*
X126276866Y-90672690D01*
X126271921Y-90677893D01*
X126268300Y-90684092D01*
X126268297Y-90684098D01*
X126214823Y-90775677D01*
X126214815Y-90775691D01*
X126213014Y-90778777D01*
X126211576Y-90782059D01*
X126211574Y-90782065D01*
X126191622Y-90827634D01*
X126191617Y-90827645D01*
X126190181Y-90830927D01*
X126189132Y-90834355D01*
X126189129Y-90834364D01*
X126158107Y-90935769D01*
X126158105Y-90935776D01*
X126156006Y-90942640D01*
X126155537Y-90949807D01*
X126155537Y-90949811D01*
X126148622Y-91055626D01*
X126148621Y-91055636D01*
X126148388Y-91059216D01*
X104140000Y-91059216D01*
X104140000Y-86868000D01*
X120074740Y-86868000D01*
X120075419Y-86874460D01*
X120093846Y-87049795D01*
X120093847Y-87049803D01*
X120094526Y-87056256D01*
X120096531Y-87062428D01*
X120096533Y-87062435D01*
X120107824Y-87097184D01*
X120153021Y-87236284D01*
X120156268Y-87241908D01*
X120156269Y-87241910D01*
X120204356Y-87325200D01*
X120247667Y-87400216D01*
X120252011Y-87405041D01*
X120252013Y-87405043D01*
X120345824Y-87509230D01*
X120374329Y-87540888D01*
X120527470Y-87652151D01*
X120700397Y-87729144D01*
X120885554Y-87768500D01*
X121068343Y-87768500D01*
X121074846Y-87768500D01*
X121260003Y-87729144D01*
X121432930Y-87652151D01*
X121586071Y-87540888D01*
X121712733Y-87400216D01*
X121807379Y-87236284D01*
X121865874Y-87056256D01*
X121883521Y-86888345D01*
X121894921Y-86847926D01*
X121919158Y-86813631D01*
X122472971Y-86259819D01*
X122513200Y-86232939D01*
X122560653Y-86223500D01*
X129915348Y-86223500D01*
X129962801Y-86232939D01*
X130003029Y-86259819D01*
X130236506Y-86493296D01*
X130243958Y-86501485D01*
X130248014Y-86507877D01*
X130253698Y-86513215D01*
X130253700Y-86513217D01*
X130297023Y-86553900D01*
X130299820Y-86556611D01*
X130319329Y-86576120D01*
X130322509Y-86578587D01*
X130331371Y-86586155D01*
X130344820Y-86598785D01*
X130357532Y-86610723D01*
X130357534Y-86610724D01*
X130363218Y-86616062D01*
X130370051Y-86619818D01*
X130370052Y-86619819D01*
X130380773Y-86625713D01*
X130397034Y-86636394D01*
X130412864Y-86648673D01*
X130452955Y-86666021D01*
X130463435Y-86671155D01*
X130501708Y-86692197D01*
X130521116Y-86697180D01*
X130539519Y-86703481D01*
X130550744Y-86708339D01*
X130550746Y-86708339D01*
X130557904Y-86711437D01*
X130601058Y-86718271D01*
X130612444Y-86720629D01*
X130654781Y-86731500D01*
X130674817Y-86731500D01*
X130694215Y-86733027D01*
X130713996Y-86736160D01*
X130757471Y-86732049D01*
X130769142Y-86731500D01*
X144967782Y-86731500D01*
X145018217Y-86742220D01*
X145059931Y-86772527D01*
X145088529Y-86804288D01*
X145241670Y-86915551D01*
X145414597Y-86992544D01*
X145599754Y-87031900D01*
X145782543Y-87031900D01*
X145789046Y-87031900D01*
X145974203Y-86992544D01*
X146147130Y-86915551D01*
X146300271Y-86804288D01*
X146426933Y-86663616D01*
X146521579Y-86499684D01*
X146580074Y-86319656D01*
X146599860Y-86131400D01*
X146580074Y-85943144D01*
X146521579Y-85763116D01*
X146426933Y-85599184D01*
X146300271Y-85458512D01*
X146295013Y-85454692D01*
X146295011Y-85454690D01*
X146152388Y-85351069D01*
X146152387Y-85351068D01*
X146147130Y-85347249D01*
X146141192Y-85344605D01*
X145980145Y-85272901D01*
X145980140Y-85272899D01*
X145974203Y-85270256D01*
X145967844Y-85268904D01*
X145967840Y-85268903D01*
X145795408Y-85232252D01*
X145795405Y-85232251D01*
X145789046Y-85230900D01*
X145599754Y-85230900D01*
X145593395Y-85232251D01*
X145593391Y-85232252D01*
X145420959Y-85268903D01*
X145420952Y-85268905D01*
X145414597Y-85270256D01*
X145408662Y-85272898D01*
X145408654Y-85272901D01*
X145247607Y-85344605D01*
X145247602Y-85344607D01*
X145241670Y-85347249D01*
X145236416Y-85351065D01*
X145236411Y-85351069D01*
X145090861Y-85456818D01*
X145056294Y-85474431D01*
X145017976Y-85480500D01*
X131044253Y-85480500D01*
X130996800Y-85471061D01*
X130956572Y-85444181D01*
X130723086Y-85210695D01*
X130715642Y-85202514D01*
X130711586Y-85196123D01*
X130662575Y-85150098D01*
X130659778Y-85147387D01*
X130643027Y-85130636D01*
X130640271Y-85127880D01*
X130637090Y-85125412D01*
X130628214Y-85117830D01*
X130602069Y-85093278D01*
X130602067Y-85093276D01*
X130596382Y-85087938D01*
X130589549Y-85084182D01*
X130589543Y-85084177D01*
X130578825Y-85078285D01*
X130562566Y-85067606D01*
X130552895Y-85060104D01*
X130552892Y-85060102D01*
X130546736Y-85055327D01*
X130539579Y-85052229D01*
X130539576Y-85052228D01*
X130506649Y-85037978D01*
X130496163Y-85032841D01*
X130464732Y-85015562D01*
X130464723Y-85015558D01*
X130457892Y-85011803D01*
X130450335Y-85009862D01*
X130450331Y-85009861D01*
X130438488Y-85006820D01*
X130420084Y-85000519D01*
X130408857Y-84995660D01*
X130408850Y-84995658D01*
X130401696Y-84992562D01*
X130393992Y-84991341D01*
X130393990Y-84991341D01*
X130358559Y-84985729D01*
X130347124Y-84983361D01*
X130312371Y-84974438D01*
X130312363Y-84974437D01*
X130304819Y-84972500D01*
X130297023Y-84972500D01*
X130284783Y-84972500D01*
X130265397Y-84970974D01*
X130245604Y-84967840D01*
X130237838Y-84968574D01*
X130237835Y-84968574D01*
X130202124Y-84971950D01*
X130190455Y-84972500D01*
X122327971Y-84972500D01*
X122316918Y-84971979D01*
X122309532Y-84970328D01*
X122301734Y-84970573D01*
X122242344Y-84972439D01*
X122238450Y-84972500D01*
X122210850Y-84972500D01*
X122206999Y-84972986D01*
X122206968Y-84972988D01*
X122206840Y-84973005D01*
X122195229Y-84973918D01*
X122159372Y-84975045D01*
X122159365Y-84975046D01*
X122151573Y-84975291D01*
X122144088Y-84977465D01*
X122144072Y-84977468D01*
X122132326Y-84980881D01*
X122113283Y-84984825D01*
X122101149Y-84986358D01*
X122101148Y-84986358D01*
X122093408Y-84987336D01*
X122086158Y-84990205D01*
X122086151Y-84990208D01*
X122052798Y-85003413D01*
X122041754Y-85007194D01*
X122007305Y-85017203D01*
X122007295Y-85017207D01*
X121999810Y-85019382D01*
X121993100Y-85023349D01*
X121993098Y-85023351D01*
X121989705Y-85025357D01*
X121982560Y-85029583D01*
X121965100Y-85038136D01*
X121946468Y-85045514D01*
X121940165Y-85050092D01*
X121940158Y-85050097D01*
X121911139Y-85071181D01*
X121901379Y-85077592D01*
X121870494Y-85095857D01*
X121870484Y-85095864D01*
X121863779Y-85099830D01*
X121858263Y-85105345D01*
X121858260Y-85105348D01*
X121849607Y-85114000D01*
X121834824Y-85126626D01*
X121824927Y-85133817D01*
X121824920Y-85133823D01*
X121818613Y-85138406D01*
X121813646Y-85144408D01*
X121813635Y-85144420D01*
X121790770Y-85172059D01*
X121782910Y-85180697D01*
X121032428Y-85931181D01*
X120992200Y-85958061D01*
X120944747Y-85967500D01*
X120885554Y-85967500D01*
X120879195Y-85968851D01*
X120879191Y-85968852D01*
X120706759Y-86005503D01*
X120706752Y-86005505D01*
X120700397Y-86006856D01*
X120694462Y-86009498D01*
X120694454Y-86009501D01*
X120533407Y-86081205D01*
X120533402Y-86081207D01*
X120527470Y-86083849D01*
X120522216Y-86087665D01*
X120522211Y-86087669D01*
X120379588Y-86191290D01*
X120379581Y-86191295D01*
X120374329Y-86195112D01*
X120369984Y-86199937D01*
X120369979Y-86199942D01*
X120252013Y-86330956D01*
X120252008Y-86330962D01*
X120247667Y-86335784D01*
X120244422Y-86341404D01*
X120244418Y-86341410D01*
X120156269Y-86494089D01*
X120156266Y-86494094D01*
X120153021Y-86499716D01*
X120151015Y-86505888D01*
X120151013Y-86505894D01*
X120096533Y-86673564D01*
X120096531Y-86673573D01*
X120094526Y-86679744D01*
X120093848Y-86686194D01*
X120093846Y-86686204D01*
X120076850Y-86847926D01*
X120074740Y-86868000D01*
X104140000Y-86868000D01*
X104140000Y-83176700D01*
X106085732Y-83176700D01*
X106105565Y-83403392D01*
X106106962Y-83408607D01*
X106106964Y-83408616D01*
X106163058Y-83617963D01*
X106163061Y-83617971D01*
X106164461Y-83623196D01*
X106260632Y-83829434D01*
X106263739Y-83833871D01*
X106263740Y-83833873D01*
X106283231Y-83861709D01*
X106391153Y-84015839D01*
X106552061Y-84176747D01*
X106738466Y-84307268D01*
X106944704Y-84403439D01*
X107164508Y-84462335D01*
X107391200Y-84482168D01*
X107617892Y-84462335D01*
X107837696Y-84403439D01*
X108043934Y-84307268D01*
X108230339Y-84176747D01*
X108391247Y-84015839D01*
X108521768Y-83829434D01*
X108617939Y-83623196D01*
X108676835Y-83403392D01*
X108696668Y-83176700D01*
X111648332Y-83176700D01*
X111668165Y-83403392D01*
X111669562Y-83408607D01*
X111669564Y-83408616D01*
X111725658Y-83617963D01*
X111725661Y-83617971D01*
X111727061Y-83623196D01*
X111823232Y-83829434D01*
X111826339Y-83833871D01*
X111826340Y-83833873D01*
X111845831Y-83861709D01*
X111953753Y-84015839D01*
X112114661Y-84176747D01*
X112301066Y-84307268D01*
X112507304Y-84403439D01*
X112727108Y-84462335D01*
X112953800Y-84482168D01*
X113180492Y-84462335D01*
X113400296Y-84403439D01*
X113606534Y-84307268D01*
X113792939Y-84176747D01*
X113953847Y-84015839D01*
X114084368Y-83829434D01*
X114111418Y-83771424D01*
X114157175Y-83719249D01*
X114223800Y-83699830D01*
X114290425Y-83719249D01*
X114336181Y-83771424D01*
X114363232Y-83829434D01*
X114366339Y-83833871D01*
X114366340Y-83833873D01*
X114385831Y-83861709D01*
X114493753Y-84015839D01*
X114654661Y-84176747D01*
X114841066Y-84307268D01*
X115047304Y-84403439D01*
X115267108Y-84462335D01*
X115493800Y-84482168D01*
X115720492Y-84462335D01*
X115940296Y-84403439D01*
X116146534Y-84307268D01*
X116332939Y-84176747D01*
X116493847Y-84015839D01*
X116624368Y-83829434D01*
X116651418Y-83771424D01*
X116697175Y-83719249D01*
X116763800Y-83699830D01*
X116830425Y-83719249D01*
X116876181Y-83771424D01*
X116903232Y-83829434D01*
X116906339Y-83833871D01*
X116906340Y-83833873D01*
X116925831Y-83861709D01*
X117033753Y-84015839D01*
X117194661Y-84176747D01*
X117381066Y-84307268D01*
X117587304Y-84403439D01*
X117807108Y-84462335D01*
X118033800Y-84482168D01*
X118260492Y-84462335D01*
X118480296Y-84403439D01*
X118686534Y-84307268D01*
X118872939Y-84176747D01*
X119033847Y-84015839D01*
X119164368Y-83829434D01*
X119191418Y-83771424D01*
X119237175Y-83719249D01*
X119303800Y-83699830D01*
X119370425Y-83719249D01*
X119416181Y-83771424D01*
X119443232Y-83829434D01*
X119446339Y-83833871D01*
X119446340Y-83833873D01*
X119465831Y-83861709D01*
X119573753Y-84015839D01*
X119734661Y-84176747D01*
X119921066Y-84307268D01*
X120127304Y-84403439D01*
X120347108Y-84462335D01*
X120573800Y-84482168D01*
X120800492Y-84462335D01*
X121020296Y-84403439D01*
X121226534Y-84307268D01*
X121412939Y-84176747D01*
X121573847Y-84015839D01*
X121704368Y-83829434D01*
X121800539Y-83623196D01*
X121859435Y-83403392D01*
X121879268Y-83176700D01*
X124846332Y-83176700D01*
X124866165Y-83403392D01*
X124867562Y-83408607D01*
X124867564Y-83408616D01*
X124923658Y-83617963D01*
X124923661Y-83617971D01*
X124925061Y-83623196D01*
X125021232Y-83829434D01*
X125024339Y-83833871D01*
X125024340Y-83833873D01*
X125043831Y-83861709D01*
X125151753Y-84015839D01*
X125312661Y-84176747D01*
X125499066Y-84307268D01*
X125705304Y-84403439D01*
X125925108Y-84462335D01*
X126151800Y-84482168D01*
X126378492Y-84462335D01*
X126598296Y-84403439D01*
X126804534Y-84307268D01*
X126990939Y-84176747D01*
X127151847Y-84015839D01*
X127282368Y-83829434D01*
X127309418Y-83771424D01*
X127355175Y-83719249D01*
X127421800Y-83699830D01*
X127488425Y-83719249D01*
X127534181Y-83771424D01*
X127561232Y-83829434D01*
X127564339Y-83833871D01*
X127564340Y-83833873D01*
X127583831Y-83861709D01*
X127691753Y-84015839D01*
X127852661Y-84176747D01*
X128039066Y-84307268D01*
X128245304Y-84403439D01*
X128465108Y-84462335D01*
X128691800Y-84482168D01*
X128918492Y-84462335D01*
X129138296Y-84403439D01*
X129344534Y-84307268D01*
X129530939Y-84176747D01*
X129691847Y-84015839D01*
X129822368Y-83829434D01*
X129849418Y-83771424D01*
X129895175Y-83719249D01*
X129961800Y-83699830D01*
X130028425Y-83719249D01*
X130074181Y-83771424D01*
X130101232Y-83829434D01*
X130104339Y-83833871D01*
X130104340Y-83833873D01*
X130123831Y-83861709D01*
X130231753Y-84015839D01*
X130392661Y-84176747D01*
X130579066Y-84307268D01*
X130785304Y-84403439D01*
X131005108Y-84462335D01*
X131231800Y-84482168D01*
X131458492Y-84462335D01*
X131678296Y-84403439D01*
X131884534Y-84307268D01*
X132070939Y-84176747D01*
X132231847Y-84015839D01*
X132362368Y-83829434D01*
X132389418Y-83771424D01*
X132435175Y-83719249D01*
X132501800Y-83699830D01*
X132568425Y-83719249D01*
X132614181Y-83771424D01*
X132641232Y-83829434D01*
X132644339Y-83833871D01*
X132644340Y-83833873D01*
X132663831Y-83861709D01*
X132771753Y-84015839D01*
X132932661Y-84176747D01*
X133119066Y-84307268D01*
X133325304Y-84403439D01*
X133545108Y-84462335D01*
X133771800Y-84482168D01*
X133998492Y-84462335D01*
X134218296Y-84403439D01*
X134424534Y-84307268D01*
X134610939Y-84176747D01*
X134771847Y-84015839D01*
X134879769Y-83861709D01*
X134884413Y-83855077D01*
X134928731Y-83816211D01*
X134985988Y-83802200D01*
X146100779Y-83802200D01*
X146151214Y-83812920D01*
X146192928Y-83843227D01*
X146206129Y-83857888D01*
X146359270Y-83969151D01*
X146532197Y-84046144D01*
X146717354Y-84085500D01*
X146900143Y-84085500D01*
X146906646Y-84085500D01*
X147091803Y-84046144D01*
X147264730Y-83969151D01*
X147318116Y-83930363D01*
X147381272Y-83907065D01*
X147447295Y-83920198D01*
X147496727Y-83965893D01*
X147515000Y-84030683D01*
X147515000Y-85947625D01*
X147514478Y-85958680D01*
X147512827Y-85966067D01*
X147513071Y-85973853D01*
X147513071Y-85973861D01*
X147514939Y-86033273D01*
X147515000Y-86037168D01*
X147515000Y-86064750D01*
X147515488Y-86068619D01*
X147515489Y-86068625D01*
X147515504Y-86068743D01*
X147516418Y-86080366D01*
X147517545Y-86116230D01*
X147517546Y-86116237D01*
X147517791Y-86124027D01*
X147519967Y-86131519D01*
X147519968Y-86131521D01*
X147523379Y-86143262D01*
X147527325Y-86162315D01*
X147529836Y-86182192D01*
X147532706Y-86189442D01*
X147532708Y-86189448D01*
X147545914Y-86222804D01*
X147549697Y-86233851D01*
X147561882Y-86275790D01*
X147565853Y-86282505D01*
X147565854Y-86282507D01*
X147572081Y-86293037D01*
X147580636Y-86310499D01*
X147585142Y-86321880D01*
X147585143Y-86321883D01*
X147588014Y-86329132D01*
X147609940Y-86359312D01*
X147613681Y-86364460D01*
X147620093Y-86374222D01*
X147638356Y-86405102D01*
X147638359Y-86405107D01*
X147642330Y-86411820D01*
X147647845Y-86417335D01*
X147656490Y-86425980D01*
X147669126Y-86440774D01*
X147676319Y-86450675D01*
X147676323Y-86450679D01*
X147680906Y-86456987D01*
X147686915Y-86461958D01*
X147686916Y-86461959D01*
X147714557Y-86484825D01*
X147723198Y-86492688D01*
X147905038Y-86674529D01*
X147929278Y-86708827D01*
X147940678Y-86749248D01*
X147955298Y-86888348D01*
X147958326Y-86917156D01*
X147960331Y-86923328D01*
X147960333Y-86923335D01*
X148005530Y-87062435D01*
X148016821Y-87097184D01*
X148111467Y-87261116D01*
X148115811Y-87265941D01*
X148115813Y-87265943D01*
X148174985Y-87331660D01*
X148238129Y-87401788D01*
X148391270Y-87513051D01*
X148564197Y-87590044D01*
X148749354Y-87629400D01*
X148932143Y-87629400D01*
X148938646Y-87629400D01*
X149123803Y-87590044D01*
X149296730Y-87513051D01*
X149297247Y-87514212D01*
X149351988Y-87499539D01*
X149406754Y-87514208D01*
X149407270Y-87513051D01*
X149580197Y-87590044D01*
X149765354Y-87629400D01*
X149948143Y-87629400D01*
X149954646Y-87629400D01*
X149989719Y-87621945D01*
X150044447Y-87622661D01*
X150093536Y-87646869D01*
X150127421Y-87689852D01*
X150139500Y-87743235D01*
X150139500Y-92478953D01*
X150131264Y-92523391D01*
X150107650Y-92561925D01*
X150046213Y-92630156D01*
X150046208Y-92630162D01*
X150041867Y-92634984D01*
X150038622Y-92640604D01*
X150038618Y-92640610D01*
X149950469Y-92793289D01*
X149950466Y-92793294D01*
X149947221Y-92798916D01*
X149945215Y-92805088D01*
X149945213Y-92805094D01*
X149890733Y-92972764D01*
X149890731Y-92972773D01*
X149888726Y-92978944D01*
X149888048Y-92985394D01*
X149888046Y-92985404D01*
X149870362Y-93153664D01*
X149868940Y-93167200D01*
X149869619Y-93173660D01*
X149888046Y-93348995D01*
X149888047Y-93349003D01*
X149888726Y-93355456D01*
X149890731Y-93361628D01*
X149890733Y-93361635D01*
X149945213Y-93529305D01*
X149947221Y-93535484D01*
X150041867Y-93699416D01*
X150046211Y-93704241D01*
X150046213Y-93704243D01*
X150127699Y-93794742D01*
X150168529Y-93840088D01*
X150173787Y-93843908D01*
X150173788Y-93843909D01*
X150177674Y-93846732D01*
X150321670Y-93951351D01*
X150494597Y-94028344D01*
X150679754Y-94067700D01*
X150862543Y-94067700D01*
X150869046Y-94067700D01*
X151054203Y-94028344D01*
X151227130Y-93951351D01*
X151380271Y-93840088D01*
X151506933Y-93699416D01*
X151601579Y-93535484D01*
X151660074Y-93355456D01*
X151679860Y-93167200D01*
X151660074Y-92978944D01*
X151601579Y-92798916D01*
X151506933Y-92634984D01*
X151422350Y-92541045D01*
X151398736Y-92502511D01*
X151390500Y-92458073D01*
X151390500Y-80555228D01*
X151404511Y-80497971D01*
X151443376Y-80453653D01*
X151523640Y-80397450D01*
X151636401Y-80318495D01*
X151803495Y-80151401D01*
X151933730Y-79965405D01*
X151978048Y-79926540D01*
X152035305Y-79912529D01*
X152092562Y-79926540D01*
X152136880Y-79965405D01*
X152263784Y-80146643D01*
X152270721Y-80154909D01*
X152430090Y-80314278D01*
X152438356Y-80321215D01*
X152622991Y-80450498D01*
X152632323Y-80455886D01*
X152836602Y-80551143D01*
X152846736Y-80554831D01*
X153041219Y-80606943D01*
X153052448Y-80607311D01*
X153055000Y-80596369D01*
X153555000Y-80596369D01*
X153557551Y-80607311D01*
X153568780Y-80606943D01*
X153763263Y-80554831D01*
X153773397Y-80551143D01*
X153977676Y-80455886D01*
X153987008Y-80450498D01*
X154171643Y-80321215D01*
X154179909Y-80314278D01*
X154339278Y-80154909D01*
X154346215Y-80146643D01*
X154475498Y-79962008D01*
X154480886Y-79952676D01*
X154576143Y-79748397D01*
X154579831Y-79738263D01*
X154631943Y-79543780D01*
X154632311Y-79532551D01*
X154621369Y-79530000D01*
X153571326Y-79530000D01*
X153558450Y-79533450D01*
X153555000Y-79546326D01*
X153555000Y-80596369D01*
X153055000Y-80596369D01*
X153055000Y-79154000D01*
X153071613Y-79092000D01*
X153117000Y-79046613D01*
X153179000Y-79030000D01*
X154621369Y-79030000D01*
X154632311Y-79027448D01*
X154631943Y-79016219D01*
X154579831Y-78821736D01*
X154576143Y-78811602D01*
X154480889Y-78607332D01*
X154475491Y-78597982D01*
X154468221Y-78587600D01*
X157082540Y-78587600D01*
X157083219Y-78594060D01*
X157101646Y-78769395D01*
X157101647Y-78769403D01*
X157102326Y-78775856D01*
X157104331Y-78782028D01*
X157104333Y-78782035D01*
X157158813Y-78949705D01*
X157160821Y-78955884D01*
X157255467Y-79119816D01*
X157259811Y-79124641D01*
X157259813Y-79124643D01*
X157319044Y-79190425D01*
X157382129Y-79260488D01*
X157387387Y-79264308D01*
X157387388Y-79264309D01*
X157427339Y-79293335D01*
X157535270Y-79371751D01*
X157708197Y-79448744D01*
X157893354Y-79488100D01*
X158076143Y-79488100D01*
X158082646Y-79488100D01*
X158267803Y-79448744D01*
X158440730Y-79371751D01*
X158530823Y-79306294D01*
X158590743Y-79283293D01*
X158654141Y-79293335D01*
X158774997Y-79347144D01*
X158960154Y-79386500D01*
X159142943Y-79386500D01*
X159149446Y-79386500D01*
X159334603Y-79347144D01*
X159507530Y-79270151D01*
X159586330Y-79212898D01*
X159629216Y-79192901D01*
X159676472Y-79190425D01*
X159716984Y-79204375D01*
X159717056Y-79204215D01*
X159889983Y-79281208D01*
X160075140Y-79320564D01*
X160257929Y-79320564D01*
X160264432Y-79320564D01*
X160449589Y-79281208D01*
X160622516Y-79204215D01*
X160775657Y-79092952D01*
X160902319Y-78952280D01*
X160996965Y-78788348D01*
X161055460Y-78608320D01*
X161073107Y-78440409D01*
X161084507Y-78399990D01*
X161108744Y-78365695D01*
X162931309Y-76543130D01*
X162939479Y-76535696D01*
X162945875Y-76531638D01*
X162991916Y-76482608D01*
X162994533Y-76479906D01*
X163014118Y-76460323D01*
X163016583Y-76457144D01*
X163024165Y-76448268D01*
X163054060Y-76416434D01*
X163063711Y-76398875D01*
X163074388Y-76382622D01*
X163086671Y-76366788D01*
X163104024Y-76326684D01*
X163109156Y-76316213D01*
X163126433Y-76284787D01*
X163126433Y-76284786D01*
X163130195Y-76277944D01*
X163135175Y-76258543D01*
X163141479Y-76240133D01*
X163149436Y-76221748D01*
X163156270Y-76178593D01*
X163158636Y-76167173D01*
X163167558Y-76132426D01*
X163169498Y-76124871D01*
X163169498Y-76104835D01*
X163171023Y-76085449D01*
X163174158Y-76065656D01*
X163170048Y-76022176D01*
X163169498Y-76010507D01*
X163169498Y-73342687D01*
X163177734Y-73298249D01*
X163201348Y-73259715D01*
X163219926Y-73239082D01*
X163276531Y-73176216D01*
X163371177Y-73012284D01*
X163429672Y-72832256D01*
X163449458Y-72644000D01*
X167344140Y-72644000D01*
X167344819Y-72650460D01*
X167363246Y-72825795D01*
X167363247Y-72825803D01*
X167363926Y-72832256D01*
X167365931Y-72838428D01*
X167365933Y-72838435D01*
X167418283Y-72999550D01*
X167422421Y-73012284D01*
X167425668Y-73017908D01*
X167425669Y-73017910D01*
X167508573Y-73161505D01*
X167517067Y-73176216D01*
X167521411Y-73181041D01*
X167521413Y-73181043D01*
X167592250Y-73259715D01*
X167615864Y-73298249D01*
X167624100Y-73342687D01*
X167624100Y-86682932D01*
X167615864Y-86727370D01*
X167592250Y-86765904D01*
X167572213Y-86788156D01*
X167572208Y-86788162D01*
X167567867Y-86792984D01*
X167564622Y-86798604D01*
X167564618Y-86798610D01*
X167476469Y-86951289D01*
X167476466Y-86951294D01*
X167473221Y-86956916D01*
X167471215Y-86963088D01*
X167471213Y-86963094D01*
X167416733Y-87130764D01*
X167416731Y-87130773D01*
X167414726Y-87136944D01*
X167414048Y-87143394D01*
X167414046Y-87143404D01*
X167401675Y-87261116D01*
X167394940Y-87325200D01*
X167395619Y-87331660D01*
X167414046Y-87506995D01*
X167414047Y-87507003D01*
X167414726Y-87513456D01*
X167416731Y-87519628D01*
X167416733Y-87519635D01*
X167471213Y-87687305D01*
X167473221Y-87693484D01*
X167476468Y-87699108D01*
X167476469Y-87699110D01*
X167492281Y-87726498D01*
X167567867Y-87857416D01*
X167694529Y-87998088D01*
X167847670Y-88109351D01*
X168020597Y-88186344D01*
X168205754Y-88225700D01*
X168388543Y-88225700D01*
X168395046Y-88225700D01*
X168580203Y-88186344D01*
X168753130Y-88109351D01*
X168906271Y-87998088D01*
X169032933Y-87857416D01*
X169127579Y-87693484D01*
X169186074Y-87513456D01*
X169205860Y-87325200D01*
X169186074Y-87136944D01*
X169127579Y-86956916D01*
X169032933Y-86792984D01*
X168981106Y-86735425D01*
X168906950Y-86653066D01*
X168883336Y-86614532D01*
X168875100Y-86570094D01*
X168875100Y-73342687D01*
X168883336Y-73298249D01*
X168906950Y-73259715D01*
X168925528Y-73239082D01*
X168982133Y-73176216D01*
X169076779Y-73012284D01*
X169135274Y-72832256D01*
X169155060Y-72644000D01*
X169135274Y-72455744D01*
X169076779Y-72275716D01*
X168982133Y-72111784D01*
X168855471Y-71971112D01*
X168850213Y-71967292D01*
X168850211Y-71967290D01*
X168707588Y-71863669D01*
X168707587Y-71863668D01*
X168702330Y-71859849D01*
X168696392Y-71857205D01*
X168535345Y-71785501D01*
X168535340Y-71785499D01*
X168529403Y-71782856D01*
X168523044Y-71781504D01*
X168523040Y-71781503D01*
X168350608Y-71744852D01*
X168350605Y-71744851D01*
X168344246Y-71743500D01*
X168154954Y-71743500D01*
X168148595Y-71744851D01*
X168148591Y-71744852D01*
X167976159Y-71781503D01*
X167976152Y-71781505D01*
X167969797Y-71782856D01*
X167963862Y-71785498D01*
X167963854Y-71785501D01*
X167802807Y-71857205D01*
X167802802Y-71857207D01*
X167796870Y-71859849D01*
X167791616Y-71863665D01*
X167791611Y-71863669D01*
X167648988Y-71967290D01*
X167648981Y-71967295D01*
X167643729Y-71971112D01*
X167639384Y-71975937D01*
X167639379Y-71975942D01*
X167521413Y-72106956D01*
X167521408Y-72106962D01*
X167517067Y-72111784D01*
X167513822Y-72117404D01*
X167513818Y-72117410D01*
X167425669Y-72270089D01*
X167425666Y-72270094D01*
X167422421Y-72275716D01*
X167420415Y-72281888D01*
X167420413Y-72281894D01*
X167365933Y-72449564D01*
X167365931Y-72449573D01*
X167363926Y-72455744D01*
X167363248Y-72462194D01*
X167363246Y-72462204D01*
X167356496Y-72526435D01*
X167344140Y-72644000D01*
X163449458Y-72644000D01*
X163429672Y-72455744D01*
X163371177Y-72275716D01*
X163276531Y-72111784D01*
X163149869Y-71971112D01*
X163144611Y-71967292D01*
X163144609Y-71967290D01*
X163001986Y-71863669D01*
X163001985Y-71863668D01*
X162996728Y-71859849D01*
X162990790Y-71857205D01*
X162829743Y-71785501D01*
X162829738Y-71785499D01*
X162823801Y-71782856D01*
X162817442Y-71781504D01*
X162817438Y-71781503D01*
X162645006Y-71744852D01*
X162645003Y-71744851D01*
X162638644Y-71743500D01*
X162449352Y-71743500D01*
X162442993Y-71744851D01*
X162442989Y-71744852D01*
X162270557Y-71781503D01*
X162270550Y-71781505D01*
X162264195Y-71782856D01*
X162258260Y-71785498D01*
X162258252Y-71785501D01*
X162097205Y-71857205D01*
X162097200Y-71857207D01*
X162091268Y-71859849D01*
X162086014Y-71863665D01*
X162086009Y-71863669D01*
X161943386Y-71967290D01*
X161943379Y-71967295D01*
X161938127Y-71971112D01*
X161933782Y-71975937D01*
X161933777Y-71975942D01*
X161815811Y-72106956D01*
X161815806Y-72106962D01*
X161811465Y-72111784D01*
X161808220Y-72117404D01*
X161808216Y-72117410D01*
X161720067Y-72270089D01*
X161720064Y-72270094D01*
X161716819Y-72275716D01*
X161714813Y-72281888D01*
X161714811Y-72281894D01*
X161661929Y-72444649D01*
X161628882Y-72496723D01*
X161574836Y-72526435D01*
X161513160Y-72526435D01*
X161459114Y-72496723D01*
X161426067Y-72444649D01*
X161373184Y-72281894D01*
X161371177Y-72275716D01*
X161276531Y-72111784D01*
X161149869Y-71971112D01*
X161144611Y-71967292D01*
X161144609Y-71967290D01*
X161001986Y-71863669D01*
X161001985Y-71863668D01*
X160996728Y-71859849D01*
X160990790Y-71857205D01*
X160829743Y-71785501D01*
X160829738Y-71785499D01*
X160823801Y-71782856D01*
X160817442Y-71781504D01*
X160817438Y-71781503D01*
X160645006Y-71744852D01*
X160645003Y-71744851D01*
X160638644Y-71743500D01*
X160449352Y-71743500D01*
X160442993Y-71744851D01*
X160442989Y-71744852D01*
X160270557Y-71781503D01*
X160270550Y-71781505D01*
X160264195Y-71782856D01*
X160189926Y-71815922D01*
X160094432Y-71858440D01*
X160043997Y-71869160D01*
X159993561Y-71858439D01*
X159990789Y-71857205D01*
X159979057Y-71851981D01*
X159829743Y-71785501D01*
X159829738Y-71785499D01*
X159823801Y-71782856D01*
X159817442Y-71781504D01*
X159817438Y-71781503D01*
X159645006Y-71744852D01*
X159645003Y-71744851D01*
X159638644Y-71743500D01*
X159449352Y-71743500D01*
X159442993Y-71744851D01*
X159442989Y-71744852D01*
X159270557Y-71781503D01*
X159270550Y-71781505D01*
X159264195Y-71782856D01*
X159258260Y-71785498D01*
X159258252Y-71785501D01*
X159097205Y-71857205D01*
X159097200Y-71857207D01*
X159091268Y-71859849D01*
X159086014Y-71863665D01*
X159086009Y-71863669D01*
X158943386Y-71967290D01*
X158943379Y-71967295D01*
X158938127Y-71971112D01*
X158933782Y-71975937D01*
X158933777Y-71975942D01*
X158815811Y-72106956D01*
X158815806Y-72106962D01*
X158811465Y-72111784D01*
X158808220Y-72117404D01*
X158808216Y-72117410D01*
X158720067Y-72270089D01*
X158720064Y-72270094D01*
X158716819Y-72275716D01*
X158714813Y-72281888D01*
X158714811Y-72281894D01*
X158660331Y-72449564D01*
X158660329Y-72449573D01*
X158658324Y-72455744D01*
X158657645Y-72462203D01*
X158657645Y-72462204D01*
X158640676Y-72623650D01*
X158629276Y-72664072D01*
X158605036Y-72698369D01*
X157600696Y-73702709D01*
X157592511Y-73710157D01*
X157586123Y-73714212D01*
X157580788Y-73719892D01*
X157580783Y-73719897D01*
X157540096Y-73763223D01*
X157537392Y-73766014D01*
X157520628Y-73782778D01*
X157520621Y-73782785D01*
X157517880Y-73785527D01*
X157515500Y-73788594D01*
X157515489Y-73788607D01*
X157515400Y-73788723D01*
X157507842Y-73797568D01*
X157483280Y-73823725D01*
X157483273Y-73823734D01*
X157477938Y-73829416D01*
X157474182Y-73836247D01*
X157474179Y-73836252D01*
X157468285Y-73846973D01*
X157457609Y-73863225D01*
X157450109Y-73872894D01*
X157450101Y-73872905D01*
X157445327Y-73879062D01*
X157442234Y-73886206D01*
X157442229Y-73886217D01*
X157427974Y-73919158D01*
X157422838Y-73929641D01*
X157401803Y-73967906D01*
X157399864Y-73975454D01*
X157399863Y-73975459D01*
X157396822Y-73987305D01*
X157390521Y-74005709D01*
X157385658Y-74016946D01*
X157385656Y-74016950D01*
X157382562Y-74024102D01*
X157381342Y-74031801D01*
X157381342Y-74031803D01*
X157375729Y-74067239D01*
X157373361Y-74078674D01*
X157364438Y-74113426D01*
X157364436Y-74113434D01*
X157362500Y-74120979D01*
X157362500Y-74128775D01*
X157362500Y-74141015D01*
X157360974Y-74160400D01*
X157357840Y-74180194D01*
X157358574Y-74187959D01*
X157358574Y-74187962D01*
X157361950Y-74223674D01*
X157362500Y-74235343D01*
X157362500Y-77888913D01*
X157354264Y-77933351D01*
X157330650Y-77971885D01*
X157259813Y-78050556D01*
X157259808Y-78050562D01*
X157255467Y-78055384D01*
X157252222Y-78061004D01*
X157252218Y-78061010D01*
X157164069Y-78213689D01*
X157164066Y-78213694D01*
X157160821Y-78219316D01*
X157158815Y-78225488D01*
X157158813Y-78225494D01*
X157104333Y-78393164D01*
X157104331Y-78393173D01*
X157102326Y-78399344D01*
X157101648Y-78405794D01*
X157101646Y-78405804D01*
X157083962Y-78574064D01*
X157082540Y-78587600D01*
X154468221Y-78587600D01*
X154346215Y-78413357D01*
X154339280Y-78405092D01*
X154179909Y-78245721D01*
X154171643Y-78238784D01*
X153990405Y-78111880D01*
X153951540Y-78067562D01*
X153937529Y-78010305D01*
X153951540Y-77953048D01*
X153990406Y-77908730D01*
X154171961Y-77781604D01*
X154171961Y-77781603D01*
X154176401Y-77778495D01*
X154343495Y-77611401D01*
X154479035Y-77417830D01*
X154578903Y-77203663D01*
X154640063Y-76975408D01*
X154660659Y-76740000D01*
X154640063Y-76504592D01*
X154578903Y-76276337D01*
X154479035Y-76062171D01*
X154343495Y-75868599D01*
X154176401Y-75701505D01*
X154171968Y-75698401D01*
X154171961Y-75698395D01*
X153990842Y-75571575D01*
X153951976Y-75527257D01*
X153937965Y-75470000D01*
X153951976Y-75412743D01*
X153990842Y-75368425D01*
X154171961Y-75241604D01*
X154171961Y-75241603D01*
X154176401Y-75238495D01*
X154343495Y-75071401D01*
X154479035Y-74877830D01*
X154578903Y-74663663D01*
X154640063Y-74435408D01*
X154660659Y-74200000D01*
X154640063Y-73964592D01*
X154578903Y-73736337D01*
X154479035Y-73522171D01*
X154343495Y-73328599D01*
X154176401Y-73161505D01*
X154171970Y-73158402D01*
X154171966Y-73158399D01*
X153987259Y-73029066D01*
X153987257Y-73029064D01*
X153982830Y-73025965D01*
X153977933Y-73023681D01*
X153977927Y-73023678D01*
X153773572Y-72928386D01*
X153773570Y-72928385D01*
X153768663Y-72926097D01*
X153763438Y-72924697D01*
X153763430Y-72924694D01*
X153545634Y-72866337D01*
X153545630Y-72866336D01*
X153540408Y-72864937D01*
X153535020Y-72864465D01*
X153535017Y-72864465D01*
X153310395Y-72844813D01*
X153305000Y-72844341D01*
X153299605Y-72844813D01*
X153074982Y-72864465D01*
X153074977Y-72864465D01*
X153069592Y-72864937D01*
X153064371Y-72866335D01*
X153064365Y-72866337D01*
X152846569Y-72924694D01*
X152846557Y-72924698D01*
X152841337Y-72926097D01*
X152836432Y-72928383D01*
X152836427Y-72928386D01*
X152632081Y-73023675D01*
X152632077Y-73023677D01*
X152627171Y-73025965D01*
X152622738Y-73029068D01*
X152622731Y-73029073D01*
X152438034Y-73158399D01*
X152438029Y-73158402D01*
X152433599Y-73161505D01*
X152429775Y-73165328D01*
X152429775Y-73165329D01*
X152311673Y-73283431D01*
X152258926Y-73314726D01*
X152197633Y-73316915D01*
X152142789Y-73289462D01*
X152107810Y-73239082D01*
X152099725Y-73217405D01*
X152058796Y-73107669D01*
X151972546Y-72992454D01*
X151882030Y-72924694D01*
X151864431Y-72911519D01*
X151864430Y-72911518D01*
X151857331Y-72906204D01*
X151750442Y-72866337D01*
X151729752Y-72858620D01*
X151729750Y-72858619D01*
X151722483Y-72855909D01*
X151714770Y-72855079D01*
X151714767Y-72855079D01*
X151666180Y-72849855D01*
X151666169Y-72849854D01*
X151662873Y-72849500D01*
X151659551Y-72849500D01*
X151514500Y-72849500D01*
X151452500Y-72832887D01*
X151407113Y-72787500D01*
X151390500Y-72725500D01*
X151390500Y-61897499D01*
X151407113Y-61835499D01*
X151452500Y-61790112D01*
X151514500Y-61773499D01*
X151542859Y-61773499D01*
X151546008Y-61773499D01*
X151648797Y-61762999D01*
X151815334Y-61707814D01*
X151964656Y-61615712D01*
X152088712Y-61491656D01*
X152180814Y-61342334D01*
X152235999Y-61175797D01*
X152242733Y-61109878D01*
X156125500Y-61109878D01*
X156125501Y-61113008D01*
X156125820Y-61116140D01*
X156125821Y-61116141D01*
X156135312Y-61209061D01*
X156135313Y-61209069D01*
X156136001Y-61215797D01*
X156138129Y-61222219D01*
X156138130Y-61222223D01*
X156188914Y-61375478D01*
X156191186Y-61382334D01*
X156200980Y-61398212D01*
X156279497Y-61525511D01*
X156279500Y-61525515D01*
X156283288Y-61531656D01*
X156407344Y-61655712D01*
X156413485Y-61659500D01*
X156413488Y-61659502D01*
X156448036Y-61680811D01*
X156556666Y-61747814D01*
X156723203Y-61802999D01*
X156825991Y-61813500D01*
X158166008Y-61813499D01*
X158268797Y-61802999D01*
X158435334Y-61747814D01*
X158584656Y-61655712D01*
X158708712Y-61531656D01*
X158800814Y-61382334D01*
X158802151Y-61378296D01*
X158838666Y-61333044D01*
X158893395Y-61309479D01*
X158952797Y-61314163D01*
X159003155Y-61346015D01*
X159123629Y-61471715D01*
X159127272Y-61475516D01*
X159314839Y-61614240D01*
X159523153Y-61719270D01*
X159746220Y-61787583D01*
X159977624Y-61817216D01*
X160210707Y-61807314D01*
X160438765Y-61758164D01*
X160655235Y-61671179D01*
X160853891Y-61548862D01*
X161029018Y-61394731D01*
X161175578Y-61213220D01*
X161198103Y-61172897D01*
X161241343Y-61127783D01*
X161301094Y-61109484D01*
X161362182Y-61122649D01*
X161409092Y-61163935D01*
X161505847Y-61307088D01*
X161667272Y-61475516D01*
X161854839Y-61614240D01*
X162063153Y-61719270D01*
X162286220Y-61787583D01*
X162517624Y-61817216D01*
X162750707Y-61807314D01*
X162978765Y-61758164D01*
X163195235Y-61671179D01*
X163393891Y-61548862D01*
X163569018Y-61394731D01*
X163715578Y-61213220D01*
X163738103Y-61172897D01*
X163781343Y-61127783D01*
X163841094Y-61109484D01*
X163902182Y-61122649D01*
X163949092Y-61163935D01*
X164045847Y-61307088D01*
X164207272Y-61475516D01*
X164394839Y-61614240D01*
X164603153Y-61719270D01*
X164826220Y-61787583D01*
X165057624Y-61817216D01*
X165290707Y-61807314D01*
X165518765Y-61758164D01*
X165735235Y-61671179D01*
X165933891Y-61548862D01*
X166109018Y-61394731D01*
X166255578Y-61213220D01*
X166369354Y-61009552D01*
X166447073Y-60789584D01*
X166486500Y-60559647D01*
X166486500Y-59934784D01*
X166471670Y-59760547D01*
X166412885Y-59534781D01*
X166349883Y-59395403D01*
X166318963Y-59327000D01*
X166318961Y-59326996D01*
X166316792Y-59322198D01*
X166186153Y-59128912D01*
X166024728Y-58960484D01*
X166003335Y-58944662D01*
X165941918Y-58899238D01*
X165837161Y-58821760D01*
X165832465Y-58819392D01*
X165832463Y-58819391D01*
X165707720Y-58756497D01*
X165628847Y-58716730D01*
X165563540Y-58696730D01*
X165410816Y-58649959D01*
X165410813Y-58649958D01*
X165405780Y-58648417D01*
X165351695Y-58641491D01*
X165179593Y-58619452D01*
X165179592Y-58619451D01*
X165174376Y-58618784D01*
X165169121Y-58619007D01*
X165169117Y-58619007D01*
X164946558Y-58628462D01*
X164946554Y-58628462D01*
X164941293Y-58628686D01*
X164936153Y-58629793D01*
X164936143Y-58629795D01*
X164718383Y-58676726D01*
X164718377Y-58676727D01*
X164713235Y-58677836D01*
X164708351Y-58679798D01*
X164708346Y-58679800D01*
X164501649Y-58762858D01*
X164501644Y-58762860D01*
X164496765Y-58764821D01*
X164492288Y-58767577D01*
X164492285Y-58767579D01*
X164302588Y-58884379D01*
X164302578Y-58884386D01*
X164298109Y-58887138D01*
X164294167Y-58890607D01*
X164294158Y-58890614D01*
X164128297Y-59036591D01*
X164122982Y-59041269D01*
X164119674Y-59045365D01*
X164119669Y-59045371D01*
X163979733Y-59218679D01*
X163976422Y-59222780D01*
X163973856Y-59227372D01*
X163973850Y-59227382D01*
X163953894Y-59263104D01*
X163910654Y-59308218D01*
X163850903Y-59326515D01*
X163789816Y-59313349D01*
X163742907Y-59272064D01*
X163723664Y-59243593D01*
X163646153Y-59128912D01*
X163484728Y-58960484D01*
X163463335Y-58944662D01*
X163401918Y-58899238D01*
X163297161Y-58821760D01*
X163292465Y-58819392D01*
X163292463Y-58819391D01*
X163167720Y-58756497D01*
X163088847Y-58716730D01*
X163023540Y-58696730D01*
X162870816Y-58649959D01*
X162870813Y-58649958D01*
X162865780Y-58648417D01*
X162811695Y-58641491D01*
X162639593Y-58619452D01*
X162639592Y-58619451D01*
X162634376Y-58618784D01*
X162629121Y-58619007D01*
X162629117Y-58619007D01*
X162406558Y-58628462D01*
X162406554Y-58628462D01*
X162401293Y-58628686D01*
X162396153Y-58629793D01*
X162396143Y-58629795D01*
X162178383Y-58676726D01*
X162178377Y-58676727D01*
X162173235Y-58677836D01*
X162168351Y-58679798D01*
X162168346Y-58679800D01*
X161961649Y-58762858D01*
X161961644Y-58762860D01*
X161956765Y-58764821D01*
X161952288Y-58767577D01*
X161952285Y-58767579D01*
X161762588Y-58884379D01*
X161762578Y-58884386D01*
X161758109Y-58887138D01*
X161754167Y-58890607D01*
X161754158Y-58890614D01*
X161588297Y-59036591D01*
X161582982Y-59041269D01*
X161579674Y-59045365D01*
X161579669Y-59045371D01*
X161439733Y-59218679D01*
X161436422Y-59222780D01*
X161433856Y-59227372D01*
X161433850Y-59227382D01*
X161413894Y-59263104D01*
X161370654Y-59308218D01*
X161310903Y-59326515D01*
X161249816Y-59313349D01*
X161202907Y-59272064D01*
X161183664Y-59243593D01*
X161106153Y-59128912D01*
X160944728Y-58960484D01*
X160923335Y-58944662D01*
X160861918Y-58899238D01*
X160757161Y-58821760D01*
X160752465Y-58819392D01*
X160752463Y-58819391D01*
X160627720Y-58756497D01*
X160548847Y-58716730D01*
X160483540Y-58696730D01*
X160330816Y-58649959D01*
X160330813Y-58649958D01*
X160325780Y-58648417D01*
X160271695Y-58641491D01*
X160099593Y-58619452D01*
X160099592Y-58619451D01*
X160094376Y-58618784D01*
X160089121Y-58619007D01*
X160089117Y-58619007D01*
X159866558Y-58628462D01*
X159866554Y-58628462D01*
X159861293Y-58628686D01*
X159856153Y-58629793D01*
X159856143Y-58629795D01*
X159638383Y-58676726D01*
X159638377Y-58676727D01*
X159633235Y-58677836D01*
X159628351Y-58679798D01*
X159628346Y-58679800D01*
X159421649Y-58762858D01*
X159421644Y-58762860D01*
X159416765Y-58764821D01*
X159412288Y-58767577D01*
X159412285Y-58767579D01*
X159222588Y-58884379D01*
X159222578Y-58884386D01*
X159218109Y-58887138D01*
X159214167Y-58890607D01*
X159214158Y-58890614D01*
X159048297Y-59036591D01*
X159042982Y-59041269D01*
X159039673Y-59045366D01*
X159039672Y-59045368D01*
X159010078Y-59082019D01*
X158960174Y-59119040D01*
X158898577Y-59127204D01*
X158840752Y-59104461D01*
X158802123Y-59057617D01*
X158800814Y-59053666D01*
X158797021Y-59047517D01*
X158797020Y-59047514D01*
X158712502Y-58910488D01*
X158712500Y-58910485D01*
X158708712Y-58904344D01*
X158584656Y-58780288D01*
X158578515Y-58776500D01*
X158578511Y-58776497D01*
X158449186Y-58696730D01*
X158435334Y-58688186D01*
X158407917Y-58679101D01*
X158275225Y-58635131D01*
X158275224Y-58635130D01*
X158268797Y-58633001D01*
X158262064Y-58632313D01*
X158262059Y-58632312D01*
X158169140Y-58622819D01*
X158169123Y-58622818D01*
X158166009Y-58622500D01*
X158162860Y-58622500D01*
X156829140Y-58622500D01*
X156829120Y-58622500D01*
X156825992Y-58622501D01*
X156822860Y-58622820D01*
X156822858Y-58622821D01*
X156729938Y-58632312D01*
X156729928Y-58632313D01*
X156723203Y-58633001D01*
X156716781Y-58635128D01*
X156716776Y-58635130D01*
X156563521Y-58685914D01*
X156563517Y-58685915D01*
X156556666Y-58688186D01*
X156550522Y-58691975D01*
X156550519Y-58691977D01*
X156413488Y-58776497D01*
X156413480Y-58776503D01*
X156407344Y-58780288D01*
X156402242Y-58785389D01*
X156402238Y-58785393D01*
X156288393Y-58899238D01*
X156288389Y-58899242D01*
X156283288Y-58904344D01*
X156279503Y-58910480D01*
X156279497Y-58910488D01*
X156194977Y-59047519D01*
X156191186Y-59053666D01*
X156188915Y-59060517D01*
X156188914Y-59060521D01*
X156138131Y-59213774D01*
X156136001Y-59220203D01*
X156135313Y-59226933D01*
X156135312Y-59226940D01*
X156125819Y-59319859D01*
X156125818Y-59319877D01*
X156125500Y-59322991D01*
X156125500Y-59326138D01*
X156125500Y-59326139D01*
X156125500Y-61109859D01*
X156125500Y-61109878D01*
X152242733Y-61109878D01*
X152246500Y-61073009D01*
X152246499Y-59282992D01*
X152235999Y-59180203D01*
X152180814Y-59013666D01*
X152110235Y-58899238D01*
X152092502Y-58870488D01*
X152092500Y-58870485D01*
X152088712Y-58864344D01*
X151964656Y-58740288D01*
X151958515Y-58736500D01*
X151958511Y-58736497D01*
X151829958Y-58657206D01*
X151815334Y-58648186D01*
X151791475Y-58640280D01*
X151655225Y-58595131D01*
X151655224Y-58595130D01*
X151648797Y-58593001D01*
X151642064Y-58592313D01*
X151642059Y-58592312D01*
X151549140Y-58582819D01*
X151549123Y-58582818D01*
X151546009Y-58582500D01*
X151542860Y-58582500D01*
X150209140Y-58582500D01*
X150209120Y-58582500D01*
X150205992Y-58582501D01*
X150202860Y-58582820D01*
X150202858Y-58582821D01*
X150109938Y-58592312D01*
X150109928Y-58592313D01*
X150103203Y-58593001D01*
X150096781Y-58595128D01*
X150096776Y-58595130D01*
X149943521Y-58645914D01*
X149943517Y-58645915D01*
X149936666Y-58648186D01*
X149930522Y-58651975D01*
X149930519Y-58651977D01*
X149793488Y-58736497D01*
X149793480Y-58736503D01*
X149787344Y-58740288D01*
X149782242Y-58745389D01*
X149782238Y-58745393D01*
X149668393Y-58859238D01*
X149668389Y-58859242D01*
X149663288Y-58864344D01*
X149659503Y-58870480D01*
X149659497Y-58870488D01*
X149574978Y-59007517D01*
X149574977Y-59007519D01*
X149571186Y-59013666D01*
X149569847Y-59017705D01*
X149533327Y-59062960D01*
X149478599Y-59086521D01*
X149419200Y-59081835D01*
X149368844Y-59049984D01*
X149248370Y-58924284D01*
X149244728Y-58920484D01*
X149222905Y-58904344D01*
X149150804Y-58851018D01*
X149057161Y-58781760D01*
X149052465Y-58779392D01*
X149052463Y-58779391D01*
X148889786Y-58697371D01*
X148848847Y-58676730D01*
X148795132Y-58660280D01*
X148630816Y-58609959D01*
X148630813Y-58609958D01*
X148625780Y-58608417D01*
X148620556Y-58607748D01*
X148399593Y-58579452D01*
X148399592Y-58579451D01*
X148394376Y-58578784D01*
X148389121Y-58579007D01*
X148389117Y-58579007D01*
X148166558Y-58588462D01*
X148166554Y-58588462D01*
X148161293Y-58588686D01*
X148156153Y-58589793D01*
X148156143Y-58589795D01*
X147938383Y-58636726D01*
X147938377Y-58636727D01*
X147933235Y-58637836D01*
X147928351Y-58639798D01*
X147928346Y-58639800D01*
X147721649Y-58722858D01*
X147721644Y-58722860D01*
X147716765Y-58724821D01*
X147712288Y-58727577D01*
X147712285Y-58727579D01*
X147522588Y-58844379D01*
X147522578Y-58844386D01*
X147518109Y-58847138D01*
X147514167Y-58850607D01*
X147514158Y-58850614D01*
X147385006Y-58964283D01*
X147342982Y-59001269D01*
X147339674Y-59005365D01*
X147339669Y-59005371D01*
X147239917Y-59128912D01*
X147196422Y-59182780D01*
X147193856Y-59187372D01*
X147193850Y-59187382D01*
X147173621Y-59223593D01*
X147130381Y-59268707D01*
X147070630Y-59287004D01*
X147009543Y-59273838D01*
X146962634Y-59232553D01*
X146868712Y-59093591D01*
X146862115Y-59085421D01*
X146708040Y-58924662D01*
X146700169Y-58917734D01*
X146521124Y-58785313D01*
X146512201Y-58779818D01*
X146313362Y-58679567D01*
X146303625Y-58675654D01*
X146090706Y-58610448D01*
X146080452Y-58608238D01*
X146063520Y-58606070D01*
X146049861Y-58608214D01*
X146046000Y-58621491D01*
X146046000Y-61736699D01*
X146048455Y-61747534D01*
X146059564Y-61747652D01*
X146193469Y-61718793D01*
X146203507Y-61715719D01*
X146410124Y-61632693D01*
X146419488Y-61627972D01*
X146609113Y-61511216D01*
X146617543Y-61504981D01*
X146784699Y-61357864D01*
X146791968Y-61350280D01*
X146931850Y-61177039D01*
X146937730Y-61168340D01*
X146957788Y-61132435D01*
X147001027Y-61087318D01*
X147060779Y-61069019D01*
X147121868Y-61082184D01*
X147168777Y-61123469D01*
X147265847Y-61267088D01*
X147427272Y-61435516D01*
X147614839Y-61574240D01*
X147823153Y-61679270D01*
X148046220Y-61747583D01*
X148277624Y-61777216D01*
X148510707Y-61767314D01*
X148738765Y-61718164D01*
X148955235Y-61631179D01*
X149153891Y-61508862D01*
X149329018Y-61354731D01*
X149361922Y-61313979D01*
X149411822Y-61276960D01*
X149473419Y-61268794D01*
X149531244Y-61291536D01*
X149569876Y-61338381D01*
X149571186Y-61342334D01*
X149574975Y-61348477D01*
X149574976Y-61348479D01*
X149659497Y-61485511D01*
X149659500Y-61485515D01*
X149663288Y-61491656D01*
X149787344Y-61615712D01*
X149793485Y-61619500D01*
X149793488Y-61619502D01*
X149847300Y-61652693D01*
X149936666Y-61707814D01*
X150015901Y-61734069D01*
X150054504Y-61746862D01*
X150098829Y-61772741D01*
X150128877Y-61814353D01*
X150139500Y-61864568D01*
X150139500Y-63040157D01*
X150122887Y-63102157D01*
X150077500Y-63147544D01*
X150015500Y-63164157D01*
X149953500Y-63147544D01*
X149908113Y-63102157D01*
X149833781Y-62973410D01*
X149830533Y-62967784D01*
X149703871Y-62827112D01*
X149698613Y-62823292D01*
X149698611Y-62823290D01*
X149555988Y-62719669D01*
X149555987Y-62719668D01*
X149550730Y-62715849D01*
X149531280Y-62707189D01*
X149383745Y-62641501D01*
X149383740Y-62641499D01*
X149377803Y-62638856D01*
X149371444Y-62637504D01*
X149371440Y-62637503D01*
X149199008Y-62600852D01*
X149199005Y-62600851D01*
X149192646Y-62599500D01*
X149003354Y-62599500D01*
X148996995Y-62600851D01*
X148996991Y-62600852D01*
X148824559Y-62637503D01*
X148824552Y-62637505D01*
X148818197Y-62638856D01*
X148812262Y-62641498D01*
X148812254Y-62641501D01*
X148651207Y-62713205D01*
X148651202Y-62713207D01*
X148645270Y-62715849D01*
X148640016Y-62719665D01*
X148640011Y-62719669D01*
X148497388Y-62823290D01*
X148497381Y-62823295D01*
X148492129Y-62827112D01*
X148487784Y-62831937D01*
X148487779Y-62831942D01*
X148369813Y-62962956D01*
X148369808Y-62962962D01*
X148365467Y-62967784D01*
X148362222Y-62973404D01*
X148362218Y-62973410D01*
X148274069Y-63126089D01*
X148274066Y-63126094D01*
X148270821Y-63131716D01*
X148268815Y-63137888D01*
X148268813Y-63137894D01*
X148265678Y-63147544D01*
X148212326Y-63311744D01*
X148211647Y-63318196D01*
X148211646Y-63318205D01*
X148208244Y-63350579D01*
X148192310Y-63399617D01*
X148157808Y-63437934D01*
X148110704Y-63458906D01*
X148062559Y-63469139D01*
X148062552Y-63469141D01*
X148056197Y-63470492D01*
X148050262Y-63473134D01*
X148050254Y-63473137D01*
X147889207Y-63544841D01*
X147889202Y-63544843D01*
X147883270Y-63547485D01*
X147878016Y-63551301D01*
X147878011Y-63551305D01*
X147735388Y-63654926D01*
X147735381Y-63654931D01*
X147730129Y-63658748D01*
X147725784Y-63663573D01*
X147725779Y-63663578D01*
X147607813Y-63794592D01*
X147607808Y-63794598D01*
X147603467Y-63799420D01*
X147600222Y-63805040D01*
X147600218Y-63805046D01*
X147512069Y-63957725D01*
X147512066Y-63957730D01*
X147508821Y-63963352D01*
X147506815Y-63969524D01*
X147506813Y-63969530D01*
X147452332Y-64137204D01*
X147452330Y-64137210D01*
X147450326Y-64143380D01*
X147449648Y-64149830D01*
X147448566Y-64154921D01*
X147427627Y-64201976D01*
X147389377Y-64236465D01*
X147351964Y-64248668D01*
X147352354Y-64250500D01*
X147173559Y-64288503D01*
X147173552Y-64288505D01*
X147167197Y-64289856D01*
X147161262Y-64292498D01*
X147161254Y-64292501D01*
X147000207Y-64364205D01*
X147000202Y-64364207D01*
X146994270Y-64366849D01*
X146989016Y-64370665D01*
X146989011Y-64370669D01*
X146846388Y-64474290D01*
X146846381Y-64474295D01*
X146841129Y-64478112D01*
X146836784Y-64482937D01*
X146836779Y-64482942D01*
X146718813Y-64613956D01*
X146718808Y-64613962D01*
X146714467Y-64618784D01*
X146711222Y-64624404D01*
X146711218Y-64624410D01*
X146623069Y-64777089D01*
X146623066Y-64777094D01*
X146619821Y-64782716D01*
X146617815Y-64788888D01*
X146617813Y-64788894D01*
X146563333Y-64956564D01*
X146563331Y-64956573D01*
X146561326Y-64962744D01*
X146560648Y-64969194D01*
X146560646Y-64969204D01*
X146542962Y-65137464D01*
X146541540Y-65151000D01*
X146542219Y-65157460D01*
X146560646Y-65332795D01*
X146560647Y-65332803D01*
X146561326Y-65339256D01*
X146563331Y-65345428D01*
X146563333Y-65345435D01*
X146617813Y-65513105D01*
X146619821Y-65519284D01*
X146714467Y-65683216D01*
X146841129Y-65823888D01*
X146994270Y-65935151D01*
X147167197Y-66012144D01*
X147352354Y-66051500D01*
X147391000Y-66051500D01*
X147453000Y-66068113D01*
X147498387Y-66113500D01*
X147515000Y-66175500D01*
X147515000Y-82339317D01*
X147496727Y-82404107D01*
X147447295Y-82449802D01*
X147381272Y-82462935D01*
X147318116Y-82439636D01*
X147264730Y-82400849D01*
X147258792Y-82398205D01*
X147097745Y-82326501D01*
X147097740Y-82326499D01*
X147091803Y-82323856D01*
X147085444Y-82322504D01*
X147085440Y-82322503D01*
X146913008Y-82285852D01*
X146913005Y-82285851D01*
X146906646Y-82284500D01*
X146717354Y-82284500D01*
X146710995Y-82285851D01*
X146710991Y-82285852D01*
X146538559Y-82322503D01*
X146538552Y-82322505D01*
X146532197Y-82323856D01*
X146526262Y-82326498D01*
X146526254Y-82326501D01*
X146365207Y-82398205D01*
X146365202Y-82398207D01*
X146359270Y-82400849D01*
X146354016Y-82404665D01*
X146354011Y-82404669D01*
X146211388Y-82508290D01*
X146211381Y-82508295D01*
X146206129Y-82512112D01*
X146201780Y-82516942D01*
X146199106Y-82519350D01*
X146160572Y-82542964D01*
X146116134Y-82551200D01*
X134985988Y-82551200D01*
X134928731Y-82537189D01*
X134884413Y-82498323D01*
X134818833Y-82404665D01*
X134771847Y-82337561D01*
X134610939Y-82176653D01*
X134424534Y-82046132D01*
X134218296Y-81949961D01*
X134213071Y-81948561D01*
X134213063Y-81948558D01*
X134003716Y-81892464D01*
X134003707Y-81892462D01*
X133998492Y-81891065D01*
X133993104Y-81890593D01*
X133993101Y-81890593D01*
X133777195Y-81871704D01*
X133771800Y-81871232D01*
X133766405Y-81871704D01*
X133550498Y-81890593D01*
X133550493Y-81890593D01*
X133545108Y-81891065D01*
X133539894Y-81892462D01*
X133539883Y-81892464D01*
X133330536Y-81948558D01*
X133330524Y-81948562D01*
X133325304Y-81949961D01*
X133320399Y-81952247D01*
X133320394Y-81952250D01*
X133123976Y-82043842D01*
X133123972Y-82043844D01*
X133119066Y-82046132D01*
X133114633Y-82049235D01*
X133114626Y-82049240D01*
X132937096Y-82173547D01*
X132937091Y-82173550D01*
X132932661Y-82176653D01*
X132928837Y-82180476D01*
X132928831Y-82180482D01*
X132775582Y-82333731D01*
X132775576Y-82333737D01*
X132771753Y-82337561D01*
X132768650Y-82341991D01*
X132768647Y-82341996D01*
X132644340Y-82519526D01*
X132644335Y-82519533D01*
X132641232Y-82523966D01*
X132638948Y-82528863D01*
X132638941Y-82528876D01*
X132614182Y-82581974D01*
X132568425Y-82634150D01*
X132501800Y-82653569D01*
X132435175Y-82634150D01*
X132389418Y-82581974D01*
X132364658Y-82528876D01*
X132364655Y-82528872D01*
X132362368Y-82523966D01*
X132231847Y-82337561D01*
X132070939Y-82176653D01*
X131884534Y-82046132D01*
X131678296Y-81949961D01*
X131673071Y-81948561D01*
X131673063Y-81948558D01*
X131463716Y-81892464D01*
X131463707Y-81892462D01*
X131458492Y-81891065D01*
X131453104Y-81890593D01*
X131453101Y-81890593D01*
X131237195Y-81871704D01*
X131231800Y-81871232D01*
X131226405Y-81871704D01*
X131010498Y-81890593D01*
X131010493Y-81890593D01*
X131005108Y-81891065D01*
X130999894Y-81892462D01*
X130999883Y-81892464D01*
X130790536Y-81948558D01*
X130790524Y-81948562D01*
X130785304Y-81949961D01*
X130780399Y-81952247D01*
X130780394Y-81952250D01*
X130583976Y-82043842D01*
X130583972Y-82043844D01*
X130579066Y-82046132D01*
X130574633Y-82049235D01*
X130574626Y-82049240D01*
X130397096Y-82173547D01*
X130397091Y-82173550D01*
X130392661Y-82176653D01*
X130388837Y-82180476D01*
X130388831Y-82180482D01*
X130235582Y-82333731D01*
X130235576Y-82333737D01*
X130231753Y-82337561D01*
X130228650Y-82341991D01*
X130228647Y-82341996D01*
X130104340Y-82519526D01*
X130104335Y-82519533D01*
X130101232Y-82523966D01*
X130098948Y-82528863D01*
X130098941Y-82528876D01*
X130074182Y-82581974D01*
X130028425Y-82634150D01*
X129961800Y-82653569D01*
X129895175Y-82634150D01*
X129849418Y-82581974D01*
X129824658Y-82528876D01*
X129824655Y-82528872D01*
X129822368Y-82523966D01*
X129691847Y-82337561D01*
X129530939Y-82176653D01*
X129344534Y-82046132D01*
X129138296Y-81949961D01*
X129133071Y-81948561D01*
X129133063Y-81948558D01*
X128923716Y-81892464D01*
X128923707Y-81892462D01*
X128918492Y-81891065D01*
X128913104Y-81890593D01*
X128913101Y-81890593D01*
X128697195Y-81871704D01*
X128691800Y-81871232D01*
X128686405Y-81871704D01*
X128470498Y-81890593D01*
X128470493Y-81890593D01*
X128465108Y-81891065D01*
X128459894Y-81892462D01*
X128459883Y-81892464D01*
X128250536Y-81948558D01*
X128250524Y-81948562D01*
X128245304Y-81949961D01*
X128240399Y-81952247D01*
X128240394Y-81952250D01*
X128043976Y-82043842D01*
X128043972Y-82043844D01*
X128039066Y-82046132D01*
X128034633Y-82049235D01*
X128034626Y-82049240D01*
X127857096Y-82173547D01*
X127857091Y-82173550D01*
X127852661Y-82176653D01*
X127848837Y-82180476D01*
X127848831Y-82180482D01*
X127695582Y-82333731D01*
X127695576Y-82333737D01*
X127691753Y-82337561D01*
X127688650Y-82341991D01*
X127688647Y-82341996D01*
X127564340Y-82519526D01*
X127564335Y-82519533D01*
X127561232Y-82523966D01*
X127558948Y-82528863D01*
X127558941Y-82528876D01*
X127534182Y-82581974D01*
X127488425Y-82634150D01*
X127421800Y-82653569D01*
X127355175Y-82634150D01*
X127309418Y-82581974D01*
X127284658Y-82528876D01*
X127284655Y-82528872D01*
X127282368Y-82523966D01*
X127151847Y-82337561D01*
X126990939Y-82176653D01*
X126804534Y-82046132D01*
X126598296Y-81949961D01*
X126593071Y-81948561D01*
X126593063Y-81948558D01*
X126383716Y-81892464D01*
X126383707Y-81892462D01*
X126378492Y-81891065D01*
X126373104Y-81890593D01*
X126373101Y-81890593D01*
X126157195Y-81871704D01*
X126151800Y-81871232D01*
X126146405Y-81871704D01*
X125930498Y-81890593D01*
X125930493Y-81890593D01*
X125925108Y-81891065D01*
X125919894Y-81892462D01*
X125919883Y-81892464D01*
X125710536Y-81948558D01*
X125710524Y-81948562D01*
X125705304Y-81949961D01*
X125700399Y-81952247D01*
X125700394Y-81952250D01*
X125503976Y-82043842D01*
X125503972Y-82043844D01*
X125499066Y-82046132D01*
X125494633Y-82049235D01*
X125494626Y-82049240D01*
X125317096Y-82173547D01*
X125317091Y-82173550D01*
X125312661Y-82176653D01*
X125308837Y-82180476D01*
X125308831Y-82180482D01*
X125155582Y-82333731D01*
X125155576Y-82333737D01*
X125151753Y-82337561D01*
X125148650Y-82341991D01*
X125148647Y-82341996D01*
X125024340Y-82519526D01*
X125024335Y-82519533D01*
X125021232Y-82523966D01*
X125018944Y-82528872D01*
X125018942Y-82528876D01*
X124927350Y-82725294D01*
X124927347Y-82725299D01*
X124925061Y-82730204D01*
X124923662Y-82735424D01*
X124923658Y-82735436D01*
X124867564Y-82944783D01*
X124867562Y-82944794D01*
X124866165Y-82950008D01*
X124846332Y-83176700D01*
X121879268Y-83176700D01*
X121859435Y-82950008D01*
X121800539Y-82730204D01*
X121704368Y-82523966D01*
X121573847Y-82337561D01*
X121412939Y-82176653D01*
X121226534Y-82046132D01*
X121020296Y-81949961D01*
X121015071Y-81948561D01*
X121015063Y-81948558D01*
X120805716Y-81892464D01*
X120805707Y-81892462D01*
X120800492Y-81891065D01*
X120795104Y-81890593D01*
X120795101Y-81890593D01*
X120579195Y-81871704D01*
X120573800Y-81871232D01*
X120568405Y-81871704D01*
X120352498Y-81890593D01*
X120352493Y-81890593D01*
X120347108Y-81891065D01*
X120341894Y-81892462D01*
X120341883Y-81892464D01*
X120132536Y-81948558D01*
X120132524Y-81948562D01*
X120127304Y-81949961D01*
X120122399Y-81952247D01*
X120122394Y-81952250D01*
X119925976Y-82043842D01*
X119925972Y-82043844D01*
X119921066Y-82046132D01*
X119916633Y-82049235D01*
X119916626Y-82049240D01*
X119739096Y-82173547D01*
X119739091Y-82173550D01*
X119734661Y-82176653D01*
X119730837Y-82180476D01*
X119730831Y-82180482D01*
X119577582Y-82333731D01*
X119577576Y-82333737D01*
X119573753Y-82337561D01*
X119570650Y-82341991D01*
X119570647Y-82341996D01*
X119446340Y-82519526D01*
X119446335Y-82519533D01*
X119443232Y-82523966D01*
X119440948Y-82528863D01*
X119440941Y-82528876D01*
X119416182Y-82581974D01*
X119370425Y-82634150D01*
X119303800Y-82653569D01*
X119237175Y-82634150D01*
X119191418Y-82581974D01*
X119166658Y-82528876D01*
X119166655Y-82528872D01*
X119164368Y-82523966D01*
X119033847Y-82337561D01*
X118872939Y-82176653D01*
X118686534Y-82046132D01*
X118480296Y-81949961D01*
X118475071Y-81948561D01*
X118475063Y-81948558D01*
X118265716Y-81892464D01*
X118265707Y-81892462D01*
X118260492Y-81891065D01*
X118255104Y-81890593D01*
X118255101Y-81890593D01*
X118039195Y-81871704D01*
X118033800Y-81871232D01*
X118028405Y-81871704D01*
X117812498Y-81890593D01*
X117812493Y-81890593D01*
X117807108Y-81891065D01*
X117801894Y-81892462D01*
X117801883Y-81892464D01*
X117592536Y-81948558D01*
X117592524Y-81948562D01*
X117587304Y-81949961D01*
X117582399Y-81952247D01*
X117582394Y-81952250D01*
X117385976Y-82043842D01*
X117385972Y-82043844D01*
X117381066Y-82046132D01*
X117376633Y-82049235D01*
X117376626Y-82049240D01*
X117199096Y-82173547D01*
X117199091Y-82173550D01*
X117194661Y-82176653D01*
X117190837Y-82180476D01*
X117190831Y-82180482D01*
X117037582Y-82333731D01*
X117037576Y-82333737D01*
X117033753Y-82337561D01*
X117030650Y-82341991D01*
X117030647Y-82341996D01*
X116906340Y-82519526D01*
X116906335Y-82519533D01*
X116903232Y-82523966D01*
X116900948Y-82528863D01*
X116900941Y-82528876D01*
X116876182Y-82581974D01*
X116830425Y-82634150D01*
X116763800Y-82653569D01*
X116697175Y-82634150D01*
X116651418Y-82581974D01*
X116626658Y-82528876D01*
X116626655Y-82528872D01*
X116624368Y-82523966D01*
X116493847Y-82337561D01*
X116332939Y-82176653D01*
X116146534Y-82046132D01*
X115940296Y-81949961D01*
X115935071Y-81948561D01*
X115935063Y-81948558D01*
X115725716Y-81892464D01*
X115725707Y-81892462D01*
X115720492Y-81891065D01*
X115715104Y-81890593D01*
X115715101Y-81890593D01*
X115499195Y-81871704D01*
X115493800Y-81871232D01*
X115488405Y-81871704D01*
X115272498Y-81890593D01*
X115272493Y-81890593D01*
X115267108Y-81891065D01*
X115261894Y-81892462D01*
X115261883Y-81892464D01*
X115052536Y-81948558D01*
X115052524Y-81948562D01*
X115047304Y-81949961D01*
X115042399Y-81952247D01*
X115042394Y-81952250D01*
X114845976Y-82043842D01*
X114845972Y-82043844D01*
X114841066Y-82046132D01*
X114836633Y-82049235D01*
X114836626Y-82049240D01*
X114659096Y-82173547D01*
X114659091Y-82173550D01*
X114654661Y-82176653D01*
X114650837Y-82180476D01*
X114650831Y-82180482D01*
X114497582Y-82333731D01*
X114497576Y-82333737D01*
X114493753Y-82337561D01*
X114490650Y-82341991D01*
X114490647Y-82341996D01*
X114366340Y-82519526D01*
X114366335Y-82519533D01*
X114363232Y-82523966D01*
X114360948Y-82528863D01*
X114360941Y-82528876D01*
X114336182Y-82581974D01*
X114290425Y-82634150D01*
X114223800Y-82653569D01*
X114157175Y-82634150D01*
X114111418Y-82581974D01*
X114086658Y-82528876D01*
X114086655Y-82528872D01*
X114084368Y-82523966D01*
X113953847Y-82337561D01*
X113792939Y-82176653D01*
X113606534Y-82046132D01*
X113400296Y-81949961D01*
X113395071Y-81948561D01*
X113395063Y-81948558D01*
X113185716Y-81892464D01*
X113185707Y-81892462D01*
X113180492Y-81891065D01*
X113175104Y-81890593D01*
X113175101Y-81890593D01*
X112959195Y-81871704D01*
X112953800Y-81871232D01*
X112948405Y-81871704D01*
X112732498Y-81890593D01*
X112732493Y-81890593D01*
X112727108Y-81891065D01*
X112721894Y-81892462D01*
X112721883Y-81892464D01*
X112512536Y-81948558D01*
X112512524Y-81948562D01*
X112507304Y-81949961D01*
X112502399Y-81952247D01*
X112502394Y-81952250D01*
X112305976Y-82043842D01*
X112305972Y-82043844D01*
X112301066Y-82046132D01*
X112296633Y-82049235D01*
X112296626Y-82049240D01*
X112119096Y-82173547D01*
X112119091Y-82173550D01*
X112114661Y-82176653D01*
X112110837Y-82180476D01*
X112110831Y-82180482D01*
X111957582Y-82333731D01*
X111957576Y-82333737D01*
X111953753Y-82337561D01*
X111950650Y-82341991D01*
X111950647Y-82341996D01*
X111826340Y-82519526D01*
X111826335Y-82519533D01*
X111823232Y-82523966D01*
X111820944Y-82528872D01*
X111820942Y-82528876D01*
X111729350Y-82725294D01*
X111729347Y-82725299D01*
X111727061Y-82730204D01*
X111725662Y-82735424D01*
X111725658Y-82735436D01*
X111669564Y-82944783D01*
X111669562Y-82944794D01*
X111668165Y-82950008D01*
X111648332Y-83176700D01*
X108696668Y-83176700D01*
X108676835Y-82950008D01*
X108617939Y-82730204D01*
X108521768Y-82523966D01*
X108391247Y-82337561D01*
X108230339Y-82176653D01*
X108043934Y-82046132D01*
X107837696Y-81949961D01*
X107832471Y-81948561D01*
X107832463Y-81948558D01*
X107623116Y-81892464D01*
X107623107Y-81892462D01*
X107617892Y-81891065D01*
X107612504Y-81890593D01*
X107612501Y-81890593D01*
X107396595Y-81871704D01*
X107391200Y-81871232D01*
X107385805Y-81871704D01*
X107169898Y-81890593D01*
X107169893Y-81890593D01*
X107164508Y-81891065D01*
X107159294Y-81892462D01*
X107159283Y-81892464D01*
X106949936Y-81948558D01*
X106949924Y-81948562D01*
X106944704Y-81949961D01*
X106939799Y-81952247D01*
X106939794Y-81952250D01*
X106743376Y-82043842D01*
X106743372Y-82043844D01*
X106738466Y-82046132D01*
X106734033Y-82049235D01*
X106734026Y-82049240D01*
X106556496Y-82173547D01*
X106556491Y-82173550D01*
X106552061Y-82176653D01*
X106548237Y-82180476D01*
X106548231Y-82180482D01*
X106394982Y-82333731D01*
X106394976Y-82333737D01*
X106391153Y-82337561D01*
X106388050Y-82341991D01*
X106388047Y-82341996D01*
X106263740Y-82519526D01*
X106263735Y-82519533D01*
X106260632Y-82523966D01*
X106258344Y-82528872D01*
X106258342Y-82528876D01*
X106166750Y-82725294D01*
X106166747Y-82725299D01*
X106164461Y-82730204D01*
X106163062Y-82735424D01*
X106163058Y-82735436D01*
X106106964Y-82944783D01*
X106106962Y-82944794D01*
X106105565Y-82950008D01*
X106085732Y-83176700D01*
X104140000Y-83176700D01*
X104140000Y-76401278D01*
X106090700Y-76401278D01*
X106090701Y-76404572D01*
X106091053Y-76407850D01*
X106091054Y-76407861D01*
X106096279Y-76456468D01*
X106096280Y-76456473D01*
X106097109Y-76464183D01*
X106099819Y-76471449D01*
X106099820Y-76471453D01*
X106114191Y-76509982D01*
X106147404Y-76599031D01*
X106233654Y-76714246D01*
X106348869Y-76800496D01*
X106483717Y-76850791D01*
X106543327Y-76857200D01*
X108239072Y-76857199D01*
X108298683Y-76850791D01*
X108433531Y-76800496D01*
X108548746Y-76714246D01*
X108634996Y-76599031D01*
X108685291Y-76464183D01*
X108691700Y-76404573D01*
X108691699Y-75556700D01*
X111648332Y-75556700D01*
X111648804Y-75562095D01*
X111664952Y-75746673D01*
X111668165Y-75783392D01*
X111669562Y-75788607D01*
X111669564Y-75788616D01*
X111725658Y-75997963D01*
X111725661Y-75997971D01*
X111727061Y-76003196D01*
X111729349Y-76008103D01*
X111729350Y-76008105D01*
X111750826Y-76054159D01*
X111823232Y-76209434D01*
X111826339Y-76213871D01*
X111826340Y-76213873D01*
X111871203Y-76277944D01*
X111953753Y-76395839D01*
X112114661Y-76556747D01*
X112301066Y-76687268D01*
X112507304Y-76783439D01*
X112512534Y-76784840D01*
X112512536Y-76784841D01*
X112721883Y-76840935D01*
X112727108Y-76842335D01*
X112953800Y-76862168D01*
X113180492Y-76842335D01*
X113400296Y-76783439D01*
X113606534Y-76687268D01*
X113792939Y-76556747D01*
X113953847Y-76395839D01*
X114084368Y-76209434D01*
X114111418Y-76151424D01*
X114157175Y-76099249D01*
X114223800Y-76079830D01*
X114290425Y-76099249D01*
X114336181Y-76151424D01*
X114363232Y-76209434D01*
X114366339Y-76213871D01*
X114366340Y-76213873D01*
X114411203Y-76277944D01*
X114493753Y-76395839D01*
X114654661Y-76556747D01*
X114841066Y-76687268D01*
X115047304Y-76783439D01*
X115052534Y-76784840D01*
X115052536Y-76784841D01*
X115261883Y-76840935D01*
X115267108Y-76842335D01*
X115493800Y-76862168D01*
X115720492Y-76842335D01*
X115940296Y-76783439D01*
X116146534Y-76687268D01*
X116332939Y-76556747D01*
X116493847Y-76395839D01*
X116624368Y-76209434D01*
X116651418Y-76151424D01*
X116697175Y-76099249D01*
X116763800Y-76079830D01*
X116830425Y-76099249D01*
X116876181Y-76151424D01*
X116903232Y-76209434D01*
X116906339Y-76213871D01*
X116906340Y-76213873D01*
X116951203Y-76277944D01*
X117033753Y-76395839D01*
X117194661Y-76556747D01*
X117381066Y-76687268D01*
X117587304Y-76783439D01*
X117592534Y-76784840D01*
X117592536Y-76784841D01*
X117801883Y-76840935D01*
X117807108Y-76842335D01*
X118033800Y-76862168D01*
X118260492Y-76842335D01*
X118480296Y-76783439D01*
X118686534Y-76687268D01*
X118872939Y-76556747D01*
X119033847Y-76395839D01*
X119051073Y-76371236D01*
X119095913Y-76332100D01*
X119153826Y-76318365D01*
X119211468Y-76333198D01*
X119255558Y-76373182D01*
X119275938Y-76429105D01*
X119278879Y-76456468D01*
X119278880Y-76456473D01*
X119279709Y-76464183D01*
X119282419Y-76471449D01*
X119282420Y-76471453D01*
X119296791Y-76509982D01*
X119330004Y-76599031D01*
X119416254Y-76714246D01*
X119531469Y-76800496D01*
X119666317Y-76850791D01*
X119725927Y-76857200D01*
X121421672Y-76857199D01*
X121481283Y-76850791D01*
X121616131Y-76800496D01*
X121731346Y-76714246D01*
X121817596Y-76599031D01*
X121867891Y-76464183D01*
X121874300Y-76404573D01*
X121874299Y-75556700D01*
X124846332Y-75556700D01*
X124846804Y-75562095D01*
X124862952Y-75746673D01*
X124866165Y-75783392D01*
X124867562Y-75788607D01*
X124867564Y-75788616D01*
X124923658Y-75997963D01*
X124923661Y-75997971D01*
X124925061Y-76003196D01*
X124927349Y-76008103D01*
X124927350Y-76008105D01*
X124948826Y-76054159D01*
X125021232Y-76209434D01*
X125024339Y-76213871D01*
X125024340Y-76213873D01*
X125069203Y-76277944D01*
X125151753Y-76395839D01*
X125312661Y-76556747D01*
X125499066Y-76687268D01*
X125705304Y-76783439D01*
X125710534Y-76784840D01*
X125710536Y-76784841D01*
X125919883Y-76840935D01*
X125925108Y-76842335D01*
X126151800Y-76862168D01*
X126378492Y-76842335D01*
X126598296Y-76783439D01*
X126804534Y-76687268D01*
X126990939Y-76556747D01*
X127151847Y-76395839D01*
X127282368Y-76209434D01*
X127309418Y-76151424D01*
X127355175Y-76099249D01*
X127421800Y-76079830D01*
X127488425Y-76099249D01*
X127534181Y-76151424D01*
X127561232Y-76209434D01*
X127564339Y-76213871D01*
X127564340Y-76213873D01*
X127609203Y-76277944D01*
X127691753Y-76395839D01*
X127852661Y-76556747D01*
X128039066Y-76687268D01*
X128245304Y-76783439D01*
X128250534Y-76784840D01*
X128250536Y-76784841D01*
X128459883Y-76840935D01*
X128465108Y-76842335D01*
X128691800Y-76862168D01*
X128918492Y-76842335D01*
X129138296Y-76783439D01*
X129344534Y-76687268D01*
X129530939Y-76556747D01*
X129691847Y-76395839D01*
X129822368Y-76209434D01*
X129849418Y-76151424D01*
X129895175Y-76099249D01*
X129961800Y-76079830D01*
X130028425Y-76099249D01*
X130074181Y-76151424D01*
X130101232Y-76209434D01*
X130104339Y-76213871D01*
X130104340Y-76213873D01*
X130149203Y-76277944D01*
X130231753Y-76395839D01*
X130392661Y-76556747D01*
X130579066Y-76687268D01*
X130785304Y-76783439D01*
X130790534Y-76784840D01*
X130790536Y-76784841D01*
X130999883Y-76840935D01*
X131005108Y-76842335D01*
X131231800Y-76862168D01*
X131458492Y-76842335D01*
X131678296Y-76783439D01*
X131884534Y-76687268D01*
X132070939Y-76556747D01*
X132231847Y-76395839D01*
X132249073Y-76371236D01*
X132293913Y-76332100D01*
X132351826Y-76318365D01*
X132409468Y-76333198D01*
X132453558Y-76373182D01*
X132473938Y-76429105D01*
X132476879Y-76456468D01*
X132476880Y-76456473D01*
X132477709Y-76464183D01*
X132480419Y-76471449D01*
X132480420Y-76471453D01*
X132494791Y-76509982D01*
X132528004Y-76599031D01*
X132614254Y-76714246D01*
X132729469Y-76800496D01*
X132864317Y-76850791D01*
X132923927Y-76857200D01*
X134619672Y-76857199D01*
X134679283Y-76850791D01*
X134814131Y-76800496D01*
X134929346Y-76714246D01*
X135015596Y-76599031D01*
X135065891Y-76464183D01*
X135072300Y-76404573D01*
X135072299Y-74708828D01*
X135065891Y-74649217D01*
X135015596Y-74514369D01*
X134929346Y-74399154D01*
X134814131Y-74312904D01*
X134701955Y-74271065D01*
X134686552Y-74265320D01*
X134686550Y-74265319D01*
X134679283Y-74262609D01*
X134671570Y-74261779D01*
X134671567Y-74261779D01*
X134622980Y-74256555D01*
X134622969Y-74256554D01*
X134619673Y-74256200D01*
X134616350Y-74256200D01*
X132927239Y-74256200D01*
X132927220Y-74256200D01*
X132923928Y-74256201D01*
X132920650Y-74256553D01*
X132920638Y-74256554D01*
X132872031Y-74261779D01*
X132872025Y-74261780D01*
X132864317Y-74262609D01*
X132857052Y-74265318D01*
X132857046Y-74265320D01*
X132737780Y-74309804D01*
X132737778Y-74309804D01*
X132729469Y-74312904D01*
X132722372Y-74318216D01*
X132722368Y-74318219D01*
X132621350Y-74393841D01*
X132621346Y-74393844D01*
X132614254Y-74399154D01*
X132608944Y-74406246D01*
X132608941Y-74406250D01*
X132533319Y-74507268D01*
X132533316Y-74507272D01*
X132528004Y-74514369D01*
X132524904Y-74522678D01*
X132524904Y-74522680D01*
X132480420Y-74641947D01*
X132480419Y-74641950D01*
X132477709Y-74649217D01*
X132476879Y-74656927D01*
X132476879Y-74656932D01*
X132473937Y-74684297D01*
X132453557Y-74740218D01*
X132409468Y-74780201D01*
X132351827Y-74795034D01*
X132293914Y-74781300D01*
X132249073Y-74742163D01*
X132231847Y-74717561D01*
X132070939Y-74556653D01*
X131897782Y-74435408D01*
X131888973Y-74429240D01*
X131888971Y-74429239D01*
X131884534Y-74426132D01*
X131678296Y-74329961D01*
X131673071Y-74328561D01*
X131673063Y-74328558D01*
X131463716Y-74272464D01*
X131463707Y-74272462D01*
X131458492Y-74271065D01*
X131453104Y-74270593D01*
X131453101Y-74270593D01*
X131237195Y-74251704D01*
X131231800Y-74251232D01*
X131226405Y-74251704D01*
X131010498Y-74270593D01*
X131010493Y-74270593D01*
X131005108Y-74271065D01*
X130999894Y-74272462D01*
X130999883Y-74272464D01*
X130790536Y-74328558D01*
X130790524Y-74328562D01*
X130785304Y-74329961D01*
X130780399Y-74332247D01*
X130780394Y-74332250D01*
X130583976Y-74423842D01*
X130583972Y-74423844D01*
X130579066Y-74426132D01*
X130574633Y-74429235D01*
X130574626Y-74429240D01*
X130397096Y-74553547D01*
X130397091Y-74553550D01*
X130392661Y-74556653D01*
X130388837Y-74560476D01*
X130388831Y-74560482D01*
X130235582Y-74713731D01*
X130235576Y-74713737D01*
X130231753Y-74717561D01*
X130228650Y-74721991D01*
X130228647Y-74721996D01*
X130104340Y-74899526D01*
X130104335Y-74899533D01*
X130101232Y-74903966D01*
X130098948Y-74908863D01*
X130098941Y-74908876D01*
X130074182Y-74961974D01*
X130028425Y-75014150D01*
X129961800Y-75033569D01*
X129895175Y-75014150D01*
X129849418Y-74961974D01*
X129824658Y-74908876D01*
X129824655Y-74908872D01*
X129822368Y-74903966D01*
X129691847Y-74717561D01*
X129530939Y-74556653D01*
X129357782Y-74435408D01*
X129348973Y-74429240D01*
X129348971Y-74429239D01*
X129344534Y-74426132D01*
X129138296Y-74329961D01*
X129133071Y-74328561D01*
X129133063Y-74328558D01*
X128923716Y-74272464D01*
X128923707Y-74272462D01*
X128918492Y-74271065D01*
X128913104Y-74270593D01*
X128913101Y-74270593D01*
X128697195Y-74251704D01*
X128691800Y-74251232D01*
X128686405Y-74251704D01*
X128470498Y-74270593D01*
X128470493Y-74270593D01*
X128465108Y-74271065D01*
X128459894Y-74272462D01*
X128459883Y-74272464D01*
X128250536Y-74328558D01*
X128250524Y-74328562D01*
X128245304Y-74329961D01*
X128240399Y-74332247D01*
X128240394Y-74332250D01*
X128043976Y-74423842D01*
X128043972Y-74423844D01*
X128039066Y-74426132D01*
X128034633Y-74429235D01*
X128034626Y-74429240D01*
X127857096Y-74553547D01*
X127857091Y-74553550D01*
X127852661Y-74556653D01*
X127848837Y-74560476D01*
X127848831Y-74560482D01*
X127695582Y-74713731D01*
X127695576Y-74713737D01*
X127691753Y-74717561D01*
X127688650Y-74721991D01*
X127688647Y-74721996D01*
X127564340Y-74899526D01*
X127564335Y-74899533D01*
X127561232Y-74903966D01*
X127558948Y-74908863D01*
X127558941Y-74908876D01*
X127534182Y-74961974D01*
X127488425Y-75014150D01*
X127421800Y-75033569D01*
X127355175Y-75014150D01*
X127309418Y-74961974D01*
X127284658Y-74908876D01*
X127284655Y-74908872D01*
X127282368Y-74903966D01*
X127151847Y-74717561D01*
X126990939Y-74556653D01*
X126817782Y-74435408D01*
X126808973Y-74429240D01*
X126808971Y-74429239D01*
X126804534Y-74426132D01*
X126598296Y-74329961D01*
X126593071Y-74328561D01*
X126593063Y-74328558D01*
X126383716Y-74272464D01*
X126383707Y-74272462D01*
X126378492Y-74271065D01*
X126373104Y-74270593D01*
X126373101Y-74270593D01*
X126157195Y-74251704D01*
X126151800Y-74251232D01*
X126146405Y-74251704D01*
X125930498Y-74270593D01*
X125930493Y-74270593D01*
X125925108Y-74271065D01*
X125919894Y-74272462D01*
X125919883Y-74272464D01*
X125710536Y-74328558D01*
X125710524Y-74328562D01*
X125705304Y-74329961D01*
X125700399Y-74332247D01*
X125700394Y-74332250D01*
X125503976Y-74423842D01*
X125503972Y-74423844D01*
X125499066Y-74426132D01*
X125494633Y-74429235D01*
X125494626Y-74429240D01*
X125317096Y-74553547D01*
X125317091Y-74553550D01*
X125312661Y-74556653D01*
X125308837Y-74560476D01*
X125308831Y-74560482D01*
X125155582Y-74713731D01*
X125155576Y-74713737D01*
X125151753Y-74717561D01*
X125148650Y-74721991D01*
X125148647Y-74721996D01*
X125024340Y-74899526D01*
X125024335Y-74899533D01*
X125021232Y-74903966D01*
X125018944Y-74908872D01*
X125018942Y-74908876D01*
X124927350Y-75105294D01*
X124927347Y-75105299D01*
X124925061Y-75110204D01*
X124923662Y-75115424D01*
X124923658Y-75115436D01*
X124867564Y-75324783D01*
X124867562Y-75324794D01*
X124866165Y-75330008D01*
X124865693Y-75335393D01*
X124865693Y-75335398D01*
X124853917Y-75470000D01*
X124846332Y-75556700D01*
X121874299Y-75556700D01*
X121874299Y-74708828D01*
X121867891Y-74649217D01*
X121817596Y-74514369D01*
X121731346Y-74399154D01*
X121616131Y-74312904D01*
X121503955Y-74271065D01*
X121488552Y-74265320D01*
X121488550Y-74265319D01*
X121481283Y-74262609D01*
X121473570Y-74261779D01*
X121473567Y-74261779D01*
X121424980Y-74256555D01*
X121424969Y-74256554D01*
X121421673Y-74256200D01*
X121418350Y-74256200D01*
X119729239Y-74256200D01*
X119729220Y-74256200D01*
X119725928Y-74256201D01*
X119722650Y-74256553D01*
X119722638Y-74256554D01*
X119674031Y-74261779D01*
X119674025Y-74261780D01*
X119666317Y-74262609D01*
X119659052Y-74265318D01*
X119659046Y-74265320D01*
X119539780Y-74309804D01*
X119539778Y-74309804D01*
X119531469Y-74312904D01*
X119524372Y-74318216D01*
X119524368Y-74318219D01*
X119423350Y-74393841D01*
X119423346Y-74393844D01*
X119416254Y-74399154D01*
X119410944Y-74406246D01*
X119410941Y-74406250D01*
X119335319Y-74507268D01*
X119335316Y-74507272D01*
X119330004Y-74514369D01*
X119326904Y-74522678D01*
X119326904Y-74522680D01*
X119282420Y-74641947D01*
X119282419Y-74641950D01*
X119279709Y-74649217D01*
X119278879Y-74656927D01*
X119278879Y-74656932D01*
X119275937Y-74684297D01*
X119255557Y-74740218D01*
X119211468Y-74780201D01*
X119153827Y-74795034D01*
X119095914Y-74781300D01*
X119051073Y-74742163D01*
X119033847Y-74717561D01*
X118872939Y-74556653D01*
X118699782Y-74435408D01*
X118690973Y-74429240D01*
X118690971Y-74429239D01*
X118686534Y-74426132D01*
X118480296Y-74329961D01*
X118475071Y-74328561D01*
X118475063Y-74328558D01*
X118265716Y-74272464D01*
X118265707Y-74272462D01*
X118260492Y-74271065D01*
X118255104Y-74270593D01*
X118255101Y-74270593D01*
X118039195Y-74251704D01*
X118033800Y-74251232D01*
X118028405Y-74251704D01*
X117812498Y-74270593D01*
X117812493Y-74270593D01*
X117807108Y-74271065D01*
X117801894Y-74272462D01*
X117801883Y-74272464D01*
X117592536Y-74328558D01*
X117592524Y-74328562D01*
X117587304Y-74329961D01*
X117582399Y-74332247D01*
X117582394Y-74332250D01*
X117385976Y-74423842D01*
X117385972Y-74423844D01*
X117381066Y-74426132D01*
X117376633Y-74429235D01*
X117376626Y-74429240D01*
X117199096Y-74553547D01*
X117199091Y-74553550D01*
X117194661Y-74556653D01*
X117190837Y-74560476D01*
X117190831Y-74560482D01*
X117037582Y-74713731D01*
X117037576Y-74713737D01*
X117033753Y-74717561D01*
X117030650Y-74721991D01*
X117030647Y-74721996D01*
X116906340Y-74899526D01*
X116906335Y-74899533D01*
X116903232Y-74903966D01*
X116900948Y-74908863D01*
X116900941Y-74908876D01*
X116876182Y-74961974D01*
X116830425Y-75014150D01*
X116763800Y-75033569D01*
X116697175Y-75014150D01*
X116651418Y-74961974D01*
X116626658Y-74908876D01*
X116626655Y-74908872D01*
X116624368Y-74903966D01*
X116493847Y-74717561D01*
X116332939Y-74556653D01*
X116159782Y-74435408D01*
X116150973Y-74429240D01*
X116150971Y-74429239D01*
X116146534Y-74426132D01*
X115940296Y-74329961D01*
X115935071Y-74328561D01*
X115935063Y-74328558D01*
X115725716Y-74272464D01*
X115725707Y-74272462D01*
X115720492Y-74271065D01*
X115715104Y-74270593D01*
X115715101Y-74270593D01*
X115499195Y-74251704D01*
X115493800Y-74251232D01*
X115488405Y-74251704D01*
X115272498Y-74270593D01*
X115272493Y-74270593D01*
X115267108Y-74271065D01*
X115261894Y-74272462D01*
X115261883Y-74272464D01*
X115052536Y-74328558D01*
X115052524Y-74328562D01*
X115047304Y-74329961D01*
X115042399Y-74332247D01*
X115042394Y-74332250D01*
X114845976Y-74423842D01*
X114845972Y-74423844D01*
X114841066Y-74426132D01*
X114836633Y-74429235D01*
X114836626Y-74429240D01*
X114659096Y-74553547D01*
X114659091Y-74553550D01*
X114654661Y-74556653D01*
X114650837Y-74560476D01*
X114650831Y-74560482D01*
X114497582Y-74713731D01*
X114497576Y-74713737D01*
X114493753Y-74717561D01*
X114490650Y-74721991D01*
X114490647Y-74721996D01*
X114366340Y-74899526D01*
X114366335Y-74899533D01*
X114363232Y-74903966D01*
X114360948Y-74908863D01*
X114360941Y-74908876D01*
X114336182Y-74961974D01*
X114290425Y-75014150D01*
X114223800Y-75033569D01*
X114157175Y-75014150D01*
X114111418Y-74961974D01*
X114086658Y-74908876D01*
X114086655Y-74908872D01*
X114084368Y-74903966D01*
X113953847Y-74717561D01*
X113792939Y-74556653D01*
X113619782Y-74435408D01*
X113610973Y-74429240D01*
X113610971Y-74429239D01*
X113606534Y-74426132D01*
X113400296Y-74329961D01*
X113395071Y-74328561D01*
X113395063Y-74328558D01*
X113185716Y-74272464D01*
X113185707Y-74272462D01*
X113180492Y-74271065D01*
X113175104Y-74270593D01*
X113175101Y-74270593D01*
X112959195Y-74251704D01*
X112953800Y-74251232D01*
X112948405Y-74251704D01*
X112732498Y-74270593D01*
X112732493Y-74270593D01*
X112727108Y-74271065D01*
X112721894Y-74272462D01*
X112721883Y-74272464D01*
X112512536Y-74328558D01*
X112512524Y-74328562D01*
X112507304Y-74329961D01*
X112502399Y-74332247D01*
X112502394Y-74332250D01*
X112305976Y-74423842D01*
X112305972Y-74423844D01*
X112301066Y-74426132D01*
X112296633Y-74429235D01*
X112296626Y-74429240D01*
X112119096Y-74553547D01*
X112119091Y-74553550D01*
X112114661Y-74556653D01*
X112110837Y-74560476D01*
X112110831Y-74560482D01*
X111957582Y-74713731D01*
X111957576Y-74713737D01*
X111953753Y-74717561D01*
X111950650Y-74721991D01*
X111950647Y-74721996D01*
X111826340Y-74899526D01*
X111826335Y-74899533D01*
X111823232Y-74903966D01*
X111820944Y-74908872D01*
X111820942Y-74908876D01*
X111729350Y-75105294D01*
X111729347Y-75105299D01*
X111727061Y-75110204D01*
X111725662Y-75115424D01*
X111725658Y-75115436D01*
X111669564Y-75324783D01*
X111669562Y-75324794D01*
X111668165Y-75330008D01*
X111667693Y-75335393D01*
X111667693Y-75335398D01*
X111655917Y-75470000D01*
X111648332Y-75556700D01*
X108691699Y-75556700D01*
X108691699Y-74708828D01*
X108685291Y-74649217D01*
X108634996Y-74514369D01*
X108548746Y-74399154D01*
X108433531Y-74312904D01*
X108321355Y-74271065D01*
X108305952Y-74265320D01*
X108305950Y-74265319D01*
X108298683Y-74262609D01*
X108290970Y-74261779D01*
X108290967Y-74261779D01*
X108242380Y-74256555D01*
X108242369Y-74256554D01*
X108239073Y-74256200D01*
X108235750Y-74256200D01*
X106546639Y-74256200D01*
X106546620Y-74256200D01*
X106543328Y-74256201D01*
X106540050Y-74256553D01*
X106540038Y-74256554D01*
X106491431Y-74261779D01*
X106491425Y-74261780D01*
X106483717Y-74262609D01*
X106476452Y-74265318D01*
X106476446Y-74265320D01*
X106357180Y-74309804D01*
X106357178Y-74309804D01*
X106348869Y-74312904D01*
X106341772Y-74318216D01*
X106341768Y-74318219D01*
X106240750Y-74393841D01*
X106240746Y-74393844D01*
X106233654Y-74399154D01*
X106228344Y-74406246D01*
X106228341Y-74406250D01*
X106152719Y-74507268D01*
X106152716Y-74507272D01*
X106147404Y-74514369D01*
X106144304Y-74522678D01*
X106144304Y-74522680D01*
X106099820Y-74641947D01*
X106099819Y-74641950D01*
X106097109Y-74649217D01*
X106096279Y-74656927D01*
X106096279Y-74656932D01*
X106091055Y-74705519D01*
X106091054Y-74705531D01*
X106090700Y-74708827D01*
X106090700Y-74712148D01*
X106090700Y-74712149D01*
X106090700Y-76401260D01*
X106090700Y-76401278D01*
X104140000Y-76401278D01*
X104140000Y-72898000D01*
X135822740Y-72898000D01*
X135823419Y-72904460D01*
X135841846Y-73079795D01*
X135841847Y-73079803D01*
X135842526Y-73086256D01*
X135844531Y-73092428D01*
X135844533Y-73092435D01*
X135899013Y-73260105D01*
X135901021Y-73266284D01*
X135904268Y-73271908D01*
X135904269Y-73271910D01*
X135992268Y-73424330D01*
X135995667Y-73430216D01*
X136000011Y-73435041D01*
X136000013Y-73435043D01*
X136082885Y-73527081D01*
X136122329Y-73570888D01*
X136275470Y-73682151D01*
X136448397Y-73759144D01*
X136633554Y-73798500D01*
X136816343Y-73798500D01*
X136822846Y-73798500D01*
X137008003Y-73759144D01*
X137180930Y-73682151D01*
X137334071Y-73570888D01*
X137339801Y-73564523D01*
X137341471Y-73563310D01*
X137343250Y-73561709D01*
X137343418Y-73561895D01*
X137381515Y-73534219D01*
X137431948Y-73523500D01*
X145600252Y-73523500D01*
X145650685Y-73534219D01*
X145688781Y-73561895D01*
X145688950Y-73561709D01*
X145690728Y-73563310D01*
X145692398Y-73564523D01*
X145698129Y-73570888D01*
X145851270Y-73682151D01*
X146024197Y-73759144D01*
X146209354Y-73798500D01*
X146392143Y-73798500D01*
X146398646Y-73798500D01*
X146583803Y-73759144D01*
X146756730Y-73682151D01*
X146909871Y-73570888D01*
X147036533Y-73430216D01*
X147131179Y-73266284D01*
X147189674Y-73086256D01*
X147209460Y-72898000D01*
X147189674Y-72709744D01*
X147131179Y-72529716D01*
X147036533Y-72365784D01*
X146952539Y-72272500D01*
X146914220Y-72229942D01*
X146914219Y-72229941D01*
X146909871Y-72225112D01*
X146904613Y-72221292D01*
X146904611Y-72221290D01*
X146761988Y-72117669D01*
X146761987Y-72117668D01*
X146756730Y-72113849D01*
X146750792Y-72111205D01*
X146589745Y-72039501D01*
X146589740Y-72039499D01*
X146583803Y-72036856D01*
X146577444Y-72035504D01*
X146577440Y-72035503D01*
X146405008Y-71998852D01*
X146405005Y-71998851D01*
X146398646Y-71997500D01*
X146209354Y-71997500D01*
X146202995Y-71998851D01*
X146202991Y-71998852D01*
X146030559Y-72035503D01*
X146030552Y-72035505D01*
X146024197Y-72036856D01*
X146018262Y-72039498D01*
X146018254Y-72039501D01*
X145857207Y-72111205D01*
X145857202Y-72111207D01*
X145851270Y-72113849D01*
X145846016Y-72117665D01*
X145846011Y-72117669D01*
X145703388Y-72221290D01*
X145703381Y-72221295D01*
X145698129Y-72225112D01*
X145693780Y-72229941D01*
X145693781Y-72229941D01*
X145692399Y-72231476D01*
X145690728Y-72232689D01*
X145688950Y-72234291D01*
X145688781Y-72234104D01*
X145650685Y-72261781D01*
X145600252Y-72272500D01*
X137431948Y-72272500D01*
X137381515Y-72261781D01*
X137343418Y-72234104D01*
X137343250Y-72234291D01*
X137341471Y-72232689D01*
X137339801Y-72231476D01*
X137334071Y-72225112D01*
X137328813Y-72221292D01*
X137328811Y-72221290D01*
X137186188Y-72117669D01*
X137186187Y-72117668D01*
X137180930Y-72113849D01*
X137174992Y-72111205D01*
X137013945Y-72039501D01*
X137013940Y-72039499D01*
X137008003Y-72036856D01*
X137001644Y-72035504D01*
X137001640Y-72035503D01*
X136829208Y-71998852D01*
X136829205Y-71998851D01*
X136822846Y-71997500D01*
X136633554Y-71997500D01*
X136627195Y-71998851D01*
X136627191Y-71998852D01*
X136454759Y-72035503D01*
X136454752Y-72035505D01*
X136448397Y-72036856D01*
X136442462Y-72039498D01*
X136442454Y-72039501D01*
X136281407Y-72111205D01*
X136281402Y-72111207D01*
X136275470Y-72113849D01*
X136270216Y-72117665D01*
X136270211Y-72117669D01*
X136127588Y-72221290D01*
X136127581Y-72221295D01*
X136122329Y-72225112D01*
X136117984Y-72229937D01*
X136117979Y-72229942D01*
X136000013Y-72360956D01*
X136000008Y-72360962D01*
X135995667Y-72365784D01*
X135992422Y-72371404D01*
X135992418Y-72371410D01*
X135904269Y-72524089D01*
X135904266Y-72524094D01*
X135901021Y-72529716D01*
X135899015Y-72535888D01*
X135899013Y-72535894D01*
X135844533Y-72703564D01*
X135844531Y-72703573D01*
X135842526Y-72709744D01*
X135841848Y-72716194D01*
X135841846Y-72716204D01*
X135826215Y-72864937D01*
X135822740Y-72898000D01*
X104140000Y-72898000D01*
X104140000Y-62746211D01*
X104142381Y-62722028D01*
X104154219Y-62662514D01*
X104172729Y-62617826D01*
X104199524Y-62577724D01*
X104233724Y-62543524D01*
X104273826Y-62516729D01*
X104318514Y-62498219D01*
X104378028Y-62486381D01*
X104402211Y-62484000D01*
X110487904Y-62484000D01*
X110494000Y-62484000D01*
X110744000Y-62484000D01*
X110744000Y-60478564D01*
X112168000Y-60478564D01*
X112168223Y-60483820D01*
X112182377Y-60650116D01*
X112184151Y-60660465D01*
X112240259Y-60875951D01*
X112243760Y-60885857D01*
X112335475Y-61088754D01*
X112340598Y-61097924D01*
X112465287Y-61282408D01*
X112471884Y-61290578D01*
X112625959Y-61451337D01*
X112633830Y-61458265D01*
X112812875Y-61590686D01*
X112821798Y-61596181D01*
X113020637Y-61696432D01*
X113030374Y-61700345D01*
X113243293Y-61765551D01*
X113253547Y-61767761D01*
X113270479Y-61769929D01*
X113284138Y-61767785D01*
X113287363Y-61756699D01*
X113788000Y-61756699D01*
X113790455Y-61767534D01*
X113801564Y-61767652D01*
X113935469Y-61738793D01*
X113945507Y-61735719D01*
X114152124Y-61652693D01*
X114161488Y-61647972D01*
X114351113Y-61531216D01*
X114359543Y-61524981D01*
X114526699Y-61377864D01*
X114533968Y-61370280D01*
X114673850Y-61197039D01*
X114679730Y-61188340D01*
X114699788Y-61152435D01*
X114743027Y-61107318D01*
X114802779Y-61089019D01*
X114863868Y-61102184D01*
X114910777Y-61143469D01*
X115007847Y-61287088D01*
X115169272Y-61455516D01*
X115356839Y-61594240D01*
X115565153Y-61699270D01*
X115788220Y-61767583D01*
X116019624Y-61797216D01*
X116252707Y-61787314D01*
X116480765Y-61738164D01*
X116697235Y-61651179D01*
X116895891Y-61528862D01*
X117071018Y-61374731D01*
X117103922Y-61333979D01*
X117153822Y-61296960D01*
X117215419Y-61288794D01*
X117273244Y-61311536D01*
X117311876Y-61358381D01*
X117313186Y-61362334D01*
X117316975Y-61368477D01*
X117316976Y-61368479D01*
X117401497Y-61505511D01*
X117401500Y-61505515D01*
X117405288Y-61511656D01*
X117529344Y-61635712D01*
X117535485Y-61639500D01*
X117535488Y-61639502D01*
X117590026Y-61673141D01*
X117678666Y-61727814D01*
X117845203Y-61782999D01*
X117947991Y-61793500D01*
X119288008Y-61793499D01*
X119390797Y-61782999D01*
X119557334Y-61727814D01*
X119706656Y-61635712D01*
X119830712Y-61511656D01*
X119922814Y-61362334D01*
X119977999Y-61195797D01*
X119988500Y-61093009D01*
X119988499Y-60478564D01*
X122920666Y-60478564D01*
X122920889Y-60483820D01*
X122935043Y-60650116D01*
X122936817Y-60660465D01*
X122992925Y-60875951D01*
X122996426Y-60885857D01*
X123088141Y-61088754D01*
X123093264Y-61097924D01*
X123217953Y-61282408D01*
X123224550Y-61290578D01*
X123378625Y-61451337D01*
X123386496Y-61458265D01*
X123565541Y-61590686D01*
X123574464Y-61596181D01*
X123773303Y-61696432D01*
X123783040Y-61700345D01*
X123995959Y-61765551D01*
X124006213Y-61767761D01*
X124023145Y-61769929D01*
X124036804Y-61767785D01*
X124040029Y-61756699D01*
X124540666Y-61756699D01*
X124543121Y-61767534D01*
X124554230Y-61767652D01*
X124688135Y-61738793D01*
X124698173Y-61735719D01*
X124904790Y-61652693D01*
X124914154Y-61647972D01*
X125103779Y-61531216D01*
X125112209Y-61524981D01*
X125279365Y-61377864D01*
X125286634Y-61370280D01*
X125426516Y-61197039D01*
X125432396Y-61188340D01*
X125452454Y-61152435D01*
X125495693Y-61107318D01*
X125555445Y-61089019D01*
X125616534Y-61102184D01*
X125663443Y-61143469D01*
X125760513Y-61287088D01*
X125921938Y-61455516D01*
X126109505Y-61594240D01*
X126317819Y-61699270D01*
X126540886Y-61767583D01*
X126772290Y-61797216D01*
X127005373Y-61787314D01*
X127233431Y-61738164D01*
X127449901Y-61651179D01*
X127648557Y-61528862D01*
X127823684Y-61374731D01*
X127856588Y-61333979D01*
X127906488Y-61296960D01*
X127968085Y-61288794D01*
X128025910Y-61311536D01*
X128064542Y-61358381D01*
X128065852Y-61362334D01*
X128069641Y-61368477D01*
X128069642Y-61368479D01*
X128154163Y-61505511D01*
X128154166Y-61505515D01*
X128157954Y-61511656D01*
X128282010Y-61635712D01*
X128288151Y-61639500D01*
X128288154Y-61639502D01*
X128342692Y-61673141D01*
X128431332Y-61727814D01*
X128597869Y-61782999D01*
X128700657Y-61793500D01*
X130040674Y-61793499D01*
X130143463Y-61782999D01*
X130310000Y-61727814D01*
X130459322Y-61635712D01*
X130583378Y-61511656D01*
X130675480Y-61362334D01*
X130730665Y-61195797D01*
X130741166Y-61093009D01*
X130741165Y-60458564D01*
X133673332Y-60458564D01*
X133673555Y-60463820D01*
X133687709Y-60630116D01*
X133689483Y-60640465D01*
X133745591Y-60855951D01*
X133749092Y-60865857D01*
X133840807Y-61068754D01*
X133845930Y-61077924D01*
X133970619Y-61262408D01*
X133977216Y-61270578D01*
X134131291Y-61431337D01*
X134139162Y-61438265D01*
X134318207Y-61570686D01*
X134327130Y-61576181D01*
X134525969Y-61676432D01*
X134535706Y-61680345D01*
X134748625Y-61745551D01*
X134758879Y-61747761D01*
X134775811Y-61749929D01*
X134789470Y-61747785D01*
X134792695Y-61736699D01*
X135293332Y-61736699D01*
X135295787Y-61747534D01*
X135306896Y-61747652D01*
X135440801Y-61718793D01*
X135450839Y-61715719D01*
X135657456Y-61632693D01*
X135666820Y-61627972D01*
X135856445Y-61511216D01*
X135864875Y-61504981D01*
X136032031Y-61357864D01*
X136039300Y-61350280D01*
X136179182Y-61177039D01*
X136185062Y-61168340D01*
X136205120Y-61132435D01*
X136248359Y-61087318D01*
X136308111Y-61069019D01*
X136369200Y-61082184D01*
X136416109Y-61123469D01*
X136513179Y-61267088D01*
X136674604Y-61435516D01*
X136862171Y-61574240D01*
X137070485Y-61679270D01*
X137293552Y-61747583D01*
X137524956Y-61777216D01*
X137758039Y-61767314D01*
X137986097Y-61718164D01*
X138202567Y-61631179D01*
X138401223Y-61508862D01*
X138576350Y-61354731D01*
X138609254Y-61313979D01*
X138659154Y-61276960D01*
X138720751Y-61268794D01*
X138778576Y-61291536D01*
X138817208Y-61338381D01*
X138818518Y-61342334D01*
X138822307Y-61348477D01*
X138822308Y-61348479D01*
X138906829Y-61485511D01*
X138906832Y-61485515D01*
X138910620Y-61491656D01*
X139034676Y-61615712D01*
X139040817Y-61619500D01*
X139040820Y-61619502D01*
X139094632Y-61652693D01*
X139183998Y-61707814D01*
X139350535Y-61762999D01*
X139453323Y-61773500D01*
X140793340Y-61773499D01*
X140896129Y-61762999D01*
X141062666Y-61707814D01*
X141211988Y-61615712D01*
X141336044Y-61491656D01*
X141428146Y-61342334D01*
X141483331Y-61175797D01*
X141493832Y-61073009D01*
X141493831Y-60458564D01*
X144426000Y-60458564D01*
X144426223Y-60463820D01*
X144440377Y-60630116D01*
X144442151Y-60640465D01*
X144498259Y-60855951D01*
X144501760Y-60865857D01*
X144593475Y-61068754D01*
X144598598Y-61077924D01*
X144723287Y-61262408D01*
X144729884Y-61270578D01*
X144883959Y-61431337D01*
X144891830Y-61438265D01*
X145070875Y-61570686D01*
X145079798Y-61576181D01*
X145278637Y-61676432D01*
X145288374Y-61680345D01*
X145501293Y-61745551D01*
X145511547Y-61747761D01*
X145528479Y-61749929D01*
X145542138Y-61747785D01*
X145546000Y-61734509D01*
X145546000Y-60444326D01*
X145542549Y-60431450D01*
X145529674Y-60428000D01*
X144442326Y-60428000D01*
X144429450Y-60431450D01*
X144426000Y-60444326D01*
X144426000Y-60458564D01*
X141493831Y-60458564D01*
X141493831Y-59911674D01*
X144426000Y-59911674D01*
X144429450Y-59924549D01*
X144442326Y-59928000D01*
X145529674Y-59928000D01*
X145542549Y-59924549D01*
X145546000Y-59911674D01*
X145546000Y-58619301D01*
X145543544Y-58608465D01*
X145532435Y-58608347D01*
X145398530Y-58637206D01*
X145388492Y-58640280D01*
X145181875Y-58723306D01*
X145172511Y-58728027D01*
X144982886Y-58844783D01*
X144974456Y-58851018D01*
X144807300Y-58998135D01*
X144800031Y-59005719D01*
X144660149Y-59178960D01*
X144654269Y-59187659D01*
X144545673Y-59382054D01*
X144541348Y-59391624D01*
X144467168Y-59601572D01*
X144464521Y-59611739D01*
X144426890Y-59831202D01*
X144426000Y-59841663D01*
X144426000Y-59911674D01*
X141493831Y-59911674D01*
X141493831Y-59282992D01*
X141483331Y-59180203D01*
X141428146Y-59013666D01*
X141357567Y-58899238D01*
X141339834Y-58870488D01*
X141339832Y-58870485D01*
X141336044Y-58864344D01*
X141211988Y-58740288D01*
X141205847Y-58736500D01*
X141205843Y-58736497D01*
X141077290Y-58657206D01*
X141062666Y-58648186D01*
X141038807Y-58640280D01*
X140902557Y-58595131D01*
X140902556Y-58595130D01*
X140896129Y-58593001D01*
X140889396Y-58592313D01*
X140889391Y-58592312D01*
X140796472Y-58582819D01*
X140796455Y-58582818D01*
X140793341Y-58582500D01*
X140790192Y-58582500D01*
X139456472Y-58582500D01*
X139456452Y-58582500D01*
X139453324Y-58582501D01*
X139450192Y-58582820D01*
X139450190Y-58582821D01*
X139357270Y-58592312D01*
X139357260Y-58592313D01*
X139350535Y-58593001D01*
X139344113Y-58595128D01*
X139344108Y-58595130D01*
X139190853Y-58645914D01*
X139190849Y-58645915D01*
X139183998Y-58648186D01*
X139177854Y-58651975D01*
X139177851Y-58651977D01*
X139040820Y-58736497D01*
X139040812Y-58736503D01*
X139034676Y-58740288D01*
X139029574Y-58745389D01*
X139029570Y-58745393D01*
X138915725Y-58859238D01*
X138915721Y-58859242D01*
X138910620Y-58864344D01*
X138906835Y-58870480D01*
X138906829Y-58870488D01*
X138822310Y-59007517D01*
X138822309Y-59007519D01*
X138818518Y-59013666D01*
X138817179Y-59017705D01*
X138780659Y-59062960D01*
X138725931Y-59086521D01*
X138666532Y-59081835D01*
X138616176Y-59049984D01*
X138495702Y-58924284D01*
X138492060Y-58920484D01*
X138470237Y-58904344D01*
X138398136Y-58851018D01*
X138304493Y-58781760D01*
X138299797Y-58779392D01*
X138299795Y-58779391D01*
X138137118Y-58697371D01*
X138096179Y-58676730D01*
X138042464Y-58660280D01*
X137878148Y-58609959D01*
X137878145Y-58609958D01*
X137873112Y-58608417D01*
X137867888Y-58607748D01*
X137646925Y-58579452D01*
X137646924Y-58579451D01*
X137641708Y-58578784D01*
X137636453Y-58579007D01*
X137636449Y-58579007D01*
X137413890Y-58588462D01*
X137413886Y-58588462D01*
X137408625Y-58588686D01*
X137403485Y-58589793D01*
X137403475Y-58589795D01*
X137185715Y-58636726D01*
X137185709Y-58636727D01*
X137180567Y-58637836D01*
X137175683Y-58639798D01*
X137175678Y-58639800D01*
X136968981Y-58722858D01*
X136968976Y-58722860D01*
X136964097Y-58724821D01*
X136959620Y-58727577D01*
X136959617Y-58727579D01*
X136769920Y-58844379D01*
X136769910Y-58844386D01*
X136765441Y-58847138D01*
X136761499Y-58850607D01*
X136761490Y-58850614D01*
X136632338Y-58964283D01*
X136590314Y-59001269D01*
X136587006Y-59005365D01*
X136587001Y-59005371D01*
X136487249Y-59128912D01*
X136443754Y-59182780D01*
X136441188Y-59187372D01*
X136441182Y-59187382D01*
X136420953Y-59223593D01*
X136377713Y-59268707D01*
X136317962Y-59287004D01*
X136256875Y-59273838D01*
X136209966Y-59232553D01*
X136116044Y-59093591D01*
X136109447Y-59085421D01*
X135955372Y-58924662D01*
X135947501Y-58917734D01*
X135768456Y-58785313D01*
X135759533Y-58779818D01*
X135560694Y-58679567D01*
X135550957Y-58675654D01*
X135338038Y-58610448D01*
X135327784Y-58608238D01*
X135310852Y-58606070D01*
X135297193Y-58608214D01*
X135293332Y-58621491D01*
X135293332Y-61736699D01*
X134792695Y-61736699D01*
X134793332Y-61734509D01*
X134793332Y-60444326D01*
X134789881Y-60431450D01*
X134777006Y-60428000D01*
X133689658Y-60428000D01*
X133676782Y-60431450D01*
X133673332Y-60444326D01*
X133673332Y-60458564D01*
X130741165Y-60458564D01*
X130741165Y-59911674D01*
X133673332Y-59911674D01*
X133676782Y-59924549D01*
X133689658Y-59928000D01*
X134777006Y-59928000D01*
X134789881Y-59924549D01*
X134793332Y-59911674D01*
X134793332Y-58619301D01*
X134790876Y-58608465D01*
X134779767Y-58608347D01*
X134645862Y-58637206D01*
X134635824Y-58640280D01*
X134429207Y-58723306D01*
X134419843Y-58728027D01*
X134230218Y-58844783D01*
X134221788Y-58851018D01*
X134054632Y-58998135D01*
X134047363Y-59005719D01*
X133907481Y-59178960D01*
X133901601Y-59187659D01*
X133793005Y-59382054D01*
X133788680Y-59391624D01*
X133714500Y-59601572D01*
X133711853Y-59611739D01*
X133674222Y-59831202D01*
X133673332Y-59841663D01*
X133673332Y-59911674D01*
X130741165Y-59911674D01*
X130741165Y-59302992D01*
X130730665Y-59200203D01*
X130675480Y-59033666D01*
X130592565Y-58899238D01*
X130587168Y-58890488D01*
X130587166Y-58890485D01*
X130583378Y-58884344D01*
X130459322Y-58760288D01*
X130453181Y-58756500D01*
X130453177Y-58756497D01*
X130323852Y-58676730D01*
X130310000Y-58668186D01*
X130286141Y-58660280D01*
X130149891Y-58615131D01*
X130149890Y-58615130D01*
X130143463Y-58613001D01*
X130136730Y-58612313D01*
X130136725Y-58612312D01*
X130043806Y-58602819D01*
X130043789Y-58602818D01*
X130040675Y-58602500D01*
X130037526Y-58602500D01*
X128703806Y-58602500D01*
X128703786Y-58602500D01*
X128700658Y-58602501D01*
X128697526Y-58602820D01*
X128697524Y-58602821D01*
X128604604Y-58612312D01*
X128604594Y-58612313D01*
X128597869Y-58613001D01*
X128591447Y-58615128D01*
X128591442Y-58615130D01*
X128438187Y-58665914D01*
X128438183Y-58665915D01*
X128431332Y-58668186D01*
X128425188Y-58671975D01*
X128425185Y-58671977D01*
X128288154Y-58756497D01*
X128288146Y-58756503D01*
X128282010Y-58760288D01*
X128276908Y-58765389D01*
X128276904Y-58765393D01*
X128163059Y-58879238D01*
X128163055Y-58879242D01*
X128157954Y-58884344D01*
X128154169Y-58890480D01*
X128154163Y-58890488D01*
X128069644Y-59027517D01*
X128069643Y-59027519D01*
X128065852Y-59033666D01*
X128064513Y-59037705D01*
X128027993Y-59082960D01*
X127973265Y-59106521D01*
X127913866Y-59101835D01*
X127863510Y-59069984D01*
X127743036Y-58944284D01*
X127739394Y-58940484D01*
X127718001Y-58924662D01*
X127645470Y-58871018D01*
X127551827Y-58801760D01*
X127547131Y-58799392D01*
X127547129Y-58799391D01*
X127422386Y-58736497D01*
X127343513Y-58696730D01*
X127308195Y-58685914D01*
X127125482Y-58629959D01*
X127125479Y-58629958D01*
X127120446Y-58628417D01*
X127115222Y-58627748D01*
X126894259Y-58599452D01*
X126894258Y-58599451D01*
X126889042Y-58598784D01*
X126883787Y-58599007D01*
X126883783Y-58599007D01*
X126661224Y-58608462D01*
X126661220Y-58608462D01*
X126655959Y-58608686D01*
X126650819Y-58609793D01*
X126650809Y-58609795D01*
X126433049Y-58656726D01*
X126433043Y-58656727D01*
X126427901Y-58657836D01*
X126423017Y-58659798D01*
X126423012Y-58659800D01*
X126216315Y-58742858D01*
X126216310Y-58742860D01*
X126211431Y-58744821D01*
X126206954Y-58747577D01*
X126206951Y-58747579D01*
X126017254Y-58864379D01*
X126017244Y-58864386D01*
X126012775Y-58867138D01*
X126008833Y-58870607D01*
X126008824Y-58870614D01*
X125842963Y-59016591D01*
X125837648Y-59021269D01*
X125834340Y-59025365D01*
X125834335Y-59025371D01*
X125703521Y-59187382D01*
X125691088Y-59202780D01*
X125688522Y-59207372D01*
X125688516Y-59207382D01*
X125668287Y-59243593D01*
X125625047Y-59288707D01*
X125565296Y-59307004D01*
X125504209Y-59293838D01*
X125457300Y-59252553D01*
X125363378Y-59113591D01*
X125356781Y-59105421D01*
X125202706Y-58944662D01*
X125194835Y-58937734D01*
X125015790Y-58805313D01*
X125006867Y-58799818D01*
X124808028Y-58699567D01*
X124798291Y-58695654D01*
X124585372Y-58630448D01*
X124575118Y-58628238D01*
X124558186Y-58626070D01*
X124544527Y-58628214D01*
X124540666Y-58641491D01*
X124540666Y-61756699D01*
X124040029Y-61756699D01*
X124040666Y-61754509D01*
X124040666Y-60464326D01*
X124037215Y-60451450D01*
X124024340Y-60448000D01*
X122936992Y-60448000D01*
X122924116Y-60451450D01*
X122920666Y-60464326D01*
X122920666Y-60478564D01*
X119988499Y-60478564D01*
X119988499Y-59931674D01*
X122920666Y-59931674D01*
X122924116Y-59944549D01*
X122936992Y-59948000D01*
X124024340Y-59948000D01*
X124037215Y-59944549D01*
X124040666Y-59931674D01*
X124040666Y-58639301D01*
X124038210Y-58628465D01*
X124027101Y-58628347D01*
X123893196Y-58657206D01*
X123883158Y-58660280D01*
X123676541Y-58743306D01*
X123667177Y-58748027D01*
X123477552Y-58864783D01*
X123469122Y-58871018D01*
X123301966Y-59018135D01*
X123294697Y-59025719D01*
X123154815Y-59198960D01*
X123148935Y-59207659D01*
X123040339Y-59402054D01*
X123036014Y-59411624D01*
X122961834Y-59621572D01*
X122959187Y-59631739D01*
X122921556Y-59851202D01*
X122920666Y-59861663D01*
X122920666Y-59931674D01*
X119988499Y-59931674D01*
X119988499Y-59302992D01*
X119977999Y-59200203D01*
X119922814Y-59033666D01*
X119839899Y-58899238D01*
X119834502Y-58890488D01*
X119834500Y-58890485D01*
X119830712Y-58884344D01*
X119706656Y-58760288D01*
X119700515Y-58756500D01*
X119700511Y-58756497D01*
X119571186Y-58676730D01*
X119557334Y-58668186D01*
X119533475Y-58660280D01*
X119397225Y-58615131D01*
X119397224Y-58615130D01*
X119390797Y-58613001D01*
X119384064Y-58612313D01*
X119384059Y-58612312D01*
X119291140Y-58602819D01*
X119291123Y-58602818D01*
X119288009Y-58602500D01*
X119284860Y-58602500D01*
X117951140Y-58602500D01*
X117951120Y-58602500D01*
X117947992Y-58602501D01*
X117944860Y-58602820D01*
X117944858Y-58602821D01*
X117851938Y-58612312D01*
X117851928Y-58612313D01*
X117845203Y-58613001D01*
X117838781Y-58615128D01*
X117838776Y-58615130D01*
X117685521Y-58665914D01*
X117685517Y-58665915D01*
X117678666Y-58668186D01*
X117672522Y-58671975D01*
X117672519Y-58671977D01*
X117535488Y-58756497D01*
X117535480Y-58756503D01*
X117529344Y-58760288D01*
X117524242Y-58765389D01*
X117524238Y-58765393D01*
X117410393Y-58879238D01*
X117410389Y-58879242D01*
X117405288Y-58884344D01*
X117401503Y-58890480D01*
X117401497Y-58890488D01*
X117316978Y-59027517D01*
X117316977Y-59027519D01*
X117313186Y-59033666D01*
X117311847Y-59037705D01*
X117275327Y-59082960D01*
X117220599Y-59106521D01*
X117161200Y-59101835D01*
X117110844Y-59069984D01*
X116990370Y-58944284D01*
X116986728Y-58940484D01*
X116965335Y-58924662D01*
X116892804Y-58871018D01*
X116799161Y-58801760D01*
X116794465Y-58799392D01*
X116794463Y-58799391D01*
X116669720Y-58736497D01*
X116590847Y-58696730D01*
X116555529Y-58685914D01*
X116372816Y-58629959D01*
X116372813Y-58629958D01*
X116367780Y-58628417D01*
X116362556Y-58627748D01*
X116141593Y-58599452D01*
X116141592Y-58599451D01*
X116136376Y-58598784D01*
X116131121Y-58599007D01*
X116131117Y-58599007D01*
X115908558Y-58608462D01*
X115908554Y-58608462D01*
X115903293Y-58608686D01*
X115898153Y-58609793D01*
X115898143Y-58609795D01*
X115680383Y-58656726D01*
X115680377Y-58656727D01*
X115675235Y-58657836D01*
X115670351Y-58659798D01*
X115670346Y-58659800D01*
X115463649Y-58742858D01*
X115463644Y-58742860D01*
X115458765Y-58744821D01*
X115454288Y-58747577D01*
X115454285Y-58747579D01*
X115264588Y-58864379D01*
X115264578Y-58864386D01*
X115260109Y-58867138D01*
X115256167Y-58870607D01*
X115256158Y-58870614D01*
X115090297Y-59016591D01*
X115084982Y-59021269D01*
X115081674Y-59025365D01*
X115081669Y-59025371D01*
X114950855Y-59187382D01*
X114938422Y-59202780D01*
X114935856Y-59207372D01*
X114935850Y-59207382D01*
X114915621Y-59243593D01*
X114872381Y-59288707D01*
X114812630Y-59307004D01*
X114751543Y-59293838D01*
X114704634Y-59252553D01*
X114610712Y-59113591D01*
X114604115Y-59105421D01*
X114450040Y-58944662D01*
X114442169Y-58937734D01*
X114263124Y-58805313D01*
X114254201Y-58799818D01*
X114055362Y-58699567D01*
X114045625Y-58695654D01*
X113832706Y-58630448D01*
X113822452Y-58628238D01*
X113805520Y-58626070D01*
X113791861Y-58628214D01*
X113788000Y-58641491D01*
X113788000Y-61756699D01*
X113287363Y-61756699D01*
X113288000Y-61754509D01*
X113288000Y-60464326D01*
X113284549Y-60451450D01*
X113271674Y-60448000D01*
X112184326Y-60448000D01*
X112171450Y-60451450D01*
X112168000Y-60464326D01*
X112168000Y-60478564D01*
X110744000Y-60478564D01*
X110744000Y-59931674D01*
X112168000Y-59931674D01*
X112171450Y-59944549D01*
X112184326Y-59948000D01*
X113271674Y-59948000D01*
X113284549Y-59944549D01*
X113288000Y-59931674D01*
X113288000Y-58639301D01*
X113285544Y-58628465D01*
X113274435Y-58628347D01*
X113140530Y-58657206D01*
X113130492Y-58660280D01*
X112923875Y-58743306D01*
X112914511Y-58748027D01*
X112724886Y-58864783D01*
X112716456Y-58871018D01*
X112549300Y-59018135D01*
X112542031Y-59025719D01*
X112402149Y-59198960D01*
X112396269Y-59207659D01*
X112287673Y-59402054D01*
X112283348Y-59411624D01*
X112209168Y-59621572D01*
X112206521Y-59631739D01*
X112168890Y-59851202D01*
X112168000Y-59861663D01*
X112168000Y-59931674D01*
X110744000Y-59931674D01*
X110744000Y-56142211D01*
X110746381Y-56118028D01*
X110758219Y-56058514D01*
X110776729Y-56013826D01*
X110803524Y-55973724D01*
X110837724Y-55939524D01*
X110877826Y-55912729D01*
X110922514Y-55894219D01*
X110982028Y-55882381D01*
X111006211Y-55880000D01*
X168393789Y-55880000D01*
X168417980Y-55882383D01*
G37*
%TD.AperFunction*%
%TD*%
%TA.AperFunction,Conductor*%
%TO.N,/+50V*%
G36*
X118315393Y-107283107D02*
G01*
X118363227Y-107332867D01*
X119877531Y-110216067D01*
X119890793Y-110258345D01*
X120118534Y-112080277D01*
X120111058Y-112140607D01*
X120075806Y-112190133D01*
X120021250Y-112216952D01*
X119960503Y-112214618D01*
X115885608Y-111016120D01*
X115834820Y-110986704D01*
X115803251Y-110937232D01*
X115296477Y-109452972D01*
X115292278Y-109388379D01*
X115321201Y-109330469D01*
X117081923Y-107352325D01*
X117121477Y-107322700D01*
X117169461Y-107310875D01*
X118248367Y-107266629D01*
X118315393Y-107283107D01*
G37*
%TD.AperFunction*%
%TD*%
%TA.AperFunction,Conductor*%
%TO.N,/+50V*%
G36*
X155913976Y-107616175D02*
G01*
X155976568Y-107635719D01*
X156020440Y-107684452D01*
X157243134Y-110119238D01*
X157251240Y-110139748D01*
X157930270Y-112437874D01*
X157931492Y-112503709D01*
X157898838Y-112560887D01*
X157841515Y-112593286D01*
X157775687Y-112591771D01*
X153384870Y-111273163D01*
X153329259Y-111238336D01*
X153299208Y-111180007D01*
X152954475Y-109546386D01*
X152956145Y-109488259D01*
X152984128Y-109437287D01*
X154643531Y-107615389D01*
X154687088Y-107584605D01*
X154739546Y-107574966D01*
X155913976Y-107616175D01*
G37*
%TD.AperFunction*%
%TD*%
%TA.AperFunction,Conductor*%
%TO.N,/+5V*%
G36*
X142432000Y-90948613D02*
G01*
X142477387Y-90994000D01*
X142494000Y-91056000D01*
X142494000Y-95761000D01*
X142477387Y-95823000D01*
X142432000Y-95868387D01*
X142370000Y-95885000D01*
X135798837Y-95885000D01*
X135742542Y-95871485D01*
X135698519Y-95833885D01*
X135676364Y-95780398D01*
X135680906Y-95722682D01*
X135711156Y-95673319D01*
X135765835Y-95618640D01*
X135835598Y-95548877D01*
X135961102Y-95369639D01*
X136053575Y-95171330D01*
X136110207Y-94959977D01*
X136129277Y-94742000D01*
X136110207Y-94524023D01*
X136053575Y-94312670D01*
X135961102Y-94114362D01*
X135835598Y-93935123D01*
X135680877Y-93780402D01*
X135676446Y-93777299D01*
X135676442Y-93777296D01*
X135506068Y-93657999D01*
X135506066Y-93657997D01*
X135501639Y-93654898D01*
X135496742Y-93652614D01*
X135496736Y-93652611D01*
X135308236Y-93564712D01*
X135308229Y-93564709D01*
X135303330Y-93562425D01*
X135298103Y-93561024D01*
X135298102Y-93561024D01*
X135097209Y-93507194D01*
X135097199Y-93507192D01*
X135091977Y-93505793D01*
X135086585Y-93505321D01*
X135086578Y-93505320D01*
X134879395Y-93487195D01*
X134874000Y-93486723D01*
X134868605Y-93487195D01*
X134661421Y-93505320D01*
X134661412Y-93505321D01*
X134656023Y-93505793D01*
X134650802Y-93507191D01*
X134650790Y-93507194D01*
X134449897Y-93561024D01*
X134449892Y-93561025D01*
X134444670Y-93562425D01*
X134439774Y-93564707D01*
X134439763Y-93564712D01*
X134251272Y-93652608D01*
X134251268Y-93652610D01*
X134246362Y-93654898D01*
X134241929Y-93658001D01*
X134241922Y-93658006D01*
X134071558Y-93777296D01*
X134071553Y-93777299D01*
X134067123Y-93780402D01*
X134063299Y-93784225D01*
X134063293Y-93784231D01*
X133916231Y-93931293D01*
X133916225Y-93931299D01*
X133912402Y-93935123D01*
X133909299Y-93939553D01*
X133909296Y-93939558D01*
X133790006Y-94109922D01*
X133790001Y-94109929D01*
X133786898Y-94114362D01*
X133784610Y-94119268D01*
X133784608Y-94119272D01*
X133696712Y-94307763D01*
X133696707Y-94307774D01*
X133694425Y-94312670D01*
X133693025Y-94317892D01*
X133693024Y-94317897D01*
X133639194Y-94518790D01*
X133639191Y-94518802D01*
X133637793Y-94524023D01*
X133637321Y-94529412D01*
X133637320Y-94529421D01*
X133619467Y-94733487D01*
X133618723Y-94742000D01*
X133619195Y-94747395D01*
X133637320Y-94954578D01*
X133637321Y-94954585D01*
X133637793Y-94959977D01*
X133639192Y-94965199D01*
X133639194Y-94965209D01*
X133693024Y-95166102D01*
X133694425Y-95171330D01*
X133696709Y-95176229D01*
X133696712Y-95176236D01*
X133784611Y-95364736D01*
X133784614Y-95364742D01*
X133786898Y-95369639D01*
X133789997Y-95374066D01*
X133789999Y-95374068D01*
X133909296Y-95544442D01*
X133909299Y-95544446D01*
X133912402Y-95548877D01*
X133916233Y-95552708D01*
X134036844Y-95673319D01*
X134067094Y-95722682D01*
X134071636Y-95780398D01*
X134049481Y-95833885D01*
X134005458Y-95871485D01*
X133949163Y-95885000D01*
X131144224Y-95885000D01*
X131087929Y-95871485D01*
X131043906Y-95833885D01*
X131021751Y-95780398D01*
X131026180Y-95724104D01*
X131029646Y-95717304D01*
X131044500Y-95623519D01*
X131044499Y-93860482D01*
X131029646Y-93766696D01*
X130972050Y-93653658D01*
X130882342Y-93563950D01*
X130769304Y-93506354D01*
X130759667Y-93504827D01*
X130759662Y-93504826D01*
X130680339Y-93492263D01*
X130680333Y-93492262D01*
X130675519Y-93491500D01*
X130670640Y-93491500D01*
X128912482Y-93491501D01*
X128912482Y-93490433D01*
X128863908Y-93483216D01*
X128818035Y-93451871D01*
X126684099Y-91140107D01*
X126656119Y-91090527D01*
X126653242Y-91033670D01*
X126676075Y-90981520D01*
X126719805Y-90945069D01*
X126775215Y-90932000D01*
X142370000Y-90932000D01*
X142432000Y-90948613D01*
G37*
%TD.AperFunction*%
%TD*%
M02*
