%TF.GenerationSoftware,KiCad,Pcbnew,(7.0.0)*%
%TF.CreationDate,2023-03-10T19:40:05-08:00*%
%TF.ProjectId,smeza_pcb,736d657a-615f-4706-9362-2e6b69636164,rev?*%
%TF.SameCoordinates,Original*%
%TF.FileFunction,Legend,Top*%
%TF.FilePolarity,Positive*%
%FSLAX46Y46*%
G04 Gerber Fmt 4.6, Leading zero omitted, Abs format (unit mm)*
G04 Created by KiCad (PCBNEW (7.0.0)) date 2023-03-10 19:40:05*
%MOMM*%
%LPD*%
G01*
G04 APERTURE LIST*
G04 Aperture macros list*
%AMRoundRect*
0 Rectangle with rounded corners*
0 $1 Rounding radius*
0 $2 $3 $4 $5 $6 $7 $8 $9 X,Y pos of 4 corners*
0 Add a 4 corners polygon primitive as box body*
4,1,4,$2,$3,$4,$5,$6,$7,$8,$9,$2,$3,0*
0 Add four circle primitives for the rounded corners*
1,1,$1+$1,$2,$3*
1,1,$1+$1,$4,$5*
1,1,$1+$1,$6,$7*
1,1,$1+$1,$8,$9*
0 Add four rect primitives between the rounded corners*
20,1,$1+$1,$2,$3,$4,$5,0*
20,1,$1+$1,$4,$5,$6,$7,0*
20,1,$1+$1,$6,$7,$8,$9,0*
20,1,$1+$1,$8,$9,$2,$3,0*%
G04 Aperture macros list end*
%ADD10C,0.153000*%
%ADD11C,0.300000*%
%ADD12C,0.150000*%
%ADD13C,0.120000*%
%ADD14C,0.250000*%
%ADD15C,0.127000*%
%ADD16C,0.200000*%
%ADD17C,2.000000*%
%ADD18C,1.448000*%
%ADD19RoundRect,0.300000X-0.450000X0.262500X-0.450000X-0.262500X0.450000X-0.262500X0.450000X0.262500X0*%
%ADD20RoundRect,0.300000X0.450000X-0.262500X0.450000X0.262500X-0.450000X0.262500X-0.450000X-0.262500X0*%
%ADD21RoundRect,0.050000X-0.937033X-0.271066X0.937033X-0.271066X0.937033X0.271066X-0.937033X0.271066X0*%
%ADD22RoundRect,0.321066X-0.665967X0.000000X0.665967X0.000000X0.665967X0.000000X-0.665967X0.000000X0*%
%ADD23RoundRect,0.268750X-0.256250X0.218750X-0.256250X-0.218750X0.256250X-0.218750X0.256250X0.218750X0*%
%ADD24RoundRect,0.050000X-0.800000X0.800000X-0.800000X-0.800000X0.800000X-0.800000X0.800000X0.800000X0*%
%ADD25O,1.700000X1.700000*%
%ADD26RoundRect,0.050000X-0.850000X-0.850000X0.850000X-0.850000X0.850000X0.850000X-0.850000X0.850000X0*%
%ADD27O,1.800000X1.800000*%
%ADD28RoundRect,0.300000X0.620000X0.845000X-0.620000X0.845000X-0.620000X-0.845000X0.620000X-0.845000X0*%
%ADD29O,1.840000X2.290000*%
%ADD30RoundRect,0.300000X0.325000X0.650000X-0.325000X0.650000X-0.325000X-0.650000X0.325000X-0.650000X0*%
%ADD31RoundRect,0.050000X0.350000X0.762500X-0.350000X0.762500X-0.350000X-0.762500X0.350000X-0.762500X0*%
%ADD32RoundRect,0.050000X1.725000X-1.280000X1.725000X1.280000X-1.725000X1.280000X-1.725000X-1.280000X0*%
%ADD33RoundRect,0.050000X-1.000000X0.952500X-1.000000X-0.952500X1.000000X-0.952500X1.000000X0.952500X0*%
%ADD34O,2.100000X2.005000*%
%ADD35RoundRect,0.300000X-0.325000X-0.650000X0.325000X-0.650000X0.325000X0.650000X-0.325000X0.650000X0*%
%ADD36RoundRect,0.050000X0.800000X0.275000X-0.800000X0.275000X-0.800000X-0.275000X0.800000X-0.275000X0*%
%ADD37RoundRect,0.050000X-0.275000X0.800000X-0.275000X-0.800000X0.275000X-0.800000X0.275000X0.800000X0*%
%ADD38RoundRect,0.300000X-0.312500X-0.625000X0.312500X-0.625000X0.312500X0.625000X-0.312500X0.625000X0*%
%ADD39RoundRect,0.300000X0.262500X0.450000X-0.262500X0.450000X-0.262500X-0.450000X0.262500X-0.450000X0*%
%ADD40C,5.700000*%
%ADD41RoundRect,0.275000X0.225000X0.250000X-0.225000X0.250000X-0.225000X-0.250000X0.225000X-0.250000X0*%
%ADD42RoundRect,0.050000X1.225000X2.950000X-1.225000X2.950000X-1.225000X-2.950000X1.225000X-2.950000X0*%
%ADD43C,3.350000*%
%ADD44RoundRect,0.050000X-0.700000X-0.700000X0.700000X-0.700000X0.700000X0.700000X-0.700000X0.700000X0*%
%ADD45C,1.500000*%
%ADD46RoundRect,0.300000X-0.620000X-0.845000X0.620000X-0.845000X0.620000X0.845000X-0.620000X0.845000X0*%
%ADD47RoundRect,0.050000X0.850000X-0.850000X0.850000X0.850000X-0.850000X0.850000X-0.850000X-0.850000X0*%
%ADD48RoundRect,0.050000X0.950000X-0.200000X0.950000X0.200000X-0.950000X0.200000X-0.950000X-0.200000X0*%
%ADD49RoundRect,0.300000X0.650000X-0.325000X0.650000X0.325000X-0.650000X0.325000X-0.650000X-0.325000X0*%
%ADD50RoundRect,0.092000X0.258000X-0.788000X0.258000X0.788000X-0.258000X0.788000X-0.258000X-0.788000X0*%
%ADD51RoundRect,0.300000X-0.262500X-0.450000X0.262500X-0.450000X0.262500X0.450000X-0.262500X0.450000X0*%
G04 APERTURE END LIST*
D10*
X162723428Y-65801904D02*
X162723428Y-65040000D01*
X162628190Y-64373333D02*
X163104380Y-64373333D01*
X162104380Y-64706666D02*
X162628190Y-64373333D01*
X162628190Y-64373333D02*
X162104380Y-64040000D01*
D11*
X172189952Y-117514761D02*
X169689952Y-117514761D01*
X169689952Y-117514761D02*
X172189952Y-116086190D01*
X172189952Y-116086190D02*
X169689952Y-116086190D01*
X169689952Y-114419523D02*
X169689952Y-113943332D01*
X169689952Y-113943332D02*
X169809000Y-113705237D01*
X169809000Y-113705237D02*
X170047095Y-113467142D01*
X170047095Y-113467142D02*
X170523285Y-113348094D01*
X170523285Y-113348094D02*
X171356619Y-113348094D01*
X171356619Y-113348094D02*
X171832809Y-113467142D01*
X171832809Y-113467142D02*
X172070904Y-113705237D01*
X172070904Y-113705237D02*
X172189952Y-113943332D01*
X172189952Y-113943332D02*
X172189952Y-114419523D01*
X172189952Y-114419523D02*
X172070904Y-114657618D01*
X172070904Y-114657618D02*
X171832809Y-114895713D01*
X171832809Y-114895713D02*
X171356619Y-115014761D01*
X171356619Y-115014761D02*
X170523285Y-115014761D01*
X170523285Y-115014761D02*
X170047095Y-114895713D01*
X170047095Y-114895713D02*
X169809000Y-114657618D01*
X169809000Y-114657618D02*
X169689952Y-114419523D01*
X169689952Y-112633808D02*
X169689952Y-111205237D01*
X172189952Y-111919523D02*
X169689952Y-111919523D01*
X174930428Y-117514761D02*
X174930428Y-116681428D01*
X176239952Y-116324285D02*
X176239952Y-117514761D01*
X176239952Y-117514761D02*
X173739952Y-117514761D01*
X173739952Y-117514761D02*
X173739952Y-116324285D01*
X173739952Y-115609999D02*
X173739952Y-114181428D01*
X176239952Y-114895714D02*
X173739952Y-114895714D01*
X176239952Y-113348094D02*
X173739952Y-113348094D01*
X174930428Y-113348094D02*
X174930428Y-111919523D01*
X176239952Y-111919523D02*
X173739952Y-111919523D01*
X174930428Y-110729046D02*
X174930428Y-109895713D01*
X176239952Y-109538570D02*
X176239952Y-110729046D01*
X176239952Y-110729046D02*
X173739952Y-110729046D01*
X173739952Y-110729046D02*
X173739952Y-109538570D01*
X176239952Y-107038570D02*
X175049476Y-107871903D01*
X176239952Y-108467141D02*
X173739952Y-108467141D01*
X173739952Y-108467141D02*
X173739952Y-107514760D01*
X173739952Y-107514760D02*
X173859000Y-107276665D01*
X173859000Y-107276665D02*
X173978047Y-107157618D01*
X173978047Y-107157618D02*
X174216142Y-107038570D01*
X174216142Y-107038570D02*
X174573285Y-107038570D01*
X174573285Y-107038570D02*
X174811380Y-107157618D01*
X174811380Y-107157618D02*
X174930428Y-107276665D01*
X174930428Y-107276665D02*
X175049476Y-107514760D01*
X175049476Y-107514760D02*
X175049476Y-108467141D01*
X176239952Y-105967141D02*
X173739952Y-105967141D01*
X173739952Y-105967141D02*
X176239952Y-104538570D01*
X176239952Y-104538570D02*
X173739952Y-104538570D01*
X174930428Y-103348093D02*
X174930428Y-102514760D01*
X176239952Y-102157617D02*
X176239952Y-103348093D01*
X176239952Y-103348093D02*
X173739952Y-103348093D01*
X173739952Y-103348093D02*
X173739952Y-102157617D01*
X173739952Y-101443331D02*
X173739952Y-100014760D01*
X176239952Y-100729046D02*
X173739952Y-100729046D01*
X176239952Y-97681426D02*
X173739952Y-97681426D01*
X173739952Y-97681426D02*
X173739952Y-96729045D01*
X173739952Y-96729045D02*
X173859000Y-96490950D01*
X173859000Y-96490950D02*
X173978047Y-96371903D01*
X173978047Y-96371903D02*
X174216142Y-96252855D01*
X174216142Y-96252855D02*
X174573285Y-96252855D01*
X174573285Y-96252855D02*
X174811380Y-96371903D01*
X174811380Y-96371903D02*
X174930428Y-96490950D01*
X174930428Y-96490950D02*
X175049476Y-96729045D01*
X175049476Y-96729045D02*
X175049476Y-97681426D01*
X173739952Y-94705236D02*
X173739952Y-94229045D01*
X173739952Y-94229045D02*
X173859000Y-93990950D01*
X173859000Y-93990950D02*
X174097095Y-93752855D01*
X174097095Y-93752855D02*
X174573285Y-93633807D01*
X174573285Y-93633807D02*
X175406619Y-93633807D01*
X175406619Y-93633807D02*
X175882809Y-93752855D01*
X175882809Y-93752855D02*
X176120904Y-93990950D01*
X176120904Y-93990950D02*
X176239952Y-94229045D01*
X176239952Y-94229045D02*
X176239952Y-94705236D01*
X176239952Y-94705236D02*
X176120904Y-94943331D01*
X176120904Y-94943331D02*
X175882809Y-95181426D01*
X175882809Y-95181426D02*
X175406619Y-95300474D01*
X175406619Y-95300474D02*
X174573285Y-95300474D01*
X174573285Y-95300474D02*
X174097095Y-95181426D01*
X174097095Y-95181426D02*
X173859000Y-94943331D01*
X173859000Y-94943331D02*
X173739952Y-94705236D01*
X176239952Y-91133807D02*
X175049476Y-91967140D01*
X176239952Y-92562378D02*
X173739952Y-92562378D01*
X173739952Y-92562378D02*
X173739952Y-91609997D01*
X173739952Y-91609997D02*
X173859000Y-91371902D01*
X173859000Y-91371902D02*
X173978047Y-91252855D01*
X173978047Y-91252855D02*
X174216142Y-91133807D01*
X174216142Y-91133807D02*
X174573285Y-91133807D01*
X174573285Y-91133807D02*
X174811380Y-91252855D01*
X174811380Y-91252855D02*
X174930428Y-91371902D01*
X174930428Y-91371902D02*
X175049476Y-91609997D01*
X175049476Y-91609997D02*
X175049476Y-92562378D01*
X173739952Y-90419521D02*
X173739952Y-88990950D01*
X176239952Y-89705236D02*
X173739952Y-89705236D01*
X176120904Y-88276664D02*
X176239952Y-87919521D01*
X176239952Y-87919521D02*
X176239952Y-87324283D01*
X176239952Y-87324283D02*
X176120904Y-87086188D01*
X176120904Y-87086188D02*
X176001857Y-86967140D01*
X176001857Y-86967140D02*
X175763761Y-86848093D01*
X175763761Y-86848093D02*
X175525666Y-86848093D01*
X175525666Y-86848093D02*
X175287571Y-86967140D01*
X175287571Y-86967140D02*
X175168523Y-87086188D01*
X175168523Y-87086188D02*
X175049476Y-87324283D01*
X175049476Y-87324283D02*
X174930428Y-87800474D01*
X174930428Y-87800474D02*
X174811380Y-88038569D01*
X174811380Y-88038569D02*
X174692333Y-88157616D01*
X174692333Y-88157616D02*
X174454238Y-88276664D01*
X174454238Y-88276664D02*
X174216142Y-88276664D01*
X174216142Y-88276664D02*
X173978047Y-88157616D01*
X173978047Y-88157616D02*
X173859000Y-88038569D01*
X173859000Y-88038569D02*
X173739952Y-87800474D01*
X173739952Y-87800474D02*
X173739952Y-87205235D01*
X173739952Y-87205235D02*
X173859000Y-86848093D01*
X176001857Y-85776664D02*
X176120904Y-85657617D01*
X176120904Y-85657617D02*
X176239952Y-85776664D01*
X176239952Y-85776664D02*
X176120904Y-85895712D01*
X176120904Y-85895712D02*
X176001857Y-85776664D01*
X176001857Y-85776664D02*
X176239952Y-85776664D01*
X175287571Y-85776664D02*
X173859000Y-85895712D01*
X173859000Y-85895712D02*
X173739952Y-85776664D01*
X173739952Y-85776664D02*
X173859000Y-85657617D01*
X173859000Y-85657617D02*
X175287571Y-85776664D01*
X175287571Y-85776664D02*
X173739952Y-85776664D01*
X140999171Y-87853971D02*
X140999171Y-88568257D01*
X140999171Y-88568257D02*
X139499171Y-88568257D01*
X140927742Y-87425399D02*
X140999171Y-87211114D01*
X140999171Y-87211114D02*
X140999171Y-86853971D01*
X140999171Y-86853971D02*
X140927742Y-86711114D01*
X140927742Y-86711114D02*
X140856314Y-86639685D01*
X140856314Y-86639685D02*
X140713457Y-86568256D01*
X140713457Y-86568256D02*
X140570600Y-86568256D01*
X140570600Y-86568256D02*
X140427742Y-86639685D01*
X140427742Y-86639685D02*
X140356314Y-86711114D01*
X140356314Y-86711114D02*
X140284885Y-86853971D01*
X140284885Y-86853971D02*
X140213457Y-87139685D01*
X140213457Y-87139685D02*
X140142028Y-87282542D01*
X140142028Y-87282542D02*
X140070600Y-87353971D01*
X140070600Y-87353971D02*
X139927742Y-87425399D01*
X139927742Y-87425399D02*
X139784885Y-87425399D01*
X139784885Y-87425399D02*
X139642028Y-87353971D01*
X139642028Y-87353971D02*
X139570600Y-87282542D01*
X139570600Y-87282542D02*
X139499171Y-87139685D01*
X139499171Y-87139685D02*
X139499171Y-86782542D01*
X139499171Y-86782542D02*
X139570600Y-86568256D01*
X140213457Y-85425400D02*
X140284885Y-85211114D01*
X140284885Y-85211114D02*
X140356314Y-85139685D01*
X140356314Y-85139685D02*
X140499171Y-85068257D01*
X140499171Y-85068257D02*
X140713457Y-85068257D01*
X140713457Y-85068257D02*
X140856314Y-85139685D01*
X140856314Y-85139685D02*
X140927742Y-85211114D01*
X140927742Y-85211114D02*
X140999171Y-85353971D01*
X140999171Y-85353971D02*
X140999171Y-85925400D01*
X140999171Y-85925400D02*
X139499171Y-85925400D01*
X139499171Y-85925400D02*
X139499171Y-85425400D01*
X139499171Y-85425400D02*
X139570600Y-85282543D01*
X139570600Y-85282543D02*
X139642028Y-85211114D01*
X139642028Y-85211114D02*
X139784885Y-85139685D01*
X139784885Y-85139685D02*
X139927742Y-85139685D01*
X139927742Y-85139685D02*
X140070600Y-85211114D01*
X140070600Y-85211114D02*
X140142028Y-85282543D01*
X140142028Y-85282543D02*
X140213457Y-85425400D01*
X140213457Y-85425400D02*
X140213457Y-85925400D01*
D10*
X145005380Y-80787904D02*
X144005380Y-80787904D01*
X144005380Y-80787904D02*
X144005380Y-80549809D01*
X144005380Y-80549809D02*
X144053000Y-80406952D01*
X144053000Y-80406952D02*
X144148238Y-80311714D01*
X144148238Y-80311714D02*
X144243476Y-80264095D01*
X144243476Y-80264095D02*
X144433952Y-80216476D01*
X144433952Y-80216476D02*
X144576809Y-80216476D01*
X144576809Y-80216476D02*
X144767285Y-80264095D01*
X144767285Y-80264095D02*
X144862523Y-80311714D01*
X144862523Y-80311714D02*
X144957761Y-80406952D01*
X144957761Y-80406952D02*
X145005380Y-80549809D01*
X145005380Y-80549809D02*
X145005380Y-80787904D01*
X145005380Y-79787904D02*
X144338714Y-79787904D01*
X144005380Y-79787904D02*
X144053000Y-79835523D01*
X144053000Y-79835523D02*
X144100619Y-79787904D01*
X144100619Y-79787904D02*
X144053000Y-79740285D01*
X144053000Y-79740285D02*
X144005380Y-79787904D01*
X144005380Y-79787904D02*
X144100619Y-79787904D01*
X144957761Y-79359333D02*
X145005380Y-79264095D01*
X145005380Y-79264095D02*
X145005380Y-79073619D01*
X145005380Y-79073619D02*
X144957761Y-78978381D01*
X144957761Y-78978381D02*
X144862523Y-78930762D01*
X144862523Y-78930762D02*
X144814904Y-78930762D01*
X144814904Y-78930762D02*
X144719666Y-78978381D01*
X144719666Y-78978381D02*
X144672047Y-79073619D01*
X144672047Y-79073619D02*
X144672047Y-79216476D01*
X144672047Y-79216476D02*
X144624428Y-79311714D01*
X144624428Y-79311714D02*
X144529190Y-79359333D01*
X144529190Y-79359333D02*
X144481571Y-79359333D01*
X144481571Y-79359333D02*
X144386333Y-79311714D01*
X144386333Y-79311714D02*
X144338714Y-79216476D01*
X144338714Y-79216476D02*
X144338714Y-79073619D01*
X144338714Y-79073619D02*
X144386333Y-78978381D01*
X144957761Y-78073619D02*
X145005380Y-78168857D01*
X145005380Y-78168857D02*
X145005380Y-78359333D01*
X145005380Y-78359333D02*
X144957761Y-78454571D01*
X144957761Y-78454571D02*
X144910142Y-78502190D01*
X144910142Y-78502190D02*
X144814904Y-78549809D01*
X144814904Y-78549809D02*
X144529190Y-78549809D01*
X144529190Y-78549809D02*
X144433952Y-78502190D01*
X144433952Y-78502190D02*
X144386333Y-78454571D01*
X144386333Y-78454571D02*
X144338714Y-78359333D01*
X144338714Y-78359333D02*
X144338714Y-78168857D01*
X144338714Y-78168857D02*
X144386333Y-78073619D01*
X145005380Y-77502190D02*
X144957761Y-77597428D01*
X144957761Y-77597428D02*
X144910142Y-77645047D01*
X144910142Y-77645047D02*
X144814904Y-77692666D01*
X144814904Y-77692666D02*
X144529190Y-77692666D01*
X144529190Y-77692666D02*
X144433952Y-77645047D01*
X144433952Y-77645047D02*
X144386333Y-77597428D01*
X144386333Y-77597428D02*
X144338714Y-77502190D01*
X144338714Y-77502190D02*
X144338714Y-77359333D01*
X144338714Y-77359333D02*
X144386333Y-77264095D01*
X144386333Y-77264095D02*
X144433952Y-77216476D01*
X144433952Y-77216476D02*
X144529190Y-77168857D01*
X144529190Y-77168857D02*
X144814904Y-77168857D01*
X144814904Y-77168857D02*
X144910142Y-77216476D01*
X144910142Y-77216476D02*
X144957761Y-77264095D01*
X144957761Y-77264095D02*
X145005380Y-77359333D01*
X145005380Y-77359333D02*
X145005380Y-77502190D01*
X144338714Y-76740285D02*
X145005380Y-76740285D01*
X144433952Y-76740285D02*
X144386333Y-76692666D01*
X144386333Y-76692666D02*
X144338714Y-76597428D01*
X144338714Y-76597428D02*
X144338714Y-76454571D01*
X144338714Y-76454571D02*
X144386333Y-76359333D01*
X144386333Y-76359333D02*
X144481571Y-76311714D01*
X144481571Y-76311714D02*
X145005380Y-76311714D01*
X144338714Y-75835523D02*
X145005380Y-75835523D01*
X144433952Y-75835523D02*
X144386333Y-75787904D01*
X144386333Y-75787904D02*
X144338714Y-75692666D01*
X144338714Y-75692666D02*
X144338714Y-75549809D01*
X144338714Y-75549809D02*
X144386333Y-75454571D01*
X144386333Y-75454571D02*
X144481571Y-75406952D01*
X144481571Y-75406952D02*
X145005380Y-75406952D01*
X144957761Y-74549809D02*
X145005380Y-74645047D01*
X145005380Y-74645047D02*
X145005380Y-74835523D01*
X145005380Y-74835523D02*
X144957761Y-74930761D01*
X144957761Y-74930761D02*
X144862523Y-74978380D01*
X144862523Y-74978380D02*
X144481571Y-74978380D01*
X144481571Y-74978380D02*
X144386333Y-74930761D01*
X144386333Y-74930761D02*
X144338714Y-74835523D01*
X144338714Y-74835523D02*
X144338714Y-74645047D01*
X144338714Y-74645047D02*
X144386333Y-74549809D01*
X144386333Y-74549809D02*
X144481571Y-74502190D01*
X144481571Y-74502190D02*
X144576809Y-74502190D01*
X144576809Y-74502190D02*
X144672047Y-74978380D01*
X144957761Y-73645047D02*
X145005380Y-73740285D01*
X145005380Y-73740285D02*
X145005380Y-73930761D01*
X145005380Y-73930761D02*
X144957761Y-74025999D01*
X144957761Y-74025999D02*
X144910142Y-74073618D01*
X144910142Y-74073618D02*
X144814904Y-74121237D01*
X144814904Y-74121237D02*
X144529190Y-74121237D01*
X144529190Y-74121237D02*
X144433952Y-74073618D01*
X144433952Y-74073618D02*
X144386333Y-74025999D01*
X144386333Y-74025999D02*
X144338714Y-73930761D01*
X144338714Y-73930761D02*
X144338714Y-73740285D01*
X144338714Y-73740285D02*
X144386333Y-73645047D01*
X144338714Y-73359332D02*
X144338714Y-72978380D01*
X144005380Y-73216475D02*
X144862523Y-73216475D01*
X144862523Y-73216475D02*
X144957761Y-73168856D01*
X144957761Y-73168856D02*
X145005380Y-73073618D01*
X145005380Y-73073618D02*
X145005380Y-72978380D01*
X145005380Y-71902189D02*
X144957761Y-71997427D01*
X144957761Y-71997427D02*
X144862523Y-72045046D01*
X144862523Y-72045046D02*
X144005380Y-72045046D01*
X145005380Y-71521236D02*
X144338714Y-71521236D01*
X144005380Y-71521236D02*
X144053000Y-71568855D01*
X144053000Y-71568855D02*
X144100619Y-71521236D01*
X144100619Y-71521236D02*
X144053000Y-71473617D01*
X144053000Y-71473617D02*
X144005380Y-71521236D01*
X144005380Y-71521236D02*
X144100619Y-71521236D01*
X145005380Y-71045046D02*
X144338714Y-71045046D01*
X144433952Y-71045046D02*
X144386333Y-70997427D01*
X144386333Y-70997427D02*
X144338714Y-70902189D01*
X144338714Y-70902189D02*
X144338714Y-70759332D01*
X144338714Y-70759332D02*
X144386333Y-70664094D01*
X144386333Y-70664094D02*
X144481571Y-70616475D01*
X144481571Y-70616475D02*
X145005380Y-70616475D01*
X144481571Y-70616475D02*
X144386333Y-70568856D01*
X144386333Y-70568856D02*
X144338714Y-70473618D01*
X144338714Y-70473618D02*
X144338714Y-70330761D01*
X144338714Y-70330761D02*
X144386333Y-70235522D01*
X144386333Y-70235522D02*
X144481571Y-70187903D01*
X144481571Y-70187903D02*
X145005380Y-70187903D01*
X145005380Y-69711713D02*
X144338714Y-69711713D01*
X144005380Y-69711713D02*
X144053000Y-69759332D01*
X144053000Y-69759332D02*
X144100619Y-69711713D01*
X144100619Y-69711713D02*
X144053000Y-69664094D01*
X144053000Y-69664094D02*
X144005380Y-69711713D01*
X144005380Y-69711713D02*
X144100619Y-69711713D01*
X144338714Y-69378380D02*
X144338714Y-68997428D01*
X144005380Y-69235523D02*
X144862523Y-69235523D01*
X144862523Y-69235523D02*
X144957761Y-69187904D01*
X144957761Y-69187904D02*
X145005380Y-69092666D01*
X145005380Y-69092666D02*
X145005380Y-68997428D01*
X146577761Y-80835523D02*
X146625380Y-80740285D01*
X146625380Y-80740285D02*
X146625380Y-80549809D01*
X146625380Y-80549809D02*
X146577761Y-80454571D01*
X146577761Y-80454571D02*
X146482523Y-80406952D01*
X146482523Y-80406952D02*
X146434904Y-80406952D01*
X146434904Y-80406952D02*
X146339666Y-80454571D01*
X146339666Y-80454571D02*
X146292047Y-80549809D01*
X146292047Y-80549809D02*
X146292047Y-80692666D01*
X146292047Y-80692666D02*
X146244428Y-80787904D01*
X146244428Y-80787904D02*
X146149190Y-80835523D01*
X146149190Y-80835523D02*
X146101571Y-80835523D01*
X146101571Y-80835523D02*
X146006333Y-80787904D01*
X146006333Y-80787904D02*
X145958714Y-80692666D01*
X145958714Y-80692666D02*
X145958714Y-80549809D01*
X145958714Y-80549809D02*
X146006333Y-80454571D01*
X145958714Y-80073618D02*
X146625380Y-79883142D01*
X146625380Y-79883142D02*
X146149190Y-79692666D01*
X146149190Y-79692666D02*
X146625380Y-79502190D01*
X146625380Y-79502190D02*
X145958714Y-79311714D01*
X146625380Y-78930761D02*
X145958714Y-78930761D01*
X145625380Y-78930761D02*
X145673000Y-78978380D01*
X145673000Y-78978380D02*
X145720619Y-78930761D01*
X145720619Y-78930761D02*
X145673000Y-78883142D01*
X145673000Y-78883142D02*
X145625380Y-78930761D01*
X145625380Y-78930761D02*
X145720619Y-78930761D01*
X145958714Y-78597428D02*
X145958714Y-78216476D01*
X145625380Y-78454571D02*
X146482523Y-78454571D01*
X146482523Y-78454571D02*
X146577761Y-78406952D01*
X146577761Y-78406952D02*
X146625380Y-78311714D01*
X146625380Y-78311714D02*
X146625380Y-78216476D01*
X146577761Y-77454571D02*
X146625380Y-77549809D01*
X146625380Y-77549809D02*
X146625380Y-77740285D01*
X146625380Y-77740285D02*
X146577761Y-77835523D01*
X146577761Y-77835523D02*
X146530142Y-77883142D01*
X146530142Y-77883142D02*
X146434904Y-77930761D01*
X146434904Y-77930761D02*
X146149190Y-77930761D01*
X146149190Y-77930761D02*
X146053952Y-77883142D01*
X146053952Y-77883142D02*
X146006333Y-77835523D01*
X146006333Y-77835523D02*
X145958714Y-77740285D01*
X145958714Y-77740285D02*
X145958714Y-77549809D01*
X145958714Y-77549809D02*
X146006333Y-77454571D01*
X146625380Y-77025999D02*
X145625380Y-77025999D01*
X146625380Y-76597428D02*
X146101571Y-76597428D01*
X146101571Y-76597428D02*
X146006333Y-76645047D01*
X146006333Y-76645047D02*
X145958714Y-76740285D01*
X145958714Y-76740285D02*
X145958714Y-76883142D01*
X145958714Y-76883142D02*
X146006333Y-76978380D01*
X146006333Y-76978380D02*
X146053952Y-77025999D01*
X146577761Y-75740285D02*
X146625380Y-75835523D01*
X146625380Y-75835523D02*
X146625380Y-76025999D01*
X146625380Y-76025999D02*
X146577761Y-76121237D01*
X146577761Y-76121237D02*
X146482523Y-76168856D01*
X146482523Y-76168856D02*
X146101571Y-76168856D01*
X146101571Y-76168856D02*
X146006333Y-76121237D01*
X146006333Y-76121237D02*
X145958714Y-76025999D01*
X145958714Y-76025999D02*
X145958714Y-75835523D01*
X145958714Y-75835523D02*
X146006333Y-75740285D01*
X146006333Y-75740285D02*
X146101571Y-75692666D01*
X146101571Y-75692666D02*
X146196809Y-75692666D01*
X146196809Y-75692666D02*
X146292047Y-76168856D01*
X146577761Y-75311713D02*
X146625380Y-75216475D01*
X146625380Y-75216475D02*
X146625380Y-75025999D01*
X146625380Y-75025999D02*
X146577761Y-74930761D01*
X146577761Y-74930761D02*
X146482523Y-74883142D01*
X146482523Y-74883142D02*
X146434904Y-74883142D01*
X146434904Y-74883142D02*
X146339666Y-74930761D01*
X146339666Y-74930761D02*
X146292047Y-75025999D01*
X146292047Y-75025999D02*
X146292047Y-75168856D01*
X146292047Y-75168856D02*
X146244428Y-75264094D01*
X146244428Y-75264094D02*
X146149190Y-75311713D01*
X146149190Y-75311713D02*
X146101571Y-75311713D01*
X146101571Y-75311713D02*
X146006333Y-75264094D01*
X146006333Y-75264094D02*
X145958714Y-75168856D01*
X145958714Y-75168856D02*
X145958714Y-75025999D01*
X145958714Y-75025999D02*
X146006333Y-74930761D01*
X146625380Y-73854570D02*
X145625380Y-73854570D01*
X146006333Y-73854570D02*
X145958714Y-73759332D01*
X145958714Y-73759332D02*
X145958714Y-73568856D01*
X145958714Y-73568856D02*
X146006333Y-73473618D01*
X146006333Y-73473618D02*
X146053952Y-73425999D01*
X146053952Y-73425999D02*
X146149190Y-73378380D01*
X146149190Y-73378380D02*
X146434904Y-73378380D01*
X146434904Y-73378380D02*
X146530142Y-73425999D01*
X146530142Y-73425999D02*
X146577761Y-73473618D01*
X146577761Y-73473618D02*
X146625380Y-73568856D01*
X146625380Y-73568856D02*
X146625380Y-73759332D01*
X146625380Y-73759332D02*
X146577761Y-73854570D01*
X146577761Y-72568856D02*
X146625380Y-72664094D01*
X146625380Y-72664094D02*
X146625380Y-72854570D01*
X146625380Y-72854570D02*
X146577761Y-72949808D01*
X146577761Y-72949808D02*
X146482523Y-72997427D01*
X146482523Y-72997427D02*
X146101571Y-72997427D01*
X146101571Y-72997427D02*
X146006333Y-72949808D01*
X146006333Y-72949808D02*
X145958714Y-72854570D01*
X145958714Y-72854570D02*
X145958714Y-72664094D01*
X145958714Y-72664094D02*
X146006333Y-72568856D01*
X146006333Y-72568856D02*
X146101571Y-72521237D01*
X146101571Y-72521237D02*
X146196809Y-72521237D01*
X146196809Y-72521237D02*
X146292047Y-72997427D01*
X145958714Y-72235522D02*
X145958714Y-71854570D01*
X146625380Y-72092665D02*
X145768238Y-72092665D01*
X145768238Y-72092665D02*
X145673000Y-72045046D01*
X145673000Y-72045046D02*
X145625380Y-71949808D01*
X145625380Y-71949808D02*
X145625380Y-71854570D01*
X146625380Y-71378379D02*
X146577761Y-71473617D01*
X146577761Y-71473617D02*
X146530142Y-71521236D01*
X146530142Y-71521236D02*
X146434904Y-71568855D01*
X146434904Y-71568855D02*
X146149190Y-71568855D01*
X146149190Y-71568855D02*
X146053952Y-71521236D01*
X146053952Y-71521236D02*
X146006333Y-71473617D01*
X146006333Y-71473617D02*
X145958714Y-71378379D01*
X145958714Y-71378379D02*
X145958714Y-71235522D01*
X145958714Y-71235522D02*
X146006333Y-71140284D01*
X146006333Y-71140284D02*
X146053952Y-71092665D01*
X146053952Y-71092665D02*
X146149190Y-71045046D01*
X146149190Y-71045046D02*
X146434904Y-71045046D01*
X146434904Y-71045046D02*
X146530142Y-71092665D01*
X146530142Y-71092665D02*
X146577761Y-71140284D01*
X146577761Y-71140284D02*
X146625380Y-71235522D01*
X146625380Y-71235522D02*
X146625380Y-71378379D01*
X146625380Y-70616474D02*
X145958714Y-70616474D01*
X146149190Y-70616474D02*
X146053952Y-70568855D01*
X146053952Y-70568855D02*
X146006333Y-70521236D01*
X146006333Y-70521236D02*
X145958714Y-70425998D01*
X145958714Y-70425998D02*
X145958714Y-70330760D01*
X146577761Y-69616474D02*
X146625380Y-69711712D01*
X146625380Y-69711712D02*
X146625380Y-69902188D01*
X146625380Y-69902188D02*
X146577761Y-69997426D01*
X146577761Y-69997426D02*
X146482523Y-70045045D01*
X146482523Y-70045045D02*
X146101571Y-70045045D01*
X146101571Y-70045045D02*
X146006333Y-69997426D01*
X146006333Y-69997426D02*
X145958714Y-69902188D01*
X145958714Y-69902188D02*
X145958714Y-69711712D01*
X145958714Y-69711712D02*
X146006333Y-69616474D01*
X146006333Y-69616474D02*
X146101571Y-69568855D01*
X146101571Y-69568855D02*
X146196809Y-69568855D01*
X146196809Y-69568855D02*
X146292047Y-70045045D01*
X147578714Y-80787904D02*
X148578714Y-80787904D01*
X147626333Y-80787904D02*
X147578714Y-80692666D01*
X147578714Y-80692666D02*
X147578714Y-80502190D01*
X147578714Y-80502190D02*
X147626333Y-80406952D01*
X147626333Y-80406952D02*
X147673952Y-80359333D01*
X147673952Y-80359333D02*
X147769190Y-80311714D01*
X147769190Y-80311714D02*
X148054904Y-80311714D01*
X148054904Y-80311714D02*
X148150142Y-80359333D01*
X148150142Y-80359333D02*
X148197761Y-80406952D01*
X148197761Y-80406952D02*
X148245380Y-80502190D01*
X148245380Y-80502190D02*
X148245380Y-80692666D01*
X148245380Y-80692666D02*
X148197761Y-80787904D01*
X148245380Y-79883142D02*
X147578714Y-79883142D01*
X147769190Y-79883142D02*
X147673952Y-79835523D01*
X147673952Y-79835523D02*
X147626333Y-79787904D01*
X147626333Y-79787904D02*
X147578714Y-79692666D01*
X147578714Y-79692666D02*
X147578714Y-79597428D01*
X148245380Y-79121237D02*
X148197761Y-79216475D01*
X148197761Y-79216475D02*
X148150142Y-79264094D01*
X148150142Y-79264094D02*
X148054904Y-79311713D01*
X148054904Y-79311713D02*
X147769190Y-79311713D01*
X147769190Y-79311713D02*
X147673952Y-79264094D01*
X147673952Y-79264094D02*
X147626333Y-79216475D01*
X147626333Y-79216475D02*
X147578714Y-79121237D01*
X147578714Y-79121237D02*
X147578714Y-78978380D01*
X147578714Y-78978380D02*
X147626333Y-78883142D01*
X147626333Y-78883142D02*
X147673952Y-78835523D01*
X147673952Y-78835523D02*
X147769190Y-78787904D01*
X147769190Y-78787904D02*
X148054904Y-78787904D01*
X148054904Y-78787904D02*
X148150142Y-78835523D01*
X148150142Y-78835523D02*
X148197761Y-78883142D01*
X148197761Y-78883142D02*
X148245380Y-78978380D01*
X148245380Y-78978380D02*
X148245380Y-79121237D01*
X147578714Y-77930761D02*
X148388238Y-77930761D01*
X148388238Y-77930761D02*
X148483476Y-77978380D01*
X148483476Y-77978380D02*
X148531095Y-78025999D01*
X148531095Y-78025999D02*
X148578714Y-78121237D01*
X148578714Y-78121237D02*
X148578714Y-78264094D01*
X148578714Y-78264094D02*
X148531095Y-78359332D01*
X148197761Y-77930761D02*
X148245380Y-78025999D01*
X148245380Y-78025999D02*
X148245380Y-78216475D01*
X148245380Y-78216475D02*
X148197761Y-78311713D01*
X148197761Y-78311713D02*
X148150142Y-78359332D01*
X148150142Y-78359332D02*
X148054904Y-78406951D01*
X148054904Y-78406951D02*
X147769190Y-78406951D01*
X147769190Y-78406951D02*
X147673952Y-78359332D01*
X147673952Y-78359332D02*
X147626333Y-78311713D01*
X147626333Y-78311713D02*
X147578714Y-78216475D01*
X147578714Y-78216475D02*
X147578714Y-78025999D01*
X147578714Y-78025999D02*
X147626333Y-77930761D01*
X148245380Y-77454570D02*
X147578714Y-77454570D01*
X147769190Y-77454570D02*
X147673952Y-77406951D01*
X147673952Y-77406951D02*
X147626333Y-77359332D01*
X147626333Y-77359332D02*
X147578714Y-77264094D01*
X147578714Y-77264094D02*
X147578714Y-77168856D01*
X148245380Y-76406951D02*
X147721571Y-76406951D01*
X147721571Y-76406951D02*
X147626333Y-76454570D01*
X147626333Y-76454570D02*
X147578714Y-76549808D01*
X147578714Y-76549808D02*
X147578714Y-76740284D01*
X147578714Y-76740284D02*
X147626333Y-76835522D01*
X148197761Y-76406951D02*
X148245380Y-76502189D01*
X148245380Y-76502189D02*
X148245380Y-76740284D01*
X148245380Y-76740284D02*
X148197761Y-76835522D01*
X148197761Y-76835522D02*
X148102523Y-76883141D01*
X148102523Y-76883141D02*
X148007285Y-76883141D01*
X148007285Y-76883141D02*
X147912047Y-76835522D01*
X147912047Y-76835522D02*
X147864428Y-76740284D01*
X147864428Y-76740284D02*
X147864428Y-76502189D01*
X147864428Y-76502189D02*
X147816809Y-76406951D01*
X148245380Y-75930760D02*
X147578714Y-75930760D01*
X147673952Y-75930760D02*
X147626333Y-75883141D01*
X147626333Y-75883141D02*
X147578714Y-75787903D01*
X147578714Y-75787903D02*
X147578714Y-75645046D01*
X147578714Y-75645046D02*
X147626333Y-75549808D01*
X147626333Y-75549808D02*
X147721571Y-75502189D01*
X147721571Y-75502189D02*
X148245380Y-75502189D01*
X147721571Y-75502189D02*
X147626333Y-75454570D01*
X147626333Y-75454570D02*
X147578714Y-75359332D01*
X147578714Y-75359332D02*
X147578714Y-75216475D01*
X147578714Y-75216475D02*
X147626333Y-75121236D01*
X147626333Y-75121236D02*
X147721571Y-75073617D01*
X147721571Y-75073617D02*
X148245380Y-75073617D01*
X148245380Y-74597427D02*
X147578714Y-74597427D01*
X147673952Y-74597427D02*
X147626333Y-74549808D01*
X147626333Y-74549808D02*
X147578714Y-74454570D01*
X147578714Y-74454570D02*
X147578714Y-74311713D01*
X147578714Y-74311713D02*
X147626333Y-74216475D01*
X147626333Y-74216475D02*
X147721571Y-74168856D01*
X147721571Y-74168856D02*
X148245380Y-74168856D01*
X147721571Y-74168856D02*
X147626333Y-74121237D01*
X147626333Y-74121237D02*
X147578714Y-74025999D01*
X147578714Y-74025999D02*
X147578714Y-73883142D01*
X147578714Y-73883142D02*
X147626333Y-73787903D01*
X147626333Y-73787903D02*
X147721571Y-73740284D01*
X147721571Y-73740284D02*
X148245380Y-73740284D01*
X148245380Y-73264094D02*
X147578714Y-73264094D01*
X147245380Y-73264094D02*
X147293000Y-73311713D01*
X147293000Y-73311713D02*
X147340619Y-73264094D01*
X147340619Y-73264094D02*
X147293000Y-73216475D01*
X147293000Y-73216475D02*
X147245380Y-73264094D01*
X147245380Y-73264094D02*
X147340619Y-73264094D01*
X147578714Y-72787904D02*
X148245380Y-72787904D01*
X147673952Y-72787904D02*
X147626333Y-72740285D01*
X147626333Y-72740285D02*
X147578714Y-72645047D01*
X147578714Y-72645047D02*
X147578714Y-72502190D01*
X147578714Y-72502190D02*
X147626333Y-72406952D01*
X147626333Y-72406952D02*
X147721571Y-72359333D01*
X147721571Y-72359333D02*
X148245380Y-72359333D01*
X147578714Y-71454571D02*
X148388238Y-71454571D01*
X148388238Y-71454571D02*
X148483476Y-71502190D01*
X148483476Y-71502190D02*
X148531095Y-71549809D01*
X148531095Y-71549809D02*
X148578714Y-71645047D01*
X148578714Y-71645047D02*
X148578714Y-71787904D01*
X148578714Y-71787904D02*
X148531095Y-71883142D01*
X148197761Y-71454571D02*
X148245380Y-71549809D01*
X148245380Y-71549809D02*
X148245380Y-71740285D01*
X148245380Y-71740285D02*
X148197761Y-71835523D01*
X148197761Y-71835523D02*
X148150142Y-71883142D01*
X148150142Y-71883142D02*
X148054904Y-71930761D01*
X148054904Y-71930761D02*
X147769190Y-71930761D01*
X147769190Y-71930761D02*
X147673952Y-71883142D01*
X147673952Y-71883142D02*
X147626333Y-71835523D01*
X147626333Y-71835523D02*
X147578714Y-71740285D01*
X147578714Y-71740285D02*
X147578714Y-71549809D01*
X147578714Y-71549809D02*
X147626333Y-71454571D01*
X165263428Y-65801904D02*
X165263428Y-65040000D01*
X165644380Y-65420952D02*
X164882476Y-65420952D01*
X165168190Y-64373333D02*
X165644380Y-64373333D01*
X164644380Y-64706666D02*
X165168190Y-64373333D01*
X165168190Y-64373333D02*
X164644380Y-64040000D01*
D11*
X122977094Y-65142142D02*
X124119952Y-65142142D01*
X123548523Y-65713571D02*
X123548523Y-64570714D01*
X125119952Y-64999285D02*
X125119952Y-65713571D01*
X124619952Y-64213571D02*
X125119952Y-64999285D01*
X125119952Y-64999285D02*
X125619952Y-64213571D01*
X127734237Y-65713571D02*
X127019951Y-65713571D01*
X127019951Y-65713571D02*
X127019951Y-64213571D01*
X128234237Y-65713571D02*
X128234237Y-64713571D01*
X128234237Y-64213571D02*
X128162809Y-64285000D01*
X128162809Y-64285000D02*
X128234237Y-64356428D01*
X128234237Y-64356428D02*
X128305666Y-64285000D01*
X128305666Y-64285000D02*
X128234237Y-64213571D01*
X128234237Y-64213571D02*
X128234237Y-64356428D01*
X128948523Y-65713571D02*
X128948523Y-64713571D01*
X128948523Y-64856428D02*
X129019952Y-64785000D01*
X129019952Y-64785000D02*
X129162809Y-64713571D01*
X129162809Y-64713571D02*
X129377095Y-64713571D01*
X129377095Y-64713571D02*
X129519952Y-64785000D01*
X129519952Y-64785000D02*
X129591381Y-64927857D01*
X129591381Y-64927857D02*
X129591381Y-65713571D01*
X129591381Y-64927857D02*
X129662809Y-64785000D01*
X129662809Y-64785000D02*
X129805666Y-64713571D01*
X129805666Y-64713571D02*
X130019952Y-64713571D01*
X130019952Y-64713571D02*
X130162809Y-64785000D01*
X130162809Y-64785000D02*
X130234238Y-64927857D01*
X130234238Y-64927857D02*
X130234238Y-65713571D01*
X154559571Y-56315571D02*
X154559571Y-54815571D01*
X154559571Y-54815571D02*
X155059571Y-55887000D01*
X155059571Y-55887000D02*
X155559571Y-54815571D01*
X155559571Y-54815571D02*
X155559571Y-56315571D01*
X156488143Y-56315571D02*
X156345286Y-56244142D01*
X156345286Y-56244142D02*
X156273857Y-56172714D01*
X156273857Y-56172714D02*
X156202429Y-56029857D01*
X156202429Y-56029857D02*
X156202429Y-55601285D01*
X156202429Y-55601285D02*
X156273857Y-55458428D01*
X156273857Y-55458428D02*
X156345286Y-55387000D01*
X156345286Y-55387000D02*
X156488143Y-55315571D01*
X156488143Y-55315571D02*
X156702429Y-55315571D01*
X156702429Y-55315571D02*
X156845286Y-55387000D01*
X156845286Y-55387000D02*
X156916715Y-55458428D01*
X156916715Y-55458428D02*
X156988143Y-55601285D01*
X156988143Y-55601285D02*
X156988143Y-56029857D01*
X156988143Y-56029857D02*
X156916715Y-56172714D01*
X156916715Y-56172714D02*
X156845286Y-56244142D01*
X156845286Y-56244142D02*
X156702429Y-56315571D01*
X156702429Y-56315571D02*
X156488143Y-56315571D01*
X157416715Y-55315571D02*
X157988143Y-55315571D01*
X157631000Y-54815571D02*
X157631000Y-56101285D01*
X157631000Y-56101285D02*
X157702429Y-56244142D01*
X157702429Y-56244142D02*
X157845286Y-56315571D01*
X157845286Y-56315571D02*
X157988143Y-56315571D01*
X158702429Y-56315571D02*
X158559572Y-56244142D01*
X158559572Y-56244142D02*
X158488143Y-56172714D01*
X158488143Y-56172714D02*
X158416715Y-56029857D01*
X158416715Y-56029857D02*
X158416715Y-55601285D01*
X158416715Y-55601285D02*
X158488143Y-55458428D01*
X158488143Y-55458428D02*
X158559572Y-55387000D01*
X158559572Y-55387000D02*
X158702429Y-55315571D01*
X158702429Y-55315571D02*
X158916715Y-55315571D01*
X158916715Y-55315571D02*
X159059572Y-55387000D01*
X159059572Y-55387000D02*
X159131001Y-55458428D01*
X159131001Y-55458428D02*
X159202429Y-55601285D01*
X159202429Y-55601285D02*
X159202429Y-56029857D01*
X159202429Y-56029857D02*
X159131001Y-56172714D01*
X159131001Y-56172714D02*
X159059572Y-56244142D01*
X159059572Y-56244142D02*
X158916715Y-56315571D01*
X158916715Y-56315571D02*
X158702429Y-56315571D01*
X159845286Y-56315571D02*
X159845286Y-55315571D01*
X159845286Y-55601285D02*
X159916715Y-55458428D01*
X159916715Y-55458428D02*
X159988144Y-55387000D01*
X159988144Y-55387000D02*
X160131001Y-55315571D01*
X160131001Y-55315571D02*
X160273858Y-55315571D01*
X161673857Y-56315571D02*
X161673857Y-54815571D01*
X161673857Y-54815571D02*
X162245286Y-54815571D01*
X162245286Y-54815571D02*
X162388143Y-54887000D01*
X162388143Y-54887000D02*
X162459572Y-54958428D01*
X162459572Y-54958428D02*
X162531000Y-55101285D01*
X162531000Y-55101285D02*
X162531000Y-55315571D01*
X162531000Y-55315571D02*
X162459572Y-55458428D01*
X162459572Y-55458428D02*
X162388143Y-55529857D01*
X162388143Y-55529857D02*
X162245286Y-55601285D01*
X162245286Y-55601285D02*
X161673857Y-55601285D01*
X163388143Y-56315571D02*
X163245286Y-56244142D01*
X163245286Y-56244142D02*
X163173857Y-56172714D01*
X163173857Y-56172714D02*
X163102429Y-56029857D01*
X163102429Y-56029857D02*
X163102429Y-55601285D01*
X163102429Y-55601285D02*
X163173857Y-55458428D01*
X163173857Y-55458428D02*
X163245286Y-55387000D01*
X163245286Y-55387000D02*
X163388143Y-55315571D01*
X163388143Y-55315571D02*
X163602429Y-55315571D01*
X163602429Y-55315571D02*
X163745286Y-55387000D01*
X163745286Y-55387000D02*
X163816715Y-55458428D01*
X163816715Y-55458428D02*
X163888143Y-55601285D01*
X163888143Y-55601285D02*
X163888143Y-56029857D01*
X163888143Y-56029857D02*
X163816715Y-56172714D01*
X163816715Y-56172714D02*
X163745286Y-56244142D01*
X163745286Y-56244142D02*
X163602429Y-56315571D01*
X163602429Y-56315571D02*
X163388143Y-56315571D01*
X164388143Y-55315571D02*
X164673858Y-56315571D01*
X164673858Y-56315571D02*
X164959572Y-55601285D01*
X164959572Y-55601285D02*
X165245286Y-56315571D01*
X165245286Y-56315571D02*
X165531000Y-55315571D01*
X166673858Y-56244142D02*
X166531001Y-56315571D01*
X166531001Y-56315571D02*
X166245287Y-56315571D01*
X166245287Y-56315571D02*
X166102429Y-56244142D01*
X166102429Y-56244142D02*
X166031001Y-56101285D01*
X166031001Y-56101285D02*
X166031001Y-55529857D01*
X166031001Y-55529857D02*
X166102429Y-55387000D01*
X166102429Y-55387000D02*
X166245287Y-55315571D01*
X166245287Y-55315571D02*
X166531001Y-55315571D01*
X166531001Y-55315571D02*
X166673858Y-55387000D01*
X166673858Y-55387000D02*
X166745287Y-55529857D01*
X166745287Y-55529857D02*
X166745287Y-55672714D01*
X166745287Y-55672714D02*
X166031001Y-55815571D01*
X167388143Y-56315571D02*
X167388143Y-55315571D01*
X167388143Y-55601285D02*
X167459572Y-55458428D01*
X167459572Y-55458428D02*
X167531001Y-55387000D01*
X167531001Y-55387000D02*
X167673858Y-55315571D01*
X167673858Y-55315571D02*
X167816715Y-55315571D01*
D10*
X130084380Y-98345714D02*
X130084380Y-98821904D01*
X130084380Y-98821904D02*
X129084380Y-98821904D01*
X129084380Y-98155237D02*
X130084380Y-97821904D01*
X130084380Y-97821904D02*
X129084380Y-97488571D01*
X130084380Y-96583809D02*
X129608190Y-96917142D01*
X130084380Y-97155237D02*
X129084380Y-97155237D01*
X129084380Y-97155237D02*
X129084380Y-96774285D01*
X129084380Y-96774285D02*
X129132000Y-96679047D01*
X129132000Y-96679047D02*
X129179619Y-96631428D01*
X129179619Y-96631428D02*
X129274857Y-96583809D01*
X129274857Y-96583809D02*
X129417714Y-96583809D01*
X129417714Y-96583809D02*
X129512952Y-96631428D01*
X129512952Y-96631428D02*
X129560571Y-96679047D01*
X129560571Y-96679047D02*
X129608190Y-96774285D01*
X129608190Y-96774285D02*
X129608190Y-97155237D01*
D11*
X144410999Y-65142142D02*
X145553857Y-65142142D01*
X144982428Y-65713571D02*
X144982428Y-64570714D01*
X146125285Y-64213571D02*
X147125285Y-65713571D01*
X147125285Y-64213571D02*
X146125285Y-65713571D01*
X149310999Y-65713571D02*
X148596713Y-65713571D01*
X148596713Y-65713571D02*
X148596713Y-64213571D01*
X149810999Y-65713571D02*
X149810999Y-64713571D01*
X149810999Y-64213571D02*
X149739571Y-64285000D01*
X149739571Y-64285000D02*
X149810999Y-64356428D01*
X149810999Y-64356428D02*
X149882428Y-64285000D01*
X149882428Y-64285000D02*
X149810999Y-64213571D01*
X149810999Y-64213571D02*
X149810999Y-64356428D01*
X150525285Y-65713571D02*
X150525285Y-64713571D01*
X150525285Y-64856428D02*
X150596714Y-64785000D01*
X150596714Y-64785000D02*
X150739571Y-64713571D01*
X150739571Y-64713571D02*
X150953857Y-64713571D01*
X150953857Y-64713571D02*
X151096714Y-64785000D01*
X151096714Y-64785000D02*
X151168143Y-64927857D01*
X151168143Y-64927857D02*
X151168143Y-65713571D01*
X151168143Y-64927857D02*
X151239571Y-64785000D01*
X151239571Y-64785000D02*
X151382428Y-64713571D01*
X151382428Y-64713571D02*
X151596714Y-64713571D01*
X151596714Y-64713571D02*
X151739571Y-64785000D01*
X151739571Y-64785000D02*
X151811000Y-64927857D01*
X151811000Y-64927857D02*
X151811000Y-65713571D01*
D10*
X133140752Y-91977935D02*
X133322180Y-92038411D01*
X133322180Y-92038411D02*
X133382657Y-92098888D01*
X133382657Y-92098888D02*
X133443133Y-92219840D01*
X133443133Y-92219840D02*
X133443133Y-92401269D01*
X133443133Y-92401269D02*
X133382657Y-92522221D01*
X133382657Y-92522221D02*
X133322180Y-92582697D01*
X133322180Y-92582697D02*
X133201228Y-92643173D01*
X133201228Y-92643173D02*
X132717418Y-92643173D01*
X132717418Y-92643173D02*
X132717418Y-91373173D01*
X132717418Y-91373173D02*
X133140752Y-91373173D01*
X133140752Y-91373173D02*
X133261704Y-91433650D01*
X133261704Y-91433650D02*
X133322180Y-91494126D01*
X133322180Y-91494126D02*
X133382657Y-91615078D01*
X133382657Y-91615078D02*
X133382657Y-91736030D01*
X133382657Y-91736030D02*
X133322180Y-91856983D01*
X133322180Y-91856983D02*
X133261704Y-91917459D01*
X133261704Y-91917459D02*
X133140752Y-91977935D01*
X133140752Y-91977935D02*
X132717418Y-91977935D01*
X134652657Y-92643173D02*
X133926942Y-92643173D01*
X134289799Y-92643173D02*
X134289799Y-91373173D01*
X134289799Y-91373173D02*
X134168847Y-91554602D01*
X134168847Y-91554602D02*
X134047895Y-91675554D01*
X134047895Y-91675554D02*
X133926942Y-91736030D01*
D11*
X112551171Y-89076257D02*
X111051171Y-89076257D01*
X111051171Y-89076257D02*
X112122600Y-88576257D01*
X112122600Y-88576257D02*
X111051171Y-88076257D01*
X111051171Y-88076257D02*
X112551171Y-88076257D01*
X112479742Y-87433399D02*
X112551171Y-87219114D01*
X112551171Y-87219114D02*
X112551171Y-86861971D01*
X112551171Y-86861971D02*
X112479742Y-86719114D01*
X112479742Y-86719114D02*
X112408314Y-86647685D01*
X112408314Y-86647685D02*
X112265457Y-86576256D01*
X112265457Y-86576256D02*
X112122600Y-86576256D01*
X112122600Y-86576256D02*
X111979742Y-86647685D01*
X111979742Y-86647685D02*
X111908314Y-86719114D01*
X111908314Y-86719114D02*
X111836885Y-86861971D01*
X111836885Y-86861971D02*
X111765457Y-87147685D01*
X111765457Y-87147685D02*
X111694028Y-87290542D01*
X111694028Y-87290542D02*
X111622600Y-87361971D01*
X111622600Y-87361971D02*
X111479742Y-87433399D01*
X111479742Y-87433399D02*
X111336885Y-87433399D01*
X111336885Y-87433399D02*
X111194028Y-87361971D01*
X111194028Y-87361971D02*
X111122600Y-87290542D01*
X111122600Y-87290542D02*
X111051171Y-87147685D01*
X111051171Y-87147685D02*
X111051171Y-86790542D01*
X111051171Y-86790542D02*
X111122600Y-86576256D01*
X111765457Y-85433400D02*
X111836885Y-85219114D01*
X111836885Y-85219114D02*
X111908314Y-85147685D01*
X111908314Y-85147685D02*
X112051171Y-85076257D01*
X112051171Y-85076257D02*
X112265457Y-85076257D01*
X112265457Y-85076257D02*
X112408314Y-85147685D01*
X112408314Y-85147685D02*
X112479742Y-85219114D01*
X112479742Y-85219114D02*
X112551171Y-85361971D01*
X112551171Y-85361971D02*
X112551171Y-85933400D01*
X112551171Y-85933400D02*
X111051171Y-85933400D01*
X111051171Y-85933400D02*
X111051171Y-85433400D01*
X111051171Y-85433400D02*
X111122600Y-85290543D01*
X111122600Y-85290543D02*
X111194028Y-85219114D01*
X111194028Y-85219114D02*
X111336885Y-85147685D01*
X111336885Y-85147685D02*
X111479742Y-85147685D01*
X111479742Y-85147685D02*
X111622600Y-85219114D01*
X111622600Y-85219114D02*
X111694028Y-85290543D01*
X111694028Y-85290543D02*
X111765457Y-85433400D01*
X111765457Y-85433400D02*
X111765457Y-85933400D01*
X133658331Y-65142142D02*
X134801189Y-65142142D01*
X135372617Y-64213571D02*
X136372617Y-65713571D01*
X136372617Y-64213571D02*
X135372617Y-65713571D01*
X138558331Y-65713571D02*
X137844045Y-65713571D01*
X137844045Y-65713571D02*
X137844045Y-64213571D01*
X139058331Y-65713571D02*
X139058331Y-64713571D01*
X139058331Y-64213571D02*
X138986903Y-64285000D01*
X138986903Y-64285000D02*
X139058331Y-64356428D01*
X139058331Y-64356428D02*
X139129760Y-64285000D01*
X139129760Y-64285000D02*
X139058331Y-64213571D01*
X139058331Y-64213571D02*
X139058331Y-64356428D01*
X139772617Y-65713571D02*
X139772617Y-64713571D01*
X139772617Y-64856428D02*
X139844046Y-64785000D01*
X139844046Y-64785000D02*
X139986903Y-64713571D01*
X139986903Y-64713571D02*
X140201189Y-64713571D01*
X140201189Y-64713571D02*
X140344046Y-64785000D01*
X140344046Y-64785000D02*
X140415475Y-64927857D01*
X140415475Y-64927857D02*
X140415475Y-65713571D01*
X140415475Y-64927857D02*
X140486903Y-64785000D01*
X140486903Y-64785000D02*
X140629760Y-64713571D01*
X140629760Y-64713571D02*
X140844046Y-64713571D01*
X140844046Y-64713571D02*
X140986903Y-64785000D01*
X140986903Y-64785000D02*
X141058332Y-64927857D01*
X141058332Y-64927857D02*
X141058332Y-65713571D01*
D10*
X159929428Y-65801904D02*
X159929428Y-65040000D01*
X160310380Y-65420952D02*
X159548476Y-65420952D01*
X159310380Y-64659047D02*
X160310380Y-63992381D01*
X159310380Y-63992381D02*
X160310380Y-64659047D01*
D11*
X137263142Y-92857571D02*
X137263142Y-91357571D01*
X137263142Y-91357571D02*
X137834571Y-91357571D01*
X137834571Y-91357571D02*
X137977428Y-91429000D01*
X137977428Y-91429000D02*
X138048857Y-91500428D01*
X138048857Y-91500428D02*
X138120285Y-91643285D01*
X138120285Y-91643285D02*
X138120285Y-91857571D01*
X138120285Y-91857571D02*
X138048857Y-92000428D01*
X138048857Y-92000428D02*
X137977428Y-92071857D01*
X137977428Y-92071857D02*
X137834571Y-92143285D01*
X137834571Y-92143285D02*
X137263142Y-92143285D01*
X138977428Y-92857571D02*
X138834571Y-92786142D01*
X138834571Y-92786142D02*
X138763142Y-92714714D01*
X138763142Y-92714714D02*
X138691714Y-92571857D01*
X138691714Y-92571857D02*
X138691714Y-92143285D01*
X138691714Y-92143285D02*
X138763142Y-92000428D01*
X138763142Y-92000428D02*
X138834571Y-91929000D01*
X138834571Y-91929000D02*
X138977428Y-91857571D01*
X138977428Y-91857571D02*
X139191714Y-91857571D01*
X139191714Y-91857571D02*
X139334571Y-91929000D01*
X139334571Y-91929000D02*
X139406000Y-92000428D01*
X139406000Y-92000428D02*
X139477428Y-92143285D01*
X139477428Y-92143285D02*
X139477428Y-92571857D01*
X139477428Y-92571857D02*
X139406000Y-92714714D01*
X139406000Y-92714714D02*
X139334571Y-92786142D01*
X139334571Y-92786142D02*
X139191714Y-92857571D01*
X139191714Y-92857571D02*
X138977428Y-92857571D01*
X139977428Y-91857571D02*
X140263143Y-92857571D01*
X140263143Y-92857571D02*
X140548857Y-92143285D01*
X140548857Y-92143285D02*
X140834571Y-92857571D01*
X140834571Y-92857571D02*
X141120285Y-91857571D01*
X142263143Y-92786142D02*
X142120286Y-92857571D01*
X142120286Y-92857571D02*
X141834572Y-92857571D01*
X141834572Y-92857571D02*
X141691714Y-92786142D01*
X141691714Y-92786142D02*
X141620286Y-92643285D01*
X141620286Y-92643285D02*
X141620286Y-92071857D01*
X141620286Y-92071857D02*
X141691714Y-91929000D01*
X141691714Y-91929000D02*
X141834572Y-91857571D01*
X141834572Y-91857571D02*
X142120286Y-91857571D01*
X142120286Y-91857571D02*
X142263143Y-91929000D01*
X142263143Y-91929000D02*
X142334572Y-92071857D01*
X142334572Y-92071857D02*
X142334572Y-92214714D01*
X142334572Y-92214714D02*
X141620286Y-92357571D01*
X142977428Y-92857571D02*
X142977428Y-91857571D01*
X142977428Y-92143285D02*
X143048857Y-92000428D01*
X143048857Y-92000428D02*
X143120286Y-91929000D01*
X143120286Y-91929000D02*
X143263143Y-91857571D01*
X143263143Y-91857571D02*
X143406000Y-91857571D01*
X137191714Y-95216142D02*
X137406000Y-95287571D01*
X137406000Y-95287571D02*
X137763142Y-95287571D01*
X137763142Y-95287571D02*
X137906000Y-95216142D01*
X137906000Y-95216142D02*
X137977428Y-95144714D01*
X137977428Y-95144714D02*
X138048857Y-95001857D01*
X138048857Y-95001857D02*
X138048857Y-94859000D01*
X138048857Y-94859000D02*
X137977428Y-94716142D01*
X137977428Y-94716142D02*
X137906000Y-94644714D01*
X137906000Y-94644714D02*
X137763142Y-94573285D01*
X137763142Y-94573285D02*
X137477428Y-94501857D01*
X137477428Y-94501857D02*
X137334571Y-94430428D01*
X137334571Y-94430428D02*
X137263142Y-94359000D01*
X137263142Y-94359000D02*
X137191714Y-94216142D01*
X137191714Y-94216142D02*
X137191714Y-94073285D01*
X137191714Y-94073285D02*
X137263142Y-93930428D01*
X137263142Y-93930428D02*
X137334571Y-93859000D01*
X137334571Y-93859000D02*
X137477428Y-93787571D01*
X137477428Y-93787571D02*
X137834571Y-93787571D01*
X137834571Y-93787571D02*
X138048857Y-93859000D01*
X138905999Y-95287571D02*
X138763142Y-95216142D01*
X138763142Y-95216142D02*
X138691713Y-95144714D01*
X138691713Y-95144714D02*
X138620285Y-95001857D01*
X138620285Y-95001857D02*
X138620285Y-94573285D01*
X138620285Y-94573285D02*
X138691713Y-94430428D01*
X138691713Y-94430428D02*
X138763142Y-94359000D01*
X138763142Y-94359000D02*
X138905999Y-94287571D01*
X138905999Y-94287571D02*
X139120285Y-94287571D01*
X139120285Y-94287571D02*
X139263142Y-94359000D01*
X139263142Y-94359000D02*
X139334571Y-94430428D01*
X139334571Y-94430428D02*
X139405999Y-94573285D01*
X139405999Y-94573285D02*
X139405999Y-95001857D01*
X139405999Y-95001857D02*
X139334571Y-95144714D01*
X139334571Y-95144714D02*
X139263142Y-95216142D01*
X139263142Y-95216142D02*
X139120285Y-95287571D01*
X139120285Y-95287571D02*
X138905999Y-95287571D01*
X140691714Y-94287571D02*
X140691714Y-95287571D01*
X140048856Y-94287571D02*
X140048856Y-95073285D01*
X140048856Y-95073285D02*
X140120285Y-95216142D01*
X140120285Y-95216142D02*
X140263142Y-95287571D01*
X140263142Y-95287571D02*
X140477428Y-95287571D01*
X140477428Y-95287571D02*
X140620285Y-95216142D01*
X140620285Y-95216142D02*
X140691714Y-95144714D01*
X141405999Y-95287571D02*
X141405999Y-94287571D01*
X141405999Y-94573285D02*
X141477428Y-94430428D01*
X141477428Y-94430428D02*
X141548857Y-94359000D01*
X141548857Y-94359000D02*
X141691714Y-94287571D01*
X141691714Y-94287571D02*
X141834571Y-94287571D01*
X142977428Y-95216142D02*
X142834570Y-95287571D01*
X142834570Y-95287571D02*
X142548856Y-95287571D01*
X142548856Y-95287571D02*
X142405999Y-95216142D01*
X142405999Y-95216142D02*
X142334570Y-95144714D01*
X142334570Y-95144714D02*
X142263142Y-95001857D01*
X142263142Y-95001857D02*
X142263142Y-94573285D01*
X142263142Y-94573285D02*
X142334570Y-94430428D01*
X142334570Y-94430428D02*
X142405999Y-94359000D01*
X142405999Y-94359000D02*
X142548856Y-94287571D01*
X142548856Y-94287571D02*
X142834570Y-94287571D01*
X142834570Y-94287571D02*
X142977428Y-94359000D01*
X144191713Y-95216142D02*
X144048856Y-95287571D01*
X144048856Y-95287571D02*
X143763142Y-95287571D01*
X143763142Y-95287571D02*
X143620284Y-95216142D01*
X143620284Y-95216142D02*
X143548856Y-95073285D01*
X143548856Y-95073285D02*
X143548856Y-94501857D01*
X143548856Y-94501857D02*
X143620284Y-94359000D01*
X143620284Y-94359000D02*
X143763142Y-94287571D01*
X143763142Y-94287571D02*
X144048856Y-94287571D01*
X144048856Y-94287571D02*
X144191713Y-94359000D01*
X144191713Y-94359000D02*
X144263142Y-94501857D01*
X144263142Y-94501857D02*
X144263142Y-94644714D01*
X144263142Y-94644714D02*
X143548856Y-94787571D01*
X137191714Y-97646142D02*
X137406000Y-97717571D01*
X137406000Y-97717571D02*
X137763142Y-97717571D01*
X137763142Y-97717571D02*
X137906000Y-97646142D01*
X137906000Y-97646142D02*
X137977428Y-97574714D01*
X137977428Y-97574714D02*
X138048857Y-97431857D01*
X138048857Y-97431857D02*
X138048857Y-97289000D01*
X138048857Y-97289000D02*
X137977428Y-97146142D01*
X137977428Y-97146142D02*
X137906000Y-97074714D01*
X137906000Y-97074714D02*
X137763142Y-97003285D01*
X137763142Y-97003285D02*
X137477428Y-96931857D01*
X137477428Y-96931857D02*
X137334571Y-96860428D01*
X137334571Y-96860428D02*
X137263142Y-96789000D01*
X137263142Y-96789000D02*
X137191714Y-96646142D01*
X137191714Y-96646142D02*
X137191714Y-96503285D01*
X137191714Y-96503285D02*
X137263142Y-96360428D01*
X137263142Y-96360428D02*
X137334571Y-96289000D01*
X137334571Y-96289000D02*
X137477428Y-96217571D01*
X137477428Y-96217571D02*
X137834571Y-96217571D01*
X137834571Y-96217571D02*
X138048857Y-96289000D01*
X139263142Y-97646142D02*
X139120285Y-97717571D01*
X139120285Y-97717571D02*
X138834571Y-97717571D01*
X138834571Y-97717571D02*
X138691713Y-97646142D01*
X138691713Y-97646142D02*
X138620285Y-97503285D01*
X138620285Y-97503285D02*
X138620285Y-96931857D01*
X138620285Y-96931857D02*
X138691713Y-96789000D01*
X138691713Y-96789000D02*
X138834571Y-96717571D01*
X138834571Y-96717571D02*
X139120285Y-96717571D01*
X139120285Y-96717571D02*
X139263142Y-96789000D01*
X139263142Y-96789000D02*
X139334571Y-96931857D01*
X139334571Y-96931857D02*
X139334571Y-97074714D01*
X139334571Y-97074714D02*
X138620285Y-97217571D01*
X140191713Y-97717571D02*
X140048856Y-97646142D01*
X140048856Y-97646142D02*
X139977427Y-97503285D01*
X139977427Y-97503285D02*
X139977427Y-96217571D01*
X141334570Y-97646142D02*
X141191713Y-97717571D01*
X141191713Y-97717571D02*
X140905999Y-97717571D01*
X140905999Y-97717571D02*
X140763141Y-97646142D01*
X140763141Y-97646142D02*
X140691713Y-97503285D01*
X140691713Y-97503285D02*
X140691713Y-96931857D01*
X140691713Y-96931857D02*
X140763141Y-96789000D01*
X140763141Y-96789000D02*
X140905999Y-96717571D01*
X140905999Y-96717571D02*
X141191713Y-96717571D01*
X141191713Y-96717571D02*
X141334570Y-96789000D01*
X141334570Y-96789000D02*
X141405999Y-96931857D01*
X141405999Y-96931857D02*
X141405999Y-97074714D01*
X141405999Y-97074714D02*
X140691713Y-97217571D01*
X142691713Y-97646142D02*
X142548855Y-97717571D01*
X142548855Y-97717571D02*
X142263141Y-97717571D01*
X142263141Y-97717571D02*
X142120284Y-97646142D01*
X142120284Y-97646142D02*
X142048855Y-97574714D01*
X142048855Y-97574714D02*
X141977427Y-97431857D01*
X141977427Y-97431857D02*
X141977427Y-97003285D01*
X141977427Y-97003285D02*
X142048855Y-96860428D01*
X142048855Y-96860428D02*
X142120284Y-96789000D01*
X142120284Y-96789000D02*
X142263141Y-96717571D01*
X142263141Y-96717571D02*
X142548855Y-96717571D01*
X142548855Y-96717571D02*
X142691713Y-96789000D01*
X143120284Y-96717571D02*
X143691712Y-96717571D01*
X143334569Y-96217571D02*
X143334569Y-97503285D01*
X143334569Y-97503285D02*
X143405998Y-97646142D01*
X143405998Y-97646142D02*
X143548855Y-97717571D01*
X143548855Y-97717571D02*
X143691712Y-97717571D01*
X107165523Y-116459047D02*
X107260761Y-116173333D01*
X107260761Y-116173333D02*
X107260761Y-115697142D01*
X107260761Y-115697142D02*
X107165523Y-115506666D01*
X107165523Y-115506666D02*
X107070285Y-115411428D01*
X107070285Y-115411428D02*
X106879809Y-115316190D01*
X106879809Y-115316190D02*
X106689333Y-115316190D01*
X106689333Y-115316190D02*
X106498857Y-115411428D01*
X106498857Y-115411428D02*
X106403619Y-115506666D01*
X106403619Y-115506666D02*
X106308380Y-115697142D01*
X106308380Y-115697142D02*
X106213142Y-116078095D01*
X106213142Y-116078095D02*
X106117904Y-116268571D01*
X106117904Y-116268571D02*
X106022666Y-116363809D01*
X106022666Y-116363809D02*
X105832190Y-116459047D01*
X105832190Y-116459047D02*
X105641714Y-116459047D01*
X105641714Y-116459047D02*
X105451238Y-116363809D01*
X105451238Y-116363809D02*
X105356000Y-116268571D01*
X105356000Y-116268571D02*
X105260761Y-116078095D01*
X105260761Y-116078095D02*
X105260761Y-115601904D01*
X105260761Y-115601904D02*
X105356000Y-115316190D01*
X107260761Y-114459047D02*
X105260761Y-114459047D01*
X105260761Y-114459047D02*
X106689333Y-113792380D01*
X106689333Y-113792380D02*
X105260761Y-113125714D01*
X105260761Y-113125714D02*
X107260761Y-113125714D01*
X106213142Y-112173333D02*
X106213142Y-111506666D01*
X107260761Y-111220952D02*
X107260761Y-112173333D01*
X107260761Y-112173333D02*
X105260761Y-112173333D01*
X105260761Y-112173333D02*
X105260761Y-111220952D01*
X105260761Y-110554285D02*
X105260761Y-109220952D01*
X105260761Y-109220952D02*
X107260761Y-110554285D01*
X107260761Y-110554285D02*
X107260761Y-109220952D01*
X106689333Y-108554285D02*
X106689333Y-107601904D01*
X107260761Y-108744761D02*
X105260761Y-108078095D01*
X105260761Y-108078095D02*
X107260761Y-107411428D01*
X105260761Y-105830475D02*
X107260761Y-105163809D01*
X107260761Y-105163809D02*
X105260761Y-104497142D01*
X105260761Y-103449523D02*
X105260761Y-103259046D01*
X105260761Y-103259046D02*
X105356000Y-103068570D01*
X105356000Y-103068570D02*
X105451238Y-102973332D01*
X105451238Y-102973332D02*
X105641714Y-102878094D01*
X105641714Y-102878094D02*
X106022666Y-102782856D01*
X106022666Y-102782856D02*
X106498857Y-102782856D01*
X106498857Y-102782856D02*
X106879809Y-102878094D01*
X106879809Y-102878094D02*
X107070285Y-102973332D01*
X107070285Y-102973332D02*
X107165523Y-103068570D01*
X107165523Y-103068570D02*
X107260761Y-103259046D01*
X107260761Y-103259046D02*
X107260761Y-103449523D01*
X107260761Y-103449523D02*
X107165523Y-103639999D01*
X107165523Y-103639999D02*
X107070285Y-103735237D01*
X107070285Y-103735237D02*
X106879809Y-103830475D01*
X106879809Y-103830475D02*
X106498857Y-103925713D01*
X106498857Y-103925713D02*
X106022666Y-103925713D01*
X106022666Y-103925713D02*
X105641714Y-103830475D01*
X105641714Y-103830475D02*
X105451238Y-103735237D01*
X105451238Y-103735237D02*
X105356000Y-103639999D01*
X105356000Y-103639999D02*
X105260761Y-103449523D01*
X107070285Y-101925713D02*
X107165523Y-101830475D01*
X107165523Y-101830475D02*
X107260761Y-101925713D01*
X107260761Y-101925713D02*
X107165523Y-102020951D01*
X107165523Y-102020951D02*
X107070285Y-101925713D01*
X107070285Y-101925713D02*
X107260761Y-101925713D01*
X105260761Y-101163808D02*
X105260761Y-99925713D01*
X105260761Y-99925713D02*
X106022666Y-100592380D01*
X106022666Y-100592380D02*
X106022666Y-100306665D01*
X106022666Y-100306665D02*
X106117904Y-100116189D01*
X106117904Y-100116189D02*
X106213142Y-100020951D01*
X106213142Y-100020951D02*
X106403619Y-99925713D01*
X106403619Y-99925713D02*
X106879809Y-99925713D01*
X106879809Y-99925713D02*
X107070285Y-100020951D01*
X107070285Y-100020951D02*
X107165523Y-100116189D01*
X107165523Y-100116189D02*
X107260761Y-100306665D01*
X107260761Y-100306665D02*
X107260761Y-100878094D01*
X107260761Y-100878094D02*
X107165523Y-101068570D01*
X107165523Y-101068570D02*
X107070285Y-101163808D01*
D10*
X157389428Y-65801904D02*
X157389428Y-65040000D01*
X156770380Y-64659047D02*
X157770380Y-63992381D01*
X156770380Y-63992381D02*
X157770380Y-64659047D01*
X134640571Y-99250571D02*
X134688190Y-99107714D01*
X134688190Y-99107714D02*
X134735809Y-99060095D01*
X134735809Y-99060095D02*
X134831047Y-99012476D01*
X134831047Y-99012476D02*
X134973904Y-99012476D01*
X134973904Y-99012476D02*
X135069142Y-99060095D01*
X135069142Y-99060095D02*
X135116761Y-99107714D01*
X135116761Y-99107714D02*
X135164380Y-99202952D01*
X135164380Y-99202952D02*
X135164380Y-99583904D01*
X135164380Y-99583904D02*
X134164380Y-99583904D01*
X134164380Y-99583904D02*
X134164380Y-99250571D01*
X134164380Y-99250571D02*
X134212000Y-99155333D01*
X134212000Y-99155333D02*
X134259619Y-99107714D01*
X134259619Y-99107714D02*
X134354857Y-99060095D01*
X134354857Y-99060095D02*
X134450095Y-99060095D01*
X134450095Y-99060095D02*
X134545333Y-99107714D01*
X134545333Y-99107714D02*
X134592952Y-99155333D01*
X134592952Y-99155333D02*
X134640571Y-99250571D01*
X134640571Y-99250571D02*
X134640571Y-99583904D01*
X134497714Y-98155333D02*
X135164380Y-98155333D01*
X134497714Y-98583904D02*
X135021523Y-98583904D01*
X135021523Y-98583904D02*
X135116761Y-98536285D01*
X135116761Y-98536285D02*
X135164380Y-98441047D01*
X135164380Y-98441047D02*
X135164380Y-98298190D01*
X135164380Y-98298190D02*
X135116761Y-98202952D01*
X135116761Y-98202952D02*
X135069142Y-98155333D01*
X135116761Y-97250571D02*
X135164380Y-97345809D01*
X135164380Y-97345809D02*
X135164380Y-97536285D01*
X135164380Y-97536285D02*
X135116761Y-97631523D01*
X135116761Y-97631523D02*
X135069142Y-97679142D01*
X135069142Y-97679142D02*
X134973904Y-97726761D01*
X134973904Y-97726761D02*
X134688190Y-97726761D01*
X134688190Y-97726761D02*
X134592952Y-97679142D01*
X134592952Y-97679142D02*
X134545333Y-97631523D01*
X134545333Y-97631523D02*
X134497714Y-97536285D01*
X134497714Y-97536285D02*
X134497714Y-97345809D01*
X134497714Y-97345809D02*
X134545333Y-97250571D01*
X135164380Y-96821999D02*
X134164380Y-96821999D01*
X134783428Y-96726761D02*
X135164380Y-96441047D01*
X134497714Y-96441047D02*
X134878666Y-96821999D01*
D11*
X112224428Y-65142142D02*
X113367286Y-65142142D01*
X114367286Y-64999285D02*
X114367286Y-65713571D01*
X113867286Y-64213571D02*
X114367286Y-64999285D01*
X114367286Y-64999285D02*
X114867286Y-64213571D01*
X116981571Y-65713571D02*
X116267285Y-65713571D01*
X116267285Y-65713571D02*
X116267285Y-64213571D01*
X117481571Y-65713571D02*
X117481571Y-64713571D01*
X117481571Y-64213571D02*
X117410143Y-64285000D01*
X117410143Y-64285000D02*
X117481571Y-64356428D01*
X117481571Y-64356428D02*
X117553000Y-64285000D01*
X117553000Y-64285000D02*
X117481571Y-64213571D01*
X117481571Y-64213571D02*
X117481571Y-64356428D01*
X118195857Y-65713571D02*
X118195857Y-64713571D01*
X118195857Y-64856428D02*
X118267286Y-64785000D01*
X118267286Y-64785000D02*
X118410143Y-64713571D01*
X118410143Y-64713571D02*
X118624429Y-64713571D01*
X118624429Y-64713571D02*
X118767286Y-64785000D01*
X118767286Y-64785000D02*
X118838715Y-64927857D01*
X118838715Y-64927857D02*
X118838715Y-65713571D01*
X118838715Y-64927857D02*
X118910143Y-64785000D01*
X118910143Y-64785000D02*
X119053000Y-64713571D01*
X119053000Y-64713571D02*
X119267286Y-64713571D01*
X119267286Y-64713571D02*
X119410143Y-64785000D01*
X119410143Y-64785000D02*
X119481572Y-64927857D01*
X119481572Y-64927857D02*
X119481572Y-65713571D01*
D12*
%TO.C,REF\u002A\u002A*%
X172616666Y-117907380D02*
X172283333Y-117431190D01*
X172045238Y-117907380D02*
X172045238Y-116907380D01*
X172045238Y-116907380D02*
X172426190Y-116907380D01*
X172426190Y-116907380D02*
X172521428Y-116955000D01*
X172521428Y-116955000D02*
X172569047Y-117002619D01*
X172569047Y-117002619D02*
X172616666Y-117097857D01*
X172616666Y-117097857D02*
X172616666Y-117240714D01*
X172616666Y-117240714D02*
X172569047Y-117335952D01*
X172569047Y-117335952D02*
X172521428Y-117383571D01*
X172521428Y-117383571D02*
X172426190Y-117431190D01*
X172426190Y-117431190D02*
X172045238Y-117431190D01*
X173045238Y-117383571D02*
X173378571Y-117383571D01*
X173521428Y-117907380D02*
X173045238Y-117907380D01*
X173045238Y-117907380D02*
X173045238Y-116907380D01*
X173045238Y-116907380D02*
X173521428Y-116907380D01*
X174283333Y-117383571D02*
X173950000Y-117383571D01*
X173950000Y-117907380D02*
X173950000Y-116907380D01*
X173950000Y-116907380D02*
X174426190Y-116907380D01*
X174950000Y-116907380D02*
X174950000Y-117145476D01*
X174711905Y-117050238D02*
X174950000Y-117145476D01*
X174950000Y-117145476D02*
X175188095Y-117050238D01*
X174807143Y-117335952D02*
X174950000Y-117145476D01*
X174950000Y-117145476D02*
X175092857Y-117335952D01*
X175711905Y-116907380D02*
X175711905Y-117145476D01*
X175473810Y-117050238D02*
X175711905Y-117145476D01*
X175711905Y-117145476D02*
X175950000Y-117050238D01*
X175569048Y-117335952D02*
X175711905Y-117145476D01*
X175711905Y-117145476D02*
X175854762Y-117335952D01*
X104116666Y-117907380D02*
X103783333Y-117431190D01*
X103545238Y-117907380D02*
X103545238Y-116907380D01*
X103545238Y-116907380D02*
X103926190Y-116907380D01*
X103926190Y-116907380D02*
X104021428Y-116955000D01*
X104021428Y-116955000D02*
X104069047Y-117002619D01*
X104069047Y-117002619D02*
X104116666Y-117097857D01*
X104116666Y-117097857D02*
X104116666Y-117240714D01*
X104116666Y-117240714D02*
X104069047Y-117335952D01*
X104069047Y-117335952D02*
X104021428Y-117383571D01*
X104021428Y-117383571D02*
X103926190Y-117431190D01*
X103926190Y-117431190D02*
X103545238Y-117431190D01*
X104545238Y-117383571D02*
X104878571Y-117383571D01*
X105021428Y-117907380D02*
X104545238Y-117907380D01*
X104545238Y-117907380D02*
X104545238Y-116907380D01*
X104545238Y-116907380D02*
X105021428Y-116907380D01*
X105783333Y-117383571D02*
X105450000Y-117383571D01*
X105450000Y-117907380D02*
X105450000Y-116907380D01*
X105450000Y-116907380D02*
X105926190Y-116907380D01*
X106450000Y-116907380D02*
X106450000Y-117145476D01*
X106211905Y-117050238D02*
X106450000Y-117145476D01*
X106450000Y-117145476D02*
X106688095Y-117050238D01*
X106307143Y-117335952D02*
X106450000Y-117145476D01*
X106450000Y-117145476D02*
X106592857Y-117335952D01*
X107211905Y-116907380D02*
X107211905Y-117145476D01*
X106973810Y-117050238D02*
X107211905Y-117145476D01*
X107211905Y-117145476D02*
X107450000Y-117050238D01*
X107069048Y-117335952D02*
X107211905Y-117145476D01*
X107211905Y-117145476D02*
X107354762Y-117335952D01*
X104116666Y-61707380D02*
X103783333Y-61231190D01*
X103545238Y-61707380D02*
X103545238Y-60707380D01*
X103545238Y-60707380D02*
X103926190Y-60707380D01*
X103926190Y-60707380D02*
X104021428Y-60755000D01*
X104021428Y-60755000D02*
X104069047Y-60802619D01*
X104069047Y-60802619D02*
X104116666Y-60897857D01*
X104116666Y-60897857D02*
X104116666Y-61040714D01*
X104116666Y-61040714D02*
X104069047Y-61135952D01*
X104069047Y-61135952D02*
X104021428Y-61183571D01*
X104021428Y-61183571D02*
X103926190Y-61231190D01*
X103926190Y-61231190D02*
X103545238Y-61231190D01*
X104545238Y-61183571D02*
X104878571Y-61183571D01*
X105021428Y-61707380D02*
X104545238Y-61707380D01*
X104545238Y-61707380D02*
X104545238Y-60707380D01*
X104545238Y-60707380D02*
X105021428Y-60707380D01*
X105783333Y-61183571D02*
X105450000Y-61183571D01*
X105450000Y-61707380D02*
X105450000Y-60707380D01*
X105450000Y-60707380D02*
X105926190Y-60707380D01*
X106450000Y-60707380D02*
X106450000Y-60945476D01*
X106211905Y-60850238D02*
X106450000Y-60945476D01*
X106450000Y-60945476D02*
X106688095Y-60850238D01*
X106307143Y-61135952D02*
X106450000Y-60945476D01*
X106450000Y-60945476D02*
X106592857Y-61135952D01*
X107211905Y-60707380D02*
X107211905Y-60945476D01*
X106973810Y-60850238D02*
X107211905Y-60945476D01*
X107211905Y-60945476D02*
X107450000Y-60850238D01*
X107069048Y-61135952D02*
X107211905Y-60945476D01*
X107211905Y-60945476D02*
X107354762Y-61135952D01*
D10*
%TO.C,R18*%
X145908380Y-123578857D02*
X145432190Y-123912190D01*
X145908380Y-124150285D02*
X144908380Y-124150285D01*
X144908380Y-124150285D02*
X144908380Y-123769333D01*
X144908380Y-123769333D02*
X144956000Y-123674095D01*
X144956000Y-123674095D02*
X145003619Y-123626476D01*
X145003619Y-123626476D02*
X145098857Y-123578857D01*
X145098857Y-123578857D02*
X145241714Y-123578857D01*
X145241714Y-123578857D02*
X145336952Y-123626476D01*
X145336952Y-123626476D02*
X145384571Y-123674095D01*
X145384571Y-123674095D02*
X145432190Y-123769333D01*
X145432190Y-123769333D02*
X145432190Y-124150285D01*
X145908380Y-122626476D02*
X145908380Y-123197904D01*
X145908380Y-122912190D02*
X144908380Y-122912190D01*
X144908380Y-122912190D02*
X145051238Y-123007428D01*
X145051238Y-123007428D02*
X145146476Y-123102666D01*
X145146476Y-123102666D02*
X145194095Y-123197904D01*
X145336952Y-122055047D02*
X145289333Y-122150285D01*
X145289333Y-122150285D02*
X145241714Y-122197904D01*
X145241714Y-122197904D02*
X145146476Y-122245523D01*
X145146476Y-122245523D02*
X145098857Y-122245523D01*
X145098857Y-122245523D02*
X145003619Y-122197904D01*
X145003619Y-122197904D02*
X144956000Y-122150285D01*
X144956000Y-122150285D02*
X144908380Y-122055047D01*
X144908380Y-122055047D02*
X144908380Y-121864571D01*
X144908380Y-121864571D02*
X144956000Y-121769333D01*
X144956000Y-121769333D02*
X145003619Y-121721714D01*
X145003619Y-121721714D02*
X145098857Y-121674095D01*
X145098857Y-121674095D02*
X145146476Y-121674095D01*
X145146476Y-121674095D02*
X145241714Y-121721714D01*
X145241714Y-121721714D02*
X145289333Y-121769333D01*
X145289333Y-121769333D02*
X145336952Y-121864571D01*
X145336952Y-121864571D02*
X145336952Y-122055047D01*
X145336952Y-122055047D02*
X145384571Y-122150285D01*
X145384571Y-122150285D02*
X145432190Y-122197904D01*
X145432190Y-122197904D02*
X145527428Y-122245523D01*
X145527428Y-122245523D02*
X145717904Y-122245523D01*
X145717904Y-122245523D02*
X145813142Y-122197904D01*
X145813142Y-122197904D02*
X145860761Y-122150285D01*
X145860761Y-122150285D02*
X145908380Y-122055047D01*
X145908380Y-122055047D02*
X145908380Y-121864571D01*
X145908380Y-121864571D02*
X145860761Y-121769333D01*
X145860761Y-121769333D02*
X145813142Y-121721714D01*
X145813142Y-121721714D02*
X145717904Y-121674095D01*
X145717904Y-121674095D02*
X145527428Y-121674095D01*
X145527428Y-121674095D02*
X145432190Y-121721714D01*
X145432190Y-121721714D02*
X145384571Y-121769333D01*
X145384571Y-121769333D02*
X145336952Y-121864571D01*
%TO.C,R16*%
X139762580Y-69515057D02*
X139286390Y-69848390D01*
X139762580Y-70086485D02*
X138762580Y-70086485D01*
X138762580Y-70086485D02*
X138762580Y-69705533D01*
X138762580Y-69705533D02*
X138810200Y-69610295D01*
X138810200Y-69610295D02*
X138857819Y-69562676D01*
X138857819Y-69562676D02*
X138953057Y-69515057D01*
X138953057Y-69515057D02*
X139095914Y-69515057D01*
X139095914Y-69515057D02*
X139191152Y-69562676D01*
X139191152Y-69562676D02*
X139238771Y-69610295D01*
X139238771Y-69610295D02*
X139286390Y-69705533D01*
X139286390Y-69705533D02*
X139286390Y-70086485D01*
X139762580Y-68562676D02*
X139762580Y-69134104D01*
X139762580Y-68848390D02*
X138762580Y-68848390D01*
X138762580Y-68848390D02*
X138905438Y-68943628D01*
X138905438Y-68943628D02*
X139000676Y-69038866D01*
X139000676Y-69038866D02*
X139048295Y-69134104D01*
X138762580Y-67705533D02*
X138762580Y-67896009D01*
X138762580Y-67896009D02*
X138810200Y-67991247D01*
X138810200Y-67991247D02*
X138857819Y-68038866D01*
X138857819Y-68038866D02*
X139000676Y-68134104D01*
X139000676Y-68134104D02*
X139191152Y-68181723D01*
X139191152Y-68181723D02*
X139572104Y-68181723D01*
X139572104Y-68181723D02*
X139667342Y-68134104D01*
X139667342Y-68134104D02*
X139714961Y-68086485D01*
X139714961Y-68086485D02*
X139762580Y-67991247D01*
X139762580Y-67991247D02*
X139762580Y-67800771D01*
X139762580Y-67800771D02*
X139714961Y-67705533D01*
X139714961Y-67705533D02*
X139667342Y-67657914D01*
X139667342Y-67657914D02*
X139572104Y-67610295D01*
X139572104Y-67610295D02*
X139334009Y-67610295D01*
X139334009Y-67610295D02*
X139238771Y-67657914D01*
X139238771Y-67657914D02*
X139191152Y-67705533D01*
X139191152Y-67705533D02*
X139143533Y-67800771D01*
X139143533Y-67800771D02*
X139143533Y-67991247D01*
X139143533Y-67991247D02*
X139191152Y-68086485D01*
X139191152Y-68086485D02*
X139238771Y-68134104D01*
X139238771Y-68134104D02*
X139334009Y-68181723D01*
%TO.C,R22*%
X170167380Y-73032857D02*
X169691190Y-73366190D01*
X170167380Y-73604285D02*
X169167380Y-73604285D01*
X169167380Y-73604285D02*
X169167380Y-73223333D01*
X169167380Y-73223333D02*
X169215000Y-73128095D01*
X169215000Y-73128095D02*
X169262619Y-73080476D01*
X169262619Y-73080476D02*
X169357857Y-73032857D01*
X169357857Y-73032857D02*
X169500714Y-73032857D01*
X169500714Y-73032857D02*
X169595952Y-73080476D01*
X169595952Y-73080476D02*
X169643571Y-73128095D01*
X169643571Y-73128095D02*
X169691190Y-73223333D01*
X169691190Y-73223333D02*
X169691190Y-73604285D01*
X169262619Y-72651904D02*
X169215000Y-72604285D01*
X169215000Y-72604285D02*
X169167380Y-72509047D01*
X169167380Y-72509047D02*
X169167380Y-72270952D01*
X169167380Y-72270952D02*
X169215000Y-72175714D01*
X169215000Y-72175714D02*
X169262619Y-72128095D01*
X169262619Y-72128095D02*
X169357857Y-72080476D01*
X169357857Y-72080476D02*
X169453095Y-72080476D01*
X169453095Y-72080476D02*
X169595952Y-72128095D01*
X169595952Y-72128095D02*
X170167380Y-72699523D01*
X170167380Y-72699523D02*
X170167380Y-72080476D01*
X169262619Y-71699523D02*
X169215000Y-71651904D01*
X169215000Y-71651904D02*
X169167380Y-71556666D01*
X169167380Y-71556666D02*
X169167380Y-71318571D01*
X169167380Y-71318571D02*
X169215000Y-71223333D01*
X169215000Y-71223333D02*
X169262619Y-71175714D01*
X169262619Y-71175714D02*
X169357857Y-71128095D01*
X169357857Y-71128095D02*
X169453095Y-71128095D01*
X169453095Y-71128095D02*
X169595952Y-71175714D01*
X169595952Y-71175714D02*
X170167380Y-71747142D01*
X170167380Y-71747142D02*
X170167380Y-71128095D01*
%TO.C,T1*%
X159202138Y-93172380D02*
X159773566Y-93172380D01*
X159487852Y-94172380D02*
X159487852Y-93172380D01*
X160630709Y-94172380D02*
X160059281Y-94172380D01*
X160344995Y-94172380D02*
X160344995Y-93172380D01*
X160344995Y-93172380D02*
X160249757Y-93315238D01*
X160249757Y-93315238D02*
X160154519Y-93410476D01*
X160154519Y-93410476D02*
X160059281Y-93458095D01*
%TO.C,D1*%
X173247380Y-67924094D02*
X172247380Y-67924094D01*
X172247380Y-67924094D02*
X172247380Y-67685999D01*
X172247380Y-67685999D02*
X172295000Y-67543142D01*
X172295000Y-67543142D02*
X172390238Y-67447904D01*
X172390238Y-67447904D02*
X172485476Y-67400285D01*
X172485476Y-67400285D02*
X172675952Y-67352666D01*
X172675952Y-67352666D02*
X172818809Y-67352666D01*
X172818809Y-67352666D02*
X173009285Y-67400285D01*
X173009285Y-67400285D02*
X173104523Y-67447904D01*
X173104523Y-67447904D02*
X173199761Y-67543142D01*
X173199761Y-67543142D02*
X173247380Y-67685999D01*
X173247380Y-67685999D02*
X173247380Y-67924094D01*
X173247380Y-66400285D02*
X173247380Y-66971713D01*
X173247380Y-66685999D02*
X172247380Y-66685999D01*
X172247380Y-66685999D02*
X172390238Y-66781237D01*
X172390238Y-66781237D02*
X172485476Y-66876475D01*
X172485476Y-66876475D02*
X172533095Y-66971713D01*
%TO.C,SW1*%
X141504761Y-80810832D02*
X141552380Y-80667975D01*
X141552380Y-80667975D02*
X141552380Y-80429880D01*
X141552380Y-80429880D02*
X141504761Y-80334642D01*
X141504761Y-80334642D02*
X141457142Y-80287023D01*
X141457142Y-80287023D02*
X141361904Y-80239404D01*
X141361904Y-80239404D02*
X141266666Y-80239404D01*
X141266666Y-80239404D02*
X141171428Y-80287023D01*
X141171428Y-80287023D02*
X141123809Y-80334642D01*
X141123809Y-80334642D02*
X141076190Y-80429880D01*
X141076190Y-80429880D02*
X141028571Y-80620356D01*
X141028571Y-80620356D02*
X140980952Y-80715594D01*
X140980952Y-80715594D02*
X140933333Y-80763213D01*
X140933333Y-80763213D02*
X140838095Y-80810832D01*
X140838095Y-80810832D02*
X140742857Y-80810832D01*
X140742857Y-80810832D02*
X140647619Y-80763213D01*
X140647619Y-80763213D02*
X140600000Y-80715594D01*
X140600000Y-80715594D02*
X140552380Y-80620356D01*
X140552380Y-80620356D02*
X140552380Y-80382261D01*
X140552380Y-80382261D02*
X140600000Y-80239404D01*
X140552380Y-79906070D02*
X141552380Y-79667975D01*
X141552380Y-79667975D02*
X140838095Y-79477499D01*
X140838095Y-79477499D02*
X141552380Y-79287023D01*
X141552380Y-79287023D02*
X140552380Y-79048928D01*
X141552380Y-78144166D02*
X141552380Y-78715594D01*
X141552380Y-78429880D02*
X140552380Y-78429880D01*
X140552380Y-78429880D02*
X140695238Y-78525118D01*
X140695238Y-78525118D02*
X140790476Y-78620356D01*
X140790476Y-78620356D02*
X140838095Y-78715594D01*
%TO.C,R15*%
X123899380Y-69515057D02*
X123423190Y-69848390D01*
X123899380Y-70086485D02*
X122899380Y-70086485D01*
X122899380Y-70086485D02*
X122899380Y-69705533D01*
X122899380Y-69705533D02*
X122947000Y-69610295D01*
X122947000Y-69610295D02*
X122994619Y-69562676D01*
X122994619Y-69562676D02*
X123089857Y-69515057D01*
X123089857Y-69515057D02*
X123232714Y-69515057D01*
X123232714Y-69515057D02*
X123327952Y-69562676D01*
X123327952Y-69562676D02*
X123375571Y-69610295D01*
X123375571Y-69610295D02*
X123423190Y-69705533D01*
X123423190Y-69705533D02*
X123423190Y-70086485D01*
X123899380Y-68562676D02*
X123899380Y-69134104D01*
X123899380Y-68848390D02*
X122899380Y-68848390D01*
X122899380Y-68848390D02*
X123042238Y-68943628D01*
X123042238Y-68943628D02*
X123137476Y-69038866D01*
X123137476Y-69038866D02*
X123185095Y-69134104D01*
X122899380Y-67657914D02*
X122899380Y-68134104D01*
X122899380Y-68134104D02*
X123375571Y-68181723D01*
X123375571Y-68181723D02*
X123327952Y-68134104D01*
X123327952Y-68134104D02*
X123280333Y-68038866D01*
X123280333Y-68038866D02*
X123280333Y-67800771D01*
X123280333Y-67800771D02*
X123327952Y-67705533D01*
X123327952Y-67705533D02*
X123375571Y-67657914D01*
X123375571Y-67657914D02*
X123470809Y-67610295D01*
X123470809Y-67610295D02*
X123708904Y-67610295D01*
X123708904Y-67610295D02*
X123804142Y-67657914D01*
X123804142Y-67657914D02*
X123851761Y-67705533D01*
X123851761Y-67705533D02*
X123899380Y-67800771D01*
X123899380Y-67800771D02*
X123899380Y-68038866D01*
X123899380Y-68038866D02*
X123851761Y-68134104D01*
X123851761Y-68134104D02*
X123804142Y-68181723D01*
%TO.C,J9*%
X151701666Y-71237380D02*
X151701666Y-71951666D01*
X151701666Y-71951666D02*
X151654047Y-72094523D01*
X151654047Y-72094523D02*
X151558809Y-72189761D01*
X151558809Y-72189761D02*
X151415952Y-72237380D01*
X151415952Y-72237380D02*
X151320714Y-72237380D01*
X152225476Y-72237380D02*
X152415952Y-72237380D01*
X152415952Y-72237380D02*
X152511190Y-72189761D01*
X152511190Y-72189761D02*
X152558809Y-72142142D01*
X152558809Y-72142142D02*
X152654047Y-71999285D01*
X152654047Y-71999285D02*
X152701666Y-71808809D01*
X152701666Y-71808809D02*
X152701666Y-71427857D01*
X152701666Y-71427857D02*
X152654047Y-71332619D01*
X152654047Y-71332619D02*
X152606428Y-71285000D01*
X152606428Y-71285000D02*
X152511190Y-71237380D01*
X152511190Y-71237380D02*
X152320714Y-71237380D01*
X152320714Y-71237380D02*
X152225476Y-71285000D01*
X152225476Y-71285000D02*
X152177857Y-71332619D01*
X152177857Y-71332619D02*
X152130238Y-71427857D01*
X152130238Y-71427857D02*
X152130238Y-71665952D01*
X152130238Y-71665952D02*
X152177857Y-71761190D01*
X152177857Y-71761190D02*
X152225476Y-71808809D01*
X152225476Y-71808809D02*
X152320714Y-71856428D01*
X152320714Y-71856428D02*
X152511190Y-71856428D01*
X152511190Y-71856428D02*
X152606428Y-71808809D01*
X152606428Y-71808809D02*
X152654047Y-71761190D01*
X152654047Y-71761190D02*
X152701666Y-71665952D01*
%TO.C,J7*%
X131704332Y-59712380D02*
X131704332Y-60426666D01*
X131704332Y-60426666D02*
X131656713Y-60569523D01*
X131656713Y-60569523D02*
X131561475Y-60664761D01*
X131561475Y-60664761D02*
X131418618Y-60712380D01*
X131418618Y-60712380D02*
X131323380Y-60712380D01*
X132085285Y-59712380D02*
X132751951Y-59712380D01*
X132751951Y-59712380D02*
X132323380Y-60712380D01*
%TO.C,C7*%
X150810933Y-86856542D02*
X150763314Y-86904161D01*
X150763314Y-86904161D02*
X150620457Y-86951780D01*
X150620457Y-86951780D02*
X150525219Y-86951780D01*
X150525219Y-86951780D02*
X150382362Y-86904161D01*
X150382362Y-86904161D02*
X150287124Y-86808923D01*
X150287124Y-86808923D02*
X150239505Y-86713685D01*
X150239505Y-86713685D02*
X150191886Y-86523209D01*
X150191886Y-86523209D02*
X150191886Y-86380352D01*
X150191886Y-86380352D02*
X150239505Y-86189876D01*
X150239505Y-86189876D02*
X150287124Y-86094638D01*
X150287124Y-86094638D02*
X150382362Y-85999400D01*
X150382362Y-85999400D02*
X150525219Y-85951780D01*
X150525219Y-85951780D02*
X150620457Y-85951780D01*
X150620457Y-85951780D02*
X150763314Y-85999400D01*
X150763314Y-85999400D02*
X150810933Y-86047019D01*
X151144267Y-85951780D02*
X151810933Y-85951780D01*
X151810933Y-85951780D02*
X151382362Y-86951780D01*
%TO.C,R10*%
X132015580Y-69642057D02*
X131539390Y-69975390D01*
X132015580Y-70213485D02*
X131015580Y-70213485D01*
X131015580Y-70213485D02*
X131015580Y-69832533D01*
X131015580Y-69832533D02*
X131063200Y-69737295D01*
X131063200Y-69737295D02*
X131110819Y-69689676D01*
X131110819Y-69689676D02*
X131206057Y-69642057D01*
X131206057Y-69642057D02*
X131348914Y-69642057D01*
X131348914Y-69642057D02*
X131444152Y-69689676D01*
X131444152Y-69689676D02*
X131491771Y-69737295D01*
X131491771Y-69737295D02*
X131539390Y-69832533D01*
X131539390Y-69832533D02*
X131539390Y-70213485D01*
X132015580Y-68689676D02*
X132015580Y-69261104D01*
X132015580Y-68975390D02*
X131015580Y-68975390D01*
X131015580Y-68975390D02*
X131158438Y-69070628D01*
X131158438Y-69070628D02*
X131253676Y-69165866D01*
X131253676Y-69165866D02*
X131301295Y-69261104D01*
X131015580Y-68070628D02*
X131015580Y-67975390D01*
X131015580Y-67975390D02*
X131063200Y-67880152D01*
X131063200Y-67880152D02*
X131110819Y-67832533D01*
X131110819Y-67832533D02*
X131206057Y-67784914D01*
X131206057Y-67784914D02*
X131396533Y-67737295D01*
X131396533Y-67737295D02*
X131634628Y-67737295D01*
X131634628Y-67737295D02*
X131825104Y-67784914D01*
X131825104Y-67784914D02*
X131920342Y-67832533D01*
X131920342Y-67832533D02*
X131967961Y-67880152D01*
X131967961Y-67880152D02*
X132015580Y-67975390D01*
X132015580Y-67975390D02*
X132015580Y-68070628D01*
X132015580Y-68070628D02*
X131967961Y-68165866D01*
X131967961Y-68165866D02*
X131920342Y-68213485D01*
X131920342Y-68213485D02*
X131825104Y-68261104D01*
X131825104Y-68261104D02*
X131634628Y-68308723D01*
X131634628Y-68308723D02*
X131396533Y-68308723D01*
X131396533Y-68308723D02*
X131206057Y-68261104D01*
X131206057Y-68261104D02*
X131110819Y-68213485D01*
X131110819Y-68213485D02*
X131063200Y-68165866D01*
X131063200Y-68165866D02*
X131015580Y-68070628D01*
%TO.C,B1*%
X140314135Y-115169647D02*
X140374611Y-114988219D01*
X140374611Y-114988219D02*
X140435088Y-114927742D01*
X140435088Y-114927742D02*
X140556040Y-114867266D01*
X140556040Y-114867266D02*
X140737469Y-114867266D01*
X140737469Y-114867266D02*
X140858421Y-114927742D01*
X140858421Y-114927742D02*
X140918897Y-114988219D01*
X140918897Y-114988219D02*
X140979373Y-115109171D01*
X140979373Y-115109171D02*
X140979373Y-115592981D01*
X140979373Y-115592981D02*
X139709373Y-115592981D01*
X139709373Y-115592981D02*
X139709373Y-115169647D01*
X139709373Y-115169647D02*
X139769850Y-115048695D01*
X139769850Y-115048695D02*
X139830326Y-114988219D01*
X139830326Y-114988219D02*
X139951278Y-114927742D01*
X139951278Y-114927742D02*
X140072230Y-114927742D01*
X140072230Y-114927742D02*
X140193183Y-114988219D01*
X140193183Y-114988219D02*
X140253659Y-115048695D01*
X140253659Y-115048695D02*
X140314135Y-115169647D01*
X140314135Y-115169647D02*
X140314135Y-115592981D01*
X140979373Y-113657742D02*
X140979373Y-114383457D01*
X140979373Y-114020600D02*
X139709373Y-114020600D01*
X139709373Y-114020600D02*
X139890802Y-114141552D01*
X139890802Y-114141552D02*
X140011754Y-114262504D01*
X140011754Y-114262504D02*
X140072230Y-114383457D01*
%TO.C,U1*%
X124843380Y-96773904D02*
X125652904Y-96773904D01*
X125652904Y-96773904D02*
X125748142Y-96726285D01*
X125748142Y-96726285D02*
X125795761Y-96678666D01*
X125795761Y-96678666D02*
X125843380Y-96583428D01*
X125843380Y-96583428D02*
X125843380Y-96392952D01*
X125843380Y-96392952D02*
X125795761Y-96297714D01*
X125795761Y-96297714D02*
X125748142Y-96250095D01*
X125748142Y-96250095D02*
X125652904Y-96202476D01*
X125652904Y-96202476D02*
X124843380Y-96202476D01*
X125843380Y-95202476D02*
X125843380Y-95773904D01*
X125843380Y-95488190D02*
X124843380Y-95488190D01*
X124843380Y-95488190D02*
X124986238Y-95583428D01*
X124986238Y-95583428D02*
X125081476Y-95678666D01*
X125081476Y-95678666D02*
X125129095Y-95773904D01*
%TO.C,C2A1*%
X147010571Y-102634142D02*
X146962952Y-102681761D01*
X146962952Y-102681761D02*
X146820095Y-102729380D01*
X146820095Y-102729380D02*
X146724857Y-102729380D01*
X146724857Y-102729380D02*
X146582000Y-102681761D01*
X146582000Y-102681761D02*
X146486762Y-102586523D01*
X146486762Y-102586523D02*
X146439143Y-102491285D01*
X146439143Y-102491285D02*
X146391524Y-102300809D01*
X146391524Y-102300809D02*
X146391524Y-102157952D01*
X146391524Y-102157952D02*
X146439143Y-101967476D01*
X146439143Y-101967476D02*
X146486762Y-101872238D01*
X146486762Y-101872238D02*
X146582000Y-101777000D01*
X146582000Y-101777000D02*
X146724857Y-101729380D01*
X146724857Y-101729380D02*
X146820095Y-101729380D01*
X146820095Y-101729380D02*
X146962952Y-101777000D01*
X146962952Y-101777000D02*
X147010571Y-101824619D01*
X147391524Y-101824619D02*
X147439143Y-101777000D01*
X147439143Y-101777000D02*
X147534381Y-101729380D01*
X147534381Y-101729380D02*
X147772476Y-101729380D01*
X147772476Y-101729380D02*
X147867714Y-101777000D01*
X147867714Y-101777000D02*
X147915333Y-101824619D01*
X147915333Y-101824619D02*
X147962952Y-101919857D01*
X147962952Y-101919857D02*
X147962952Y-102015095D01*
X147962952Y-102015095D02*
X147915333Y-102157952D01*
X147915333Y-102157952D02*
X147343905Y-102729380D01*
X147343905Y-102729380D02*
X147962952Y-102729380D01*
X148343905Y-102443666D02*
X148820095Y-102443666D01*
X148248667Y-102729380D02*
X148582000Y-101729380D01*
X148582000Y-101729380D02*
X148915333Y-102729380D01*
X149772476Y-102729380D02*
X149201048Y-102729380D01*
X149486762Y-102729380D02*
X149486762Y-101729380D01*
X149486762Y-101729380D02*
X149391524Y-101872238D01*
X149391524Y-101872238D02*
X149296286Y-101967476D01*
X149296286Y-101967476D02*
X149201048Y-102015095D01*
%TO.C,U2*%
X164338095Y-88521380D02*
X164338095Y-89330904D01*
X164338095Y-89330904D02*
X164385714Y-89426142D01*
X164385714Y-89426142D02*
X164433333Y-89473761D01*
X164433333Y-89473761D02*
X164528571Y-89521380D01*
X164528571Y-89521380D02*
X164719047Y-89521380D01*
X164719047Y-89521380D02*
X164814285Y-89473761D01*
X164814285Y-89473761D02*
X164861904Y-89426142D01*
X164861904Y-89426142D02*
X164909523Y-89330904D01*
X164909523Y-89330904D02*
X164909523Y-88521380D01*
X165338095Y-88616619D02*
X165385714Y-88569000D01*
X165385714Y-88569000D02*
X165480952Y-88521380D01*
X165480952Y-88521380D02*
X165719047Y-88521380D01*
X165719047Y-88521380D02*
X165814285Y-88569000D01*
X165814285Y-88569000D02*
X165861904Y-88616619D01*
X165861904Y-88616619D02*
X165909523Y-88711857D01*
X165909523Y-88711857D02*
X165909523Y-88807095D01*
X165909523Y-88807095D02*
X165861904Y-88949952D01*
X165861904Y-88949952D02*
X165290476Y-89521380D01*
X165290476Y-89521380D02*
X165909523Y-89521380D01*
%TO.C,R9*%
X131456780Y-118479866D02*
X130980590Y-118813199D01*
X131456780Y-119051294D02*
X130456780Y-119051294D01*
X130456780Y-119051294D02*
X130456780Y-118670342D01*
X130456780Y-118670342D02*
X130504400Y-118575104D01*
X130504400Y-118575104D02*
X130552019Y-118527485D01*
X130552019Y-118527485D02*
X130647257Y-118479866D01*
X130647257Y-118479866D02*
X130790114Y-118479866D01*
X130790114Y-118479866D02*
X130885352Y-118527485D01*
X130885352Y-118527485D02*
X130932971Y-118575104D01*
X130932971Y-118575104D02*
X130980590Y-118670342D01*
X130980590Y-118670342D02*
X130980590Y-119051294D01*
X131456780Y-118003675D02*
X131456780Y-117813199D01*
X131456780Y-117813199D02*
X131409161Y-117717961D01*
X131409161Y-117717961D02*
X131361542Y-117670342D01*
X131361542Y-117670342D02*
X131218685Y-117575104D01*
X131218685Y-117575104D02*
X131028209Y-117527485D01*
X131028209Y-117527485D02*
X130647257Y-117527485D01*
X130647257Y-117527485D02*
X130552019Y-117575104D01*
X130552019Y-117575104D02*
X130504400Y-117622723D01*
X130504400Y-117622723D02*
X130456780Y-117717961D01*
X130456780Y-117717961D02*
X130456780Y-117908437D01*
X130456780Y-117908437D02*
X130504400Y-118003675D01*
X130504400Y-118003675D02*
X130552019Y-118051294D01*
X130552019Y-118051294D02*
X130647257Y-118098913D01*
X130647257Y-118098913D02*
X130885352Y-118098913D01*
X130885352Y-118098913D02*
X130980590Y-118051294D01*
X130980590Y-118051294D02*
X131028209Y-118003675D01*
X131028209Y-118003675D02*
X131075828Y-117908437D01*
X131075828Y-117908437D02*
X131075828Y-117717961D01*
X131075828Y-117717961D02*
X131028209Y-117622723D01*
X131028209Y-117622723D02*
X130980590Y-117575104D01*
X130980590Y-117575104D02*
X130885352Y-117527485D01*
%TO.C,C11*%
X120222142Y-89681042D02*
X120174523Y-89728661D01*
X120174523Y-89728661D02*
X120031666Y-89776280D01*
X120031666Y-89776280D02*
X119936428Y-89776280D01*
X119936428Y-89776280D02*
X119793571Y-89728661D01*
X119793571Y-89728661D02*
X119698333Y-89633423D01*
X119698333Y-89633423D02*
X119650714Y-89538185D01*
X119650714Y-89538185D02*
X119603095Y-89347709D01*
X119603095Y-89347709D02*
X119603095Y-89204852D01*
X119603095Y-89204852D02*
X119650714Y-89014376D01*
X119650714Y-89014376D02*
X119698333Y-88919138D01*
X119698333Y-88919138D02*
X119793571Y-88823900D01*
X119793571Y-88823900D02*
X119936428Y-88776280D01*
X119936428Y-88776280D02*
X120031666Y-88776280D01*
X120031666Y-88776280D02*
X120174523Y-88823900D01*
X120174523Y-88823900D02*
X120222142Y-88871519D01*
X121174523Y-89776280D02*
X120603095Y-89776280D01*
X120888809Y-89776280D02*
X120888809Y-88776280D01*
X120888809Y-88776280D02*
X120793571Y-88919138D01*
X120793571Y-88919138D02*
X120698333Y-89014376D01*
X120698333Y-89014376D02*
X120603095Y-89061995D01*
X122126904Y-89776280D02*
X121555476Y-89776280D01*
X121841190Y-89776280D02*
X121841190Y-88776280D01*
X121841190Y-88776280D02*
X121745952Y-88919138D01*
X121745952Y-88919138D02*
X121650714Y-89014376D01*
X121650714Y-89014376D02*
X121555476Y-89061995D01*
%TO.C,C3*%
X139484333Y-108150142D02*
X139436714Y-108197761D01*
X139436714Y-108197761D02*
X139293857Y-108245380D01*
X139293857Y-108245380D02*
X139198619Y-108245380D01*
X139198619Y-108245380D02*
X139055762Y-108197761D01*
X139055762Y-108197761D02*
X138960524Y-108102523D01*
X138960524Y-108102523D02*
X138912905Y-108007285D01*
X138912905Y-108007285D02*
X138865286Y-107816809D01*
X138865286Y-107816809D02*
X138865286Y-107673952D01*
X138865286Y-107673952D02*
X138912905Y-107483476D01*
X138912905Y-107483476D02*
X138960524Y-107388238D01*
X138960524Y-107388238D02*
X139055762Y-107293000D01*
X139055762Y-107293000D02*
X139198619Y-107245380D01*
X139198619Y-107245380D02*
X139293857Y-107245380D01*
X139293857Y-107245380D02*
X139436714Y-107293000D01*
X139436714Y-107293000D02*
X139484333Y-107340619D01*
X139817667Y-107245380D02*
X140436714Y-107245380D01*
X140436714Y-107245380D02*
X140103381Y-107626333D01*
X140103381Y-107626333D02*
X140246238Y-107626333D01*
X140246238Y-107626333D02*
X140341476Y-107673952D01*
X140341476Y-107673952D02*
X140389095Y-107721571D01*
X140389095Y-107721571D02*
X140436714Y-107816809D01*
X140436714Y-107816809D02*
X140436714Y-108054904D01*
X140436714Y-108054904D02*
X140389095Y-108150142D01*
X140389095Y-108150142D02*
X140341476Y-108197761D01*
X140341476Y-108197761D02*
X140246238Y-108245380D01*
X140246238Y-108245380D02*
X139960524Y-108245380D01*
X139960524Y-108245380D02*
X139865286Y-108197761D01*
X139865286Y-108197761D02*
X139817667Y-108150142D01*
%TO.C,R3*%
X156043333Y-93839380D02*
X155710000Y-93363190D01*
X155471905Y-93839380D02*
X155471905Y-92839380D01*
X155471905Y-92839380D02*
X155852857Y-92839380D01*
X155852857Y-92839380D02*
X155948095Y-92887000D01*
X155948095Y-92887000D02*
X155995714Y-92934619D01*
X155995714Y-92934619D02*
X156043333Y-93029857D01*
X156043333Y-93029857D02*
X156043333Y-93172714D01*
X156043333Y-93172714D02*
X155995714Y-93267952D01*
X155995714Y-93267952D02*
X155948095Y-93315571D01*
X155948095Y-93315571D02*
X155852857Y-93363190D01*
X155852857Y-93363190D02*
X155471905Y-93363190D01*
X156376667Y-92839380D02*
X156995714Y-92839380D01*
X156995714Y-92839380D02*
X156662381Y-93220333D01*
X156662381Y-93220333D02*
X156805238Y-93220333D01*
X156805238Y-93220333D02*
X156900476Y-93267952D01*
X156900476Y-93267952D02*
X156948095Y-93315571D01*
X156948095Y-93315571D02*
X156995714Y-93410809D01*
X156995714Y-93410809D02*
X156995714Y-93648904D01*
X156995714Y-93648904D02*
X156948095Y-93744142D01*
X156948095Y-93744142D02*
X156900476Y-93791761D01*
X156900476Y-93791761D02*
X156805238Y-93839380D01*
X156805238Y-93839380D02*
X156519524Y-93839380D01*
X156519524Y-93839380D02*
X156424286Y-93791761D01*
X156424286Y-93791761D02*
X156376667Y-93744142D01*
%TO.C,R19*%
X135462142Y-87236280D02*
X135128809Y-86760090D01*
X134890714Y-87236280D02*
X134890714Y-86236280D01*
X134890714Y-86236280D02*
X135271666Y-86236280D01*
X135271666Y-86236280D02*
X135366904Y-86283900D01*
X135366904Y-86283900D02*
X135414523Y-86331519D01*
X135414523Y-86331519D02*
X135462142Y-86426757D01*
X135462142Y-86426757D02*
X135462142Y-86569614D01*
X135462142Y-86569614D02*
X135414523Y-86664852D01*
X135414523Y-86664852D02*
X135366904Y-86712471D01*
X135366904Y-86712471D02*
X135271666Y-86760090D01*
X135271666Y-86760090D02*
X134890714Y-86760090D01*
X136414523Y-87236280D02*
X135843095Y-87236280D01*
X136128809Y-87236280D02*
X136128809Y-86236280D01*
X136128809Y-86236280D02*
X136033571Y-86379138D01*
X136033571Y-86379138D02*
X135938333Y-86474376D01*
X135938333Y-86474376D02*
X135843095Y-86521995D01*
X136890714Y-87236280D02*
X137081190Y-87236280D01*
X137081190Y-87236280D02*
X137176428Y-87188661D01*
X137176428Y-87188661D02*
X137224047Y-87141042D01*
X137224047Y-87141042D02*
X137319285Y-86998185D01*
X137319285Y-86998185D02*
X137366904Y-86807709D01*
X137366904Y-86807709D02*
X137366904Y-86426757D01*
X137366904Y-86426757D02*
X137319285Y-86331519D01*
X137319285Y-86331519D02*
X137271666Y-86283900D01*
X137271666Y-86283900D02*
X137176428Y-86236280D01*
X137176428Y-86236280D02*
X136985952Y-86236280D01*
X136985952Y-86236280D02*
X136890714Y-86283900D01*
X136890714Y-86283900D02*
X136843095Y-86331519D01*
X136843095Y-86331519D02*
X136795476Y-86426757D01*
X136795476Y-86426757D02*
X136795476Y-86664852D01*
X136795476Y-86664852D02*
X136843095Y-86760090D01*
X136843095Y-86760090D02*
X136890714Y-86807709D01*
X136890714Y-86807709D02*
X136985952Y-86855328D01*
X136985952Y-86855328D02*
X137176428Y-86855328D01*
X137176428Y-86855328D02*
X137271666Y-86807709D01*
X137271666Y-86807709D02*
X137319285Y-86760090D01*
X137319285Y-86760090D02*
X137366904Y-86664852D01*
%TO.C,C9*%
X136446333Y-89681042D02*
X136398714Y-89728661D01*
X136398714Y-89728661D02*
X136255857Y-89776280D01*
X136255857Y-89776280D02*
X136160619Y-89776280D01*
X136160619Y-89776280D02*
X136017762Y-89728661D01*
X136017762Y-89728661D02*
X135922524Y-89633423D01*
X135922524Y-89633423D02*
X135874905Y-89538185D01*
X135874905Y-89538185D02*
X135827286Y-89347709D01*
X135827286Y-89347709D02*
X135827286Y-89204852D01*
X135827286Y-89204852D02*
X135874905Y-89014376D01*
X135874905Y-89014376D02*
X135922524Y-88919138D01*
X135922524Y-88919138D02*
X136017762Y-88823900D01*
X136017762Y-88823900D02*
X136160619Y-88776280D01*
X136160619Y-88776280D02*
X136255857Y-88776280D01*
X136255857Y-88776280D02*
X136398714Y-88823900D01*
X136398714Y-88823900D02*
X136446333Y-88871519D01*
X136922524Y-89776280D02*
X137113000Y-89776280D01*
X137113000Y-89776280D02*
X137208238Y-89728661D01*
X137208238Y-89728661D02*
X137255857Y-89681042D01*
X137255857Y-89681042D02*
X137351095Y-89538185D01*
X137351095Y-89538185D02*
X137398714Y-89347709D01*
X137398714Y-89347709D02*
X137398714Y-88966757D01*
X137398714Y-88966757D02*
X137351095Y-88871519D01*
X137351095Y-88871519D02*
X137303476Y-88823900D01*
X137303476Y-88823900D02*
X137208238Y-88776280D01*
X137208238Y-88776280D02*
X137017762Y-88776280D01*
X137017762Y-88776280D02*
X136922524Y-88823900D01*
X136922524Y-88823900D02*
X136874905Y-88871519D01*
X136874905Y-88871519D02*
X136827286Y-88966757D01*
X136827286Y-88966757D02*
X136827286Y-89204852D01*
X136827286Y-89204852D02*
X136874905Y-89300090D01*
X136874905Y-89300090D02*
X136922524Y-89347709D01*
X136922524Y-89347709D02*
X137017762Y-89395328D01*
X137017762Y-89395328D02*
X137208238Y-89395328D01*
X137208238Y-89395328D02*
X137303476Y-89347709D01*
X137303476Y-89347709D02*
X137351095Y-89300090D01*
X137351095Y-89300090D02*
X137398714Y-89204852D01*
%TO.C,C5*%
X116236333Y-100674142D02*
X116188714Y-100721761D01*
X116188714Y-100721761D02*
X116045857Y-100769380D01*
X116045857Y-100769380D02*
X115950619Y-100769380D01*
X115950619Y-100769380D02*
X115807762Y-100721761D01*
X115807762Y-100721761D02*
X115712524Y-100626523D01*
X115712524Y-100626523D02*
X115664905Y-100531285D01*
X115664905Y-100531285D02*
X115617286Y-100340809D01*
X115617286Y-100340809D02*
X115617286Y-100197952D01*
X115617286Y-100197952D02*
X115664905Y-100007476D01*
X115664905Y-100007476D02*
X115712524Y-99912238D01*
X115712524Y-99912238D02*
X115807762Y-99817000D01*
X115807762Y-99817000D02*
X115950619Y-99769380D01*
X115950619Y-99769380D02*
X116045857Y-99769380D01*
X116045857Y-99769380D02*
X116188714Y-99817000D01*
X116188714Y-99817000D02*
X116236333Y-99864619D01*
X117141095Y-99769380D02*
X116664905Y-99769380D01*
X116664905Y-99769380D02*
X116617286Y-100245571D01*
X116617286Y-100245571D02*
X116664905Y-100197952D01*
X116664905Y-100197952D02*
X116760143Y-100150333D01*
X116760143Y-100150333D02*
X116998238Y-100150333D01*
X116998238Y-100150333D02*
X117093476Y-100197952D01*
X117093476Y-100197952D02*
X117141095Y-100245571D01*
X117141095Y-100245571D02*
X117188714Y-100340809D01*
X117188714Y-100340809D02*
X117188714Y-100578904D01*
X117188714Y-100578904D02*
X117141095Y-100674142D01*
X117141095Y-100674142D02*
X117093476Y-100721761D01*
X117093476Y-100721761D02*
X116998238Y-100769380D01*
X116998238Y-100769380D02*
X116760143Y-100769380D01*
X116760143Y-100769380D02*
X116664905Y-100721761D01*
X116664905Y-100721761D02*
X116617286Y-100674142D01*
%TO.C,R11*%
X118819380Y-69515057D02*
X118343190Y-69848390D01*
X118819380Y-70086485D02*
X117819380Y-70086485D01*
X117819380Y-70086485D02*
X117819380Y-69705533D01*
X117819380Y-69705533D02*
X117867000Y-69610295D01*
X117867000Y-69610295D02*
X117914619Y-69562676D01*
X117914619Y-69562676D02*
X118009857Y-69515057D01*
X118009857Y-69515057D02*
X118152714Y-69515057D01*
X118152714Y-69515057D02*
X118247952Y-69562676D01*
X118247952Y-69562676D02*
X118295571Y-69610295D01*
X118295571Y-69610295D02*
X118343190Y-69705533D01*
X118343190Y-69705533D02*
X118343190Y-70086485D01*
X118819380Y-68562676D02*
X118819380Y-69134104D01*
X118819380Y-68848390D02*
X117819380Y-68848390D01*
X117819380Y-68848390D02*
X117962238Y-68943628D01*
X117962238Y-68943628D02*
X118057476Y-69038866D01*
X118057476Y-69038866D02*
X118105095Y-69134104D01*
X118819380Y-67610295D02*
X118819380Y-68181723D01*
X118819380Y-67896009D02*
X117819380Y-67896009D01*
X117819380Y-67896009D02*
X117962238Y-67991247D01*
X117962238Y-67991247D02*
X118057476Y-68086485D01*
X118057476Y-68086485D02*
X118105095Y-68181723D01*
%TO.C,R6*%
X118223380Y-92114666D02*
X117747190Y-92447999D01*
X118223380Y-92686094D02*
X117223380Y-92686094D01*
X117223380Y-92686094D02*
X117223380Y-92305142D01*
X117223380Y-92305142D02*
X117271000Y-92209904D01*
X117271000Y-92209904D02*
X117318619Y-92162285D01*
X117318619Y-92162285D02*
X117413857Y-92114666D01*
X117413857Y-92114666D02*
X117556714Y-92114666D01*
X117556714Y-92114666D02*
X117651952Y-92162285D01*
X117651952Y-92162285D02*
X117699571Y-92209904D01*
X117699571Y-92209904D02*
X117747190Y-92305142D01*
X117747190Y-92305142D02*
X117747190Y-92686094D01*
X117223380Y-91257523D02*
X117223380Y-91447999D01*
X117223380Y-91447999D02*
X117271000Y-91543237D01*
X117271000Y-91543237D02*
X117318619Y-91590856D01*
X117318619Y-91590856D02*
X117461476Y-91686094D01*
X117461476Y-91686094D02*
X117651952Y-91733713D01*
X117651952Y-91733713D02*
X118032904Y-91733713D01*
X118032904Y-91733713D02*
X118128142Y-91686094D01*
X118128142Y-91686094D02*
X118175761Y-91638475D01*
X118175761Y-91638475D02*
X118223380Y-91543237D01*
X118223380Y-91543237D02*
X118223380Y-91352761D01*
X118223380Y-91352761D02*
X118175761Y-91257523D01*
X118175761Y-91257523D02*
X118128142Y-91209904D01*
X118128142Y-91209904D02*
X118032904Y-91162285D01*
X118032904Y-91162285D02*
X117794809Y-91162285D01*
X117794809Y-91162285D02*
X117699571Y-91209904D01*
X117699571Y-91209904D02*
X117651952Y-91257523D01*
X117651952Y-91257523D02*
X117604333Y-91352761D01*
X117604333Y-91352761D02*
X117604333Y-91543237D01*
X117604333Y-91543237D02*
X117651952Y-91638475D01*
X117651952Y-91638475D02*
X117699571Y-91686094D01*
X117699571Y-91686094D02*
X117794809Y-91733713D01*
%TO.C,R14*%
X137222580Y-69642057D02*
X136746390Y-69975390D01*
X137222580Y-70213485D02*
X136222580Y-70213485D01*
X136222580Y-70213485D02*
X136222580Y-69832533D01*
X136222580Y-69832533D02*
X136270200Y-69737295D01*
X136270200Y-69737295D02*
X136317819Y-69689676D01*
X136317819Y-69689676D02*
X136413057Y-69642057D01*
X136413057Y-69642057D02*
X136555914Y-69642057D01*
X136555914Y-69642057D02*
X136651152Y-69689676D01*
X136651152Y-69689676D02*
X136698771Y-69737295D01*
X136698771Y-69737295D02*
X136746390Y-69832533D01*
X136746390Y-69832533D02*
X136746390Y-70213485D01*
X137222580Y-68689676D02*
X137222580Y-69261104D01*
X137222580Y-68975390D02*
X136222580Y-68975390D01*
X136222580Y-68975390D02*
X136365438Y-69070628D01*
X136365438Y-69070628D02*
X136460676Y-69165866D01*
X136460676Y-69165866D02*
X136508295Y-69261104D01*
X136555914Y-67832533D02*
X137222580Y-67832533D01*
X136174961Y-68070628D02*
X136889247Y-68308723D01*
X136889247Y-68308723D02*
X136889247Y-67689676D01*
%TO.C,R1*%
X142124780Y-125769666D02*
X141648590Y-126102999D01*
X142124780Y-126341094D02*
X141124780Y-126341094D01*
X141124780Y-126341094D02*
X141124780Y-125960142D01*
X141124780Y-125960142D02*
X141172400Y-125864904D01*
X141172400Y-125864904D02*
X141220019Y-125817285D01*
X141220019Y-125817285D02*
X141315257Y-125769666D01*
X141315257Y-125769666D02*
X141458114Y-125769666D01*
X141458114Y-125769666D02*
X141553352Y-125817285D01*
X141553352Y-125817285D02*
X141600971Y-125864904D01*
X141600971Y-125864904D02*
X141648590Y-125960142D01*
X141648590Y-125960142D02*
X141648590Y-126341094D01*
X142124780Y-124817285D02*
X142124780Y-125388713D01*
X142124780Y-125102999D02*
X141124780Y-125102999D01*
X141124780Y-125102999D02*
X141267638Y-125198237D01*
X141267638Y-125198237D02*
X141362876Y-125293475D01*
X141362876Y-125293475D02*
X141410495Y-125388713D01*
%TO.C,C2B1*%
X145923142Y-108222142D02*
X145875523Y-108269761D01*
X145875523Y-108269761D02*
X145732666Y-108317380D01*
X145732666Y-108317380D02*
X145637428Y-108317380D01*
X145637428Y-108317380D02*
X145494571Y-108269761D01*
X145494571Y-108269761D02*
X145399333Y-108174523D01*
X145399333Y-108174523D02*
X145351714Y-108079285D01*
X145351714Y-108079285D02*
X145304095Y-107888809D01*
X145304095Y-107888809D02*
X145304095Y-107745952D01*
X145304095Y-107745952D02*
X145351714Y-107555476D01*
X145351714Y-107555476D02*
X145399333Y-107460238D01*
X145399333Y-107460238D02*
X145494571Y-107365000D01*
X145494571Y-107365000D02*
X145637428Y-107317380D01*
X145637428Y-107317380D02*
X145732666Y-107317380D01*
X145732666Y-107317380D02*
X145875523Y-107365000D01*
X145875523Y-107365000D02*
X145923142Y-107412619D01*
X146304095Y-107412619D02*
X146351714Y-107365000D01*
X146351714Y-107365000D02*
X146446952Y-107317380D01*
X146446952Y-107317380D02*
X146685047Y-107317380D01*
X146685047Y-107317380D02*
X146780285Y-107365000D01*
X146780285Y-107365000D02*
X146827904Y-107412619D01*
X146827904Y-107412619D02*
X146875523Y-107507857D01*
X146875523Y-107507857D02*
X146875523Y-107603095D01*
X146875523Y-107603095D02*
X146827904Y-107745952D01*
X146827904Y-107745952D02*
X146256476Y-108317380D01*
X146256476Y-108317380D02*
X146875523Y-108317380D01*
X147637428Y-107793571D02*
X147780285Y-107841190D01*
X147780285Y-107841190D02*
X147827904Y-107888809D01*
X147827904Y-107888809D02*
X147875523Y-107984047D01*
X147875523Y-107984047D02*
X147875523Y-108126904D01*
X147875523Y-108126904D02*
X147827904Y-108222142D01*
X147827904Y-108222142D02*
X147780285Y-108269761D01*
X147780285Y-108269761D02*
X147685047Y-108317380D01*
X147685047Y-108317380D02*
X147304095Y-108317380D01*
X147304095Y-108317380D02*
X147304095Y-107317380D01*
X147304095Y-107317380D02*
X147637428Y-107317380D01*
X147637428Y-107317380D02*
X147732666Y-107365000D01*
X147732666Y-107365000D02*
X147780285Y-107412619D01*
X147780285Y-107412619D02*
X147827904Y-107507857D01*
X147827904Y-107507857D02*
X147827904Y-107603095D01*
X147827904Y-107603095D02*
X147780285Y-107698333D01*
X147780285Y-107698333D02*
X147732666Y-107745952D01*
X147732666Y-107745952D02*
X147637428Y-107793571D01*
X147637428Y-107793571D02*
X147304095Y-107793571D01*
X148827904Y-108317380D02*
X148256476Y-108317380D01*
X148542190Y-108317380D02*
X148542190Y-107317380D01*
X148542190Y-107317380D02*
X148446952Y-107460238D01*
X148446952Y-107460238D02*
X148351714Y-107555476D01*
X148351714Y-107555476D02*
X148256476Y-107603095D01*
%TO.C,R21*%
X119587142Y-87363280D02*
X119253809Y-86887090D01*
X119015714Y-87363280D02*
X119015714Y-86363280D01*
X119015714Y-86363280D02*
X119396666Y-86363280D01*
X119396666Y-86363280D02*
X119491904Y-86410900D01*
X119491904Y-86410900D02*
X119539523Y-86458519D01*
X119539523Y-86458519D02*
X119587142Y-86553757D01*
X119587142Y-86553757D02*
X119587142Y-86696614D01*
X119587142Y-86696614D02*
X119539523Y-86791852D01*
X119539523Y-86791852D02*
X119491904Y-86839471D01*
X119491904Y-86839471D02*
X119396666Y-86887090D01*
X119396666Y-86887090D02*
X119015714Y-86887090D01*
X119968095Y-86458519D02*
X120015714Y-86410900D01*
X120015714Y-86410900D02*
X120110952Y-86363280D01*
X120110952Y-86363280D02*
X120349047Y-86363280D01*
X120349047Y-86363280D02*
X120444285Y-86410900D01*
X120444285Y-86410900D02*
X120491904Y-86458519D01*
X120491904Y-86458519D02*
X120539523Y-86553757D01*
X120539523Y-86553757D02*
X120539523Y-86648995D01*
X120539523Y-86648995D02*
X120491904Y-86791852D01*
X120491904Y-86791852D02*
X119920476Y-87363280D01*
X119920476Y-87363280D02*
X120539523Y-87363280D01*
X121491904Y-87363280D02*
X120920476Y-87363280D01*
X121206190Y-87363280D02*
X121206190Y-86363280D01*
X121206190Y-86363280D02*
X121110952Y-86506138D01*
X121110952Y-86506138D02*
X121015714Y-86601376D01*
X121015714Y-86601376D02*
X120920476Y-86648995D01*
%TO.C,SW2*%
X128220561Y-80836232D02*
X128268180Y-80693375D01*
X128268180Y-80693375D02*
X128268180Y-80455280D01*
X128268180Y-80455280D02*
X128220561Y-80360042D01*
X128220561Y-80360042D02*
X128172942Y-80312423D01*
X128172942Y-80312423D02*
X128077704Y-80264804D01*
X128077704Y-80264804D02*
X127982466Y-80264804D01*
X127982466Y-80264804D02*
X127887228Y-80312423D01*
X127887228Y-80312423D02*
X127839609Y-80360042D01*
X127839609Y-80360042D02*
X127791990Y-80455280D01*
X127791990Y-80455280D02*
X127744371Y-80645756D01*
X127744371Y-80645756D02*
X127696752Y-80740994D01*
X127696752Y-80740994D02*
X127649133Y-80788613D01*
X127649133Y-80788613D02*
X127553895Y-80836232D01*
X127553895Y-80836232D02*
X127458657Y-80836232D01*
X127458657Y-80836232D02*
X127363419Y-80788613D01*
X127363419Y-80788613D02*
X127315800Y-80740994D01*
X127315800Y-80740994D02*
X127268180Y-80645756D01*
X127268180Y-80645756D02*
X127268180Y-80407661D01*
X127268180Y-80407661D02*
X127315800Y-80264804D01*
X127268180Y-79931470D02*
X128268180Y-79693375D01*
X128268180Y-79693375D02*
X127553895Y-79502899D01*
X127553895Y-79502899D02*
X128268180Y-79312423D01*
X128268180Y-79312423D02*
X127268180Y-79074328D01*
X127363419Y-78740994D02*
X127315800Y-78693375D01*
X127315800Y-78693375D02*
X127268180Y-78598137D01*
X127268180Y-78598137D02*
X127268180Y-78360042D01*
X127268180Y-78360042D02*
X127315800Y-78264804D01*
X127315800Y-78264804D02*
X127363419Y-78217185D01*
X127363419Y-78217185D02*
X127458657Y-78169566D01*
X127458657Y-78169566D02*
X127553895Y-78169566D01*
X127553895Y-78169566D02*
X127696752Y-78217185D01*
X127696752Y-78217185D02*
X128268180Y-78788613D01*
X128268180Y-78788613D02*
X128268180Y-78169566D01*
%TO.C,J5*%
X153209666Y-59604380D02*
X153209666Y-60318666D01*
X153209666Y-60318666D02*
X153162047Y-60461523D01*
X153162047Y-60461523D02*
X153066809Y-60556761D01*
X153066809Y-60556761D02*
X152923952Y-60604380D01*
X152923952Y-60604380D02*
X152828714Y-60604380D01*
X154162047Y-59604380D02*
X153685857Y-59604380D01*
X153685857Y-59604380D02*
X153638238Y-60080571D01*
X153638238Y-60080571D02*
X153685857Y-60032952D01*
X153685857Y-60032952D02*
X153781095Y-59985333D01*
X153781095Y-59985333D02*
X154019190Y-59985333D01*
X154019190Y-59985333D02*
X154114428Y-60032952D01*
X154114428Y-60032952D02*
X154162047Y-60080571D01*
X154162047Y-60080571D02*
X154209666Y-60175809D01*
X154209666Y-60175809D02*
X154209666Y-60413904D01*
X154209666Y-60413904D02*
X154162047Y-60509142D01*
X154162047Y-60509142D02*
X154114428Y-60556761D01*
X154114428Y-60556761D02*
X154019190Y-60604380D01*
X154019190Y-60604380D02*
X153781095Y-60604380D01*
X153781095Y-60604380D02*
X153685857Y-60556761D01*
X153685857Y-60556761D02*
X153638238Y-60509142D01*
%TO.C,C1*%
X142581333Y-120287142D02*
X142533714Y-120334761D01*
X142533714Y-120334761D02*
X142390857Y-120382380D01*
X142390857Y-120382380D02*
X142295619Y-120382380D01*
X142295619Y-120382380D02*
X142152762Y-120334761D01*
X142152762Y-120334761D02*
X142057524Y-120239523D01*
X142057524Y-120239523D02*
X142009905Y-120144285D01*
X142009905Y-120144285D02*
X141962286Y-119953809D01*
X141962286Y-119953809D02*
X141962286Y-119810952D01*
X141962286Y-119810952D02*
X142009905Y-119620476D01*
X142009905Y-119620476D02*
X142057524Y-119525238D01*
X142057524Y-119525238D02*
X142152762Y-119430000D01*
X142152762Y-119430000D02*
X142295619Y-119382380D01*
X142295619Y-119382380D02*
X142390857Y-119382380D01*
X142390857Y-119382380D02*
X142533714Y-119430000D01*
X142533714Y-119430000D02*
X142581333Y-119477619D01*
X143533714Y-120382380D02*
X142962286Y-120382380D01*
X143248000Y-120382380D02*
X143248000Y-119382380D01*
X143248000Y-119382380D02*
X143152762Y-119525238D01*
X143152762Y-119525238D02*
X143057524Y-119620476D01*
X143057524Y-119620476D02*
X142962286Y-119668095D01*
%TO.C,R7*%
X137904380Y-123356666D02*
X137428190Y-123689999D01*
X137904380Y-123928094D02*
X136904380Y-123928094D01*
X136904380Y-123928094D02*
X136904380Y-123547142D01*
X136904380Y-123547142D02*
X136952000Y-123451904D01*
X136952000Y-123451904D02*
X136999619Y-123404285D01*
X136999619Y-123404285D02*
X137094857Y-123356666D01*
X137094857Y-123356666D02*
X137237714Y-123356666D01*
X137237714Y-123356666D02*
X137332952Y-123404285D01*
X137332952Y-123404285D02*
X137380571Y-123451904D01*
X137380571Y-123451904D02*
X137428190Y-123547142D01*
X137428190Y-123547142D02*
X137428190Y-123928094D01*
X136904380Y-123023332D02*
X136904380Y-122356666D01*
X136904380Y-122356666D02*
X137904380Y-122785237D01*
%TO.C,L1*%
X140680333Y-101459380D02*
X140204143Y-101459380D01*
X140204143Y-101459380D02*
X140204143Y-100459380D01*
X141537476Y-101459380D02*
X140966048Y-101459380D01*
X141251762Y-101459380D02*
X141251762Y-100459380D01*
X141251762Y-100459380D02*
X141156524Y-100602238D01*
X141156524Y-100602238D02*
X141061286Y-100697476D01*
X141061286Y-100697476D02*
X140966048Y-100745095D01*
%TO.C,J2*%
X120480667Y-116036573D02*
X120480667Y-116943716D01*
X120480667Y-116943716D02*
X120420190Y-117125145D01*
X120420190Y-117125145D02*
X120299238Y-117246097D01*
X120299238Y-117246097D02*
X120117809Y-117306573D01*
X120117809Y-117306573D02*
X119996857Y-117306573D01*
X121024952Y-116157526D02*
X121085428Y-116097050D01*
X121085428Y-116097050D02*
X121206381Y-116036573D01*
X121206381Y-116036573D02*
X121508762Y-116036573D01*
X121508762Y-116036573D02*
X121629714Y-116097050D01*
X121629714Y-116097050D02*
X121690190Y-116157526D01*
X121690190Y-116157526D02*
X121750667Y-116278478D01*
X121750667Y-116278478D02*
X121750667Y-116399430D01*
X121750667Y-116399430D02*
X121690190Y-116580859D01*
X121690190Y-116580859D02*
X120964476Y-117306573D01*
X120964476Y-117306573D02*
X121750667Y-117306573D01*
%TO.C,J4*%
X167306666Y-59650380D02*
X167306666Y-60364666D01*
X167306666Y-60364666D02*
X167259047Y-60507523D01*
X167259047Y-60507523D02*
X167163809Y-60602761D01*
X167163809Y-60602761D02*
X167020952Y-60650380D01*
X167020952Y-60650380D02*
X166925714Y-60650380D01*
X168211428Y-59983714D02*
X168211428Y-60650380D01*
X167973333Y-59602761D02*
X167735238Y-60317047D01*
X167735238Y-60317047D02*
X168354285Y-60317047D01*
%TO.C,J1*%
X158072667Y-116036573D02*
X158072667Y-116943716D01*
X158072667Y-116943716D02*
X158012190Y-117125145D01*
X158012190Y-117125145D02*
X157891238Y-117246097D01*
X157891238Y-117246097D02*
X157709809Y-117306573D01*
X157709809Y-117306573D02*
X157588857Y-117306573D01*
X159342667Y-117306573D02*
X158616952Y-117306573D01*
X158979809Y-117306573D02*
X158979809Y-116036573D01*
X158979809Y-116036573D02*
X158858857Y-116218002D01*
X158858857Y-116218002D02*
X158737905Y-116338954D01*
X158737905Y-116338954D02*
X158616952Y-116399430D01*
%TO.C,J8*%
X120951666Y-59482380D02*
X120951666Y-60196666D01*
X120951666Y-60196666D02*
X120904047Y-60339523D01*
X120904047Y-60339523D02*
X120808809Y-60434761D01*
X120808809Y-60434761D02*
X120665952Y-60482380D01*
X120665952Y-60482380D02*
X120570714Y-60482380D01*
X121570714Y-59910952D02*
X121475476Y-59863333D01*
X121475476Y-59863333D02*
X121427857Y-59815714D01*
X121427857Y-59815714D02*
X121380238Y-59720476D01*
X121380238Y-59720476D02*
X121380238Y-59672857D01*
X121380238Y-59672857D02*
X121427857Y-59577619D01*
X121427857Y-59577619D02*
X121475476Y-59530000D01*
X121475476Y-59530000D02*
X121570714Y-59482380D01*
X121570714Y-59482380D02*
X121761190Y-59482380D01*
X121761190Y-59482380D02*
X121856428Y-59530000D01*
X121856428Y-59530000D02*
X121904047Y-59577619D01*
X121904047Y-59577619D02*
X121951666Y-59672857D01*
X121951666Y-59672857D02*
X121951666Y-59720476D01*
X121951666Y-59720476D02*
X121904047Y-59815714D01*
X121904047Y-59815714D02*
X121856428Y-59863333D01*
X121856428Y-59863333D02*
X121761190Y-59910952D01*
X121761190Y-59910952D02*
X121570714Y-59910952D01*
X121570714Y-59910952D02*
X121475476Y-59958571D01*
X121475476Y-59958571D02*
X121427857Y-60006190D01*
X121427857Y-60006190D02*
X121380238Y-60101428D01*
X121380238Y-60101428D02*
X121380238Y-60291904D01*
X121380238Y-60291904D02*
X121427857Y-60387142D01*
X121427857Y-60387142D02*
X121475476Y-60434761D01*
X121475476Y-60434761D02*
X121570714Y-60482380D01*
X121570714Y-60482380D02*
X121761190Y-60482380D01*
X121761190Y-60482380D02*
X121856428Y-60434761D01*
X121856428Y-60434761D02*
X121904047Y-60387142D01*
X121904047Y-60387142D02*
X121951666Y-60291904D01*
X121951666Y-60291904D02*
X121951666Y-60101428D01*
X121951666Y-60101428D02*
X121904047Y-60006190D01*
X121904047Y-60006190D02*
X121856428Y-59958571D01*
X121856428Y-59958571D02*
X121761190Y-59910952D01*
%TO.C,J6*%
X142202998Y-59692380D02*
X142202998Y-60406666D01*
X142202998Y-60406666D02*
X142155379Y-60549523D01*
X142155379Y-60549523D02*
X142060141Y-60644761D01*
X142060141Y-60644761D02*
X141917284Y-60692380D01*
X141917284Y-60692380D02*
X141822046Y-60692380D01*
X143107760Y-59692380D02*
X142917284Y-59692380D01*
X142917284Y-59692380D02*
X142822046Y-59740000D01*
X142822046Y-59740000D02*
X142774427Y-59787619D01*
X142774427Y-59787619D02*
X142679189Y-59930476D01*
X142679189Y-59930476D02*
X142631570Y-60120952D01*
X142631570Y-60120952D02*
X142631570Y-60501904D01*
X142631570Y-60501904D02*
X142679189Y-60597142D01*
X142679189Y-60597142D02*
X142726808Y-60644761D01*
X142726808Y-60644761D02*
X142822046Y-60692380D01*
X142822046Y-60692380D02*
X143012522Y-60692380D01*
X143012522Y-60692380D02*
X143107760Y-60644761D01*
X143107760Y-60644761D02*
X143155379Y-60597142D01*
X143155379Y-60597142D02*
X143202998Y-60501904D01*
X143202998Y-60501904D02*
X143202998Y-60263809D01*
X143202998Y-60263809D02*
X143155379Y-60168571D01*
X143155379Y-60168571D02*
X143107760Y-60120952D01*
X143107760Y-60120952D02*
X143012522Y-60073333D01*
X143012522Y-60073333D02*
X142822046Y-60073333D01*
X142822046Y-60073333D02*
X142726808Y-60120952D01*
X142726808Y-60120952D02*
X142679189Y-60168571D01*
X142679189Y-60168571D02*
X142631570Y-60263809D01*
%TO.C,J3*%
X126831380Y-95075333D02*
X127545666Y-95075333D01*
X127545666Y-95075333D02*
X127688523Y-95122952D01*
X127688523Y-95122952D02*
X127783761Y-95218190D01*
X127783761Y-95218190D02*
X127831380Y-95361047D01*
X127831380Y-95361047D02*
X127831380Y-95456285D01*
X126831380Y-94694380D02*
X126831380Y-94075333D01*
X126831380Y-94075333D02*
X127212333Y-94408666D01*
X127212333Y-94408666D02*
X127212333Y-94265809D01*
X127212333Y-94265809D02*
X127259952Y-94170571D01*
X127259952Y-94170571D02*
X127307571Y-94122952D01*
X127307571Y-94122952D02*
X127402809Y-94075333D01*
X127402809Y-94075333D02*
X127640904Y-94075333D01*
X127640904Y-94075333D02*
X127736142Y-94122952D01*
X127736142Y-94122952D02*
X127783761Y-94170571D01*
X127783761Y-94170571D02*
X127831380Y-94265809D01*
X127831380Y-94265809D02*
X127831380Y-94551523D01*
X127831380Y-94551523D02*
X127783761Y-94646761D01*
X127783761Y-94646761D02*
X127736142Y-94694380D01*
%TO.C,R8*%
X131686380Y-121959666D02*
X131210190Y-122292999D01*
X131686380Y-122531094D02*
X130686380Y-122531094D01*
X130686380Y-122531094D02*
X130686380Y-122150142D01*
X130686380Y-122150142D02*
X130734000Y-122054904D01*
X130734000Y-122054904D02*
X130781619Y-122007285D01*
X130781619Y-122007285D02*
X130876857Y-121959666D01*
X130876857Y-121959666D02*
X131019714Y-121959666D01*
X131019714Y-121959666D02*
X131114952Y-122007285D01*
X131114952Y-122007285D02*
X131162571Y-122054904D01*
X131162571Y-122054904D02*
X131210190Y-122150142D01*
X131210190Y-122150142D02*
X131210190Y-122531094D01*
X131114952Y-121388237D02*
X131067333Y-121483475D01*
X131067333Y-121483475D02*
X131019714Y-121531094D01*
X131019714Y-121531094D02*
X130924476Y-121578713D01*
X130924476Y-121578713D02*
X130876857Y-121578713D01*
X130876857Y-121578713D02*
X130781619Y-121531094D01*
X130781619Y-121531094D02*
X130734000Y-121483475D01*
X130734000Y-121483475D02*
X130686380Y-121388237D01*
X130686380Y-121388237D02*
X130686380Y-121197761D01*
X130686380Y-121197761D02*
X130734000Y-121102523D01*
X130734000Y-121102523D02*
X130781619Y-121054904D01*
X130781619Y-121054904D02*
X130876857Y-121007285D01*
X130876857Y-121007285D02*
X130924476Y-121007285D01*
X130924476Y-121007285D02*
X131019714Y-121054904D01*
X131019714Y-121054904D02*
X131067333Y-121102523D01*
X131067333Y-121102523D02*
X131114952Y-121197761D01*
X131114952Y-121197761D02*
X131114952Y-121388237D01*
X131114952Y-121388237D02*
X131162571Y-121483475D01*
X131162571Y-121483475D02*
X131210190Y-121531094D01*
X131210190Y-121531094D02*
X131305428Y-121578713D01*
X131305428Y-121578713D02*
X131495904Y-121578713D01*
X131495904Y-121578713D02*
X131591142Y-121531094D01*
X131591142Y-121531094D02*
X131638761Y-121483475D01*
X131638761Y-121483475D02*
X131686380Y-121388237D01*
X131686380Y-121388237D02*
X131686380Y-121197761D01*
X131686380Y-121197761D02*
X131638761Y-121102523D01*
X131638761Y-121102523D02*
X131591142Y-121054904D01*
X131591142Y-121054904D02*
X131495904Y-121007285D01*
X131495904Y-121007285D02*
X131305428Y-121007285D01*
X131305428Y-121007285D02*
X131210190Y-121054904D01*
X131210190Y-121054904D02*
X131162571Y-121102523D01*
X131162571Y-121102523D02*
X131114952Y-121197761D01*
%TO.C,Y1*%
X171849190Y-82689390D02*
X172325380Y-82689390D01*
X171325380Y-83022723D02*
X171849190Y-82689390D01*
X171849190Y-82689390D02*
X171325380Y-82356057D01*
X172325380Y-81498914D02*
X172325380Y-82070342D01*
X172325380Y-81784628D02*
X171325380Y-81784628D01*
X171325380Y-81784628D02*
X171468238Y-81879866D01*
X171468238Y-81879866D02*
X171563476Y-81975104D01*
X171563476Y-81975104D02*
X171611095Y-82070342D01*
%TO.C,C4*%
X116165333Y-105754142D02*
X116117714Y-105801761D01*
X116117714Y-105801761D02*
X115974857Y-105849380D01*
X115974857Y-105849380D02*
X115879619Y-105849380D01*
X115879619Y-105849380D02*
X115736762Y-105801761D01*
X115736762Y-105801761D02*
X115641524Y-105706523D01*
X115641524Y-105706523D02*
X115593905Y-105611285D01*
X115593905Y-105611285D02*
X115546286Y-105420809D01*
X115546286Y-105420809D02*
X115546286Y-105277952D01*
X115546286Y-105277952D02*
X115593905Y-105087476D01*
X115593905Y-105087476D02*
X115641524Y-104992238D01*
X115641524Y-104992238D02*
X115736762Y-104897000D01*
X115736762Y-104897000D02*
X115879619Y-104849380D01*
X115879619Y-104849380D02*
X115974857Y-104849380D01*
X115974857Y-104849380D02*
X116117714Y-104897000D01*
X116117714Y-104897000D02*
X116165333Y-104944619D01*
X117022476Y-105182714D02*
X117022476Y-105849380D01*
X116784381Y-104801761D02*
X116546286Y-105516047D01*
X116546286Y-105516047D02*
X117165333Y-105516047D01*
%TO.C,C8*%
X162852333Y-77742142D02*
X162804714Y-77789761D01*
X162804714Y-77789761D02*
X162661857Y-77837380D01*
X162661857Y-77837380D02*
X162566619Y-77837380D01*
X162566619Y-77837380D02*
X162423762Y-77789761D01*
X162423762Y-77789761D02*
X162328524Y-77694523D01*
X162328524Y-77694523D02*
X162280905Y-77599285D01*
X162280905Y-77599285D02*
X162233286Y-77408809D01*
X162233286Y-77408809D02*
X162233286Y-77265952D01*
X162233286Y-77265952D02*
X162280905Y-77075476D01*
X162280905Y-77075476D02*
X162328524Y-76980238D01*
X162328524Y-76980238D02*
X162423762Y-76885000D01*
X162423762Y-76885000D02*
X162566619Y-76837380D01*
X162566619Y-76837380D02*
X162661857Y-76837380D01*
X162661857Y-76837380D02*
X162804714Y-76885000D01*
X162804714Y-76885000D02*
X162852333Y-76932619D01*
X163423762Y-77265952D02*
X163328524Y-77218333D01*
X163328524Y-77218333D02*
X163280905Y-77170714D01*
X163280905Y-77170714D02*
X163233286Y-77075476D01*
X163233286Y-77075476D02*
X163233286Y-77027857D01*
X163233286Y-77027857D02*
X163280905Y-76932619D01*
X163280905Y-76932619D02*
X163328524Y-76885000D01*
X163328524Y-76885000D02*
X163423762Y-76837380D01*
X163423762Y-76837380D02*
X163614238Y-76837380D01*
X163614238Y-76837380D02*
X163709476Y-76885000D01*
X163709476Y-76885000D02*
X163757095Y-76932619D01*
X163757095Y-76932619D02*
X163804714Y-77027857D01*
X163804714Y-77027857D02*
X163804714Y-77075476D01*
X163804714Y-77075476D02*
X163757095Y-77170714D01*
X163757095Y-77170714D02*
X163709476Y-77218333D01*
X163709476Y-77218333D02*
X163614238Y-77265952D01*
X163614238Y-77265952D02*
X163423762Y-77265952D01*
X163423762Y-77265952D02*
X163328524Y-77313571D01*
X163328524Y-77313571D02*
X163280905Y-77361190D01*
X163280905Y-77361190D02*
X163233286Y-77456428D01*
X163233286Y-77456428D02*
X163233286Y-77646904D01*
X163233286Y-77646904D02*
X163280905Y-77742142D01*
X163280905Y-77742142D02*
X163328524Y-77789761D01*
X163328524Y-77789761D02*
X163423762Y-77837380D01*
X163423762Y-77837380D02*
X163614238Y-77837380D01*
X163614238Y-77837380D02*
X163709476Y-77789761D01*
X163709476Y-77789761D02*
X163757095Y-77742142D01*
X163757095Y-77742142D02*
X163804714Y-77646904D01*
X163804714Y-77646904D02*
X163804714Y-77456428D01*
X163804714Y-77456428D02*
X163757095Y-77361190D01*
X163757095Y-77361190D02*
X163709476Y-77313571D01*
X163709476Y-77313571D02*
X163614238Y-77265952D01*
%TO.C,R4*%
X167373380Y-97194666D02*
X166897190Y-97527999D01*
X167373380Y-97766094D02*
X166373380Y-97766094D01*
X166373380Y-97766094D02*
X166373380Y-97385142D01*
X166373380Y-97385142D02*
X166421000Y-97289904D01*
X166421000Y-97289904D02*
X166468619Y-97242285D01*
X166468619Y-97242285D02*
X166563857Y-97194666D01*
X166563857Y-97194666D02*
X166706714Y-97194666D01*
X166706714Y-97194666D02*
X166801952Y-97242285D01*
X166801952Y-97242285D02*
X166849571Y-97289904D01*
X166849571Y-97289904D02*
X166897190Y-97385142D01*
X166897190Y-97385142D02*
X166897190Y-97766094D01*
X166706714Y-96337523D02*
X167373380Y-96337523D01*
X166325761Y-96575618D02*
X167040047Y-96813713D01*
X167040047Y-96813713D02*
X167040047Y-96194666D01*
%TO.C,R2*%
X139991180Y-125769666D02*
X139514990Y-126102999D01*
X139991180Y-126341094D02*
X138991180Y-126341094D01*
X138991180Y-126341094D02*
X138991180Y-125960142D01*
X138991180Y-125960142D02*
X139038800Y-125864904D01*
X139038800Y-125864904D02*
X139086419Y-125817285D01*
X139086419Y-125817285D02*
X139181657Y-125769666D01*
X139181657Y-125769666D02*
X139324514Y-125769666D01*
X139324514Y-125769666D02*
X139419752Y-125817285D01*
X139419752Y-125817285D02*
X139467371Y-125864904D01*
X139467371Y-125864904D02*
X139514990Y-125960142D01*
X139514990Y-125960142D02*
X139514990Y-126341094D01*
X139086419Y-125388713D02*
X139038800Y-125341094D01*
X139038800Y-125341094D02*
X138991180Y-125245856D01*
X138991180Y-125245856D02*
X138991180Y-125007761D01*
X138991180Y-125007761D02*
X139038800Y-124912523D01*
X139038800Y-124912523D02*
X139086419Y-124864904D01*
X139086419Y-124864904D02*
X139181657Y-124817285D01*
X139181657Y-124817285D02*
X139276895Y-124817285D01*
X139276895Y-124817285D02*
X139419752Y-124864904D01*
X139419752Y-124864904D02*
X139991180Y-125436332D01*
X139991180Y-125436332D02*
X139991180Y-124817285D01*
%TO.C,C2*%
X134502333Y-108150142D02*
X134454714Y-108197761D01*
X134454714Y-108197761D02*
X134311857Y-108245380D01*
X134311857Y-108245380D02*
X134216619Y-108245380D01*
X134216619Y-108245380D02*
X134073762Y-108197761D01*
X134073762Y-108197761D02*
X133978524Y-108102523D01*
X133978524Y-108102523D02*
X133930905Y-108007285D01*
X133930905Y-108007285D02*
X133883286Y-107816809D01*
X133883286Y-107816809D02*
X133883286Y-107673952D01*
X133883286Y-107673952D02*
X133930905Y-107483476D01*
X133930905Y-107483476D02*
X133978524Y-107388238D01*
X133978524Y-107388238D02*
X134073762Y-107293000D01*
X134073762Y-107293000D02*
X134216619Y-107245380D01*
X134216619Y-107245380D02*
X134311857Y-107245380D01*
X134311857Y-107245380D02*
X134454714Y-107293000D01*
X134454714Y-107293000D02*
X134502333Y-107340619D01*
X134883286Y-107340619D02*
X134930905Y-107293000D01*
X134930905Y-107293000D02*
X135026143Y-107245380D01*
X135026143Y-107245380D02*
X135264238Y-107245380D01*
X135264238Y-107245380D02*
X135359476Y-107293000D01*
X135359476Y-107293000D02*
X135407095Y-107340619D01*
X135407095Y-107340619D02*
X135454714Y-107435857D01*
X135454714Y-107435857D02*
X135454714Y-107531095D01*
X135454714Y-107531095D02*
X135407095Y-107673952D01*
X135407095Y-107673952D02*
X134835667Y-108245380D01*
X134835667Y-108245380D02*
X135454714Y-108245380D01*
%TO.C,C6*%
X135658142Y-124626666D02*
X135705761Y-124674285D01*
X135705761Y-124674285D02*
X135753380Y-124817142D01*
X135753380Y-124817142D02*
X135753380Y-124912380D01*
X135753380Y-124912380D02*
X135705761Y-125055237D01*
X135705761Y-125055237D02*
X135610523Y-125150475D01*
X135610523Y-125150475D02*
X135515285Y-125198094D01*
X135515285Y-125198094D02*
X135324809Y-125245713D01*
X135324809Y-125245713D02*
X135181952Y-125245713D01*
X135181952Y-125245713D02*
X134991476Y-125198094D01*
X134991476Y-125198094D02*
X134896238Y-125150475D01*
X134896238Y-125150475D02*
X134801000Y-125055237D01*
X134801000Y-125055237D02*
X134753380Y-124912380D01*
X134753380Y-124912380D02*
X134753380Y-124817142D01*
X134753380Y-124817142D02*
X134801000Y-124674285D01*
X134801000Y-124674285D02*
X134848619Y-124626666D01*
X134753380Y-123769523D02*
X134753380Y-123959999D01*
X134753380Y-123959999D02*
X134801000Y-124055237D01*
X134801000Y-124055237D02*
X134848619Y-124102856D01*
X134848619Y-124102856D02*
X134991476Y-124198094D01*
X134991476Y-124198094D02*
X135181952Y-124245713D01*
X135181952Y-124245713D02*
X135562904Y-124245713D01*
X135562904Y-124245713D02*
X135658142Y-124198094D01*
X135658142Y-124198094D02*
X135705761Y-124150475D01*
X135705761Y-124150475D02*
X135753380Y-124055237D01*
X135753380Y-124055237D02*
X135753380Y-123864761D01*
X135753380Y-123864761D02*
X135705761Y-123769523D01*
X135705761Y-123769523D02*
X135658142Y-123721904D01*
X135658142Y-123721904D02*
X135562904Y-123674285D01*
X135562904Y-123674285D02*
X135324809Y-123674285D01*
X135324809Y-123674285D02*
X135229571Y-123721904D01*
X135229571Y-123721904D02*
X135181952Y-123769523D01*
X135181952Y-123769523D02*
X135134333Y-123864761D01*
X135134333Y-123864761D02*
X135134333Y-124055237D01*
X135134333Y-124055237D02*
X135181952Y-124150475D01*
X135181952Y-124150475D02*
X135229571Y-124198094D01*
X135229571Y-124198094D02*
X135324809Y-124245713D01*
%TO.C,R13*%
X121359380Y-69515057D02*
X120883190Y-69848390D01*
X121359380Y-70086485D02*
X120359380Y-70086485D01*
X120359380Y-70086485D02*
X120359380Y-69705533D01*
X120359380Y-69705533D02*
X120407000Y-69610295D01*
X120407000Y-69610295D02*
X120454619Y-69562676D01*
X120454619Y-69562676D02*
X120549857Y-69515057D01*
X120549857Y-69515057D02*
X120692714Y-69515057D01*
X120692714Y-69515057D02*
X120787952Y-69562676D01*
X120787952Y-69562676D02*
X120835571Y-69610295D01*
X120835571Y-69610295D02*
X120883190Y-69705533D01*
X120883190Y-69705533D02*
X120883190Y-70086485D01*
X121359380Y-68562676D02*
X121359380Y-69134104D01*
X121359380Y-68848390D02*
X120359380Y-68848390D01*
X120359380Y-68848390D02*
X120502238Y-68943628D01*
X120502238Y-68943628D02*
X120597476Y-69038866D01*
X120597476Y-69038866D02*
X120645095Y-69134104D01*
X120359380Y-68229342D02*
X120359380Y-67610295D01*
X120359380Y-67610295D02*
X120740333Y-67943628D01*
X120740333Y-67943628D02*
X120740333Y-67800771D01*
X120740333Y-67800771D02*
X120787952Y-67705533D01*
X120787952Y-67705533D02*
X120835571Y-67657914D01*
X120835571Y-67657914D02*
X120930809Y-67610295D01*
X120930809Y-67610295D02*
X121168904Y-67610295D01*
X121168904Y-67610295D02*
X121264142Y-67657914D01*
X121264142Y-67657914D02*
X121311761Y-67705533D01*
X121311761Y-67705533D02*
X121359380Y-67800771D01*
X121359380Y-67800771D02*
X121359380Y-68086485D01*
X121359380Y-68086485D02*
X121311761Y-68181723D01*
X121311761Y-68181723D02*
X121264142Y-68229342D01*
%TO.C,H1*%
X157939380Y-71265904D02*
X156939380Y-71265904D01*
X157415571Y-71265904D02*
X157415571Y-70694476D01*
X157939380Y-70694476D02*
X156939380Y-70694476D01*
X157939380Y-69694476D02*
X157939380Y-70265904D01*
X157939380Y-69980190D02*
X156939380Y-69980190D01*
X156939380Y-69980190D02*
X157082238Y-70075428D01*
X157082238Y-70075428D02*
X157177476Y-70170666D01*
X157177476Y-70170666D02*
X157225095Y-70265904D01*
%TO.C,R12*%
X134555580Y-69642057D02*
X134079390Y-69975390D01*
X134555580Y-70213485D02*
X133555580Y-70213485D01*
X133555580Y-70213485D02*
X133555580Y-69832533D01*
X133555580Y-69832533D02*
X133603200Y-69737295D01*
X133603200Y-69737295D02*
X133650819Y-69689676D01*
X133650819Y-69689676D02*
X133746057Y-69642057D01*
X133746057Y-69642057D02*
X133888914Y-69642057D01*
X133888914Y-69642057D02*
X133984152Y-69689676D01*
X133984152Y-69689676D02*
X134031771Y-69737295D01*
X134031771Y-69737295D02*
X134079390Y-69832533D01*
X134079390Y-69832533D02*
X134079390Y-70213485D01*
X134555580Y-68689676D02*
X134555580Y-69261104D01*
X134555580Y-68975390D02*
X133555580Y-68975390D01*
X133555580Y-68975390D02*
X133698438Y-69070628D01*
X133698438Y-69070628D02*
X133793676Y-69165866D01*
X133793676Y-69165866D02*
X133841295Y-69261104D01*
X133650819Y-68308723D02*
X133603200Y-68261104D01*
X133603200Y-68261104D02*
X133555580Y-68165866D01*
X133555580Y-68165866D02*
X133555580Y-67927771D01*
X133555580Y-67927771D02*
X133603200Y-67832533D01*
X133603200Y-67832533D02*
X133650819Y-67784914D01*
X133650819Y-67784914D02*
X133746057Y-67737295D01*
X133746057Y-67737295D02*
X133841295Y-67737295D01*
X133841295Y-67737295D02*
X133984152Y-67784914D01*
X133984152Y-67784914D02*
X134555580Y-68356342D01*
X134555580Y-68356342D02*
X134555580Y-67737295D01*
%TO.C,C10*%
X128223142Y-89633042D02*
X128175523Y-89680661D01*
X128175523Y-89680661D02*
X128032666Y-89728280D01*
X128032666Y-89728280D02*
X127937428Y-89728280D01*
X127937428Y-89728280D02*
X127794571Y-89680661D01*
X127794571Y-89680661D02*
X127699333Y-89585423D01*
X127699333Y-89585423D02*
X127651714Y-89490185D01*
X127651714Y-89490185D02*
X127604095Y-89299709D01*
X127604095Y-89299709D02*
X127604095Y-89156852D01*
X127604095Y-89156852D02*
X127651714Y-88966376D01*
X127651714Y-88966376D02*
X127699333Y-88871138D01*
X127699333Y-88871138D02*
X127794571Y-88775900D01*
X127794571Y-88775900D02*
X127937428Y-88728280D01*
X127937428Y-88728280D02*
X128032666Y-88728280D01*
X128032666Y-88728280D02*
X128175523Y-88775900D01*
X128175523Y-88775900D02*
X128223142Y-88823519D01*
X129175523Y-89728280D02*
X128604095Y-89728280D01*
X128889809Y-89728280D02*
X128889809Y-88728280D01*
X128889809Y-88728280D02*
X128794571Y-88871138D01*
X128794571Y-88871138D02*
X128699333Y-88966376D01*
X128699333Y-88966376D02*
X128604095Y-89013995D01*
X129794571Y-88728280D02*
X129889809Y-88728280D01*
X129889809Y-88728280D02*
X129985047Y-88775900D01*
X129985047Y-88775900D02*
X130032666Y-88823519D01*
X130032666Y-88823519D02*
X130080285Y-88918757D01*
X130080285Y-88918757D02*
X130127904Y-89109233D01*
X130127904Y-89109233D02*
X130127904Y-89347328D01*
X130127904Y-89347328D02*
X130080285Y-89537804D01*
X130080285Y-89537804D02*
X130032666Y-89633042D01*
X130032666Y-89633042D02*
X129985047Y-89680661D01*
X129985047Y-89680661D02*
X129889809Y-89728280D01*
X129889809Y-89728280D02*
X129794571Y-89728280D01*
X129794571Y-89728280D02*
X129699333Y-89680661D01*
X129699333Y-89680661D02*
X129651714Y-89633042D01*
X129651714Y-89633042D02*
X129604095Y-89537804D01*
X129604095Y-89537804D02*
X129556476Y-89347328D01*
X129556476Y-89347328D02*
X129556476Y-89109233D01*
X129556476Y-89109233D02*
X129604095Y-88918757D01*
X129604095Y-88918757D02*
X129651714Y-88823519D01*
X129651714Y-88823519D02*
X129699333Y-88775900D01*
X129699333Y-88775900D02*
X129794571Y-88728280D01*
%TO.C,R17*%
X126439380Y-69515057D02*
X125963190Y-69848390D01*
X126439380Y-70086485D02*
X125439380Y-70086485D01*
X125439380Y-70086485D02*
X125439380Y-69705533D01*
X125439380Y-69705533D02*
X125487000Y-69610295D01*
X125487000Y-69610295D02*
X125534619Y-69562676D01*
X125534619Y-69562676D02*
X125629857Y-69515057D01*
X125629857Y-69515057D02*
X125772714Y-69515057D01*
X125772714Y-69515057D02*
X125867952Y-69562676D01*
X125867952Y-69562676D02*
X125915571Y-69610295D01*
X125915571Y-69610295D02*
X125963190Y-69705533D01*
X125963190Y-69705533D02*
X125963190Y-70086485D01*
X126439380Y-68562676D02*
X126439380Y-69134104D01*
X126439380Y-68848390D02*
X125439380Y-68848390D01*
X125439380Y-68848390D02*
X125582238Y-68943628D01*
X125582238Y-68943628D02*
X125677476Y-69038866D01*
X125677476Y-69038866D02*
X125725095Y-69134104D01*
X125439380Y-68229342D02*
X125439380Y-67562676D01*
X125439380Y-67562676D02*
X126439380Y-67991247D01*
%TO.C,R5*%
X115175380Y-92114666D02*
X114699190Y-92447999D01*
X115175380Y-92686094D02*
X114175380Y-92686094D01*
X114175380Y-92686094D02*
X114175380Y-92305142D01*
X114175380Y-92305142D02*
X114223000Y-92209904D01*
X114223000Y-92209904D02*
X114270619Y-92162285D01*
X114270619Y-92162285D02*
X114365857Y-92114666D01*
X114365857Y-92114666D02*
X114508714Y-92114666D01*
X114508714Y-92114666D02*
X114603952Y-92162285D01*
X114603952Y-92162285D02*
X114651571Y-92209904D01*
X114651571Y-92209904D02*
X114699190Y-92305142D01*
X114699190Y-92305142D02*
X114699190Y-92686094D01*
X114175380Y-91209904D02*
X114175380Y-91686094D01*
X114175380Y-91686094D02*
X114651571Y-91733713D01*
X114651571Y-91733713D02*
X114603952Y-91686094D01*
X114603952Y-91686094D02*
X114556333Y-91590856D01*
X114556333Y-91590856D02*
X114556333Y-91352761D01*
X114556333Y-91352761D02*
X114603952Y-91257523D01*
X114603952Y-91257523D02*
X114651571Y-91209904D01*
X114651571Y-91209904D02*
X114746809Y-91162285D01*
X114746809Y-91162285D02*
X114984904Y-91162285D01*
X114984904Y-91162285D02*
X115080142Y-91209904D01*
X115080142Y-91209904D02*
X115127761Y-91257523D01*
X115127761Y-91257523D02*
X115175380Y-91352761D01*
X115175380Y-91352761D02*
X115175380Y-91590856D01*
X115175380Y-91590856D02*
X115127761Y-91686094D01*
X115127761Y-91686094D02*
X115080142Y-91733713D01*
%TO.C,SW3*%
X114987161Y-80836232D02*
X115034780Y-80693375D01*
X115034780Y-80693375D02*
X115034780Y-80455280D01*
X115034780Y-80455280D02*
X114987161Y-80360042D01*
X114987161Y-80360042D02*
X114939542Y-80312423D01*
X114939542Y-80312423D02*
X114844304Y-80264804D01*
X114844304Y-80264804D02*
X114749066Y-80264804D01*
X114749066Y-80264804D02*
X114653828Y-80312423D01*
X114653828Y-80312423D02*
X114606209Y-80360042D01*
X114606209Y-80360042D02*
X114558590Y-80455280D01*
X114558590Y-80455280D02*
X114510971Y-80645756D01*
X114510971Y-80645756D02*
X114463352Y-80740994D01*
X114463352Y-80740994D02*
X114415733Y-80788613D01*
X114415733Y-80788613D02*
X114320495Y-80836232D01*
X114320495Y-80836232D02*
X114225257Y-80836232D01*
X114225257Y-80836232D02*
X114130019Y-80788613D01*
X114130019Y-80788613D02*
X114082400Y-80740994D01*
X114082400Y-80740994D02*
X114034780Y-80645756D01*
X114034780Y-80645756D02*
X114034780Y-80407661D01*
X114034780Y-80407661D02*
X114082400Y-80264804D01*
X114034780Y-79931470D02*
X115034780Y-79693375D01*
X115034780Y-79693375D02*
X114320495Y-79502899D01*
X114320495Y-79502899D02*
X115034780Y-79312423D01*
X115034780Y-79312423D02*
X114034780Y-79074328D01*
X114034780Y-78788613D02*
X114034780Y-78169566D01*
X114034780Y-78169566D02*
X114415733Y-78502899D01*
X114415733Y-78502899D02*
X114415733Y-78360042D01*
X114415733Y-78360042D02*
X114463352Y-78264804D01*
X114463352Y-78264804D02*
X114510971Y-78217185D01*
X114510971Y-78217185D02*
X114606209Y-78169566D01*
X114606209Y-78169566D02*
X114844304Y-78169566D01*
X114844304Y-78169566D02*
X114939542Y-78217185D01*
X114939542Y-78217185D02*
X114987161Y-78264804D01*
X114987161Y-78264804D02*
X115034780Y-78360042D01*
X115034780Y-78360042D02*
X115034780Y-78645756D01*
X115034780Y-78645756D02*
X114987161Y-78740994D01*
X114987161Y-78740994D02*
X114939542Y-78788613D01*
%TO.C,R20*%
X127334142Y-87363280D02*
X127000809Y-86887090D01*
X126762714Y-87363280D02*
X126762714Y-86363280D01*
X126762714Y-86363280D02*
X127143666Y-86363280D01*
X127143666Y-86363280D02*
X127238904Y-86410900D01*
X127238904Y-86410900D02*
X127286523Y-86458519D01*
X127286523Y-86458519D02*
X127334142Y-86553757D01*
X127334142Y-86553757D02*
X127334142Y-86696614D01*
X127334142Y-86696614D02*
X127286523Y-86791852D01*
X127286523Y-86791852D02*
X127238904Y-86839471D01*
X127238904Y-86839471D02*
X127143666Y-86887090D01*
X127143666Y-86887090D02*
X126762714Y-86887090D01*
X127715095Y-86458519D02*
X127762714Y-86410900D01*
X127762714Y-86410900D02*
X127857952Y-86363280D01*
X127857952Y-86363280D02*
X128096047Y-86363280D01*
X128096047Y-86363280D02*
X128191285Y-86410900D01*
X128191285Y-86410900D02*
X128238904Y-86458519D01*
X128238904Y-86458519D02*
X128286523Y-86553757D01*
X128286523Y-86553757D02*
X128286523Y-86648995D01*
X128286523Y-86648995D02*
X128238904Y-86791852D01*
X128238904Y-86791852D02*
X127667476Y-87363280D01*
X127667476Y-87363280D02*
X128286523Y-87363280D01*
X128905571Y-86363280D02*
X129000809Y-86363280D01*
X129000809Y-86363280D02*
X129096047Y-86410900D01*
X129096047Y-86410900D02*
X129143666Y-86458519D01*
X129143666Y-86458519D02*
X129191285Y-86553757D01*
X129191285Y-86553757D02*
X129238904Y-86744233D01*
X129238904Y-86744233D02*
X129238904Y-86982328D01*
X129238904Y-86982328D02*
X129191285Y-87172804D01*
X129191285Y-87172804D02*
X129143666Y-87268042D01*
X129143666Y-87268042D02*
X129096047Y-87315661D01*
X129096047Y-87315661D02*
X129000809Y-87363280D01*
X129000809Y-87363280D02*
X128905571Y-87363280D01*
X128905571Y-87363280D02*
X128810333Y-87315661D01*
X128810333Y-87315661D02*
X128762714Y-87268042D01*
X128762714Y-87268042D02*
X128715095Y-87172804D01*
X128715095Y-87172804D02*
X128667476Y-86982328D01*
X128667476Y-86982328D02*
X128667476Y-86744233D01*
X128667476Y-86744233D02*
X128715095Y-86553757D01*
X128715095Y-86553757D02*
X128762714Y-86458519D01*
X128762714Y-86458519D02*
X128810333Y-86410900D01*
X128810333Y-86410900D02*
X128905571Y-86363280D01*
D13*
%TO.C,R18*%
X144626000Y-122708936D02*
X144626000Y-123163064D01*
X143156000Y-122708936D02*
X143156000Y-123163064D01*
%TO.C,R16*%
X138533200Y-71754636D02*
X138533200Y-72208764D01*
X140003200Y-71754636D02*
X140003200Y-72208764D01*
%TO.C,R22*%
X170715000Y-72617064D02*
X170715000Y-72162936D01*
X172185000Y-72617064D02*
X172185000Y-72162936D01*
D12*
%TO.C,T1*%
X161680966Y-94705000D02*
X163439034Y-94705000D01*
X161680966Y-99605000D02*
X161680966Y-94705000D01*
D10*
X163439034Y-94705000D02*
X163439034Y-99605000D01*
D12*
X163439034Y-99605000D02*
X161680966Y-99605000D01*
D14*
X158581900Y-95250000D02*
G75*
G03*
X158581900Y-95250000I-125000J0D01*
G01*
D13*
%TO.C,D1*%
X172185000Y-65701000D02*
X170715000Y-65701000D01*
X170715000Y-65701000D02*
X170715000Y-67986000D01*
X172185000Y-67986000D02*
X172185000Y-65701000D01*
%TO.C,SW1*%
X141980800Y-74177600D02*
X140597800Y-74177600D01*
X141980800Y-74177600D02*
X141980800Y-75561600D01*
X141740800Y-74417600D02*
X129280800Y-74417600D01*
X141740800Y-74417600D02*
X141740800Y-84317600D01*
X129280800Y-74417600D02*
X129280800Y-84317600D01*
X139955800Y-77337600D02*
X138685800Y-77337600D01*
X139835800Y-77337600D02*
X139835800Y-78690933D01*
X139715800Y-77337600D02*
X139715800Y-78690933D01*
X139595800Y-77337600D02*
X139595800Y-78690933D01*
X139475800Y-77337600D02*
X139475800Y-78690933D01*
X139355800Y-77337600D02*
X139355800Y-78690933D01*
X139235800Y-77337600D02*
X139235800Y-78690933D01*
X139115800Y-77337600D02*
X139115800Y-78690933D01*
X138995800Y-77337600D02*
X138995800Y-78690933D01*
X138875800Y-77337600D02*
X138875800Y-78690933D01*
X138755800Y-77337600D02*
X138755800Y-78690933D01*
X138685800Y-77337600D02*
X138685800Y-81397600D01*
X137415800Y-77337600D02*
X136145800Y-77337600D01*
X137295800Y-77337600D02*
X137295800Y-78690933D01*
X137175800Y-77337600D02*
X137175800Y-78690933D01*
X137055800Y-77337600D02*
X137055800Y-78690933D01*
X136935800Y-77337600D02*
X136935800Y-78690933D01*
X136815800Y-77337600D02*
X136815800Y-78690933D01*
X136695800Y-77337600D02*
X136695800Y-78690933D01*
X136575800Y-77337600D02*
X136575800Y-78690933D01*
X136455800Y-77337600D02*
X136455800Y-78690933D01*
X136335800Y-77337600D02*
X136335800Y-78690933D01*
X136215800Y-77337600D02*
X136215800Y-78690933D01*
X136145800Y-77337600D02*
X136145800Y-81397600D01*
X134875800Y-77337600D02*
X133605800Y-77337600D01*
X134755800Y-77337600D02*
X134755800Y-78690933D01*
X134635800Y-77337600D02*
X134635800Y-78690933D01*
X134515800Y-77337600D02*
X134515800Y-78690933D01*
X134395800Y-77337600D02*
X134395800Y-78690933D01*
X134275800Y-77337600D02*
X134275800Y-78690933D01*
X134155800Y-77337600D02*
X134155800Y-78690933D01*
X134035800Y-77337600D02*
X134035800Y-78690933D01*
X133915800Y-77337600D02*
X133915800Y-78690933D01*
X133795800Y-77337600D02*
X133795800Y-78690933D01*
X133675800Y-77337600D02*
X133675800Y-78690933D01*
X133605800Y-77337600D02*
X133605800Y-81397600D01*
X132335800Y-77337600D02*
X131065800Y-77337600D01*
X132215800Y-77337600D02*
X132215800Y-78690933D01*
X132095800Y-77337600D02*
X132095800Y-78690933D01*
X131975800Y-77337600D02*
X131975800Y-78690933D01*
X131855800Y-77337600D02*
X131855800Y-78690933D01*
X131735800Y-77337600D02*
X131735800Y-78690933D01*
X131615800Y-77337600D02*
X131615800Y-78690933D01*
X131495800Y-77337600D02*
X131495800Y-78690933D01*
X131375800Y-77337600D02*
X131375800Y-78690933D01*
X131255800Y-77337600D02*
X131255800Y-78690933D01*
X131135800Y-77337600D02*
X131135800Y-78690933D01*
X131065800Y-77337600D02*
X131065800Y-81397600D01*
X139955800Y-78690933D02*
X138685800Y-78690933D01*
X137415800Y-78690933D02*
X136145800Y-78690933D01*
X134875800Y-78690933D02*
X133605800Y-78690933D01*
X132335800Y-78690933D02*
X131065800Y-78690933D01*
X139955800Y-81397600D02*
X139955800Y-77337600D01*
X138685800Y-81397600D02*
X139955800Y-81397600D01*
X137415800Y-81397600D02*
X137415800Y-77337600D01*
X136145800Y-81397600D02*
X137415800Y-81397600D01*
X134875800Y-81397600D02*
X134875800Y-77337600D01*
X133605800Y-81397600D02*
X134875800Y-81397600D01*
X132335800Y-81397600D02*
X132335800Y-77337600D01*
X131065800Y-81397600D02*
X132335800Y-81397600D01*
X141740800Y-84317600D02*
X129280800Y-84317600D01*
%TO.C,R15*%
X122797000Y-71754636D02*
X122797000Y-72208764D01*
X124267000Y-71754636D02*
X124267000Y-72208764D01*
%TO.C,J9*%
X149435000Y-72870000D02*
X150765000Y-72870000D01*
X149435000Y-74200000D02*
X149435000Y-72870000D01*
X149435000Y-75470000D02*
X149435000Y-80610000D01*
X149435000Y-75470000D02*
X152035000Y-75470000D01*
X149435000Y-80610000D02*
X154635000Y-80610000D01*
X152035000Y-72870000D02*
X154635000Y-72870000D01*
X152035000Y-75470000D02*
X152035000Y-72870000D01*
X154635000Y-72870000D02*
X154635000Y-80610000D01*
%TO.C,J7*%
X131040666Y-62198000D02*
X131040666Y-58198000D01*
X130750666Y-63228000D02*
X130750666Y-57208000D01*
X130750666Y-57208000D02*
X122910666Y-57208000D01*
X130170666Y-63228000D02*
X130170666Y-62628000D01*
X130170666Y-62628000D02*
X128570666Y-62628000D01*
X129370666Y-58208000D02*
X129120666Y-58738000D01*
X129370666Y-58208000D02*
X124290666Y-58208000D01*
X129370666Y-57208000D02*
X129370666Y-58208000D01*
X129120666Y-58738000D02*
X124540666Y-58738000D01*
X129120666Y-57208000D02*
X129120666Y-58208000D01*
X128570666Y-62628000D02*
X128570666Y-63228000D01*
X127630666Y-63228000D02*
X127630666Y-62628000D01*
X127630666Y-62628000D02*
X126030666Y-62628000D01*
X126030666Y-62628000D02*
X126030666Y-63228000D01*
X125090666Y-63228000D02*
X125090666Y-62628000D01*
X125090666Y-62628000D02*
X123490666Y-62628000D01*
X124540666Y-58738000D02*
X124290666Y-58208000D01*
X124540666Y-57208000D02*
X124540666Y-58208000D01*
X124290666Y-58208000D02*
X124290666Y-57208000D01*
X123490666Y-62628000D02*
X123490666Y-63228000D01*
X122910666Y-63228000D02*
X130750666Y-63228000D01*
X122910666Y-57208000D02*
X122910666Y-63228000D01*
%TO.C,C7*%
X151688852Y-85644400D02*
X150266348Y-85644400D01*
X151688852Y-83824400D02*
X150266348Y-83824400D01*
%TO.C,R10*%
X130913200Y-71754636D02*
X130913200Y-72208764D01*
X132383200Y-71754636D02*
X132383200Y-72208764D01*
D10*
%TO.C,B1*%
X134047000Y-118283000D02*
X134047000Y-116758000D01*
D13*
%TO.C,U1*%
X124499000Y-93432000D02*
X119858000Y-93432000D01*
X124499000Y-93432000D02*
X124499000Y-103672000D01*
X122989000Y-93432000D02*
X122989000Y-103672000D01*
X119858000Y-93432000D02*
X119858000Y-103672000D01*
X124499000Y-96702000D02*
X122989000Y-96702000D01*
X124499000Y-100403000D02*
X122989000Y-100403000D01*
X124499000Y-103672000D02*
X119858000Y-103672000D01*
%TO.C,C2A1*%
X147165748Y-103230000D02*
X148588252Y-103230000D01*
X147165748Y-105050000D02*
X148588252Y-105050000D01*
D12*
%TO.C,U2*%
X164185000Y-88275000D02*
X164185000Y-88050000D01*
X164185000Y-88275000D02*
X163860000Y-88275000D01*
X164185000Y-88050000D02*
X165610000Y-88050000D01*
X164185000Y-81025000D02*
X164185000Y-81350000D01*
X164185000Y-81025000D02*
X163860000Y-81025000D01*
X156935000Y-88275000D02*
X157260000Y-88275000D01*
X156935000Y-88275000D02*
X156935000Y-87950000D01*
X156935000Y-81025000D02*
X157260000Y-81025000D01*
X156935000Y-81025000D02*
X156935000Y-81350000D01*
D13*
%TO.C,R9*%
X133348400Y-117959136D02*
X133348400Y-118413264D01*
X131878400Y-117959136D02*
X131878400Y-118413264D01*
%TO.C,C11*%
X116343748Y-88498900D02*
X117766252Y-88498900D01*
X116343748Y-90318900D02*
X117766252Y-90318900D01*
%TO.C,C3*%
X138939748Y-108818000D02*
X140362252Y-108818000D01*
X138939748Y-110638000D02*
X140362252Y-110638000D01*
%TO.C,R3*%
X156752936Y-90530000D02*
X158207064Y-90530000D01*
X156752936Y-92350000D02*
X158207064Y-92350000D01*
%TO.C,R19*%
X133167764Y-87603900D02*
X132713636Y-87603900D01*
X133167764Y-86133900D02*
X132713636Y-86133900D01*
%TO.C,C9*%
X132218748Y-88498900D02*
X133641252Y-88498900D01*
X132218748Y-90318900D02*
X133641252Y-90318900D01*
%TO.C,C5*%
X117114252Y-99462000D02*
X115691748Y-99462000D01*
X117114252Y-97642000D02*
X115691748Y-97642000D01*
%TO.C,R11*%
X117717000Y-71754636D02*
X117717000Y-72208764D01*
X119187000Y-71754636D02*
X119187000Y-72208764D01*
%TO.C,R6*%
X116938000Y-94715064D02*
X116938000Y-94260936D01*
X118408000Y-94715064D02*
X118408000Y-94260936D01*
%TO.C,R14*%
X135993200Y-71754636D02*
X135993200Y-72208764D01*
X137463200Y-71754636D02*
X137463200Y-72208764D01*
%TO.C,R1*%
X141022400Y-123163064D02*
X141022400Y-122708936D01*
X142492400Y-123163064D02*
X142492400Y-122708936D01*
%TO.C,C2B1*%
X145442252Y-110638000D02*
X144019748Y-110638000D01*
X145442252Y-108818000D02*
X144019748Y-108818000D01*
%TO.C,R21*%
X117296764Y-87603900D02*
X116842636Y-87603900D01*
X117296764Y-86133900D02*
X116842636Y-86133900D01*
%TO.C,SW2*%
X128782800Y-74177600D02*
X127399800Y-74177600D01*
X128782800Y-74177600D02*
X128782800Y-75561600D01*
X128542800Y-74417600D02*
X116082800Y-74417600D01*
X128542800Y-74417600D02*
X128542800Y-84317600D01*
X116082800Y-74417600D02*
X116082800Y-84317600D01*
X126757800Y-77337600D02*
X125487800Y-77337600D01*
X126637800Y-77337600D02*
X126637800Y-78690933D01*
X126517800Y-77337600D02*
X126517800Y-78690933D01*
X126397800Y-77337600D02*
X126397800Y-78690933D01*
X126277800Y-77337600D02*
X126277800Y-78690933D01*
X126157800Y-77337600D02*
X126157800Y-78690933D01*
X126037800Y-77337600D02*
X126037800Y-78690933D01*
X125917800Y-77337600D02*
X125917800Y-78690933D01*
X125797800Y-77337600D02*
X125797800Y-78690933D01*
X125677800Y-77337600D02*
X125677800Y-78690933D01*
X125557800Y-77337600D02*
X125557800Y-78690933D01*
X125487800Y-77337600D02*
X125487800Y-81397600D01*
X124217800Y-77337600D02*
X122947800Y-77337600D01*
X124097800Y-77337600D02*
X124097800Y-78690933D01*
X123977800Y-77337600D02*
X123977800Y-78690933D01*
X123857800Y-77337600D02*
X123857800Y-78690933D01*
X123737800Y-77337600D02*
X123737800Y-78690933D01*
X123617800Y-77337600D02*
X123617800Y-78690933D01*
X123497800Y-77337600D02*
X123497800Y-78690933D01*
X123377800Y-77337600D02*
X123377800Y-78690933D01*
X123257800Y-77337600D02*
X123257800Y-78690933D01*
X123137800Y-77337600D02*
X123137800Y-78690933D01*
X123017800Y-77337600D02*
X123017800Y-78690933D01*
X122947800Y-77337600D02*
X122947800Y-81397600D01*
X121677800Y-77337600D02*
X120407800Y-77337600D01*
X121557800Y-77337600D02*
X121557800Y-78690933D01*
X121437800Y-77337600D02*
X121437800Y-78690933D01*
X121317800Y-77337600D02*
X121317800Y-78690933D01*
X121197800Y-77337600D02*
X121197800Y-78690933D01*
X121077800Y-77337600D02*
X121077800Y-78690933D01*
X120957800Y-77337600D02*
X120957800Y-78690933D01*
X120837800Y-77337600D02*
X120837800Y-78690933D01*
X120717800Y-77337600D02*
X120717800Y-78690933D01*
X120597800Y-77337600D02*
X120597800Y-78690933D01*
X120477800Y-77337600D02*
X120477800Y-78690933D01*
X120407800Y-77337600D02*
X120407800Y-81397600D01*
X119137800Y-77337600D02*
X117867800Y-77337600D01*
X119017800Y-77337600D02*
X119017800Y-78690933D01*
X118897800Y-77337600D02*
X118897800Y-78690933D01*
X118777800Y-77337600D02*
X118777800Y-78690933D01*
X118657800Y-77337600D02*
X118657800Y-78690933D01*
X118537800Y-77337600D02*
X118537800Y-78690933D01*
X118417800Y-77337600D02*
X118417800Y-78690933D01*
X118297800Y-77337600D02*
X118297800Y-78690933D01*
X118177800Y-77337600D02*
X118177800Y-78690933D01*
X118057800Y-77337600D02*
X118057800Y-78690933D01*
X117937800Y-77337600D02*
X117937800Y-78690933D01*
X117867800Y-77337600D02*
X117867800Y-81397600D01*
X126757800Y-78690933D02*
X125487800Y-78690933D01*
X124217800Y-78690933D02*
X122947800Y-78690933D01*
X121677800Y-78690933D02*
X120407800Y-78690933D01*
X119137800Y-78690933D02*
X117867800Y-78690933D01*
X126757800Y-81397600D02*
X126757800Y-77337600D01*
X125487800Y-81397600D02*
X126757800Y-81397600D01*
X124217800Y-81397600D02*
X124217800Y-77337600D01*
X122947800Y-81397600D02*
X124217800Y-81397600D01*
X121677800Y-81397600D02*
X121677800Y-77337600D01*
X120407800Y-81397600D02*
X121677800Y-81397600D01*
X119137800Y-81397600D02*
X119137800Y-77337600D01*
X117867800Y-81397600D02*
X119137800Y-81397600D01*
X128542800Y-84317600D02*
X116082800Y-84317600D01*
%TO.C,J5*%
X152546000Y-62178000D02*
X152546000Y-58178000D01*
X152256000Y-63208000D02*
X152256000Y-57188000D01*
X152256000Y-57188000D02*
X144416000Y-57188000D01*
X151676000Y-63208000D02*
X151676000Y-62608000D01*
X151676000Y-62608000D02*
X150076000Y-62608000D01*
X150876000Y-58188000D02*
X150626000Y-58718000D01*
X150876000Y-58188000D02*
X145796000Y-58188000D01*
X150876000Y-57188000D02*
X150876000Y-58188000D01*
X150626000Y-58718000D02*
X146046000Y-58718000D01*
X150626000Y-57188000D02*
X150626000Y-58188000D01*
X150076000Y-62608000D02*
X150076000Y-63208000D01*
X149136000Y-63208000D02*
X149136000Y-62608000D01*
X149136000Y-62608000D02*
X147536000Y-62608000D01*
X147536000Y-62608000D02*
X147536000Y-63208000D01*
X146596000Y-63208000D02*
X146596000Y-62608000D01*
X146596000Y-62608000D02*
X144996000Y-62608000D01*
X146046000Y-58718000D02*
X145796000Y-58188000D01*
X146046000Y-57188000D02*
X146046000Y-58188000D01*
X145796000Y-58188000D02*
X145796000Y-57188000D01*
X144996000Y-62608000D02*
X144996000Y-63208000D01*
X144416000Y-63208000D02*
X152256000Y-63208000D01*
X144416000Y-57188000D02*
X144416000Y-63208000D01*
%TO.C,C1*%
X140475580Y-120525000D02*
X140194420Y-120525000D01*
X140475580Y-119505000D02*
X140194420Y-119505000D01*
%TO.C,R7*%
X136806000Y-120750064D02*
X136806000Y-120295936D01*
X138276000Y-120750064D02*
X138276000Y-120295936D01*
%TO.C,L1*%
X144847000Y-108002000D02*
X136847000Y-108002000D01*
X144847000Y-101802000D02*
X136847000Y-101802000D01*
D10*
%TO.C,J2*%
X111459000Y-110275000D02*
X111459000Y-110275000D01*
X111559000Y-110275000D02*
X111559000Y-110275000D01*
X112014000Y-106555000D02*
X129794000Y-106555000D01*
X112014000Y-127125000D02*
X112014000Y-106555000D01*
X129794000Y-106555000D02*
X129794000Y-127125000D01*
X129794000Y-127125000D02*
X112014000Y-127125000D01*
X111559000Y-110275000D02*
G75*
G03*
X111459000Y-110275000I-50000J0D01*
G01*
X111459000Y-110275000D02*
G75*
G03*
X111559000Y-110275000I50000J0D01*
G01*
D13*
%TO.C,J4*%
X155826000Y-58218000D02*
X155826000Y-62218000D01*
X156116000Y-57188000D02*
X156116000Y-63208000D01*
X156116000Y-63208000D02*
X166496000Y-63208000D01*
X156696000Y-57188000D02*
X156696000Y-57788000D01*
X156696000Y-57788000D02*
X158296000Y-57788000D01*
X157496000Y-62208000D02*
X157746000Y-61678000D01*
X157496000Y-62208000D02*
X165116000Y-62208000D01*
X157496000Y-63208000D02*
X157496000Y-62208000D01*
X157746000Y-61678000D02*
X164866000Y-61678000D01*
X157746000Y-63208000D02*
X157746000Y-62208000D01*
X158296000Y-57788000D02*
X158296000Y-57188000D01*
X159236000Y-57188000D02*
X159236000Y-57788000D01*
X159236000Y-57788000D02*
X160836000Y-57788000D01*
X160836000Y-57788000D02*
X160836000Y-57188000D01*
X161776000Y-57188000D02*
X161776000Y-57788000D01*
X161776000Y-57788000D02*
X163376000Y-57788000D01*
X163376000Y-57788000D02*
X163376000Y-57188000D01*
X164316000Y-57188000D02*
X164316000Y-57788000D01*
X164316000Y-57788000D02*
X165916000Y-57788000D01*
X164866000Y-61678000D02*
X165116000Y-62208000D01*
X164866000Y-63208000D02*
X164866000Y-62208000D01*
X165116000Y-62208000D02*
X165116000Y-63208000D01*
X165916000Y-57788000D02*
X165916000Y-57188000D01*
X166496000Y-57188000D02*
X156116000Y-57188000D01*
X166496000Y-63208000D02*
X166496000Y-57188000D01*
D10*
%TO.C,J1*%
X149051000Y-110275000D02*
X149051000Y-110275000D01*
X149151000Y-110275000D02*
X149151000Y-110275000D01*
X149606000Y-106555000D02*
X167386000Y-106555000D01*
X149606000Y-127125000D02*
X149606000Y-106555000D01*
X167386000Y-106555000D02*
X167386000Y-127125000D01*
X167386000Y-127125000D02*
X149606000Y-127125000D01*
X149151000Y-110275000D02*
G75*
G03*
X149051000Y-110275000I-50000J0D01*
G01*
X149051000Y-110275000D02*
G75*
G03*
X149151000Y-110275000I50000J0D01*
G01*
D13*
%TO.C,J8*%
X120288000Y-62198000D02*
X120288000Y-58198000D01*
X119998000Y-63228000D02*
X119998000Y-57208000D01*
X119998000Y-57208000D02*
X112158000Y-57208000D01*
X119418000Y-63228000D02*
X119418000Y-62628000D01*
X119418000Y-62628000D02*
X117818000Y-62628000D01*
X118618000Y-58208000D02*
X118368000Y-58738000D01*
X118618000Y-58208000D02*
X113538000Y-58208000D01*
X118618000Y-57208000D02*
X118618000Y-58208000D01*
X118368000Y-58738000D02*
X113788000Y-58738000D01*
X118368000Y-57208000D02*
X118368000Y-58208000D01*
X117818000Y-62628000D02*
X117818000Y-63228000D01*
X116878000Y-63228000D02*
X116878000Y-62628000D01*
X116878000Y-62628000D02*
X115278000Y-62628000D01*
X115278000Y-62628000D02*
X115278000Y-63228000D01*
X114338000Y-63228000D02*
X114338000Y-62628000D01*
X114338000Y-62628000D02*
X112738000Y-62628000D01*
X113788000Y-58738000D02*
X113538000Y-58208000D01*
X113788000Y-57208000D02*
X113788000Y-58208000D01*
X113538000Y-58208000D02*
X113538000Y-57208000D01*
X112738000Y-62628000D02*
X112738000Y-63228000D01*
X112158000Y-63228000D02*
X119998000Y-63228000D01*
X112158000Y-57208000D02*
X112158000Y-63228000D01*
%TO.C,J6*%
X141793332Y-62178000D02*
X141793332Y-58178000D01*
X141503332Y-63208000D02*
X141503332Y-57188000D01*
X141503332Y-57188000D02*
X133663332Y-57188000D01*
X140923332Y-63208000D02*
X140923332Y-62608000D01*
X140923332Y-62608000D02*
X139323332Y-62608000D01*
X140123332Y-58188000D02*
X139873332Y-58718000D01*
X140123332Y-58188000D02*
X135043332Y-58188000D01*
X140123332Y-57188000D02*
X140123332Y-58188000D01*
X139873332Y-58718000D02*
X135293332Y-58718000D01*
X139873332Y-57188000D02*
X139873332Y-58188000D01*
X139323332Y-62608000D02*
X139323332Y-63208000D01*
X138383332Y-63208000D02*
X138383332Y-62608000D01*
X138383332Y-62608000D02*
X136783332Y-62608000D01*
X136783332Y-62608000D02*
X136783332Y-63208000D01*
X135843332Y-63208000D02*
X135843332Y-62608000D01*
X135843332Y-62608000D02*
X134243332Y-62608000D01*
X135293332Y-58718000D02*
X135043332Y-58188000D01*
X135293332Y-57188000D02*
X135293332Y-58188000D01*
X135043332Y-58188000D02*
X135043332Y-57188000D01*
X134243332Y-62608000D02*
X134243332Y-63208000D01*
X133663332Y-63208000D02*
X141503332Y-63208000D01*
X133663332Y-57188000D02*
X133663332Y-63208000D01*
%TO.C,J3*%
X128464000Y-96072000D02*
X128464000Y-94742000D01*
X129794000Y-96072000D02*
X128464000Y-96072000D01*
X131064000Y-96072000D02*
X136204000Y-96072000D01*
X131064000Y-96072000D02*
X131064000Y-93412000D01*
X136204000Y-96072000D02*
X136204000Y-93412000D01*
X131064000Y-93412000D02*
X136204000Y-93412000D01*
%TO.C,R8*%
X132234000Y-122020064D02*
X132234000Y-121565936D01*
X133704000Y-122020064D02*
X133704000Y-121565936D01*
D15*
%TO.C,Y1*%
X169276000Y-83965200D02*
X170576000Y-83965200D01*
X169276000Y-80525200D02*
X170576000Y-80525200D01*
D16*
X170026000Y-84465200D02*
G75*
G03*
X170026000Y-84465200I-100000J0D01*
G01*
D13*
%TO.C,C4*%
X117043252Y-104542000D02*
X115620748Y-104542000D01*
X117043252Y-102722000D02*
X115620748Y-102722000D01*
%TO.C,C8*%
X162307748Y-74528000D02*
X163730252Y-74528000D01*
X162307748Y-76348000D02*
X163730252Y-76348000D01*
%TO.C,R4*%
X167921000Y-97255064D02*
X167921000Y-96800936D01*
X169391000Y-97255064D02*
X169391000Y-96800936D01*
%TO.C,R2*%
X138888800Y-123163064D02*
X138888800Y-122708936D01*
X140358800Y-123163064D02*
X140358800Y-122708936D01*
%TO.C,C2*%
X133957748Y-108818000D02*
X135380252Y-108818000D01*
X133957748Y-110638000D02*
X135380252Y-110638000D01*
%TO.C,C6*%
X134349000Y-121869252D02*
X134349000Y-120446748D01*
X136169000Y-121869252D02*
X136169000Y-120446748D01*
%TO.C,R13*%
X120257000Y-71754636D02*
X120257000Y-72208764D01*
X121727000Y-71754636D02*
X121727000Y-72208764D01*
D10*
%TO.C,H1*%
X158930000Y-72019000D02*
X158930000Y-68019000D01*
X164158000Y-72019000D02*
X164158000Y-68019000D01*
X158944000Y-74119000D02*
G75*
G03*
X158944000Y-74119000I-100000J0D01*
G01*
D13*
%TO.C,R12*%
X133453200Y-71754636D02*
X133453200Y-72208764D01*
X134923200Y-71754636D02*
X134923200Y-72208764D01*
%TO.C,C10*%
X125767252Y-90318900D02*
X124344748Y-90318900D01*
X125767252Y-88498900D02*
X124344748Y-88498900D01*
%TO.C,R17*%
X125337000Y-71754636D02*
X125337000Y-72208764D01*
X126807000Y-71754636D02*
X126807000Y-72208764D01*
%TO.C,R5*%
X115614000Y-94260936D02*
X115614000Y-94715064D01*
X114144000Y-94260936D02*
X114144000Y-94715064D01*
%TO.C,SW3*%
X115600200Y-74177600D02*
X114217200Y-74177600D01*
X115600200Y-74177600D02*
X115600200Y-75561600D01*
X115360200Y-74417600D02*
X110520200Y-74417600D01*
X115360200Y-74417600D02*
X115360200Y-84317600D01*
X110520200Y-74417600D02*
X110520200Y-84317600D01*
X113575200Y-77337600D02*
X112305200Y-77337600D01*
X113455200Y-77337600D02*
X113455200Y-78690933D01*
X113335200Y-77337600D02*
X113335200Y-78690933D01*
X113215200Y-77337600D02*
X113215200Y-78690933D01*
X113095200Y-77337600D02*
X113095200Y-78690933D01*
X112975200Y-77337600D02*
X112975200Y-78690933D01*
X112855200Y-77337600D02*
X112855200Y-78690933D01*
X112735200Y-77337600D02*
X112735200Y-78690933D01*
X112615200Y-77337600D02*
X112615200Y-78690933D01*
X112495200Y-77337600D02*
X112495200Y-78690933D01*
X112375200Y-77337600D02*
X112375200Y-78690933D01*
X112305200Y-77337600D02*
X112305200Y-81397600D01*
X113575200Y-78690933D02*
X112305200Y-78690933D01*
X113575200Y-81397600D02*
X113575200Y-77337600D01*
X112305200Y-81397600D02*
X113575200Y-81397600D01*
X115360200Y-84317600D02*
X110520200Y-84317600D01*
%TO.C,R20*%
X124839636Y-86133900D02*
X125293764Y-86133900D01*
X124839636Y-87603900D02*
X125293764Y-87603900D01*
%TD*%
%LPC*%
D17*
%TO.C,REF\u002A\u002A*%
X173950000Y-119540000D03*
%TD*%
%TO.C,REF\u002A\u002A*%
X105450000Y-119540000D03*
%TD*%
%TO.C,REF\u002A\u002A*%
X105450000Y-63340000D03*
%TD*%
D18*
%TO.C,FAB\u002A\u002A*%
X176174400Y-127914400D03*
%TD*%
%TO.C,FAB\u002A\u002A*%
X103225600Y-127914400D03*
%TD*%
%TO.C,FAB\u002A\u002A*%
X176174400Y-54965600D03*
%TD*%
D19*
%TO.C,R18*%
X143891000Y-122023500D03*
X143891000Y-123848500D03*
%TD*%
%TO.C,R16*%
X139268200Y-72894200D03*
X139268200Y-71069200D03*
%TD*%
D20*
%TO.C,R22*%
X171450000Y-73302500D03*
X171450000Y-71477500D03*
%TD*%
D21*
%TO.C,T1*%
X160243933Y-95250000D03*
D22*
X160243933Y-96520000D03*
X160243933Y-97790000D03*
X160243933Y-99060000D03*
X164876067Y-99060000D03*
X164876067Y-97790000D03*
X164876067Y-96520000D03*
X164876067Y-95250000D03*
%TD*%
D23*
%TO.C,D1*%
X171450000Y-66398500D03*
X171450000Y-67973500D03*
%TD*%
D24*
%TO.C,SW1*%
X139320800Y-75557600D03*
D25*
X136780799Y-75557599D03*
X134240799Y-75557599D03*
X131700799Y-75557599D03*
X131700799Y-83177599D03*
X134240799Y-83177599D03*
X136780799Y-83177599D03*
X139320799Y-83177599D03*
%TD*%
D19*
%TO.C,R15*%
X123532000Y-72894200D03*
X123532000Y-71069200D03*
%TD*%
D26*
%TO.C,J9*%
X150765000Y-74200000D03*
D27*
X153304999Y-74199999D03*
X150764999Y-76739999D03*
X153304999Y-76739999D03*
X150764999Y-79279999D03*
X153304999Y-79279999D03*
%TD*%
D28*
%TO.C,J7*%
X129370666Y-60198000D03*
D29*
X126830665Y-60197999D03*
X124290665Y-60197999D03*
%TD*%
D30*
%TO.C,C7*%
X152452600Y-84734400D03*
X149502600Y-84734400D03*
%TD*%
D19*
%TO.C,R10*%
X131648200Y-72894200D03*
X131648200Y-71069200D03*
%TD*%
D31*
%TO.C,B1*%
X134747000Y-117520000D03*
X136017000Y-117520000D03*
X137287000Y-117520000D03*
X138557000Y-117520000D03*
X138557000Y-112096000D03*
X137287000Y-112096000D03*
X136017000Y-112096000D03*
X134747000Y-112096000D03*
D32*
X136652000Y-114808000D03*
%TD*%
D33*
%TO.C,U1*%
X121229000Y-96012000D03*
D34*
X121228999Y-98551999D03*
X121228999Y-101091999D03*
%TD*%
D35*
%TO.C,C2A1*%
X146402000Y-104140000D03*
X149352000Y-104140000D03*
%TD*%
D36*
%TO.C,U2*%
X164810000Y-87450000D03*
X164810000Y-86650000D03*
X164810000Y-85850000D03*
X164810000Y-85050000D03*
X164810000Y-84250000D03*
X164810000Y-83450000D03*
X164810000Y-82650000D03*
X164810000Y-81850000D03*
D37*
X163360000Y-80400000D03*
X162560000Y-80400000D03*
X161760000Y-80400000D03*
X160960000Y-80400000D03*
X160160000Y-80400000D03*
X159360000Y-80400000D03*
X158560000Y-80400000D03*
X157760000Y-80400000D03*
D36*
X156310000Y-81850000D03*
X156310000Y-82650000D03*
X156310000Y-83450000D03*
X156310000Y-84250000D03*
X156310000Y-85050000D03*
X156310000Y-85850000D03*
X156310000Y-86650000D03*
X156310000Y-87450000D03*
D37*
X157760000Y-88900000D03*
X158560000Y-88900000D03*
X159360000Y-88900000D03*
X160160000Y-88900000D03*
X160960000Y-88900000D03*
X161760000Y-88900000D03*
X162560000Y-88900000D03*
X163360000Y-88900000D03*
%TD*%
D19*
%TO.C,R9*%
X132613400Y-117273700D03*
X132613400Y-119098700D03*
%TD*%
D35*
%TO.C,C11*%
X115580000Y-89408900D03*
X118530000Y-89408900D03*
%TD*%
%TO.C,C3*%
X138176000Y-109728000D03*
X141126000Y-109728000D03*
%TD*%
D38*
%TO.C,R3*%
X156017500Y-91440000D03*
X158942500Y-91440000D03*
%TD*%
D39*
%TO.C,R19*%
X133853200Y-86868900D03*
X132028200Y-86868900D03*
%TD*%
D35*
%TO.C,C9*%
X131455000Y-89408900D03*
X134405000Y-89408900D03*
%TD*%
D30*
%TO.C,C5*%
X117878000Y-98552000D03*
X114928000Y-98552000D03*
%TD*%
D19*
%TO.C,R11*%
X118452000Y-72894200D03*
X118452000Y-71069200D03*
%TD*%
D20*
%TO.C,R6*%
X117673000Y-95400500D03*
X117673000Y-93575500D03*
%TD*%
D19*
%TO.C,R14*%
X136728200Y-72894200D03*
X136728200Y-71069200D03*
%TD*%
D20*
%TO.C,R1*%
X141757400Y-123848500D03*
X141757400Y-122023500D03*
%TD*%
D40*
%TO.C,REF\u002A\u002A*%
X172800000Y-124540000D03*
%TD*%
D30*
%TO.C,C2B1*%
X146206000Y-109728000D03*
X143256000Y-109728000D03*
%TD*%
D39*
%TO.C,R21*%
X117982200Y-86868900D03*
X116157200Y-86868900D03*
%TD*%
D24*
%TO.C,SW2*%
X126122800Y-75557600D03*
D25*
X123582799Y-75557599D03*
X121042799Y-75557599D03*
X118502799Y-75557599D03*
X118502799Y-83177599D03*
X121042799Y-83177599D03*
X123582799Y-83177599D03*
X126122799Y-83177599D03*
%TD*%
D28*
%TO.C,J5*%
X150876000Y-60178000D03*
D29*
X148335999Y-60177999D03*
X145795999Y-60177999D03*
%TD*%
D41*
%TO.C,C1*%
X141110000Y-120015000D03*
X139560000Y-120015000D03*
%TD*%
D20*
%TO.C,R7*%
X137541000Y-121435500D03*
X137541000Y-119610500D03*
%TD*%
D42*
%TO.C,L1*%
X143622000Y-104902000D03*
X138072000Y-104902000D03*
%TD*%
D43*
%TO.C,J2*%
X115189000Y-116625000D03*
X126619000Y-116625000D03*
D44*
X116459000Y-110275000D03*
D45*
X117729000Y-107735000D03*
X118999000Y-110275000D03*
X120269000Y-107735000D03*
X121539000Y-110275000D03*
X122809000Y-107735000D03*
X124079000Y-110275000D03*
X125349000Y-107735000D03*
%TD*%
D46*
%TO.C,J4*%
X157496000Y-60218000D03*
D29*
X160035999Y-60217999D03*
X162575999Y-60217999D03*
X165115999Y-60217999D03*
%TD*%
D43*
%TO.C,J1*%
X152781000Y-116625000D03*
X164211000Y-116625000D03*
D44*
X154051000Y-110275000D03*
D45*
X155321000Y-107735000D03*
X156591000Y-110275000D03*
X157861000Y-107735000D03*
X159131000Y-110275000D03*
X160401000Y-107735000D03*
X161671000Y-110275000D03*
X162941000Y-107735000D03*
%TD*%
D28*
%TO.C,J8*%
X118618000Y-60198000D03*
D29*
X116077999Y-60197999D03*
X113537999Y-60197999D03*
%TD*%
D28*
%TO.C,J6*%
X140123332Y-60178000D03*
D29*
X137583331Y-60177999D03*
X135043331Y-60177999D03*
%TD*%
D47*
%TO.C,J3*%
X129794000Y-94742000D03*
D27*
X132333999Y-94741999D03*
X134873999Y-94741999D03*
%TD*%
D20*
%TO.C,R8*%
X132969000Y-122705500D03*
X132969000Y-120880500D03*
%TD*%
D48*
%TO.C,Y1*%
X169926000Y-83445200D03*
X169926000Y-82245200D03*
X169926000Y-81045200D03*
%TD*%
D40*
%TO.C,REF\u002A\u002A*%
X106600000Y-58340000D03*
%TD*%
D30*
%TO.C,C4*%
X117807000Y-103632000D03*
X114857000Y-103632000D03*
%TD*%
D35*
%TO.C,C8*%
X161544000Y-75438000D03*
X164494000Y-75438000D03*
%TD*%
D40*
%TO.C,REF\u002A\u002A*%
X106600000Y-124540000D03*
%TD*%
D20*
%TO.C,R4*%
X168656000Y-97940500D03*
X168656000Y-96115500D03*
%TD*%
%TO.C,R2*%
X139623800Y-123848500D03*
X139623800Y-122023500D03*
%TD*%
D40*
%TO.C,REF\u002A\u002A*%
X172800000Y-58340000D03*
%TD*%
D35*
%TO.C,C2*%
X133194000Y-109728000D03*
X136144000Y-109728000D03*
%TD*%
D49*
%TO.C,C6*%
X135259000Y-122633000D03*
X135259000Y-119683000D03*
%TD*%
D19*
%TO.C,R13*%
X120992000Y-72894200D03*
X120992000Y-71069200D03*
%TD*%
D50*
%TO.C,H1*%
X159544000Y-72644000D03*
X160544000Y-72644000D03*
X161544000Y-72644000D03*
X162544000Y-72644000D03*
X163544000Y-72644000D03*
X163544000Y-67394000D03*
X162544000Y-67394000D03*
X161544000Y-67394000D03*
X160544000Y-67394000D03*
X159544000Y-67394000D03*
%TD*%
D19*
%TO.C,R12*%
X134188200Y-72894200D03*
X134188200Y-71069200D03*
%TD*%
D30*
%TO.C,C10*%
X126531000Y-89408900D03*
X123581000Y-89408900D03*
%TD*%
D19*
%TO.C,R17*%
X126072000Y-72894200D03*
X126072000Y-71069200D03*
%TD*%
%TO.C,R5*%
X114879000Y-93575500D03*
X114879000Y-95400500D03*
%TD*%
D24*
%TO.C,SW3*%
X112940200Y-75557600D03*
D25*
X112940199Y-83177599D03*
%TD*%
D51*
%TO.C,R20*%
X124154200Y-86868900D03*
X125979200Y-86868900D03*
%TD*%
M02*
