%TF.GenerationSoftware,KiCad,Pcbnew,(7.0.0)*%
%TF.CreationDate,2023-03-10T18:22:28-08:00*%
%TF.ProjectId,smeza_pcb,736d657a-615f-4706-9362-2e6b69636164,rev?*%
%TF.SameCoordinates,Original*%
%TF.FileFunction,Soldermask,Top*%
%TF.FilePolarity,Negative*%
%FSLAX46Y46*%
G04 Gerber Fmt 4.6, Leading zero omitted, Abs format (unit mm)*
G04 Created by KiCad (PCBNEW (7.0.0)) date 2023-03-10 18:22:28*
%MOMM*%
%LPD*%
G01*
G04 APERTURE LIST*
G04 Aperture macros list*
%AMRoundRect*
0 Rectangle with rounded corners*
0 $1 Rounding radius*
0 $2 $3 $4 $5 $6 $7 $8 $9 X,Y pos of 4 corners*
0 Add a 4 corners polygon primitive as box body*
4,1,4,$2,$3,$4,$5,$6,$7,$8,$9,$2,$3,0*
0 Add four circle primitives for the rounded corners*
1,1,$1+$1,$2,$3*
1,1,$1+$1,$4,$5*
1,1,$1+$1,$6,$7*
1,1,$1+$1,$8,$9*
0 Add four rect primitives between the rounded corners*
20,1,$1+$1,$2,$3,$4,$5,0*
20,1,$1+$1,$4,$5,$6,$7,0*
20,1,$1+$1,$6,$7,$8,$9,0*
20,1,$1+$1,$8,$9,$2,$3,0*%
G04 Aperture macros list end*
%ADD10RoundRect,0.300000X-0.450000X0.262500X-0.450000X-0.262500X0.450000X-0.262500X0.450000X0.262500X0*%
%ADD11RoundRect,0.300000X0.450000X-0.262500X0.450000X0.262500X-0.450000X0.262500X-0.450000X-0.262500X0*%
%ADD12RoundRect,0.050000X-0.937033X-0.271066X0.937033X-0.271066X0.937033X0.271066X-0.937033X0.271066X0*%
%ADD13RoundRect,0.321066X-0.665967X0.000000X0.665967X0.000000X0.665967X0.000000X-0.665967X0.000000X0*%
%ADD14RoundRect,0.268750X-0.256250X0.218750X-0.256250X-0.218750X0.256250X-0.218750X0.256250X0.218750X0*%
%ADD15RoundRect,0.050000X-0.800000X0.800000X-0.800000X-0.800000X0.800000X-0.800000X0.800000X0.800000X0*%
%ADD16O,1.700000X1.700000*%
%ADD17RoundRect,0.050000X-0.850000X-0.850000X0.850000X-0.850000X0.850000X0.850000X-0.850000X0.850000X0*%
%ADD18O,1.800000X1.800000*%
%ADD19RoundRect,0.300000X0.620000X0.845000X-0.620000X0.845000X-0.620000X-0.845000X0.620000X-0.845000X0*%
%ADD20O,1.840000X2.290000*%
%ADD21RoundRect,0.300000X0.325000X0.650000X-0.325000X0.650000X-0.325000X-0.650000X0.325000X-0.650000X0*%
%ADD22RoundRect,0.050000X0.350000X0.762500X-0.350000X0.762500X-0.350000X-0.762500X0.350000X-0.762500X0*%
%ADD23RoundRect,0.050000X1.725000X-1.280000X1.725000X1.280000X-1.725000X1.280000X-1.725000X-1.280000X0*%
%ADD24RoundRect,0.050000X-1.000000X0.952500X-1.000000X-0.952500X1.000000X-0.952500X1.000000X0.952500X0*%
%ADD25O,2.100000X2.005000*%
%ADD26RoundRect,0.300000X-0.325000X-0.650000X0.325000X-0.650000X0.325000X0.650000X-0.325000X0.650000X0*%
%ADD27RoundRect,0.050000X0.800000X0.275000X-0.800000X0.275000X-0.800000X-0.275000X0.800000X-0.275000X0*%
%ADD28RoundRect,0.050000X-0.275000X0.800000X-0.275000X-0.800000X0.275000X-0.800000X0.275000X0.800000X0*%
%ADD29RoundRect,0.300000X-0.312500X-0.625000X0.312500X-0.625000X0.312500X0.625000X-0.312500X0.625000X0*%
%ADD30RoundRect,0.300000X0.262500X0.450000X-0.262500X0.450000X-0.262500X-0.450000X0.262500X-0.450000X0*%
%ADD31C,5.700000*%
%ADD32RoundRect,0.275000X0.225000X0.250000X-0.225000X0.250000X-0.225000X-0.250000X0.225000X-0.250000X0*%
%ADD33RoundRect,0.050000X1.225000X2.950000X-1.225000X2.950000X-1.225000X-2.950000X1.225000X-2.950000X0*%
%ADD34C,3.350000*%
%ADD35RoundRect,0.050000X-0.700000X-0.700000X0.700000X-0.700000X0.700000X0.700000X-0.700000X0.700000X0*%
%ADD36C,1.500000*%
%ADD37RoundRect,0.300000X-0.620000X-0.845000X0.620000X-0.845000X0.620000X0.845000X-0.620000X0.845000X0*%
%ADD38RoundRect,0.050000X0.850000X-0.850000X0.850000X0.850000X-0.850000X0.850000X-0.850000X-0.850000X0*%
%ADD39RoundRect,0.050000X0.950000X-0.200000X0.950000X0.200000X-0.950000X0.200000X-0.950000X-0.200000X0*%
%ADD40RoundRect,0.300000X0.650000X-0.325000X0.650000X0.325000X-0.650000X0.325000X-0.650000X-0.325000X0*%
%ADD41RoundRect,0.092000X0.258000X-0.788000X0.258000X0.788000X-0.258000X0.788000X-0.258000X-0.788000X0*%
%ADD42RoundRect,0.300000X-0.262500X-0.450000X0.262500X-0.450000X0.262500X0.450000X-0.262500X0.450000X0*%
G04 APERTURE END LIST*
D10*
%TO.C,R18*%
X143891000Y-122023500D03*
X143891000Y-123848500D03*
%TD*%
%TO.C,R16*%
X133604000Y-69761000D03*
X133604000Y-71586000D03*
%TD*%
D11*
%TO.C,R22*%
X171450000Y-73302500D03*
X171450000Y-71477500D03*
%TD*%
D12*
%TO.C,T1*%
X160243933Y-95250000D03*
D13*
X160243933Y-96520000D03*
X160243933Y-97790000D03*
X160243933Y-99060000D03*
X164876067Y-99060000D03*
X164876067Y-97790000D03*
X164876067Y-96520000D03*
X164876067Y-95250000D03*
%TD*%
D14*
%TO.C,D1*%
X171450000Y-66398500D03*
X171450000Y-67973500D03*
%TD*%
D15*
%TO.C,SW1*%
X133771800Y-75556700D03*
D16*
X131231799Y-75556699D03*
X128691799Y-75556699D03*
X126151799Y-75556699D03*
X126151799Y-83176699D03*
X128691799Y-83176699D03*
X131231799Y-83176699D03*
X133771799Y-83176699D03*
%TD*%
D10*
%TO.C,R15*%
X118364000Y-69761000D03*
X118364000Y-71586000D03*
%TD*%
D17*
%TO.C,J9*%
X150765000Y-74200000D03*
D18*
X153304999Y-74199999D03*
X150764999Y-76739999D03*
X153304999Y-76739999D03*
X150764999Y-79279999D03*
X153304999Y-79279999D03*
%TD*%
D19*
%TO.C,J7*%
X129370666Y-60198000D03*
D20*
X126830665Y-60197999D03*
X124290665Y-60197999D03*
%TD*%
D21*
%TO.C,C7*%
X152452600Y-84734400D03*
X149502600Y-84734400D03*
%TD*%
D10*
%TO.C,R10*%
X125984000Y-69761000D03*
X125984000Y-71586000D03*
%TD*%
D22*
%TO.C,B1*%
X134747000Y-117520000D03*
X136017000Y-117520000D03*
X137287000Y-117520000D03*
X138557000Y-117520000D03*
X138557000Y-112096000D03*
X137287000Y-112096000D03*
X136017000Y-112096000D03*
X134747000Y-112096000D03*
D23*
X136652000Y-114808000D03*
%TD*%
D24*
%TO.C,U1*%
X121229000Y-96012000D03*
D25*
X121228999Y-98551999D03*
X121228999Y-101091999D03*
%TD*%
D26*
%TO.C,C2A1*%
X146402000Y-104140000D03*
X149352000Y-104140000D03*
%TD*%
D27*
%TO.C,U2*%
X164810000Y-87450000D03*
X164810000Y-86650000D03*
X164810000Y-85850000D03*
X164810000Y-85050000D03*
X164810000Y-84250000D03*
X164810000Y-83450000D03*
X164810000Y-82650000D03*
X164810000Y-81850000D03*
D28*
X163360000Y-80400000D03*
X162560000Y-80400000D03*
X161760000Y-80400000D03*
X160960000Y-80400000D03*
X160160000Y-80400000D03*
X159360000Y-80400000D03*
X158560000Y-80400000D03*
X157760000Y-80400000D03*
D27*
X156310000Y-81850000D03*
X156310000Y-82650000D03*
X156310000Y-83450000D03*
X156310000Y-84250000D03*
X156310000Y-85050000D03*
X156310000Y-85850000D03*
X156310000Y-86650000D03*
X156310000Y-87450000D03*
D28*
X157760000Y-88900000D03*
X158560000Y-88900000D03*
X159360000Y-88900000D03*
X160160000Y-88900000D03*
X160960000Y-88900000D03*
X161760000Y-88900000D03*
X162560000Y-88900000D03*
X163360000Y-88900000D03*
%TD*%
D10*
%TO.C,R9*%
X132715000Y-117324500D03*
X132715000Y-119149500D03*
%TD*%
D26*
%TO.C,C11*%
X110031000Y-89408000D03*
X112981000Y-89408000D03*
%TD*%
%TO.C,C3*%
X138176000Y-109728000D03*
X141126000Y-109728000D03*
%TD*%
D29*
%TO.C,R3*%
X156017500Y-91440000D03*
X158942500Y-91440000D03*
%TD*%
D30*
%TO.C,R19*%
X128304200Y-86868000D03*
X126479200Y-86868000D03*
%TD*%
D26*
%TO.C,C9*%
X125906000Y-89408000D03*
X128856000Y-89408000D03*
%TD*%
D21*
%TO.C,C5*%
X117878000Y-98552000D03*
X114928000Y-98552000D03*
%TD*%
D10*
%TO.C,R11*%
X113284000Y-69761000D03*
X113284000Y-71586000D03*
%TD*%
D11*
%TO.C,R6*%
X117673000Y-95400500D03*
X117673000Y-93575500D03*
%TD*%
D10*
%TO.C,R14*%
X131064000Y-69761000D03*
X131064000Y-71586000D03*
%TD*%
D11*
%TO.C,R1*%
X141859000Y-123848500D03*
X141859000Y-122023500D03*
%TD*%
D31*
%TO.C,REF\u002A\u002A*%
X172800000Y-124540000D03*
%TD*%
D21*
%TO.C,C2B1*%
X146206000Y-109728000D03*
X143256000Y-109728000D03*
%TD*%
D30*
%TO.C,R21*%
X112433200Y-86868000D03*
X110608200Y-86868000D03*
%TD*%
D15*
%TO.C,SW2*%
X120573800Y-75556700D03*
D16*
X118033799Y-75556699D03*
X115493799Y-75556699D03*
X112953799Y-75556699D03*
X112953799Y-83176699D03*
X115493799Y-83176699D03*
X118033799Y-83176699D03*
X120573799Y-83176699D03*
%TD*%
D19*
%TO.C,J5*%
X150876000Y-60178000D03*
D20*
X148335999Y-60177999D03*
X145795999Y-60177999D03*
%TD*%
D32*
%TO.C,C1*%
X141110000Y-120015000D03*
X139560000Y-120015000D03*
%TD*%
D11*
%TO.C,R7*%
X137541000Y-121435500D03*
X137541000Y-119610500D03*
%TD*%
D33*
%TO.C,L1*%
X143622000Y-104902000D03*
X138072000Y-104902000D03*
%TD*%
D34*
%TO.C,J2*%
X115189000Y-116625000D03*
X126619000Y-116625000D03*
D35*
X116459000Y-110275000D03*
D36*
X117729000Y-107735000D03*
X118999000Y-110275000D03*
X120269000Y-107735000D03*
X121539000Y-110275000D03*
X122809000Y-107735000D03*
X124079000Y-110275000D03*
X125349000Y-107735000D03*
%TD*%
D37*
%TO.C,J4*%
X157496000Y-60218000D03*
D20*
X160035999Y-60217999D03*
X162575999Y-60217999D03*
X165115999Y-60217999D03*
%TD*%
D34*
%TO.C,J1*%
X152781000Y-116625000D03*
X164211000Y-116625000D03*
D35*
X154051000Y-110275000D03*
D36*
X155321000Y-107735000D03*
X156591000Y-110275000D03*
X157861000Y-107735000D03*
X159131000Y-110275000D03*
X160401000Y-107735000D03*
X161671000Y-110275000D03*
X162941000Y-107735000D03*
%TD*%
D19*
%TO.C,J8*%
X118618000Y-60198000D03*
D20*
X116077999Y-60197999D03*
X113537999Y-60197999D03*
%TD*%
D19*
%TO.C,J6*%
X140123332Y-60178000D03*
D20*
X137583331Y-60177999D03*
X135043331Y-60177999D03*
%TD*%
D38*
%TO.C,J3*%
X129794000Y-94742000D03*
D18*
X132333999Y-94741999D03*
X134873999Y-94741999D03*
%TD*%
D11*
%TO.C,R8*%
X132969000Y-122705500D03*
X132969000Y-120880500D03*
%TD*%
D39*
%TO.C,Y1*%
X169926000Y-83445200D03*
X169926000Y-82245200D03*
X169926000Y-81045200D03*
%TD*%
D31*
%TO.C,REF\u002A\u002A*%
X106600000Y-58340000D03*
%TD*%
D21*
%TO.C,C4*%
X117807000Y-103632000D03*
X114857000Y-103632000D03*
%TD*%
D26*
%TO.C,C8*%
X161544000Y-75438000D03*
X164494000Y-75438000D03*
%TD*%
D31*
%TO.C,REF\u002A\u002A*%
X106600000Y-124540000D03*
%TD*%
D11*
%TO.C,R4*%
X168656000Y-97940500D03*
X168656000Y-96115500D03*
%TD*%
%TO.C,R2*%
X139827000Y-123848500D03*
X139827000Y-122023500D03*
%TD*%
D31*
%TO.C,REF\u002A\u002A*%
X172800000Y-58340000D03*
%TD*%
D26*
%TO.C,C2*%
X133194000Y-109728000D03*
X136144000Y-109728000D03*
%TD*%
D40*
%TO.C,C6*%
X135259000Y-122633000D03*
X135259000Y-119683000D03*
%TD*%
D10*
%TO.C,R13*%
X115824000Y-69761000D03*
X115824000Y-71586000D03*
%TD*%
D41*
%TO.C,H1*%
X159544000Y-72644000D03*
X160544000Y-72644000D03*
X161544000Y-72644000D03*
X162544000Y-72644000D03*
X163544000Y-72644000D03*
X163544000Y-67394000D03*
X162544000Y-67394000D03*
X161544000Y-67394000D03*
X160544000Y-67394000D03*
X159544000Y-67394000D03*
%TD*%
D10*
%TO.C,R12*%
X128524000Y-69761000D03*
X128524000Y-71586000D03*
%TD*%
D21*
%TO.C,C10*%
X120982000Y-89408000D03*
X118032000Y-89408000D03*
%TD*%
D10*
%TO.C,R17*%
X120904000Y-69761000D03*
X120904000Y-71586000D03*
%TD*%
%TO.C,R5*%
X114879000Y-93575500D03*
X114879000Y-95400500D03*
%TD*%
D15*
%TO.C,SW3*%
X107391200Y-75556700D03*
D16*
X107391199Y-83176699D03*
%TD*%
D42*
%TO.C,R20*%
X118605200Y-86868000D03*
X120430200Y-86868000D03*
%TD*%
M02*
